%TF.GenerationSoftware,KiCad,Pcbnew,9.0.4*%
%TF.CreationDate,2025-09-15T17:12:10-07:00*%
%TF.ProjectId,motordriver,6d6f746f-7264-4726-9976-65722e6b6963,rev?*%
%TF.SameCoordinates,Original*%
%TF.FileFunction,Copper,L1,Top*%
%TF.FilePolarity,Positive*%
%FSLAX46Y46*%
G04 Gerber Fmt 4.6, Leading zero omitted, Abs format (unit mm)*
G04 Created by KiCad (PCBNEW 9.0.4) date 2025-09-15 17:12:10*
%MOMM*%
%LPD*%
G01*
G04 APERTURE LIST*
G04 Aperture macros list*
%AMRoundRect*
0 Rectangle with rounded corners*
0 $1 Rounding radius*
0 $2 $3 $4 $5 $6 $7 $8 $9 X,Y pos of 4 corners*
0 Add a 4 corners polygon primitive as box body*
4,1,4,$2,$3,$4,$5,$6,$7,$8,$9,$2,$3,0*
0 Add four circle primitives for the rounded corners*
1,1,$1+$1,$2,$3*
1,1,$1+$1,$4,$5*
1,1,$1+$1,$6,$7*
1,1,$1+$1,$8,$9*
0 Add four rect primitives between the rounded corners*
20,1,$1+$1,$2,$3,$4,$5,0*
20,1,$1+$1,$4,$5,$6,$7,0*
20,1,$1+$1,$6,$7,$8,$9,0*
20,1,$1+$1,$8,$9,$2,$3,0*%
G04 Aperture macros list end*
%TA.AperFunction,ComponentPad*%
%ADD10C,1.600000*%
%TD*%
%TA.AperFunction,ComponentPad*%
%ADD11RoundRect,0.250000X-0.550000X0.550000X-0.550000X-0.550000X0.550000X-0.550000X0.550000X0.550000X0*%
%TD*%
%TA.AperFunction,ComponentPad*%
%ADD12O,3.600000X2.000000*%
%TD*%
%TA.AperFunction,ComponentPad*%
%ADD13RoundRect,0.250000X1.550000X-0.750000X1.550000X0.750000X-1.550000X0.750000X-1.550000X-0.750000X0*%
%TD*%
%TA.AperFunction,ComponentPad*%
%ADD14O,2.000000X3.600000*%
%TD*%
%TA.AperFunction,ComponentPad*%
%ADD15RoundRect,0.250000X-0.750000X-1.550000X0.750000X-1.550000X0.750000X1.550000X-0.750000X1.550000X0*%
%TD*%
%TA.AperFunction,ComponentPad*%
%ADD16RoundRect,0.249999X0.850001X0.850001X-0.850001X0.850001X-0.850001X-0.850001X0.850001X-0.850001X0*%
%TD*%
%TA.AperFunction,ComponentPad*%
%ADD17C,2.200000*%
%TD*%
%TA.AperFunction,ComponentPad*%
%ADD18RoundRect,0.250000X0.550000X0.550000X-0.550000X0.550000X-0.550000X-0.550000X0.550000X-0.550000X0*%
%TD*%
%TA.AperFunction,ComponentPad*%
%ADD19RoundRect,0.250000X0.550000X-0.550000X0.550000X0.550000X-0.550000X0.550000X-0.550000X-0.550000X0*%
%TD*%
%TA.AperFunction,ComponentPad*%
%ADD20R,1.905000X2.000000*%
%TD*%
%TA.AperFunction,ComponentPad*%
%ADD21O,1.905000X2.000000*%
%TD*%
%TA.AperFunction,ComponentPad*%
%ADD22RoundRect,0.249999X-0.850001X0.850001X-0.850001X-0.850001X0.850001X-0.850001X0.850001X0.850001X0*%
%TD*%
%TA.AperFunction,ComponentPad*%
%ADD23R,1.700000X1.700000*%
%TD*%
%TA.AperFunction,ComponentPad*%
%ADD24C,1.700000*%
%TD*%
%TA.AperFunction,ViaPad*%
%ADD25C,0.800000*%
%TD*%
%TA.AperFunction,Conductor*%
%ADD26C,0.300000*%
%TD*%
%TA.AperFunction,Conductor*%
%ADD27C,1.000000*%
%TD*%
%TA.AperFunction,Conductor*%
%ADD28C,2.000000*%
%TD*%
G04 APERTURE END LIST*
D10*
%TO.P,C5,2*%
%TO.N,/VOUT1*%
X35000000Y-29000000D03*
D11*
%TO.P,C5,1*%
%TO.N,Net-(D2-K)*%
X35000000Y-26500000D03*
%TD*%
D10*
%TO.P,R1,2*%
%TO.N,GND*%
X14000000Y-20080000D03*
%TO.P,R1,1*%
%TO.N,/HIN2*%
X14000000Y-9920000D03*
%TD*%
%TO.P,R2,2*%
%TO.N,GND*%
X10000000Y-9920000D03*
%TO.P,R2,1*%
%TO.N,/LIN2*%
X10000000Y-20080000D03*
%TD*%
%TO.P,R4,2*%
%TO.N,GND*%
X10000000Y-27920000D03*
%TO.P,R4,1*%
%TO.N,/LIN1*%
X10000000Y-38080000D03*
%TD*%
%TO.P,R3,2*%
%TO.N,GND*%
X14050000Y-38080000D03*
%TO.P,R3,1*%
%TO.N,/HIN1*%
X14050000Y-27920000D03*
%TD*%
%TO.P,R12,2*%
%TO.N,GND*%
X73840000Y-6160000D03*
%TO.P,R12,1*%
%TO.N,Net-(D6-A)*%
X63680000Y-6160000D03*
%TD*%
%TO.P,C6,1*%
%TO.N,Net-(D1-K)*%
X29000000Y-8000000D03*
%TO.P,C6,2*%
%TO.N,/VOUT2*%
X29000000Y-13000000D03*
%TD*%
D11*
%TO.P,C4,1*%
%TO.N,Net-(D1-K)*%
X35000000Y-9000000D03*
D10*
%TO.P,C4,2*%
%TO.N,/VOUT2*%
X35000000Y-11500000D03*
%TD*%
D12*
%TO.P,J3,2,Pin_2*%
%TO.N,/VOUT2*%
X76700000Y-24500000D03*
D13*
%TO.P,J3,1,Pin_1*%
%TO.N,/VOUT1*%
X76700000Y-29500000D03*
%TD*%
D10*
%TO.P,C7,1*%
%TO.N,Net-(D2-K)*%
X29000000Y-25500000D03*
%TO.P,C7,2*%
%TO.N,/VOUT1*%
X29000000Y-30500000D03*
%TD*%
D14*
%TO.P,J2,2,Pin_2*%
%TO.N,GND*%
X39550000Y-43350000D03*
D15*
%TO.P,J2,1,Pin_1*%
%TO.N,+24V*%
X34550000Y-43350000D03*
%TD*%
D10*
%TO.P,R5,1*%
%TO.N,/HO1*%
X60160000Y-44000000D03*
%TO.P,R5,2*%
%TO.N,Net-(D3-A)*%
X50000000Y-44000000D03*
%TD*%
D16*
%TO.P,D4,1,K*%
%TO.N,/LO1*%
X73160000Y-44000000D03*
D17*
%TO.P,D4,2,A*%
%TO.N,Net-(D4-A)*%
X63000000Y-44000000D03*
%TD*%
D10*
%TO.P,R6,1*%
%TO.N,/LO1*%
X73080000Y-40000000D03*
%TO.P,R6,2*%
%TO.N,Net-(D4-A)*%
X62920000Y-40000000D03*
%TD*%
D18*
%TO.P,U2,1,LO*%
%TO.N,/LO1*%
X24805000Y-39620000D03*
D10*
%TO.P,U2,2,COM*%
%TO.N,GND*%
X24805000Y-37080000D03*
%TO.P,U2,3,VCC*%
%TO.N,+24V*%
X24805000Y-34540000D03*
%TO.P,U2,4,NC*%
%TO.N,unconnected-(U2-NC-Pad4)*%
X24805000Y-32000000D03*
%TO.P,U2,5,VS*%
%TO.N,/VOUT1*%
X24805000Y-29460000D03*
%TO.P,U2,6,VB*%
%TO.N,Net-(D2-K)*%
X24805000Y-26920000D03*
%TO.P,U2,7,HO*%
%TO.N,/HO1*%
X24805000Y-24380000D03*
%TO.P,U2,8,NC*%
%TO.N,unconnected-(U2-NC-Pad8)*%
X17185000Y-24380000D03*
%TO.P,U2,9,VDD*%
%TO.N,VDD*%
X17185000Y-26920000D03*
%TO.P,U2,10,HIN*%
%TO.N,/HIN1*%
X17185000Y-29460000D03*
%TO.P,U2,11,SD*%
%TO.N,GND*%
X17185000Y-32000000D03*
%TO.P,U2,12,LIN*%
%TO.N,/LIN1*%
X17185000Y-34540000D03*
%TO.P,U2,13,VSS*%
%TO.N,GND*%
X17185000Y-37080000D03*
%TO.P,U2,14,NC*%
%TO.N,unconnected-(U2-NC-Pad14)*%
X17185000Y-39620000D03*
%TD*%
D18*
%TO.P,U1,1,LO*%
%TO.N,/LO2*%
X25000000Y-20700000D03*
D10*
%TO.P,U1,2,COM*%
%TO.N,GND*%
X25000000Y-18160000D03*
%TO.P,U1,3,VCC*%
%TO.N,+24V*%
X25000000Y-15620000D03*
%TO.P,U1,4,NC*%
%TO.N,unconnected-(U1-NC-Pad4)*%
X25000000Y-13080000D03*
%TO.P,U1,5,VS*%
%TO.N,/VOUT2*%
X25000000Y-10540000D03*
%TO.P,U1,6,VB*%
%TO.N,Net-(D1-K)*%
X25000000Y-8000000D03*
%TO.P,U1,7,HO*%
%TO.N,/HO2*%
X25000000Y-5460000D03*
%TO.P,U1,8,NC*%
%TO.N,unconnected-(U1-NC-Pad8)*%
X17380000Y-5460000D03*
%TO.P,U1,9,VDD*%
%TO.N,VDD*%
X17380000Y-8000000D03*
%TO.P,U1,10,HIN*%
%TO.N,/HIN2*%
X17380000Y-10540000D03*
%TO.P,U1,11,SD*%
%TO.N,GND*%
X17380000Y-13080000D03*
%TO.P,U1,12,LIN*%
%TO.N,/LIN2*%
X17380000Y-15620000D03*
%TO.P,U1,13,VSS*%
%TO.N,GND*%
X17380000Y-18160000D03*
%TO.P,U1,14,NC*%
%TO.N,unconnected-(U1-NC-Pad14)*%
X17380000Y-20700000D03*
%TD*%
%TO.P,R8,1*%
%TO.N,Net-(D4-A)*%
X62920000Y-48000000D03*
%TO.P,R8,2*%
%TO.N,GND*%
X73080000Y-48000000D03*
%TD*%
%TO.P,R10,1*%
%TO.N,/LO2*%
X74000000Y-14000000D03*
%TO.P,R10,2*%
%TO.N,Net-(D6-A)*%
X63840000Y-14000000D03*
%TD*%
D16*
%TO.P,D3,1,K*%
%TO.N,/HO1*%
X60080000Y-48000000D03*
D17*
%TO.P,D3,2,A*%
%TO.N,Net-(D3-A)*%
X49920000Y-48000000D03*
%TD*%
D19*
%TO.P,C1,1*%
%TO.N,VDD*%
X4000000Y-17420000D03*
D10*
%TO.P,C1,2*%
%TO.N,GND*%
X4000000Y-14920000D03*
%TD*%
D20*
%TO.P,Q2,1,G*%
%TO.N,Net-(D4-A)*%
X62960000Y-35900000D03*
D21*
%TO.P,Q2,2,D*%
%TO.N,/VOUT1*%
X65500000Y-35900000D03*
%TO.P,Q2,3,S*%
%TO.N,GND*%
X68040000Y-35900000D03*
%TD*%
D22*
%TO.P,D2,1,K*%
%TO.N,Net-(D2-K)*%
X40975000Y-25115000D03*
D17*
%TO.P,D2,2,A*%
%TO.N,+24V*%
X40975000Y-35275000D03*
%TD*%
D10*
%TO.P,C3,1*%
%TO.N,VDD*%
X14500000Y-6080000D03*
%TO.P,C3,2*%
%TO.N,GND*%
X9500000Y-6080000D03*
%TD*%
%TO.P,R9,1*%
%TO.N,/HO2*%
X60000000Y-9840000D03*
%TO.P,R9,2*%
%TO.N,Net-(D5-A)*%
X49840000Y-9840000D03*
%TD*%
D23*
%TO.P,J1,1,Pin_1*%
%TO.N,VDD*%
X2000000Y-23380000D03*
D24*
%TO.P,J1,2,Pin_2*%
%TO.N,GND*%
X2000000Y-25920000D03*
%TO.P,J1,3,Pin_3*%
%TO.N,/HIN2*%
X2000000Y-28460000D03*
%TO.P,J1,4,Pin_4*%
%TO.N,/LIN2*%
X2000000Y-31000000D03*
%TO.P,J1,5,Pin_5*%
%TO.N,/HIN1*%
X2000000Y-33540000D03*
%TO.P,J1,6,Pin_6*%
%TO.N,/LIN1*%
X2000000Y-36080000D03*
%TD*%
D20*
%TO.P,Q4,1,G*%
%TO.N,Net-(D6-A)*%
X62920000Y-19840000D03*
D21*
%TO.P,Q4,2,D*%
%TO.N,/VOUT2*%
X65460000Y-19840000D03*
%TO.P,Q4,3,S*%
%TO.N,GND*%
X68000000Y-19840000D03*
%TD*%
D10*
%TO.P,R11,1*%
%TO.N,Net-(D5-A)*%
X50000000Y-13840000D03*
%TO.P,R11,2*%
%TO.N,/VOUT2*%
X60160000Y-13840000D03*
%TD*%
D16*
%TO.P,D5,1,K*%
%TO.N,/HO2*%
X60160000Y-5840000D03*
D17*
%TO.P,D5,2,A*%
%TO.N,Net-(D5-A)*%
X50000000Y-5840000D03*
%TD*%
D20*
%TO.P,Q1,1,G*%
%TO.N,Net-(D3-A)*%
X51960000Y-35850000D03*
D21*
%TO.P,Q1,2,D*%
%TO.N,+24V*%
X54500000Y-35850000D03*
%TO.P,Q1,3,S*%
%TO.N,/VOUT1*%
X57040000Y-35850000D03*
%TD*%
D16*
%TO.P,D6,1,K*%
%TO.N,/LO2*%
X74000000Y-10000000D03*
D17*
%TO.P,D6,2,A*%
%TO.N,Net-(D6-A)*%
X63840000Y-10000000D03*
%TD*%
D10*
%TO.P,C2,1*%
%TO.N,VDD*%
X14500000Y-24000000D03*
%TO.P,C2,2*%
%TO.N,GND*%
X9500000Y-24000000D03*
%TD*%
D22*
%TO.P,D1,1,K*%
%TO.N,Net-(D1-K)*%
X41000000Y-8000000D03*
D17*
%TO.P,D1,2,A*%
%TO.N,+24V*%
X41000000Y-18160000D03*
%TD*%
D20*
%TO.P,Q3,1,G*%
%TO.N,Net-(D5-A)*%
X51920000Y-19840000D03*
D21*
%TO.P,Q3,2,D*%
%TO.N,+24V*%
X54460000Y-19840000D03*
%TO.P,Q3,3,S*%
%TO.N,/VOUT2*%
X57000000Y-19840000D03*
%TD*%
D10*
%TO.P,R7,1*%
%TO.N,Net-(D3-A)*%
X50000000Y-40000000D03*
%TO.P,R7,2*%
%TO.N,/VOUT1*%
X60160000Y-40000000D03*
%TD*%
D25*
%TO.N,GND*%
X72000000Y-39000000D03*
X72000000Y-41500000D03*
X72000000Y-46500000D03*
X72000000Y-49000000D03*
X22000000Y-36500000D03*
X22000000Y-29000000D03*
X32000000Y-26500000D03*
X32000000Y-29000000D03*
X29500000Y-29000000D03*
X27000000Y-31500000D03*
X32000000Y-31500000D03*
X34500000Y-31500000D03*
X37000000Y-31500000D03*
X39500000Y-31500000D03*
X42000000Y-31500000D03*
X42000000Y-29000000D03*
X39500000Y-29000000D03*
X37000000Y-24000000D03*
X34500000Y-24000000D03*
X32000000Y-24000000D03*
X29500000Y-21500000D03*
X29500000Y-24000000D03*
X27000000Y-24000000D03*
X27000000Y-21500000D03*
X39500000Y-46500000D03*
X42000000Y-46500000D03*
X2000000Y-46500000D03*
X4500000Y-46500000D03*
X7000000Y-46500000D03*
X7000000Y-51500000D03*
X9500000Y-51500000D03*
X12000000Y-51500000D03*
X27000000Y-49000000D03*
X29500000Y-51500000D03*
X27000000Y-51500000D03*
X24500000Y-51500000D03*
X22000000Y-41500000D03*
X19500000Y-41500000D03*
X17000000Y-41500000D03*
X14500000Y-41500000D03*
X9500000Y-41500000D03*
X12000000Y-41500000D03*
X4500000Y-6500000D03*
X2000000Y-6500000D03*
X7000000Y-1500000D03*
X9500000Y-1500000D03*
X12000000Y-1500000D03*
X14500000Y-1500000D03*
X17000000Y-1500000D03*
X19500000Y-1500000D03*
X22000000Y-1500000D03*
X69500000Y-1500000D03*
X72000000Y-1500000D03*
X74500000Y-1500000D03*
X77000000Y-1500000D03*
X79500000Y-1500000D03*
X84500000Y-6500000D03*
X82000000Y-6500000D03*
X84500000Y-46500000D03*
X82000000Y-46500000D03*
X79500000Y-51500000D03*
X77000000Y-51500000D03*
X74500000Y-51500000D03*
X69500000Y-51500000D03*
X67000000Y-51500000D03*
X64500000Y-51500000D03*
X62000000Y-51500000D03*
X59500000Y-51500000D03*
X22000000Y-39000000D03*
X54500000Y-41500000D03*
X31500000Y-49750000D03*
X28500000Y-47000000D03*
X26250000Y-44750000D03*
X34000000Y-48750000D03*
X30500000Y-45500000D03*
X27750000Y-43000000D03*
X54500000Y-44000000D03*
X57000000Y-41500000D03*
X57000000Y-39000000D03*
X54500000Y-39000000D03*
X52000000Y-39000000D03*
X52000000Y-41500000D03*
X52000000Y-44000000D03*
X57000000Y-46500000D03*
X54500000Y-49000000D03*
X57000000Y-49000000D03*
X69500000Y-46500000D03*
X69500000Y-44000000D03*
X69500000Y-41500000D03*
X69500000Y-39000000D03*
X67000000Y-39000000D03*
X67000000Y-44000000D03*
X67000000Y-41500000D03*
X67000000Y-46500000D03*
X64500000Y-49000000D03*
X67000000Y-49000000D03*
X69500000Y-49000000D03*
X79500000Y-46500000D03*
X79500000Y-49000000D03*
X77000000Y-49000000D03*
X77000000Y-46500000D03*
X77000000Y-44000000D03*
X82000000Y-44000000D03*
X84500000Y-44000000D03*
X79500000Y-44000000D03*
X74500000Y-39000000D03*
X74500000Y-41500000D03*
X79500000Y-41500000D03*
X82000000Y-41500000D03*
X77000000Y-41500000D03*
X79500000Y-39000000D03*
X82000000Y-39000000D03*
X77000000Y-39000000D03*
X82000000Y-36500000D03*
X79500000Y-36500000D03*
X77000000Y-36500000D03*
X74500000Y-36500000D03*
X72000000Y-36500000D03*
X82000000Y-34000000D03*
X82000000Y-31500000D03*
X84500000Y-31500000D03*
X84500000Y-29000000D03*
X82000000Y-29000000D03*
X82000000Y-24000000D03*
X84500000Y-26500000D03*
X82000000Y-26500000D03*
X84500000Y-24000000D03*
X84500000Y-21500000D03*
X82000000Y-21500000D03*
X79500000Y-21500000D03*
X79500000Y-19000000D03*
X84500000Y-19000000D03*
X82000000Y-19000000D03*
X77000000Y-19000000D03*
X74500000Y-19000000D03*
X72000000Y-19000000D03*
X77000000Y-16500000D03*
X72000000Y-16500000D03*
X82000000Y-16500000D03*
X74500000Y-16500000D03*
X79500000Y-16500000D03*
X84500000Y-16500000D03*
X84500000Y-14000000D03*
X82000000Y-14000000D03*
X79500000Y-14000000D03*
X77000000Y-14000000D03*
X77000000Y-11500000D03*
X79500000Y-11500000D03*
X82000000Y-11500000D03*
X84500000Y-11500000D03*
X82000000Y-9000000D03*
X84500000Y-9000000D03*
X79500000Y-9000000D03*
X77000000Y-9000000D03*
X77000000Y-6500000D03*
X79500000Y-6500000D03*
X79500000Y-4000000D03*
X77000000Y-4000000D03*
X74500000Y-4000000D03*
X69500000Y-4000000D03*
X72000000Y-4000000D03*
X69500000Y-9000000D03*
X69500000Y-16500000D03*
X69500000Y-14000000D03*
X69500000Y-11500000D03*
X57000000Y-6500000D03*
X57000000Y-9000000D03*
X62000000Y-6500000D03*
X62000000Y-9000000D03*
X62000000Y-11500000D03*
X62000000Y-14000000D03*
X62000000Y-16500000D03*
X67000000Y-16500000D03*
X67000000Y-14000000D03*
X67000000Y-11500000D03*
X67000000Y-9000000D03*
X67000000Y-6500000D03*
X64500000Y-4000000D03*
X62000000Y-4000000D03*
X44500000Y-6500000D03*
X39500000Y-6500000D03*
X37000000Y-6500000D03*
X34500000Y-6500000D03*
X27000000Y-6500000D03*
X29500000Y-6500000D03*
X32000000Y-6500000D03*
X44500000Y-11500000D03*
X47000000Y-14000000D03*
X47000000Y-11500000D03*
X47000000Y-9000000D03*
X52000000Y-6500000D03*
X52000000Y-9000000D03*
X54500000Y-11500000D03*
X52000000Y-11500000D03*
X52000000Y-14000000D03*
X54500000Y-14000000D03*
X57000000Y-14000000D03*
X57000000Y-16500000D03*
X54500000Y-16500000D03*
X52000000Y-16500000D03*
X44500000Y-14000000D03*
X52000000Y-46500000D03*
X42000000Y-39000000D03*
X44500000Y-39000000D03*
X47000000Y-39000000D03*
X47000000Y-44000000D03*
X47000000Y-41500000D03*
X44500000Y-41500000D03*
X42000000Y-41500000D03*
X42000000Y-44000000D03*
X44500000Y-44000000D03*
X47000000Y-46500000D03*
X44500000Y-46500000D03*
X2000000Y-21500000D03*
X14500000Y-31500000D03*
X12000000Y-34000000D03*
X14500000Y-21500000D03*
X12000000Y-24000000D03*
X12000000Y-21500000D03*
X9500000Y-16500000D03*
X12000000Y-14000000D03*
X7000000Y-19000000D03*
X2000000Y-19000000D03*
X2000000Y-16500000D03*
X2000000Y-14000000D03*
X4500000Y-11500000D03*
X2000000Y-11500000D03*
X7000000Y-11500000D03*
X7000000Y-4000000D03*
X7000000Y-6500000D03*
X2000000Y-9000000D03*
X4500000Y-9000000D03*
X7000000Y-9000000D03*
X12000000Y-6500000D03*
X9500000Y-4000000D03*
X12000000Y-4000000D03*
X14500000Y-4000000D03*
X17000000Y-4000000D03*
X22000000Y-4000000D03*
X19500000Y-6500000D03*
X19500000Y-4000000D03*
X19500000Y-9000000D03*
X19500000Y-14000000D03*
X19500000Y-11500000D03*
X19500000Y-16500000D03*
X19500000Y-19000000D03*
X19500000Y-21500000D03*
X22000000Y-21500000D03*
X22000000Y-24000000D03*
X19500000Y-24000000D03*
X19500000Y-26500000D03*
X19500000Y-29000000D03*
X19500000Y-31500000D03*
X19500000Y-34000000D03*
X19500000Y-36500000D03*
X19500000Y-39000000D03*
X12000000Y-39000000D03*
X7000000Y-39000000D03*
X4500000Y-39000000D03*
X2000000Y-39000000D03*
X4500000Y-44000000D03*
X2000000Y-44000000D03*
X7000000Y-44000000D03*
X4500000Y-41500000D03*
X2000000Y-41500000D03*
X7000000Y-41500000D03*
%TD*%
D26*
%TO.N,/LO1*%
X76000000Y-46840000D02*
X73160000Y-44000000D01*
X76000000Y-48000000D02*
X76000000Y-46840000D01*
X24805000Y-44555000D02*
X32750000Y-52500000D01*
X32750000Y-52500000D02*
X71500000Y-52500000D01*
X24805000Y-39620000D02*
X24805000Y-44555000D01*
X71500000Y-52500000D02*
X76000000Y-48000000D01*
%TO.N,/HO1*%
X21000000Y-28185000D02*
X24805000Y-24380000D01*
X22231000Y-38231000D02*
X21000000Y-37000000D01*
X25372870Y-38231000D02*
X22231000Y-38231000D01*
X25956000Y-38814130D02*
X25372870Y-38231000D01*
X25956000Y-42706000D02*
X25956000Y-38814130D01*
X34250000Y-51000000D02*
X25956000Y-42706000D01*
X57080000Y-51000000D02*
X34250000Y-51000000D01*
X21000000Y-37000000D02*
X21000000Y-28185000D01*
X60080000Y-48000000D02*
X57080000Y-51000000D01*
%TO.N,/LO2*%
X22000000Y-17700000D02*
X25000000Y-20700000D01*
X22000000Y-5916120D02*
X22000000Y-17700000D01*
X65500000Y-1500000D02*
X26416120Y-1500000D01*
X74000000Y-10000000D02*
X65500000Y-1500000D01*
X26416120Y-1500000D02*
X22000000Y-5916120D01*
%TO.N,/HO2*%
X57320000Y-3000000D02*
X60160000Y-5840000D01*
X27460000Y-3000000D02*
X57320000Y-3000000D01*
X25000000Y-5460000D02*
X27460000Y-3000000D01*
D27*
%TO.N,VDD*%
X12100000Y-8480000D02*
X14500000Y-6080000D01*
X12100000Y-10600000D02*
X12100000Y-8480000D01*
X4000000Y-17420000D02*
X5280000Y-17420000D01*
X5280000Y-17420000D02*
X12100000Y-10600000D01*
D26*
%TO.N,/VOUT2*%
X53100000Y-4100000D02*
X48725000Y-4100000D01*
X55000000Y-6000000D02*
X53100000Y-4100000D01*
X41325000Y-11500000D02*
X35000000Y-11500000D01*
X55000000Y-8680000D02*
X55000000Y-6000000D01*
X48725000Y-4100000D02*
X41325000Y-11500000D01*
X60160000Y-13840000D02*
X55000000Y-8680000D01*
%TO.N,/LIN1*%
X13540000Y-34540000D02*
X17185000Y-34540000D01*
X10000000Y-38080000D02*
X13540000Y-34540000D01*
X2000000Y-36080000D02*
X8000000Y-36080000D01*
X8000000Y-36080000D02*
X10000000Y-38080000D01*
%TO.N,/HIN1*%
X8430000Y-33540000D02*
X2000000Y-33540000D01*
X14050000Y-27920000D02*
X8430000Y-33540000D01*
X15590000Y-29460000D02*
X14050000Y-27920000D01*
X17185000Y-29460000D02*
X15590000Y-29460000D01*
%TO.N,/VOUT1*%
X60160000Y-41340000D02*
X60160000Y-40000000D01*
X51900000Y-49600000D02*
X60160000Y-41340000D01*
X36200000Y-49600000D02*
X51900000Y-49600000D01*
X26900000Y-40300000D02*
X36200000Y-49600000D01*
X22500000Y-34800000D02*
X23600000Y-35900000D01*
X26900000Y-36900000D02*
X26900000Y-40300000D01*
X22500000Y-31765000D02*
X22500000Y-34800000D01*
X25900000Y-35900000D02*
X26900000Y-36900000D01*
X24805000Y-29460000D02*
X22500000Y-31765000D01*
X23600000Y-35900000D02*
X25900000Y-35900000D01*
D28*
%TO.N,+24V*%
X54500000Y-19880000D02*
X54460000Y-19840000D01*
D26*
%TO.N,/LIN2*%
X10000000Y-20250000D02*
X7250000Y-23000000D01*
X7250000Y-23000000D02*
X7250000Y-25750000D01*
X7250000Y-25750000D02*
X2000000Y-31000000D01*
X10000000Y-20080000D02*
X10000000Y-20250000D01*
%TO.N,/HIN2*%
X4500000Y-25960001D02*
X2000001Y-28460000D01*
X4500000Y-23282000D02*
X4500000Y-25960001D01*
X2000001Y-28460000D02*
X2000000Y-28460000D01*
X14000000Y-13782000D02*
X4500000Y-23282000D01*
X14000000Y-9920000D02*
X14000000Y-13782000D01*
%TO.N,/LIN2*%
X17380000Y-15620000D02*
X14460000Y-15620000D01*
X14460000Y-15620000D02*
X10000000Y-20080000D01*
%TO.N,/HIN2*%
X14620000Y-10540000D02*
X14000000Y-9920000D01*
X17380000Y-10540000D02*
X14620000Y-10540000D01*
D27*
%TO.N,VDD*%
X17185000Y-26685000D02*
X14500000Y-24000000D01*
X17185000Y-26920000D02*
X17185000Y-26685000D01*
X4000000Y-21380000D02*
X2000000Y-23380000D01*
X4000000Y-17420000D02*
X4000000Y-21380000D01*
X16420000Y-8000000D02*
X14500000Y-6080000D01*
X17380000Y-8000000D02*
X16420000Y-8000000D01*
D26*
%TO.N,/VOUT1*%
X29000000Y-30500000D02*
X33500000Y-30500000D01*
X33500000Y-30500000D02*
X35000000Y-29000000D01*
X27960000Y-29460000D02*
X29000000Y-30500000D01*
X24805000Y-29460000D02*
X27960000Y-29460000D01*
%TO.N,Net-(D2-K)*%
X35000000Y-25415000D02*
X34700000Y-25115000D01*
X35000000Y-26500000D02*
X35000000Y-25415000D01*
X34700000Y-25115000D02*
X26610000Y-25115000D01*
X26610000Y-25115000D02*
X24805000Y-26920000D01*
X40975000Y-25115000D02*
X34700000Y-25115000D01*
%TO.N,/VOUT2*%
X33500000Y-13000000D02*
X35000000Y-11500000D01*
X29000000Y-13000000D02*
X33500000Y-13000000D01*
X60160000Y-16680000D02*
X57000000Y-19840000D01*
X60160000Y-13840000D02*
X60160000Y-16680000D01*
%TO.N,/VOUT1*%
X57040000Y-36880000D02*
X57040000Y-35850000D01*
X60160000Y-40000000D02*
X57040000Y-36880000D01*
%TO.N,/VOUT2*%
X26540000Y-10540000D02*
X29000000Y-13000000D01*
X25000000Y-10540000D02*
X26540000Y-10540000D01*
%TO.N,Net-(D1-K)*%
X35000000Y-9000000D02*
X35000000Y-8000000D01*
X25000000Y-8000000D02*
X35000000Y-8000000D01*
X35000000Y-8000000D02*
X41000000Y-8000000D01*
%TO.N,/LO1*%
X73080000Y-43920000D02*
X73160000Y-44000000D01*
X73080000Y-40000000D02*
X73080000Y-43920000D01*
%TO.N,Net-(D4-A)*%
X62920000Y-35940000D02*
X62960000Y-35900000D01*
X62920000Y-48000000D02*
X62920000Y-35940000D01*
%TO.N,Net-(D6-A)*%
X63680000Y-19080000D02*
X62920000Y-19840000D01*
X63680000Y-6160000D02*
X63680000Y-19080000D01*
%TO.N,/LO2*%
X74000000Y-14000000D02*
X74000000Y-10000000D01*
%TO.N,/HO2*%
X60160000Y-9680000D02*
X60000000Y-9840000D01*
X60160000Y-5840000D02*
X60160000Y-9680000D01*
%TO.N,Net-(D5-A)*%
X50000000Y-17920000D02*
X51920000Y-19840000D01*
X50000000Y-5840000D02*
X50000000Y-17920000D01*
%TO.N,Net-(D3-A)*%
X49920000Y-48000000D02*
X49920000Y-37890000D01*
X49920000Y-37890000D02*
X51960000Y-35850000D01*
%TO.N,/HO1*%
X60160000Y-44000000D02*
X60160000Y-47920000D01*
X60160000Y-47920000D02*
X60080000Y-48000000D01*
%TD*%
%TA.AperFunction,Conductor*%
%TO.N,+24V*%
G36*
X42713569Y-14499507D02*
G01*
X42771497Y-14519199D01*
X42777415Y-14523988D01*
X50750000Y-21500000D01*
X52749999Y-21500000D01*
X52750000Y-21500000D01*
X53250000Y-21000000D01*
X53250000Y-19041008D01*
X53268907Y-18982817D01*
X53278996Y-18971004D01*
X53971004Y-18278996D01*
X54025521Y-18251219D01*
X54041008Y-18250000D01*
X54958992Y-18250000D01*
X55017183Y-18268907D01*
X55028996Y-18278996D01*
X55721004Y-18971004D01*
X55724630Y-18978121D01*
X55731093Y-18982817D01*
X55738256Y-19004865D01*
X55748781Y-19025521D01*
X55750000Y-19041008D01*
X55750000Y-19205052D01*
X55731093Y-19263243D01*
X55727054Y-19268430D01*
X55564058Y-19464024D01*
X55564043Y-19464044D01*
X55547017Y-19486966D01*
X55534874Y-19505382D01*
X55530321Y-19512541D01*
X55495821Y-19606061D01*
X55495819Y-19606067D01*
X55486248Y-19666498D01*
X55486248Y-19746439D01*
X55489449Y-19766644D01*
X55493537Y-19792454D01*
X55493781Y-19793990D01*
X55495000Y-19809479D01*
X55495000Y-19950522D01*
X55493781Y-19966010D01*
X55471719Y-20105297D01*
X55468094Y-20120397D01*
X55465097Y-20129620D01*
X55455620Y-20169358D01*
X55455620Y-20169360D01*
X55450779Y-20200529D01*
X55450778Y-20200538D01*
X55447755Y-20241300D01*
X55493599Y-27851285D01*
X55493600Y-27851304D01*
X55499622Y-27904922D01*
X55508605Y-27945537D01*
X55508608Y-27945545D01*
X55518134Y-27978151D01*
X55518135Y-27978154D01*
X55571393Y-28065586D01*
X55585518Y-28125119D01*
X55577313Y-28157292D01*
X55576152Y-28159902D01*
X55556890Y-28217993D01*
X55543911Y-28296864D01*
X55494721Y-36462279D01*
X55494834Y-36471574D01*
X55495049Y-36478711D01*
X55513214Y-36565898D01*
X55519401Y-36581360D01*
X55523463Y-36642410D01*
X55490864Y-36694188D01*
X55486885Y-36697335D01*
X54776400Y-37230200D01*
X54718503Y-37249989D01*
X54717000Y-37250000D01*
X54283000Y-37250000D01*
X54224809Y-37231093D01*
X54223600Y-37230200D01*
X53289600Y-36529700D01*
X53254392Y-36479660D01*
X53250000Y-36450500D01*
X53250000Y-34750001D01*
X53250000Y-34750000D01*
X52750000Y-34250000D01*
X52749999Y-34250000D01*
X51000001Y-34250000D01*
X51000000Y-34250000D01*
X47600000Y-37250000D01*
X46778068Y-37975234D01*
X46721924Y-37999557D01*
X46712567Y-38000000D01*
X39000000Y-38000000D01*
X38000000Y-39000000D01*
X38000000Y-39000001D01*
X38000000Y-45958992D01*
X37981093Y-46017183D01*
X37971004Y-46028996D01*
X37028996Y-46971004D01*
X36974479Y-46998781D01*
X36958992Y-47000000D01*
X34565753Y-47000000D01*
X34507562Y-46981093D01*
X34497115Y-46972343D01*
X31410141Y-44002410D01*
X31341041Y-43935930D01*
X33849500Y-43935930D01*
X33849500Y-44064069D01*
X33874499Y-44189742D01*
X33874500Y-44189747D01*
X33923534Y-44308125D01*
X33923538Y-44308133D01*
X33941712Y-44335331D01*
X33994724Y-44414669D01*
X34085331Y-44505276D01*
X34148848Y-44547717D01*
X34191866Y-44576461D01*
X34191870Y-44576463D01*
X34191873Y-44576465D01*
X34310256Y-44625501D01*
X34435931Y-44650500D01*
X34435932Y-44650500D01*
X34564068Y-44650500D01*
X34564069Y-44650500D01*
X34689744Y-44625501D01*
X34808127Y-44576465D01*
X34914669Y-44505276D01*
X35005276Y-44414669D01*
X35076465Y-44308127D01*
X35125501Y-44189744D01*
X35150500Y-44064069D01*
X35150500Y-43935931D01*
X35125501Y-43810256D01*
X35076465Y-43691873D01*
X35076463Y-43691870D01*
X35076461Y-43691866D01*
X35047717Y-43648848D01*
X35005276Y-43585331D01*
X34914669Y-43494724D01*
X34872226Y-43466365D01*
X34808133Y-43423538D01*
X34808125Y-43423534D01*
X34689747Y-43374500D01*
X34689745Y-43374499D01*
X34689744Y-43374499D01*
X34564069Y-43349500D01*
X34435931Y-43349500D01*
X34435930Y-43349500D01*
X34373093Y-43361999D01*
X34310256Y-43374499D01*
X34310255Y-43374499D01*
X34310252Y-43374500D01*
X34191874Y-43423534D01*
X34191866Y-43423538D01*
X34085331Y-43494724D01*
X34085327Y-43494727D01*
X33994727Y-43585327D01*
X33994724Y-43585331D01*
X33923538Y-43691866D01*
X33923534Y-43691874D01*
X33874500Y-43810252D01*
X33874499Y-43810257D01*
X33849500Y-43935930D01*
X31341041Y-43935930D01*
X27330862Y-40077795D01*
X27302036Y-40023825D01*
X27300500Y-40006452D01*
X27300500Y-36960714D01*
X27300501Y-36960701D01*
X27300501Y-36847272D01*
X27300500Y-36847270D01*
X27273208Y-36745416D01*
X27273207Y-36745414D01*
X27273207Y-36745413D01*
X27258192Y-36719406D01*
X27258191Y-36719404D01*
X27258191Y-36719403D01*
X27220483Y-36654091D01*
X27220481Y-36654089D01*
X27220480Y-36654087D01*
X27145913Y-36579520D01*
X27145910Y-36579518D01*
X27142455Y-36576062D01*
X27142449Y-36576057D01*
X27028996Y-36462603D01*
X27001219Y-36408087D01*
X27000000Y-36392600D01*
X27000000Y-36000001D01*
X27000000Y-36000000D01*
X26999999Y-36000000D01*
X26697582Y-36000000D01*
X26639391Y-35981093D01*
X26620276Y-35962845D01*
X26250000Y-35500000D01*
X26249999Y-35500000D01*
X25963014Y-35500000D01*
X25955386Y-35499500D01*
X25952727Y-35499500D01*
X24040508Y-35499500D01*
X23982317Y-35480593D01*
X23970504Y-35470504D01*
X23528996Y-35028996D01*
X23501219Y-34974479D01*
X23500000Y-34958992D01*
X23500000Y-34291007D01*
X23518907Y-34232816D01*
X23528990Y-34221009D01*
X24670505Y-33079494D01*
X24725020Y-33051719D01*
X24740507Y-33050500D01*
X24908464Y-33050500D01*
X24908465Y-33050500D01*
X25111420Y-33010130D01*
X25302598Y-32930941D01*
X25474655Y-32815977D01*
X25620977Y-32669655D01*
X25735941Y-32497598D01*
X25813186Y-32311114D01*
X25852923Y-32264588D01*
X25904650Y-32250000D01*
X42624999Y-32250000D01*
X42625000Y-32250000D01*
X44250000Y-30950000D01*
X44250000Y-24500000D01*
X43000000Y-23250000D01*
X42999999Y-23250000D01*
X32291008Y-23250000D01*
X32232817Y-23231093D01*
X32221004Y-23221004D01*
X29120397Y-20120397D01*
X26000000Y-17000000D01*
X25999999Y-17000000D01*
X24279975Y-17000000D01*
X24225060Y-16983373D01*
X23544085Y-16529390D01*
X23506155Y-16481380D01*
X23500000Y-16447017D01*
X23500000Y-15041008D01*
X23518907Y-14982817D01*
X23528996Y-14971004D01*
X24220450Y-14279549D01*
X24274965Y-14251774D01*
X24291781Y-14250564D01*
X42713569Y-14499507D01*
G37*
%TD.AperFunction*%
%TD*%
%TA.AperFunction,Conductor*%
%TO.N,/VOUT2*%
G36*
X60663733Y-18818907D02*
G01*
X60679536Y-18833228D01*
X61424994Y-19671868D01*
X61449522Y-19727922D01*
X61450000Y-19737640D01*
X61450000Y-21500000D01*
X61950000Y-22000000D01*
X63749999Y-22000000D01*
X63750000Y-22000000D01*
X64250000Y-21500000D01*
X64250000Y-19744091D01*
X64268907Y-19685900D01*
X64282772Y-19670505D01*
X65221762Y-18825414D01*
X65277664Y-18800540D01*
X65287990Y-18800000D01*
X65706205Y-18800000D01*
X65764396Y-18818907D01*
X65779459Y-18832405D01*
X66642346Y-19781581D01*
X66724254Y-19871679D01*
X66749407Y-19927455D01*
X66750000Y-19938274D01*
X66750000Y-21600000D01*
X77908992Y-21600000D01*
X77967183Y-21618907D01*
X77978996Y-21628996D01*
X79621004Y-23271004D01*
X79648781Y-23325521D01*
X79650000Y-23341008D01*
X79650000Y-27845500D01*
X79631093Y-27903691D01*
X79581593Y-27939655D01*
X79551000Y-27944500D01*
X55898401Y-27944500D01*
X55857293Y-27947673D01*
X55857244Y-27947045D01*
X55799490Y-27935399D01*
X55758077Y-27890359D01*
X55749094Y-27849749D01*
X55703251Y-20239754D01*
X55708093Y-20208574D01*
X55719709Y-20172827D01*
X55726044Y-20132826D01*
X55750500Y-19978420D01*
X55750500Y-19781581D01*
X55738603Y-19706468D01*
X55748174Y-19646036D01*
X55760326Y-19627607D01*
X56420315Y-18835622D01*
X56472093Y-18803023D01*
X56496369Y-18800000D01*
X60605542Y-18800000D01*
X60663733Y-18818907D01*
G37*
%TD.AperFunction*%
%TD*%
%TA.AperFunction,Conductor*%
%TO.N,/VOUT1*%
G36*
X79659191Y-28218907D02*
G01*
X79695155Y-28268407D01*
X79700000Y-28299000D01*
X79700000Y-32858992D01*
X79681093Y-32917183D01*
X79671004Y-32928996D01*
X78028996Y-34571004D01*
X77974479Y-34598781D01*
X77958992Y-34600000D01*
X66800000Y-34600000D01*
X66800000Y-34600001D01*
X66800000Y-36261725D01*
X66781093Y-36319916D01*
X66774254Y-36328320D01*
X65829459Y-37367595D01*
X65776325Y-37397934D01*
X65756205Y-37400000D01*
X65337990Y-37400000D01*
X65279799Y-37381093D01*
X65271762Y-37374586D01*
X64332772Y-36529494D01*
X64302168Y-36476513D01*
X64300000Y-36455908D01*
X64300000Y-34700001D01*
X64300000Y-34700000D01*
X63800000Y-34200000D01*
X63799999Y-34200000D01*
X62000001Y-34200000D01*
X62000000Y-34200000D01*
X61500000Y-34700000D01*
X61500000Y-34700001D01*
X61500000Y-36462359D01*
X61481093Y-36520550D01*
X61474994Y-36528131D01*
X60729536Y-37366772D01*
X60676744Y-37397703D01*
X60655542Y-37400000D01*
X56546369Y-37400000D01*
X56488178Y-37381093D01*
X56470315Y-37364378D01*
X55773442Y-36528131D01*
X55773160Y-36527792D01*
X55750433Y-36470987D01*
X55750217Y-36463846D01*
X55799407Y-28298403D01*
X55818664Y-28240328D01*
X55868380Y-28204663D01*
X55898405Y-28200000D01*
X79601000Y-28200000D01*
X79659191Y-28218907D01*
G37*
%TD.AperFunction*%
%TD*%
%TA.AperFunction,Conductor*%
%TO.N,GND*%
G36*
X50683496Y-34966680D02*
G01*
X50736709Y-35011958D01*
X50756995Y-35078818D01*
X50757000Y-35079932D01*
X50757000Y-36435245D01*
X50737315Y-36502284D01*
X50720681Y-36522926D01*
X49599522Y-37644084D01*
X49599520Y-37644087D01*
X49551970Y-37726446D01*
X49546793Y-37735412D01*
X49536566Y-37773580D01*
X49536566Y-37773581D01*
X49536565Y-37773580D01*
X49519500Y-37837271D01*
X49519500Y-38991355D01*
X49499815Y-39058394D01*
X49464391Y-39094456D01*
X49447367Y-39105832D01*
X49330342Y-39184024D01*
X49184024Y-39330342D01*
X49069058Y-39502403D01*
X48989870Y-39693579D01*
X48989868Y-39693587D01*
X48949500Y-39896530D01*
X48949500Y-40103469D01*
X48989868Y-40306412D01*
X48989870Y-40306420D01*
X49051243Y-40454588D01*
X49069059Y-40497598D01*
X49106425Y-40553520D01*
X49184024Y-40669657D01*
X49330342Y-40815975D01*
X49330345Y-40815977D01*
X49464390Y-40905542D01*
X49509196Y-40959154D01*
X49519500Y-41008645D01*
X49519500Y-42991355D01*
X49499815Y-43058394D01*
X49464391Y-43094456D01*
X49428093Y-43118709D01*
X49330342Y-43184024D01*
X49184024Y-43330342D01*
X49069058Y-43502403D01*
X48989870Y-43693579D01*
X48989868Y-43693587D01*
X48949500Y-43896530D01*
X48949500Y-44103469D01*
X48950061Y-44106287D01*
X48989870Y-44306420D01*
X49069059Y-44497598D01*
X49082968Y-44518414D01*
X49184024Y-44669657D01*
X49330342Y-44815975D01*
X49330345Y-44815977D01*
X49464390Y-44905542D01*
X49509196Y-44959154D01*
X49519500Y-45008645D01*
X49519500Y-46620039D01*
X49499815Y-46687078D01*
X49447011Y-46732833D01*
X49433821Y-46737969D01*
X49401586Y-46748443D01*
X49212179Y-46844951D01*
X49040213Y-46969890D01*
X48889890Y-47120213D01*
X48764951Y-47292179D01*
X48668444Y-47481585D01*
X48602753Y-47683760D01*
X48578941Y-47834107D01*
X48569500Y-47893713D01*
X48569500Y-48106287D01*
X48577119Y-48154394D01*
X48591614Y-48245912D01*
X48602754Y-48316243D01*
X48661679Y-48497596D01*
X48668444Y-48518414D01*
X48764951Y-48707820D01*
X48889890Y-48879786D01*
X48997923Y-48987819D01*
X49031408Y-49049142D01*
X49026424Y-49118834D01*
X48984552Y-49174767D01*
X48919088Y-49199184D01*
X48910242Y-49199500D01*
X36417255Y-49199500D01*
X36350216Y-49179815D01*
X36329574Y-49163181D01*
X34633574Y-47467181D01*
X34600089Y-47405858D01*
X34605073Y-47336166D01*
X34646945Y-47280233D01*
X34712409Y-47255816D01*
X34721255Y-47255500D01*
X36959003Y-47255500D01*
X36979023Y-47254713D01*
X36979030Y-47254712D01*
X36979041Y-47254712D01*
X36994528Y-47253493D01*
X37090471Y-47226435D01*
X37144988Y-47198658D01*
X37209662Y-47151670D01*
X38151670Y-46209662D01*
X38165290Y-46194928D01*
X38175379Y-46183115D01*
X38224088Y-46096135D01*
X38242995Y-46037944D01*
X38255500Y-45958992D01*
X38255500Y-45276182D01*
X38275185Y-45209143D01*
X38327989Y-45163388D01*
X38397147Y-45153444D01*
X38460703Y-45182469D01*
X38467181Y-45188501D01*
X38572813Y-45294133D01*
X38763828Y-45432914D01*
X38974195Y-45540102D01*
X39198744Y-45613063D01*
X39198750Y-45613065D01*
X39300000Y-45629101D01*
X39300000Y-44004120D01*
X39345818Y-44023099D01*
X39481056Y-44050000D01*
X39618944Y-44050000D01*
X39754182Y-44023099D01*
X39800000Y-44004120D01*
X39800000Y-45629100D01*
X39901249Y-45613065D01*
X39901255Y-45613063D01*
X40125804Y-45540102D01*
X40336171Y-45432914D01*
X40527186Y-45294133D01*
X40694133Y-45127186D01*
X40832914Y-44936171D01*
X40940102Y-44725802D01*
X41013065Y-44501247D01*
X41050000Y-44268052D01*
X41050000Y-43600000D01*
X40204121Y-43600000D01*
X40223099Y-43554182D01*
X40250000Y-43418944D01*
X40250000Y-43281056D01*
X40223099Y-43145818D01*
X40204121Y-43100000D01*
X41050000Y-43100000D01*
X41050000Y-42431947D01*
X41013065Y-42198752D01*
X40940102Y-41974197D01*
X40832914Y-41763828D01*
X40694133Y-41572813D01*
X40527186Y-41405866D01*
X40336171Y-41267085D01*
X40125802Y-41159897D01*
X39901247Y-41086934D01*
X39800000Y-41070897D01*
X39800000Y-42695879D01*
X39754182Y-42676901D01*
X39618944Y-42650000D01*
X39481056Y-42650000D01*
X39345818Y-42676901D01*
X39300000Y-42695879D01*
X39300000Y-41070897D01*
X39198752Y-41086934D01*
X38974197Y-41159897D01*
X38763828Y-41267085D01*
X38572813Y-41405866D01*
X38467181Y-41511499D01*
X38405858Y-41544984D01*
X38336166Y-41540000D01*
X38280233Y-41498128D01*
X38255816Y-41432664D01*
X38255500Y-41423818D01*
X38255500Y-39157194D01*
X38275185Y-39090155D01*
X38291819Y-39069513D01*
X39069513Y-38291819D01*
X39130836Y-38258334D01*
X39157194Y-38255500D01*
X46712583Y-38255500D01*
X46724638Y-38255215D01*
X46730686Y-38254928D01*
X46734007Y-38254771D01*
X46778749Y-38244386D01*
X46823483Y-38234004D01*
X46823484Y-38234004D01*
X46823485Y-38234003D01*
X46823491Y-38234002D01*
X46879635Y-38209679D01*
X46947112Y-38166818D01*
X50550959Y-34986951D01*
X50614251Y-34957358D01*
X50683496Y-34966680D01*
G37*
%TD.AperFunction*%
%TA.AperFunction,Conductor*%
G36*
X53329789Y-36880121D02*
G01*
X53340918Y-36887564D01*
X53818716Y-37245912D01*
X54070300Y-37434600D01*
X54071800Y-37435716D01*
X54073009Y-37436609D01*
X54145857Y-37474088D01*
X54204048Y-37492995D01*
X54283000Y-37505500D01*
X54283001Y-37505500D01*
X54717010Y-37505500D01*
X54717150Y-37505499D01*
X54718870Y-37505493D01*
X54720373Y-37505482D01*
X54763572Y-37498140D01*
X54801127Y-37491759D01*
X54801128Y-37491758D01*
X54801138Y-37491757D01*
X54801147Y-37491754D01*
X54859028Y-37471971D01*
X54859031Y-37471969D01*
X54859035Y-37471968D01*
X54925901Y-37436609D01*
X54929693Y-37434604D01*
X54929694Y-37434602D01*
X54929700Y-37434600D01*
X55614871Y-36920719D01*
X55680311Y-36896245D01*
X55748597Y-36911035D01*
X55784528Y-36940538D01*
X56274034Y-37527945D01*
X56295744Y-37550939D01*
X56313607Y-37567654D01*
X56322245Y-37575378D01*
X56375184Y-37605024D01*
X56409220Y-37624085D01*
X56409223Y-37624086D01*
X56409226Y-37624088D01*
X56467417Y-37642995D01*
X56546369Y-37655500D01*
X57197745Y-37655500D01*
X57264784Y-37675185D01*
X57285426Y-37691819D01*
X59131502Y-39537895D01*
X59164987Y-39599218D01*
X59160003Y-39668910D01*
X59158384Y-39673025D01*
X59149871Y-39693579D01*
X59149869Y-39693583D01*
X59149867Y-39693587D01*
X59109500Y-39896530D01*
X59109500Y-40103469D01*
X59149868Y-40306412D01*
X59149870Y-40306420D01*
X59211243Y-40454588D01*
X59229059Y-40497598D01*
X59266425Y-40553520D01*
X59344024Y-40669657D01*
X59490342Y-40815975D01*
X59490345Y-40815977D01*
X59662402Y-40930941D01*
X59679500Y-40938023D01*
X59682952Y-40939453D01*
X59698517Y-40951995D01*
X59716703Y-40960301D01*
X59725166Y-40973470D01*
X59737356Y-40983293D01*
X59743669Y-41002262D01*
X59754477Y-41019079D01*
X59758439Y-41046638D01*
X59759421Y-41049587D01*
X59759500Y-41054014D01*
X59759500Y-41122745D01*
X59739815Y-41189784D01*
X59723181Y-41210426D01*
X51770426Y-49163181D01*
X51709103Y-49196666D01*
X51682745Y-49199500D01*
X50929758Y-49199500D01*
X50862719Y-49179815D01*
X50816964Y-49127011D01*
X50807020Y-49057853D01*
X50836045Y-48994297D01*
X50842077Y-48987819D01*
X50888023Y-48941873D01*
X50950104Y-48879792D01*
X50950106Y-48879788D01*
X50950109Y-48879786D01*
X51075048Y-48707820D01*
X51075047Y-48707820D01*
X51075051Y-48707816D01*
X51171557Y-48518412D01*
X51237246Y-48316243D01*
X51270500Y-48106287D01*
X51270500Y-47893713D01*
X51237246Y-47683757D01*
X51171557Y-47481588D01*
X51075051Y-47292184D01*
X51075049Y-47292181D01*
X51075048Y-47292179D01*
X50950109Y-47120213D01*
X50799786Y-46969890D01*
X50627820Y-46844951D01*
X50438413Y-46748443D01*
X50406179Y-46737969D01*
X50348504Y-46698530D01*
X50321308Y-46634170D01*
X50320500Y-46620039D01*
X50320500Y-45087151D01*
X50340185Y-45020112D01*
X50392989Y-44974357D01*
X50397048Y-44972590D01*
X50429485Y-44959154D01*
X50497598Y-44930941D01*
X50669655Y-44815977D01*
X50815977Y-44669655D01*
X50930941Y-44497598D01*
X51010130Y-44306420D01*
X51050500Y-44103465D01*
X51050500Y-43896535D01*
X51010130Y-43693580D01*
X50930941Y-43502402D01*
X50815977Y-43330345D01*
X50815975Y-43330342D01*
X50669657Y-43184024D01*
X50497597Y-43069058D01*
X50397046Y-43027408D01*
X50342643Y-42983566D01*
X50320579Y-42917272D01*
X50320500Y-42912847D01*
X50320500Y-41087151D01*
X50340185Y-41020112D01*
X50392989Y-40974357D01*
X50397048Y-40972590D01*
X50429485Y-40959154D01*
X50497598Y-40930941D01*
X50669655Y-40815977D01*
X50815977Y-40669655D01*
X50930941Y-40497598D01*
X51010130Y-40306420D01*
X51050500Y-40103465D01*
X51050500Y-39896535D01*
X51010130Y-39693580D01*
X50930941Y-39502402D01*
X50815977Y-39330345D01*
X50815975Y-39330342D01*
X50669657Y-39184024D01*
X50497597Y-39069058D01*
X50397046Y-39027408D01*
X50342643Y-38983566D01*
X50320579Y-38917272D01*
X50320500Y-38912847D01*
X50320500Y-38107254D01*
X50340185Y-38040215D01*
X50356819Y-38019573D01*
X51239573Y-37136819D01*
X51300896Y-37103334D01*
X51327254Y-37100500D01*
X52937176Y-37100500D01*
X52937177Y-37100499D01*
X53010240Y-37085966D01*
X53093101Y-37030601D01*
X53148466Y-36947740D01*
X53148466Y-36947736D01*
X53151956Y-36939314D01*
X53195796Y-36884910D01*
X53262089Y-36862843D01*
X53329789Y-36880121D01*
G37*
%TD.AperFunction*%
%TA.AperFunction,Conductor*%
G36*
X49231462Y-4520185D02*
G01*
X49277217Y-4572989D01*
X49287161Y-4642147D01*
X49258136Y-4705703D01*
X49237310Y-4724816D01*
X49205857Y-4747669D01*
X49120207Y-4809896D01*
X48969890Y-4960213D01*
X48844951Y-5132179D01*
X48748444Y-5321585D01*
X48682753Y-5523760D01*
X48658084Y-5679518D01*
X48649500Y-5733713D01*
X48649500Y-5946287D01*
X48654290Y-5976530D01*
X48666961Y-6056534D01*
X48682754Y-6156243D01*
X48721657Y-6275975D01*
X48748444Y-6358414D01*
X48844951Y-6547820D01*
X48969890Y-6719786D01*
X49120213Y-6870109D01*
X49292179Y-6995048D01*
X49292181Y-6995049D01*
X49292184Y-6995051D01*
X49481588Y-7091557D01*
X49513820Y-7102029D01*
X49571492Y-7141463D01*
X49598691Y-7205822D01*
X49599500Y-7219959D01*
X49599500Y-8719711D01*
X49579815Y-8786750D01*
X49527011Y-8832505D01*
X49522958Y-8834269D01*
X49491030Y-8847494D01*
X49342403Y-8909058D01*
X49170342Y-9024024D01*
X49024024Y-9170342D01*
X48909058Y-9342403D01*
X48829870Y-9533579D01*
X48829868Y-9533587D01*
X48789500Y-9736530D01*
X48789500Y-9943469D01*
X48829868Y-10146412D01*
X48829870Y-10146420D01*
X48901769Y-10320000D01*
X48909059Y-10337598D01*
X48941721Y-10386480D01*
X49024024Y-10509657D01*
X49170342Y-10655975D01*
X49342405Y-10770943D01*
X49435490Y-10809499D01*
X49522953Y-10845728D01*
X49577356Y-10889568D01*
X49599421Y-10955862D01*
X49599500Y-10960288D01*
X49599500Y-12785985D01*
X49579815Y-12853024D01*
X49527011Y-12898779D01*
X49522954Y-12900546D01*
X49502402Y-12909059D01*
X49502395Y-12909062D01*
X49330344Y-13024022D01*
X49184024Y-13170342D01*
X49069058Y-13342403D01*
X48989870Y-13533579D01*
X48989868Y-13533587D01*
X48949500Y-13736530D01*
X48949500Y-13943469D01*
X48989868Y-14146412D01*
X48989870Y-14146420D01*
X49066605Y-14331675D01*
X49069059Y-14337598D01*
X49097273Y-14379823D01*
X49184024Y-14509657D01*
X49330342Y-14655975D01*
X49330345Y-14655977D01*
X49502402Y-14770941D01*
X49522952Y-14779453D01*
X49577356Y-14823293D01*
X49599421Y-14889587D01*
X49599500Y-14894014D01*
X49599500Y-17867273D01*
X49599500Y-17972727D01*
X49605872Y-17996507D01*
X49626793Y-18074589D01*
X49640501Y-18098331D01*
X49679520Y-18165913D01*
X49679522Y-18165915D01*
X50680681Y-19167074D01*
X50714166Y-19228397D01*
X50717000Y-19254755D01*
X50717000Y-20858356D01*
X50697315Y-20925395D01*
X50644511Y-20971150D01*
X50575353Y-20981094D01*
X50511797Y-20952069D01*
X50511345Y-20951676D01*
X48069795Y-18815321D01*
X42945663Y-14331705D01*
X42938139Y-14325373D01*
X42932221Y-14320584D01*
X42932220Y-14320583D01*
X42853726Y-14277292D01*
X42795804Y-14257602D01*
X42795801Y-14257601D01*
X42730592Y-14246367D01*
X42717021Y-14244030D01*
X42318458Y-14238644D01*
X29699383Y-14068115D01*
X29632616Y-14047526D01*
X29587579Y-13994109D01*
X29578571Y-13924822D01*
X29608452Y-13861664D01*
X29632166Y-13841025D01*
X29669655Y-13815977D01*
X29815977Y-13669655D01*
X29930941Y-13497598D01*
X29939454Y-13477045D01*
X29983296Y-13422643D01*
X30049590Y-13400579D01*
X30054015Y-13400500D01*
X33552725Y-13400500D01*
X33552727Y-13400500D01*
X33654588Y-13373207D01*
X33745913Y-13320480D01*
X34537896Y-12528495D01*
X34599217Y-12495012D01*
X34668908Y-12499996D01*
X34673027Y-12501617D01*
X34693575Y-12510128D01*
X34693580Y-12510130D01*
X34896530Y-12550499D01*
X34896534Y-12550500D01*
X34896535Y-12550500D01*
X35103466Y-12550500D01*
X35103467Y-12550499D01*
X35306420Y-12510130D01*
X35497598Y-12430941D01*
X35669655Y-12315977D01*
X35815977Y-12169655D01*
X35930941Y-11997598D01*
X35939454Y-11977045D01*
X35983296Y-11922643D01*
X36049590Y-11900579D01*
X36054015Y-11900500D01*
X41377725Y-11900500D01*
X41377727Y-11900500D01*
X41479588Y-11873207D01*
X41570913Y-11820480D01*
X48854574Y-4536819D01*
X48915897Y-4503334D01*
X48942255Y-4500500D01*
X49164423Y-4500500D01*
X49231462Y-4520185D01*
G37*
%TD.AperFunction*%
%TA.AperFunction,Conductor*%
G36*
X52949784Y-4520185D02*
G01*
X52970426Y-4536819D01*
X54563181Y-6129573D01*
X54596666Y-6190896D01*
X54599500Y-6217254D01*
X54599500Y-8732726D01*
X54626793Y-8834589D01*
X54630220Y-8840524D01*
X54679520Y-8925913D01*
X54679522Y-8925915D01*
X59131502Y-13377895D01*
X59164987Y-13439218D01*
X59160003Y-13508910D01*
X59158384Y-13513025D01*
X59149871Y-13533579D01*
X59149869Y-13533583D01*
X59149867Y-13533587D01*
X59109500Y-13736530D01*
X59109500Y-13943469D01*
X59149868Y-14146412D01*
X59149870Y-14146420D01*
X59226605Y-14331675D01*
X59229059Y-14337598D01*
X59257273Y-14379823D01*
X59344024Y-14509657D01*
X59490342Y-14655975D01*
X59490345Y-14655977D01*
X59662402Y-14770941D01*
X59682952Y-14779453D01*
X59737356Y-14823293D01*
X59759421Y-14889587D01*
X59759500Y-14894014D01*
X59759500Y-16462745D01*
X59739815Y-16529784D01*
X59723181Y-16550426D01*
X57765426Y-18508181D01*
X57704103Y-18541666D01*
X57677745Y-18544500D01*
X56496367Y-18544500D01*
X56464799Y-18546457D01*
X56444921Y-18548932D01*
X56440520Y-18549481D01*
X56440513Y-18549481D01*
X56440489Y-18549485D01*
X56429076Y-18551169D01*
X56429067Y-18551171D01*
X56335974Y-18586802D01*
X56335967Y-18586806D01*
X56284188Y-18619405D01*
X56224039Y-18672050D01*
X56224038Y-18672051D01*
X56107867Y-18811455D01*
X56049827Y-18850354D01*
X55979970Y-18851699D01*
X55920476Y-18815063D01*
X55912288Y-18804953D01*
X55901670Y-18790338D01*
X55901666Y-18790333D01*
X55209663Y-18098331D01*
X55194932Y-18084713D01*
X55183117Y-18074623D01*
X55183115Y-18074621D01*
X55119327Y-18038899D01*
X55096132Y-18025910D01*
X55037945Y-18007005D01*
X54971663Y-17996507D01*
X54958992Y-17994500D01*
X54041008Y-17994500D01*
X54040997Y-17994500D01*
X54020976Y-17995286D01*
X54005474Y-17996506D01*
X53968248Y-18007005D01*
X53909529Y-18023565D01*
X53909527Y-18023565D01*
X53909527Y-18023566D01*
X53855019Y-18051337D01*
X53855011Y-18051343D01*
X53790341Y-18098326D01*
X53790339Y-18098328D01*
X53228865Y-18659801D01*
X53167542Y-18693286D01*
X53097850Y-18688302D01*
X53063310Y-18666103D01*
X53063256Y-18666185D01*
X53058708Y-18663146D01*
X53053503Y-18659801D01*
X53053103Y-18659401D01*
X53053101Y-18659400D01*
X53053101Y-18659399D01*
X52970240Y-18604034D01*
X52970239Y-18604033D01*
X52970235Y-18604032D01*
X52897177Y-18589500D01*
X52897174Y-18589500D01*
X51287255Y-18589500D01*
X51220216Y-18569815D01*
X51199574Y-18553181D01*
X50436819Y-17790426D01*
X50403334Y-17729103D01*
X50400500Y-17702745D01*
X50400500Y-14894014D01*
X50420185Y-14826975D01*
X50472989Y-14781220D01*
X50477048Y-14779453D01*
X50497598Y-14770941D01*
X50669655Y-14655977D01*
X50815977Y-14509655D01*
X50930941Y-14337598D01*
X51010130Y-14146420D01*
X51050500Y-13943465D01*
X51050500Y-13736535D01*
X51010130Y-13533580D01*
X50930941Y-13342402D01*
X50815977Y-13170345D01*
X50815975Y-13170342D01*
X50669655Y-13024022D01*
X50497604Y-12909062D01*
X50497599Y-12909060D01*
X50497598Y-12909059D01*
X50477045Y-12900545D01*
X50422643Y-12856704D01*
X50400579Y-12790410D01*
X50400500Y-12785985D01*
X50400500Y-10795190D01*
X50420185Y-10728151D01*
X50455609Y-10692088D01*
X50509655Y-10655977D01*
X50655977Y-10509655D01*
X50770941Y-10337598D01*
X50850130Y-10146420D01*
X50890500Y-9943465D01*
X50890500Y-9736535D01*
X50850130Y-9533580D01*
X50770941Y-9342402D01*
X50655977Y-9170345D01*
X50655975Y-9170342D01*
X50509658Y-9024025D01*
X50509654Y-9024022D01*
X50455609Y-8987910D01*
X50410804Y-8934298D01*
X50400500Y-8884808D01*
X50400500Y-7219959D01*
X50420185Y-7152920D01*
X50472989Y-7107165D01*
X50486160Y-7102036D01*
X50518412Y-7091557D01*
X50707816Y-6995051D01*
X50770512Y-6949500D01*
X50879786Y-6870109D01*
X50879788Y-6870106D01*
X50879792Y-6870104D01*
X51030104Y-6719792D01*
X51030106Y-6719788D01*
X51030109Y-6719786D01*
X51155048Y-6547820D01*
X51155047Y-6547820D01*
X51155051Y-6547816D01*
X51251557Y-6358412D01*
X51317246Y-6156243D01*
X51350500Y-5946287D01*
X51350500Y-5733713D01*
X51317246Y-5523757D01*
X51251557Y-5321588D01*
X51155051Y-5132184D01*
X51155049Y-5132181D01*
X51155048Y-5132179D01*
X51030109Y-4960213D01*
X50879792Y-4809896D01*
X50838643Y-4780000D01*
X50762691Y-4724817D01*
X50720026Y-4669489D01*
X50714047Y-4599876D01*
X50746652Y-4538080D01*
X50807491Y-4503723D01*
X50835577Y-4500500D01*
X52882745Y-4500500D01*
X52949784Y-4520185D01*
G37*
%TD.AperFunction*%
%TA.AperFunction,Conductor*%
G36*
X13055703Y-10405561D02*
G01*
X13077599Y-10430380D01*
X13136420Y-10518412D01*
X13184024Y-10589657D01*
X13330342Y-10735975D01*
X13330345Y-10735977D01*
X13502402Y-10850941D01*
X13522952Y-10859453D01*
X13577356Y-10903293D01*
X13599421Y-10969587D01*
X13599500Y-10974014D01*
X13599500Y-13564745D01*
X13579815Y-13631784D01*
X13563181Y-13652426D01*
X4179522Y-23036084D01*
X4179520Y-23036087D01*
X4126793Y-23127411D01*
X4104790Y-23209530D01*
X4099500Y-23229270D01*
X4099500Y-25742745D01*
X4079815Y-25809784D01*
X4063181Y-25830426D01*
X3517985Y-26375622D01*
X3456662Y-26409107D01*
X3386970Y-26404123D01*
X3331037Y-26362251D01*
X3306620Y-26296787D01*
X3312373Y-26249622D01*
X3316758Y-26236126D01*
X3350000Y-26026246D01*
X3350000Y-25813753D01*
X3316757Y-25603872D01*
X3316757Y-25603869D01*
X3251095Y-25401782D01*
X3154624Y-25212449D01*
X3115270Y-25158282D01*
X3115269Y-25158282D01*
X2482962Y-25790590D01*
X2465925Y-25727007D01*
X2400099Y-25612993D01*
X2307007Y-25519901D01*
X2192993Y-25454075D01*
X2129409Y-25437037D01*
X2761716Y-24804728D01*
X2707550Y-24765375D01*
X2608655Y-24714985D01*
X2557859Y-24667010D01*
X2541064Y-24599189D01*
X2563602Y-24533054D01*
X2618317Y-24489603D01*
X2664950Y-24480500D01*
X2874676Y-24480500D01*
X2874677Y-24480499D01*
X2947740Y-24465966D01*
X3030601Y-24410601D01*
X3085966Y-24327740D01*
X3100500Y-24254674D01*
X3100500Y-23392229D01*
X3120185Y-23325190D01*
X3136819Y-23304548D01*
X4582948Y-21858419D01*
X4582951Y-21858416D01*
X4665084Y-21735495D01*
X4721658Y-21598913D01*
X4731096Y-21551462D01*
X4750500Y-21453920D01*
X4750500Y-18507180D01*
X4770185Y-18440141D01*
X4800187Y-18407914D01*
X4907546Y-18327546D01*
X4987914Y-18220188D01*
X5043847Y-18178318D01*
X5087180Y-18170500D01*
X5353920Y-18170500D01*
X5451462Y-18151096D01*
X5498913Y-18141658D01*
X5635495Y-18085084D01*
X5685994Y-18051342D01*
X5758416Y-18002952D01*
X12682951Y-11078416D01*
X12765084Y-10955495D01*
X12821658Y-10818913D01*
X12821711Y-10818646D01*
X12821878Y-10817809D01*
X12821880Y-10817809D01*
X12821880Y-10817795D01*
X12850500Y-10673918D01*
X12850500Y-10499274D01*
X12870185Y-10432235D01*
X12922989Y-10386480D01*
X12992147Y-10376536D01*
X13055703Y-10405561D01*
G37*
%TD.AperFunction*%
%TA.AperFunction,Conductor*%
G36*
X14556583Y-10937635D02*
G01*
X14567273Y-10940500D01*
X16325985Y-10940500D01*
X16393024Y-10960185D01*
X16438779Y-11012989D01*
X16440544Y-11017043D01*
X16449058Y-11037596D01*
X16449059Y-11037597D01*
X16449062Y-11037604D01*
X16564022Y-11209655D01*
X16710342Y-11355975D01*
X16710345Y-11355977D01*
X16882402Y-11470941D01*
X17073580Y-11550130D01*
X17103696Y-11556120D01*
X17126381Y-11560633D01*
X17188292Y-11593017D01*
X17222866Y-11653733D01*
X17219127Y-11723502D01*
X17178261Y-11780175D01*
X17121589Y-11804723D01*
X17075581Y-11812010D01*
X16880968Y-11875244D01*
X16698644Y-11968143D01*
X16654077Y-12000523D01*
X16654077Y-12000524D01*
X17333554Y-12680000D01*
X17327339Y-12680000D01*
X17225606Y-12707259D01*
X17134394Y-12759920D01*
X17059920Y-12834394D01*
X17007259Y-12925606D01*
X16980000Y-13027339D01*
X16980000Y-13033553D01*
X16300524Y-12354077D01*
X16300523Y-12354077D01*
X16268143Y-12398644D01*
X16175244Y-12580968D01*
X16112009Y-12775582D01*
X16080000Y-12977682D01*
X16080000Y-13182317D01*
X16112009Y-13384417D01*
X16175244Y-13579031D01*
X16268141Y-13761350D01*
X16268147Y-13761359D01*
X16300523Y-13805921D01*
X16300524Y-13805922D01*
X16980000Y-13126446D01*
X16980000Y-13132661D01*
X17007259Y-13234394D01*
X17059920Y-13325606D01*
X17134394Y-13400080D01*
X17225606Y-13452741D01*
X17327339Y-13480000D01*
X17333553Y-13480000D01*
X16654076Y-14159474D01*
X16698650Y-14191859D01*
X16880968Y-14284755D01*
X17075577Y-14347988D01*
X17121586Y-14355275D01*
X17184722Y-14385204D01*
X17221653Y-14444515D01*
X17220657Y-14514378D01*
X17182047Y-14572611D01*
X17126383Y-14599366D01*
X17073584Y-14609868D01*
X17073579Y-14609870D01*
X16882403Y-14689058D01*
X16710342Y-14804024D01*
X16564022Y-14950344D01*
X16449062Y-15122395D01*
X16449059Y-15122402D01*
X16440546Y-15142954D01*
X16396704Y-15197357D01*
X16330410Y-15219421D01*
X16325985Y-15219500D01*
X14407273Y-15219500D01*
X14305413Y-15246793D01*
X14305410Y-15246794D01*
X14259063Y-15273553D01*
X14233713Y-15288189D01*
X14227881Y-15291555D01*
X14214087Y-15299519D01*
X14214085Y-15299521D01*
X10462103Y-19051502D01*
X10400780Y-19084987D01*
X10331088Y-19080003D01*
X10326983Y-19078387D01*
X10306420Y-19069870D01*
X10306412Y-19069868D01*
X10103469Y-19029500D01*
X10103465Y-19029500D01*
X9896535Y-19029500D01*
X9896530Y-19029500D01*
X9693587Y-19069868D01*
X9693575Y-19069871D01*
X9560968Y-19124799D01*
X9491499Y-19132268D01*
X9429020Y-19100993D01*
X9393368Y-19040904D01*
X9395862Y-18971079D01*
X9425833Y-18922559D01*
X14320480Y-14027913D01*
X14373207Y-13936588D01*
X14400500Y-13834727D01*
X14400500Y-13729273D01*
X14400500Y-11057412D01*
X14420185Y-10990373D01*
X14472989Y-10944618D01*
X14542147Y-10934674D01*
X14556583Y-10937635D01*
G37*
%TD.AperFunction*%
%TA.AperFunction,Conductor*%
G36*
X83003032Y-250648D02*
G01*
X83361433Y-268256D01*
X83373541Y-269448D01*
X83725475Y-321653D01*
X83737389Y-324023D01*
X84082520Y-410473D01*
X84094147Y-414000D01*
X84429151Y-533867D01*
X84440363Y-538511D01*
X84762012Y-690639D01*
X84772720Y-696363D01*
X85077881Y-879270D01*
X85087999Y-886030D01*
X85373769Y-1097971D01*
X85383175Y-1105691D01*
X85646790Y-1344618D01*
X85655381Y-1353209D01*
X85857883Y-1576635D01*
X85894308Y-1616824D01*
X85902028Y-1626230D01*
X86113969Y-1912000D01*
X86120729Y-1922118D01*
X86175149Y-2012912D01*
X86285186Y-2196498D01*
X86303629Y-2227267D01*
X86309366Y-2237999D01*
X86461485Y-2559629D01*
X86466136Y-2570858D01*
X86505017Y-2679521D01*
X86585994Y-2905837D01*
X86589526Y-2917481D01*
X86675973Y-3262597D01*
X86678347Y-3274532D01*
X86730550Y-3626457D01*
X86731743Y-3638567D01*
X86749351Y-3996966D01*
X86749500Y-4003051D01*
X86749500Y-49996948D01*
X86749351Y-50003033D01*
X86731743Y-50361432D01*
X86730550Y-50373542D01*
X86678347Y-50725467D01*
X86675973Y-50737402D01*
X86589526Y-51082518D01*
X86585994Y-51094162D01*
X86486151Y-51373206D01*
X86466142Y-51429127D01*
X86461485Y-51440370D01*
X86309366Y-51762000D01*
X86303629Y-51772732D01*
X86120729Y-52077881D01*
X86113969Y-52087999D01*
X85902028Y-52373769D01*
X85894308Y-52383175D01*
X85655388Y-52646783D01*
X85646783Y-52655388D01*
X85383175Y-52894308D01*
X85373769Y-52902028D01*
X85087999Y-53113969D01*
X85077881Y-53120729D01*
X84772732Y-53303629D01*
X84762000Y-53309366D01*
X84440370Y-53461485D01*
X84429134Y-53466139D01*
X84305442Y-53510397D01*
X84094162Y-53585994D01*
X84082518Y-53589526D01*
X83737402Y-53675973D01*
X83725467Y-53678347D01*
X83373542Y-53730550D01*
X83361432Y-53731743D01*
X83023927Y-53748324D01*
X83003031Y-53749351D01*
X82996949Y-53749500D01*
X4003051Y-53749500D01*
X3996968Y-53749351D01*
X3974856Y-53748264D01*
X3638567Y-53731743D01*
X3626457Y-53730550D01*
X3274532Y-53678347D01*
X3262597Y-53675973D01*
X2917481Y-53589526D01*
X2905837Y-53585994D01*
X2570858Y-53466136D01*
X2559629Y-53461485D01*
X2237999Y-53309366D01*
X2227272Y-53303631D01*
X1922118Y-53120729D01*
X1912000Y-53113969D01*
X1626230Y-52902028D01*
X1616824Y-52894308D01*
X1422650Y-52718319D01*
X1353209Y-52655381D01*
X1344618Y-52646790D01*
X1105691Y-52383175D01*
X1097971Y-52373769D01*
X886030Y-52087999D01*
X879270Y-52077881D01*
X870459Y-52063181D01*
X696363Y-51772720D01*
X690639Y-51762012D01*
X538511Y-51440363D01*
X533867Y-51429151D01*
X414000Y-51094147D01*
X410473Y-51082518D01*
X324023Y-50737389D01*
X321652Y-50725467D01*
X302546Y-50596666D01*
X269448Y-50373541D01*
X268256Y-50361431D01*
X250649Y-50003032D01*
X250500Y-49996948D01*
X250500Y-49875441D01*
X2099500Y-49875441D01*
X2099500Y-50124558D01*
X2099501Y-50124575D01*
X2131484Y-50367515D01*
X2132018Y-50371565D01*
X2187819Y-50579815D01*
X2196498Y-50612207D01*
X2291830Y-50842361D01*
X2291837Y-50842376D01*
X2416400Y-51058126D01*
X2568060Y-51255774D01*
X2568066Y-51255781D01*
X2744218Y-51431933D01*
X2744225Y-51431939D01*
X2941873Y-51583599D01*
X3157623Y-51708162D01*
X3157638Y-51708169D01*
X3256825Y-51749253D01*
X3387793Y-51803502D01*
X3628435Y-51867982D01*
X3875435Y-51900500D01*
X3875442Y-51900500D01*
X4124558Y-51900500D01*
X4124565Y-51900500D01*
X4371565Y-51867982D01*
X4612207Y-51803502D01*
X4842373Y-51708164D01*
X5058127Y-51583599D01*
X5255776Y-51431938D01*
X5431938Y-51255776D01*
X5583599Y-51058127D01*
X5708164Y-50842373D01*
X5803502Y-50612207D01*
X5867982Y-50371565D01*
X5900500Y-50124565D01*
X5900500Y-49875435D01*
X5867982Y-49628435D01*
X5803502Y-49387793D01*
X5727685Y-49204755D01*
X5708169Y-49157638D01*
X5708162Y-49157623D01*
X5583599Y-48941873D01*
X5431939Y-48744225D01*
X5431933Y-48744218D01*
X5255781Y-48568066D01*
X5255774Y-48568060D01*
X5058126Y-48416400D01*
X4842376Y-48291837D01*
X4842361Y-48291830D01*
X4612207Y-48196498D01*
X4371561Y-48132017D01*
X4124575Y-48099501D01*
X4124570Y-48099500D01*
X4124565Y-48099500D01*
X3875435Y-48099500D01*
X3875429Y-48099500D01*
X3875424Y-48099501D01*
X3628438Y-48132017D01*
X3387792Y-48196498D01*
X3157638Y-48291830D01*
X3157623Y-48291837D01*
X2941873Y-48416400D01*
X2744225Y-48568060D01*
X2744218Y-48568066D01*
X2568066Y-48744218D01*
X2568060Y-48744225D01*
X2416400Y-48941873D01*
X2291837Y-49157623D01*
X2291830Y-49157638D01*
X2196498Y-49387792D01*
X2132017Y-49628438D01*
X2099501Y-49875424D01*
X2099500Y-49875441D01*
X250500Y-49875441D01*
X250500Y-33453389D01*
X899500Y-33453389D01*
X899500Y-33626610D01*
X914928Y-33724023D01*
X926598Y-33797701D01*
X980127Y-33962445D01*
X1058768Y-34116788D01*
X1160586Y-34256928D01*
X1283072Y-34379414D01*
X1423212Y-34481232D01*
X1577555Y-34559873D01*
X1742299Y-34613402D01*
X1913389Y-34640500D01*
X1913390Y-34640500D01*
X2086610Y-34640500D01*
X2086611Y-34640500D01*
X2257701Y-34613402D01*
X2422445Y-34559873D01*
X2576788Y-34481232D01*
X2716928Y-34379414D01*
X2839414Y-34256928D01*
X2941232Y-34116788D01*
X2972670Y-34055087D01*
X2996557Y-34008206D01*
X3044531Y-33957409D01*
X3107042Y-33940500D01*
X8482725Y-33940500D01*
X8482727Y-33940500D01*
X8584588Y-33913207D01*
X8675913Y-33860480D01*
X13587896Y-28948495D01*
X13649217Y-28915012D01*
X13718909Y-28919996D01*
X13723027Y-28921617D01*
X13743575Y-28930128D01*
X13743580Y-28930130D01*
X13946530Y-28970499D01*
X13946534Y-28970500D01*
X13946535Y-28970500D01*
X14153466Y-28970500D01*
X14153467Y-28970499D01*
X14356420Y-28930130D01*
X14376967Y-28921618D01*
X14446435Y-28914147D01*
X14508915Y-28945420D01*
X14512104Y-28948497D01*
X15344087Y-29780480D01*
X15435412Y-29833207D01*
X15537273Y-29860500D01*
X16130985Y-29860500D01*
X16198024Y-29880185D01*
X16243779Y-29932989D01*
X16245544Y-29937043D01*
X16254058Y-29957596D01*
X16254059Y-29957597D01*
X16254062Y-29957604D01*
X16369022Y-30129655D01*
X16515342Y-30275975D01*
X16515345Y-30275977D01*
X16687402Y-30390941D01*
X16878580Y-30470130D01*
X16908696Y-30476120D01*
X16931381Y-30480633D01*
X16993292Y-30513017D01*
X17027866Y-30573733D01*
X17024127Y-30643502D01*
X16983261Y-30700175D01*
X16926589Y-30724723D01*
X16880581Y-30732010D01*
X16685968Y-30795244D01*
X16503644Y-30888143D01*
X16459077Y-30920523D01*
X16459077Y-30920524D01*
X17138554Y-31600000D01*
X17132339Y-31600000D01*
X17030606Y-31627259D01*
X16939394Y-31679920D01*
X16864920Y-31754394D01*
X16812259Y-31845606D01*
X16785000Y-31947339D01*
X16785000Y-31953553D01*
X16105524Y-31274077D01*
X16105523Y-31274077D01*
X16073143Y-31318644D01*
X15980244Y-31500968D01*
X15917009Y-31695582D01*
X15885000Y-31897682D01*
X15885000Y-32102317D01*
X15917009Y-32304417D01*
X15980244Y-32499031D01*
X16073141Y-32681350D01*
X16073147Y-32681359D01*
X16105523Y-32725921D01*
X16105524Y-32725922D01*
X16785000Y-32046446D01*
X16785000Y-32052661D01*
X16812259Y-32154394D01*
X16864920Y-32245606D01*
X16939394Y-32320080D01*
X17030606Y-32372741D01*
X17132339Y-32400000D01*
X17138553Y-32400000D01*
X16459076Y-33079474D01*
X16503650Y-33111859D01*
X16685968Y-33204755D01*
X16880577Y-33267988D01*
X16926586Y-33275275D01*
X16989722Y-33305204D01*
X17026653Y-33364515D01*
X17025657Y-33434378D01*
X16987047Y-33492611D01*
X16931383Y-33519366D01*
X16878584Y-33529868D01*
X16878579Y-33529870D01*
X16687403Y-33609058D01*
X16515342Y-33724024D01*
X16369022Y-33870344D01*
X16254062Y-34042395D01*
X16254059Y-34042402D01*
X16245546Y-34062954D01*
X16201704Y-34117357D01*
X16135410Y-34139421D01*
X16130985Y-34139500D01*
X13487273Y-34139500D01*
X13385410Y-34166793D01*
X13294087Y-34219520D01*
X13294084Y-34219522D01*
X10462103Y-37051502D01*
X10400780Y-37084987D01*
X10331088Y-37080003D01*
X10326983Y-37078387D01*
X10306420Y-37069870D01*
X10306412Y-37069868D01*
X10103469Y-37029500D01*
X10103465Y-37029500D01*
X9896535Y-37029500D01*
X9896530Y-37029500D01*
X9693587Y-37069867D01*
X9693583Y-37069869D01*
X9693581Y-37069869D01*
X9693580Y-37069870D01*
X9678786Y-37075997D01*
X9673025Y-37078384D01*
X9603555Y-37085850D01*
X9541077Y-37054573D01*
X9537895Y-37051502D01*
X8245915Y-35759522D01*
X8245913Y-35759520D01*
X8169638Y-35715482D01*
X8154589Y-35706793D01*
X8083360Y-35687708D01*
X8052727Y-35679500D01*
X8052726Y-35679500D01*
X3107042Y-35679500D01*
X3040003Y-35659815D01*
X2996557Y-35611794D01*
X2941233Y-35503213D01*
X2917786Y-35470941D01*
X2839414Y-35363072D01*
X2716928Y-35240586D01*
X2576788Y-35138768D01*
X2461315Y-35079932D01*
X2422447Y-35060128D01*
X2422446Y-35060127D01*
X2422445Y-35060127D01*
X2257701Y-35006598D01*
X2257699Y-35006597D01*
X2257698Y-35006597D01*
X2126271Y-34985781D01*
X2086611Y-34979500D01*
X1913389Y-34979500D01*
X1873728Y-34985781D01*
X1742302Y-35006597D01*
X1577552Y-35060128D01*
X1423211Y-35138768D01*
X1343256Y-35196859D01*
X1283072Y-35240586D01*
X1283070Y-35240588D01*
X1283069Y-35240588D01*
X1160588Y-35363069D01*
X1160588Y-35363070D01*
X1160586Y-35363072D01*
X1142851Y-35387482D01*
X1058768Y-35503211D01*
X980128Y-35657552D01*
X926597Y-35822302D01*
X899500Y-35993389D01*
X899500Y-36166610D01*
X914564Y-36261725D01*
X926598Y-36337701D01*
X980127Y-36502445D01*
X1058768Y-36656788D01*
X1160586Y-36796928D01*
X1283072Y-36919414D01*
X1423212Y-37021232D01*
X1577555Y-37099873D01*
X1742299Y-37153402D01*
X1913389Y-37180500D01*
X1913390Y-37180500D01*
X2086610Y-37180500D01*
X2086611Y-37180500D01*
X2257701Y-37153402D01*
X2422445Y-37099873D01*
X2576788Y-37021232D01*
X2716928Y-36919414D01*
X2839414Y-36796928D01*
X2941232Y-36656788D01*
X2946258Y-36646922D01*
X2996557Y-36548206D01*
X3044531Y-36497409D01*
X3107042Y-36480500D01*
X7782745Y-36480500D01*
X7849784Y-36500185D01*
X7870426Y-36516819D01*
X8971502Y-37617895D01*
X9004987Y-37679218D01*
X9000003Y-37748910D01*
X8998384Y-37753025D01*
X8989870Y-37773580D01*
X8989869Y-37773581D01*
X8989867Y-37773587D01*
X8949500Y-37976530D01*
X8949500Y-38183469D01*
X8989868Y-38386412D01*
X8989870Y-38386420D01*
X9058240Y-38551480D01*
X9069059Y-38577598D01*
X9105074Y-38631499D01*
X9184024Y-38749657D01*
X9330342Y-38895975D01*
X9330345Y-38895977D01*
X9502402Y-39010941D01*
X9693580Y-39090130D01*
X9896530Y-39130499D01*
X9896534Y-39130500D01*
X9896535Y-39130500D01*
X10103466Y-39130500D01*
X10103467Y-39130499D01*
X10306420Y-39090130D01*
X10497598Y-39010941D01*
X10669655Y-38895977D01*
X10815977Y-38749655D01*
X10930941Y-38577598D01*
X11010130Y-38386420D01*
X11050500Y-38183465D01*
X11050500Y-37977682D01*
X12750000Y-37977682D01*
X12750000Y-38182317D01*
X12782009Y-38384417D01*
X12845244Y-38579031D01*
X12938141Y-38761350D01*
X12938147Y-38761359D01*
X12970523Y-38805921D01*
X12970524Y-38805922D01*
X13650000Y-38126446D01*
X13650000Y-38132661D01*
X13677259Y-38234394D01*
X13729920Y-38325606D01*
X13804394Y-38400080D01*
X13895606Y-38452741D01*
X13997339Y-38480000D01*
X14003553Y-38480000D01*
X13324076Y-39159474D01*
X13368650Y-39191859D01*
X13550968Y-39284755D01*
X13745582Y-39347990D01*
X13947683Y-39380000D01*
X14152317Y-39380000D01*
X14354417Y-39347990D01*
X14549031Y-39284755D01*
X14731349Y-39191859D01*
X14775921Y-39159474D01*
X14096447Y-38480000D01*
X14102661Y-38480000D01*
X14204394Y-38452741D01*
X14295606Y-38400080D01*
X14370080Y-38325606D01*
X14422741Y-38234394D01*
X14450000Y-38132661D01*
X14450000Y-38126447D01*
X15129474Y-38805921D01*
X15161859Y-38761349D01*
X15254755Y-38579031D01*
X15317990Y-38384417D01*
X15350000Y-38182317D01*
X15350000Y-37977682D01*
X15317990Y-37775582D01*
X15254755Y-37580968D01*
X15161859Y-37398650D01*
X15129474Y-37354077D01*
X15129474Y-37354076D01*
X14450000Y-38033551D01*
X14450000Y-38027339D01*
X14422741Y-37925606D01*
X14370080Y-37834394D01*
X14295606Y-37759920D01*
X14204394Y-37707259D01*
X14102661Y-37680000D01*
X14096446Y-37680000D01*
X14775922Y-37000524D01*
X14775921Y-37000523D01*
X14731359Y-36968147D01*
X14731350Y-36968141D01*
X14549031Y-36875244D01*
X14354417Y-36812009D01*
X14152317Y-36780000D01*
X13947683Y-36780000D01*
X13745582Y-36812009D01*
X13550968Y-36875244D01*
X13368644Y-36968143D01*
X13324077Y-37000523D01*
X13324077Y-37000524D01*
X14003554Y-37680000D01*
X13997339Y-37680000D01*
X13895606Y-37707259D01*
X13804394Y-37759920D01*
X13729920Y-37834394D01*
X13677259Y-37925606D01*
X13650000Y-38027339D01*
X13650000Y-38033553D01*
X12970524Y-37354077D01*
X12970523Y-37354077D01*
X12938143Y-37398644D01*
X12845244Y-37580968D01*
X12782009Y-37775582D01*
X12750000Y-37977682D01*
X11050500Y-37977682D01*
X11050500Y-37976535D01*
X11010130Y-37773580D01*
X11001617Y-37753027D01*
X10994148Y-37683558D01*
X11025423Y-37621079D01*
X11028468Y-37617923D01*
X13669574Y-34976819D01*
X13730897Y-34943334D01*
X13757255Y-34940500D01*
X16130985Y-34940500D01*
X16198024Y-34960185D01*
X16243779Y-35012989D01*
X16245544Y-35017043D01*
X16254058Y-35037596D01*
X16254059Y-35037597D01*
X16254062Y-35037604D01*
X16369022Y-35209655D01*
X16515342Y-35355975D01*
X16515345Y-35355977D01*
X16687402Y-35470941D01*
X16878580Y-35550130D01*
X16908696Y-35556120D01*
X16931381Y-35560633D01*
X16993292Y-35593017D01*
X17027866Y-35653733D01*
X17024127Y-35723502D01*
X16983261Y-35780175D01*
X16926589Y-35804723D01*
X16880581Y-35812010D01*
X16685968Y-35875244D01*
X16503644Y-35968143D01*
X16459077Y-36000523D01*
X16459077Y-36000524D01*
X17138554Y-36680000D01*
X17132339Y-36680000D01*
X17030606Y-36707259D01*
X16939394Y-36759920D01*
X16864920Y-36834394D01*
X16812259Y-36925606D01*
X16785000Y-37027339D01*
X16785000Y-37033553D01*
X16105524Y-36354077D01*
X16105523Y-36354077D01*
X16073143Y-36398644D01*
X15980244Y-36580968D01*
X15917009Y-36775582D01*
X15885000Y-36977682D01*
X15885000Y-37182317D01*
X15917009Y-37384417D01*
X15980244Y-37579031D01*
X16073141Y-37761350D01*
X16073147Y-37761359D01*
X16105523Y-37805921D01*
X16105524Y-37805922D01*
X16785000Y-37126446D01*
X16785000Y-37132661D01*
X16812259Y-37234394D01*
X16864920Y-37325606D01*
X16939394Y-37400080D01*
X17030606Y-37452741D01*
X17132339Y-37480000D01*
X17138553Y-37480000D01*
X16459076Y-38159474D01*
X16503650Y-38191859D01*
X16685968Y-38284755D01*
X16880577Y-38347988D01*
X16926586Y-38355275D01*
X16989722Y-38385204D01*
X17026653Y-38444515D01*
X17025657Y-38514378D01*
X16987047Y-38572611D01*
X16931383Y-38599366D01*
X16878584Y-38609868D01*
X16878579Y-38609870D01*
X16687403Y-38689058D01*
X16515342Y-38804024D01*
X16369024Y-38950342D01*
X16254058Y-39122403D01*
X16174870Y-39313579D01*
X16174868Y-39313587D01*
X16134500Y-39516530D01*
X16134500Y-39723469D01*
X16174868Y-39926412D01*
X16174870Y-39926420D01*
X16254058Y-40117596D01*
X16369024Y-40289657D01*
X16515342Y-40435975D01*
X16515345Y-40435977D01*
X16687402Y-40550941D01*
X16878580Y-40630130D01*
X17049305Y-40664089D01*
X17081530Y-40670499D01*
X17081534Y-40670500D01*
X17081535Y-40670500D01*
X17288466Y-40670500D01*
X17288467Y-40670499D01*
X17491420Y-40630130D01*
X17682598Y-40550941D01*
X17854655Y-40435977D01*
X18000977Y-40289655D01*
X18115941Y-40117598D01*
X18195130Y-39926420D01*
X18235500Y-39723465D01*
X18235500Y-39516535D01*
X18195130Y-39313580D01*
X18115941Y-39122402D01*
X18000977Y-38950345D01*
X18000975Y-38950342D01*
X17854657Y-38804024D01*
X17704942Y-38703989D01*
X17682598Y-38689059D01*
X17491420Y-38609870D01*
X17491414Y-38609868D01*
X17438617Y-38599366D01*
X17376706Y-38566981D01*
X17342132Y-38506265D01*
X17345873Y-38436495D01*
X17386739Y-38379823D01*
X17443413Y-38355275D01*
X17489422Y-38347988D01*
X17684031Y-38284755D01*
X17866349Y-38191859D01*
X17910921Y-38159474D01*
X17231447Y-37480000D01*
X17237661Y-37480000D01*
X17339394Y-37452741D01*
X17430606Y-37400080D01*
X17505080Y-37325606D01*
X17557741Y-37234394D01*
X17585000Y-37132661D01*
X17585000Y-37126447D01*
X18264474Y-37805921D01*
X18296859Y-37761349D01*
X18389755Y-37579031D01*
X18452990Y-37384417D01*
X18485000Y-37182317D01*
X18485000Y-36977682D01*
X18452990Y-36775582D01*
X18389755Y-36580968D01*
X18296859Y-36398650D01*
X18264474Y-36354077D01*
X18264474Y-36354076D01*
X17585000Y-37033551D01*
X17585000Y-37027339D01*
X17557741Y-36925606D01*
X17505080Y-36834394D01*
X17430606Y-36759920D01*
X17339394Y-36707259D01*
X17237661Y-36680000D01*
X17231446Y-36680000D01*
X17910922Y-36000524D01*
X17910921Y-36000523D01*
X17866359Y-35968147D01*
X17866350Y-35968141D01*
X17684031Y-35875244D01*
X17489417Y-35812009D01*
X17443411Y-35804723D01*
X17380276Y-35774794D01*
X17343345Y-35715482D01*
X17344343Y-35645619D01*
X17382953Y-35587387D01*
X17438616Y-35560633D01*
X17491420Y-35550130D01*
X17682598Y-35470941D01*
X17854655Y-35355977D01*
X18000977Y-35209655D01*
X18115941Y-35037598D01*
X18195130Y-34846420D01*
X18235500Y-34643465D01*
X18235500Y-34436535D01*
X18195130Y-34233580D01*
X18115941Y-34042402D01*
X18000977Y-33870345D01*
X18000976Y-33870344D01*
X18000975Y-33870342D01*
X17854657Y-33724024D01*
X17768626Y-33666541D01*
X17682598Y-33609059D01*
X17491420Y-33529870D01*
X17491414Y-33529868D01*
X17438617Y-33519366D01*
X17376706Y-33486981D01*
X17342132Y-33426265D01*
X17345873Y-33356495D01*
X17386739Y-33299823D01*
X17443413Y-33275275D01*
X17489422Y-33267988D01*
X17684031Y-33204755D01*
X17866349Y-33111859D01*
X17910921Y-33079474D01*
X17231447Y-32400000D01*
X17237661Y-32400000D01*
X17339394Y-32372741D01*
X17430606Y-32320080D01*
X17505080Y-32245606D01*
X17557741Y-32154394D01*
X17585000Y-32052661D01*
X17585000Y-32046447D01*
X18264474Y-32725921D01*
X18296859Y-32681349D01*
X18389755Y-32499031D01*
X18452990Y-32304417D01*
X18485000Y-32102317D01*
X18485000Y-31897682D01*
X18452990Y-31695582D01*
X18389755Y-31500968D01*
X18296859Y-31318650D01*
X18264474Y-31274077D01*
X18264474Y-31274076D01*
X17585000Y-31953551D01*
X17585000Y-31947339D01*
X17557741Y-31845606D01*
X17505080Y-31754394D01*
X17430606Y-31679920D01*
X17339394Y-31627259D01*
X17237661Y-31600000D01*
X17231446Y-31600000D01*
X17910922Y-30920524D01*
X17910921Y-30920523D01*
X17866359Y-30888147D01*
X17866350Y-30888141D01*
X17684031Y-30795244D01*
X17489417Y-30732009D01*
X17443411Y-30724723D01*
X17380276Y-30694794D01*
X17343345Y-30635482D01*
X17344343Y-30565619D01*
X17382953Y-30507387D01*
X17438616Y-30480633D01*
X17491420Y-30470130D01*
X17682598Y-30390941D01*
X17854655Y-30275977D01*
X18000977Y-30129655D01*
X18115941Y-29957598D01*
X18195130Y-29766420D01*
X18235500Y-29563465D01*
X18235500Y-29356535D01*
X18195130Y-29153580D01*
X18115941Y-28962402D01*
X18000977Y-28790345D01*
X18000976Y-28790344D01*
X18000975Y-28790342D01*
X17854657Y-28644024D01*
X17768626Y-28586541D01*
X17682598Y-28529059D01*
X17491420Y-28449870D01*
X17491412Y-28449868D01*
X17288469Y-28409500D01*
X17288465Y-28409500D01*
X17081535Y-28409500D01*
X17081530Y-28409500D01*
X16878587Y-28449868D01*
X16878579Y-28449870D01*
X16687403Y-28529058D01*
X16515342Y-28644024D01*
X16369022Y-28790344D01*
X16254062Y-28962395D01*
X16254059Y-28962402D01*
X16245546Y-28982954D01*
X16201704Y-29037357D01*
X16135410Y-29059421D01*
X16130985Y-29059500D01*
X15807255Y-29059500D01*
X15740216Y-29039815D01*
X15719574Y-29023181D01*
X15078497Y-28382104D01*
X15045012Y-28320781D01*
X15045579Y-28265580D01*
X15047860Y-28256040D01*
X15060130Y-28226420D01*
X15078857Y-28132271D01*
X20599500Y-28132271D01*
X20599500Y-28132273D01*
X20599500Y-36947273D01*
X20599500Y-37052727D01*
X20612132Y-37099871D01*
X20626793Y-37154589D01*
X20635798Y-37170185D01*
X20679520Y-37245913D01*
X21985087Y-38551480D01*
X22076412Y-38604207D01*
X22178273Y-38631500D01*
X23710334Y-38631500D01*
X23777373Y-38651185D01*
X23823128Y-38703989D01*
X23833072Y-38773147D01*
X23814031Y-38819109D01*
X23815454Y-38819886D01*
X23811202Y-38827671D01*
X23760908Y-38962517D01*
X23754501Y-39022116D01*
X23754500Y-39022135D01*
X23754500Y-40217870D01*
X23754501Y-40217876D01*
X23760908Y-40277483D01*
X23811202Y-40412328D01*
X23811206Y-40412335D01*
X23897452Y-40527544D01*
X23897455Y-40527547D01*
X24012664Y-40613793D01*
X24012671Y-40613797D01*
X24054497Y-40629397D01*
X24147517Y-40664091D01*
X24207127Y-40670500D01*
X24280500Y-40670499D01*
X24347538Y-40690183D01*
X24393294Y-40742986D01*
X24404500Y-40794499D01*
X24404500Y-44607726D01*
X24431793Y-44709589D01*
X24441154Y-44725802D01*
X24484520Y-44800913D01*
X32429518Y-52745910D01*
X32429520Y-52745913D01*
X32504087Y-52820480D01*
X32549750Y-52846843D01*
X32595412Y-52873207D01*
X32697273Y-52900501D01*
X32697276Y-52900501D01*
X32810323Y-52900501D01*
X32810339Y-52900500D01*
X71552725Y-52900500D01*
X71552727Y-52900500D01*
X71654588Y-52873207D01*
X71745913Y-52820480D01*
X74690952Y-49875441D01*
X81099500Y-49875441D01*
X81099500Y-50124558D01*
X81099501Y-50124575D01*
X81131484Y-50367515D01*
X81132018Y-50371565D01*
X81187819Y-50579815D01*
X81196498Y-50612207D01*
X81291830Y-50842361D01*
X81291837Y-50842376D01*
X81416400Y-51058126D01*
X81568060Y-51255774D01*
X81568066Y-51255781D01*
X81744218Y-51431933D01*
X81744225Y-51431939D01*
X81941873Y-51583599D01*
X82157623Y-51708162D01*
X82157638Y-51708169D01*
X82256825Y-51749253D01*
X82387793Y-51803502D01*
X82628435Y-51867982D01*
X82875435Y-51900500D01*
X82875442Y-51900500D01*
X83124558Y-51900500D01*
X83124565Y-51900500D01*
X83371565Y-51867982D01*
X83612207Y-51803502D01*
X83842373Y-51708164D01*
X84058127Y-51583599D01*
X84255776Y-51431938D01*
X84431938Y-51255776D01*
X84583599Y-51058127D01*
X84708164Y-50842373D01*
X84803502Y-50612207D01*
X84867982Y-50371565D01*
X84900500Y-50124565D01*
X84900500Y-49875435D01*
X84867982Y-49628435D01*
X84803502Y-49387793D01*
X84727685Y-49204755D01*
X84708169Y-49157638D01*
X84708162Y-49157623D01*
X84583599Y-48941873D01*
X84431939Y-48744225D01*
X84431933Y-48744218D01*
X84255781Y-48568066D01*
X84255774Y-48568060D01*
X84058126Y-48416400D01*
X83842376Y-48291837D01*
X83842361Y-48291830D01*
X83612207Y-48196498D01*
X83371561Y-48132017D01*
X83124575Y-48099501D01*
X83124570Y-48099500D01*
X83124565Y-48099500D01*
X82875435Y-48099500D01*
X82875429Y-48099500D01*
X82875424Y-48099501D01*
X82628438Y-48132017D01*
X82387792Y-48196498D01*
X82157638Y-48291830D01*
X82157623Y-48291837D01*
X81941873Y-48416400D01*
X81744225Y-48568060D01*
X81744218Y-48568066D01*
X81568066Y-48744218D01*
X81568060Y-48744225D01*
X81416400Y-48941873D01*
X81291837Y-49157623D01*
X81291830Y-49157638D01*
X81196498Y-49387792D01*
X81132017Y-49628438D01*
X81099501Y-49875424D01*
X81099500Y-49875441D01*
X74690952Y-49875441D01*
X76320480Y-48245913D01*
X76373207Y-48154588D01*
X76400500Y-48052727D01*
X76400500Y-47947273D01*
X76400500Y-46902729D01*
X76400501Y-46902716D01*
X76400501Y-46787276D01*
X76400501Y-46787274D01*
X76373207Y-46685413D01*
X76356173Y-46655909D01*
X76320480Y-46594087D01*
X76245913Y-46519520D01*
X76245912Y-46519519D01*
X76241582Y-46515189D01*
X76241571Y-46515179D01*
X74546819Y-44820426D01*
X74513334Y-44759103D01*
X74510500Y-44732745D01*
X74510500Y-43102134D01*
X74510500Y-43102126D01*
X74504091Y-43042516D01*
X74457378Y-42917272D01*
X74453797Y-42907671D01*
X74453796Y-42907669D01*
X74450882Y-42903776D01*
X74367547Y-42792453D01*
X74252331Y-42706204D01*
X74252330Y-42706203D01*
X74252328Y-42706202D01*
X74117488Y-42655910D01*
X74117481Y-42655908D01*
X74057884Y-42649501D01*
X74057882Y-42649500D01*
X74057874Y-42649500D01*
X74057866Y-42649500D01*
X73604500Y-42649500D01*
X73537461Y-42629815D01*
X73491706Y-42577011D01*
X73480500Y-42525500D01*
X73480500Y-41054014D01*
X73500185Y-40986975D01*
X73552989Y-40941220D01*
X73557048Y-40939453D01*
X73560500Y-40938023D01*
X73577598Y-40930941D01*
X73749655Y-40815977D01*
X73895977Y-40669655D01*
X74010941Y-40497598D01*
X74090130Y-40306420D01*
X74130500Y-40103465D01*
X74130500Y-39896535D01*
X74090130Y-39693580D01*
X74010941Y-39502402D01*
X73895977Y-39330345D01*
X73895975Y-39330342D01*
X73749657Y-39184024D01*
X73663626Y-39126541D01*
X73577598Y-39069059D01*
X73560498Y-39061976D01*
X73386420Y-38989870D01*
X73386412Y-38989868D01*
X73183469Y-38949500D01*
X73183465Y-38949500D01*
X72976535Y-38949500D01*
X72976530Y-38949500D01*
X72773587Y-38989868D01*
X72773579Y-38989870D01*
X72582403Y-39069058D01*
X72410342Y-39184024D01*
X72264024Y-39330342D01*
X72149058Y-39502403D01*
X72069870Y-39693579D01*
X72069868Y-39693587D01*
X72029500Y-39896530D01*
X72029500Y-40103469D01*
X72069868Y-40306412D01*
X72069870Y-40306420D01*
X72131243Y-40454588D01*
X72149059Y-40497598D01*
X72186425Y-40553520D01*
X72264024Y-40669657D01*
X72410342Y-40815975D01*
X72410345Y-40815977D01*
X72582402Y-40930941D01*
X72599500Y-40938023D01*
X72602952Y-40939453D01*
X72657356Y-40983293D01*
X72679421Y-41049587D01*
X72679500Y-41054014D01*
X72679500Y-42525500D01*
X72659815Y-42592539D01*
X72607011Y-42638294D01*
X72555500Y-42649500D01*
X72262126Y-42649500D01*
X72262118Y-42649500D01*
X72262115Y-42649501D01*
X72202518Y-42655908D01*
X72202511Y-42655910D01*
X72067671Y-42706202D01*
X72067669Y-42706203D01*
X71952453Y-42792453D01*
X71866203Y-42907669D01*
X71866202Y-42907671D01*
X71815910Y-43042511D01*
X71815908Y-43042518D01*
X71809501Y-43102115D01*
X71809500Y-43102134D01*
X71809500Y-44897865D01*
X71809501Y-44897884D01*
X71815908Y-44957481D01*
X71815910Y-44957488D01*
X71866202Y-45092328D01*
X71866203Y-45092330D01*
X71866204Y-45092331D01*
X71952453Y-45207547D01*
X72055051Y-45284350D01*
X72067669Y-45293796D01*
X72067671Y-45293797D01*
X72155696Y-45326628D01*
X72202516Y-45344091D01*
X72262126Y-45350500D01*
X73892745Y-45350500D01*
X73959784Y-45370185D01*
X73980426Y-45386819D01*
X75563181Y-46969573D01*
X75596666Y-47030896D01*
X75599500Y-47057254D01*
X75599500Y-47782745D01*
X75579815Y-47849784D01*
X75563181Y-47870426D01*
X71370426Y-52063181D01*
X71309103Y-52096666D01*
X71282745Y-52099500D01*
X32967254Y-52099500D01*
X32900215Y-52079815D01*
X32879573Y-52063181D01*
X25241819Y-44425426D01*
X25208334Y-44364103D01*
X25205500Y-44337745D01*
X25205500Y-40794499D01*
X25207642Y-40787201D01*
X25206386Y-40779699D01*
X25217352Y-40754135D01*
X25225185Y-40727460D01*
X25230931Y-40722480D01*
X25233931Y-40715488D01*
X25256978Y-40699911D01*
X25277989Y-40681705D01*
X25286966Y-40679642D01*
X25291819Y-40676363D01*
X25321040Y-40671815D01*
X25326628Y-40670532D01*
X25328052Y-40670499D01*
X25402872Y-40670499D01*
X25423425Y-40668289D01*
X25428628Y-40668169D01*
X25457545Y-40675937D01*
X25487004Y-40681252D01*
X25490927Y-40684905D01*
X25496105Y-40686296D01*
X25516229Y-40708461D01*
X25538141Y-40728862D01*
X25539608Y-40734212D01*
X25543071Y-40738026D01*
X25546858Y-40760638D01*
X25555500Y-40792136D01*
X25555500Y-42758726D01*
X25582793Y-42860589D01*
X25607728Y-42903776D01*
X25635520Y-42951913D01*
X34004087Y-51320480D01*
X34095412Y-51373207D01*
X34197273Y-51400500D01*
X34197275Y-51400500D01*
X57132725Y-51400500D01*
X57132727Y-51400500D01*
X57234588Y-51373207D01*
X57325913Y-51320480D01*
X59259573Y-49386818D01*
X59320896Y-49353334D01*
X59347254Y-49350500D01*
X60977865Y-49350500D01*
X60977874Y-49350500D01*
X61037484Y-49344091D01*
X61172331Y-49293796D01*
X61287547Y-49207547D01*
X61373796Y-49092331D01*
X61424091Y-48957484D01*
X61430500Y-48897874D01*
X61430500Y-47102126D01*
X61424091Y-47042516D01*
X61396885Y-46969573D01*
X61373797Y-46907671D01*
X61373796Y-46907669D01*
X61359179Y-46888143D01*
X61287547Y-46792453D01*
X61172331Y-46706204D01*
X61172330Y-46706203D01*
X61172328Y-46706202D01*
X61037488Y-46655910D01*
X61037481Y-46655908D01*
X60977884Y-46649501D01*
X60977882Y-46649500D01*
X60977874Y-46649500D01*
X60977866Y-46649500D01*
X60684500Y-46649500D01*
X60617461Y-46629815D01*
X60571706Y-46577011D01*
X60560500Y-46525500D01*
X60560500Y-45054014D01*
X60580185Y-44986975D01*
X60632989Y-44941220D01*
X60637048Y-44939453D01*
X60640500Y-44938023D01*
X60657598Y-44930941D01*
X60829655Y-44815977D01*
X60975977Y-44669655D01*
X61090941Y-44497598D01*
X61170130Y-44306420D01*
X61210500Y-44103465D01*
X61210500Y-43896535D01*
X61170130Y-43693580D01*
X61090941Y-43502402D01*
X60975977Y-43330345D01*
X60975975Y-43330342D01*
X60829657Y-43184024D01*
X60734148Y-43120208D01*
X60657598Y-43069059D01*
X60640498Y-43061976D01*
X60466420Y-42989870D01*
X60466412Y-42989868D01*
X60263469Y-42949500D01*
X60263465Y-42949500D01*
X60056535Y-42949500D01*
X60056530Y-42949500D01*
X59853587Y-42989868D01*
X59853579Y-42989870D01*
X59662403Y-43069058D01*
X59490342Y-43184024D01*
X59344024Y-43330342D01*
X59229058Y-43502403D01*
X59149870Y-43693579D01*
X59149868Y-43693587D01*
X59109500Y-43896530D01*
X59109500Y-44103469D01*
X59110061Y-44106287D01*
X59149870Y-44306420D01*
X59229059Y-44497598D01*
X59242968Y-44518414D01*
X59344024Y-44669657D01*
X59490342Y-44815975D01*
X59490345Y-44815977D01*
X59662402Y-44930941D01*
X59679500Y-44938023D01*
X59682952Y-44939453D01*
X59737356Y-44983293D01*
X59759421Y-45049587D01*
X59759500Y-45054014D01*
X59759500Y-46525500D01*
X59739815Y-46592539D01*
X59687011Y-46638294D01*
X59635500Y-46649500D01*
X59182126Y-46649500D01*
X59182118Y-46649500D01*
X59182115Y-46649501D01*
X59122518Y-46655908D01*
X59122511Y-46655910D01*
X58987671Y-46706202D01*
X58987669Y-46706203D01*
X58872453Y-46792453D01*
X58786203Y-46907669D01*
X58786202Y-46907671D01*
X58735910Y-47042511D01*
X58735908Y-47042518D01*
X58729501Y-47102115D01*
X58729500Y-47102134D01*
X58729500Y-48732745D01*
X58709815Y-48799784D01*
X58693181Y-48820426D01*
X56950426Y-50563181D01*
X56889103Y-50596666D01*
X56862745Y-50599500D01*
X34467255Y-50599500D01*
X34400216Y-50579815D01*
X34379574Y-50563181D01*
X26392819Y-42576426D01*
X26359334Y-42515103D01*
X26356500Y-42488745D01*
X26356500Y-40620559D01*
X26376185Y-40553520D01*
X26428989Y-40507765D01*
X26498147Y-40497821D01*
X26561703Y-40526846D01*
X26578878Y-40545075D01*
X26579517Y-40545908D01*
X26579520Y-40545913D01*
X35954087Y-49920480D01*
X36045412Y-49973207D01*
X36147273Y-50000500D01*
X36147275Y-50000500D01*
X51952725Y-50000500D01*
X51952727Y-50000500D01*
X52054588Y-49973207D01*
X52145913Y-49920480D01*
X60480480Y-41585913D01*
X60533207Y-41494588D01*
X60560500Y-41392727D01*
X60560500Y-41287273D01*
X60560500Y-41054014D01*
X60580185Y-40986975D01*
X60632989Y-40941220D01*
X60637048Y-40939453D01*
X60640500Y-40938023D01*
X60657598Y-40930941D01*
X60829655Y-40815977D01*
X60975977Y-40669655D01*
X61090941Y-40497598D01*
X61170130Y-40306420D01*
X61210500Y-40103465D01*
X61210500Y-39896535D01*
X61170130Y-39693580D01*
X61090941Y-39502402D01*
X60975977Y-39330345D01*
X60975975Y-39330342D01*
X60829657Y-39184024D01*
X60743626Y-39126541D01*
X60657598Y-39069059D01*
X60640498Y-39061976D01*
X60466420Y-38989870D01*
X60466412Y-38989868D01*
X60263469Y-38949500D01*
X60263465Y-38949500D01*
X60056535Y-38949500D01*
X60056530Y-38949500D01*
X59853587Y-38989867D01*
X59853583Y-38989869D01*
X59853581Y-38989869D01*
X59853580Y-38989870D01*
X59849995Y-38991355D01*
X59833025Y-38998384D01*
X59763555Y-39005850D01*
X59701077Y-38974573D01*
X59697895Y-38971502D01*
X58593574Y-37867181D01*
X58560089Y-37805858D01*
X58565073Y-37736166D01*
X58606945Y-37680233D01*
X58672409Y-37655816D01*
X58681255Y-37655500D01*
X60655550Y-37655500D01*
X60655557Y-37655499D01*
X60683062Y-37654014D01*
X60704264Y-37651717D01*
X60711712Y-37650799D01*
X60805905Y-37618152D01*
X60854847Y-37589477D01*
X60858694Y-37587223D01*
X60858694Y-37587222D01*
X60858697Y-37587221D01*
X60920499Y-37536517D01*
X61540322Y-36839215D01*
X61599572Y-36802188D01*
X61669436Y-36803071D01*
X61727732Y-36841586D01*
X61755951Y-36905503D01*
X61757000Y-36921597D01*
X61757000Y-36924678D01*
X61771532Y-36997735D01*
X61771533Y-36997739D01*
X61773394Y-37000524D01*
X61826899Y-37080601D01*
X61871032Y-37110089D01*
X61909760Y-37135966D01*
X61909764Y-37135967D01*
X61982821Y-37150499D01*
X61982824Y-37150500D01*
X61982826Y-37150500D01*
X62395500Y-37150500D01*
X62462539Y-37170185D01*
X62508294Y-37222989D01*
X62519500Y-37274500D01*
X62519500Y-38945985D01*
X62499815Y-39013024D01*
X62447011Y-39058779D01*
X62442954Y-39060546D01*
X62422402Y-39069059D01*
X62422395Y-39069062D01*
X62250344Y-39184022D01*
X62104024Y-39330342D01*
X61989058Y-39502403D01*
X61909870Y-39693579D01*
X61909868Y-39693587D01*
X61869500Y-39896530D01*
X61869500Y-40103469D01*
X61909868Y-40306412D01*
X61909870Y-40306420D01*
X61971243Y-40454588D01*
X61989059Y-40497598D01*
X62026425Y-40553520D01*
X62104024Y-40669657D01*
X62250342Y-40815975D01*
X62250345Y-40815977D01*
X62422402Y-40930941D01*
X62439500Y-40938023D01*
X62442952Y-40939453D01*
X62497356Y-40983293D01*
X62519421Y-41049587D01*
X62519500Y-41054014D01*
X62519500Y-42653138D01*
X62499815Y-42720177D01*
X62451795Y-42763623D01*
X62292180Y-42844951D01*
X62120213Y-42969890D01*
X61969890Y-43120213D01*
X61844951Y-43292179D01*
X61748444Y-43481585D01*
X61682753Y-43683760D01*
X61681198Y-43693579D01*
X61649500Y-43893713D01*
X61649500Y-44106287D01*
X61682754Y-44316243D01*
X61741679Y-44497596D01*
X61748444Y-44518414D01*
X61844951Y-44707820D01*
X61969890Y-44879786D01*
X62120213Y-45030109D01*
X62292182Y-45155050D01*
X62292184Y-45155051D01*
X62395213Y-45207547D01*
X62451794Y-45236376D01*
X62502591Y-45284350D01*
X62519500Y-45346861D01*
X62519500Y-46945985D01*
X62499815Y-47013024D01*
X62447011Y-47058779D01*
X62442954Y-47060546D01*
X62422402Y-47069059D01*
X62422395Y-47069062D01*
X62250344Y-47184022D01*
X62104024Y-47330342D01*
X61989058Y-47502403D01*
X61909870Y-47693579D01*
X61909868Y-47693587D01*
X61869500Y-47896530D01*
X61869500Y-48103469D01*
X61909868Y-48306412D01*
X61909870Y-48306420D01*
X61989059Y-48497598D01*
X62002968Y-48518414D01*
X62104024Y-48669657D01*
X62250342Y-48815975D01*
X62250345Y-48815977D01*
X62422402Y-48930941D01*
X62613580Y-49010130D01*
X62809708Y-49049142D01*
X62816530Y-49050499D01*
X62816534Y-49050500D01*
X62816535Y-49050500D01*
X63023466Y-49050500D01*
X63023467Y-49050499D01*
X63226420Y-49010130D01*
X63417598Y-48930941D01*
X63589655Y-48815977D01*
X63735977Y-48669655D01*
X63850941Y-48497598D01*
X63930130Y-48306420D01*
X63970500Y-48103465D01*
X63970500Y-47897682D01*
X71780000Y-47897682D01*
X71780000Y-48102317D01*
X71812009Y-48304417D01*
X71875244Y-48499031D01*
X71968141Y-48681350D01*
X71968147Y-48681359D01*
X72000523Y-48725921D01*
X72000524Y-48725922D01*
X72680000Y-48046446D01*
X72680000Y-48052661D01*
X72707259Y-48154394D01*
X72759920Y-48245606D01*
X72834394Y-48320080D01*
X72925606Y-48372741D01*
X73027339Y-48400000D01*
X73033553Y-48400000D01*
X72354076Y-49079474D01*
X72398650Y-49111859D01*
X72580968Y-49204755D01*
X72775582Y-49267990D01*
X72977683Y-49300000D01*
X73182317Y-49300000D01*
X73384417Y-49267990D01*
X73579031Y-49204755D01*
X73761349Y-49111859D01*
X73805921Y-49079474D01*
X73126447Y-48400000D01*
X73132661Y-48400000D01*
X73234394Y-48372741D01*
X73325606Y-48320080D01*
X73400080Y-48245606D01*
X73452741Y-48154394D01*
X73480000Y-48052661D01*
X73480000Y-48046447D01*
X74159474Y-48725921D01*
X74191859Y-48681349D01*
X74284755Y-48499031D01*
X74347990Y-48304417D01*
X74380000Y-48102317D01*
X74380000Y-47897682D01*
X74347990Y-47695582D01*
X74284755Y-47500968D01*
X74191859Y-47318650D01*
X74159474Y-47274077D01*
X74159474Y-47274076D01*
X73480000Y-47953551D01*
X73480000Y-47947339D01*
X73452741Y-47845606D01*
X73400080Y-47754394D01*
X73325606Y-47679920D01*
X73234394Y-47627259D01*
X73132661Y-47600000D01*
X73126446Y-47600000D01*
X73805922Y-46920524D01*
X73805921Y-46920523D01*
X73761359Y-46888147D01*
X73761350Y-46888141D01*
X73579031Y-46795244D01*
X73384417Y-46732009D01*
X73182317Y-46700000D01*
X72977683Y-46700000D01*
X72775582Y-46732009D01*
X72580968Y-46795244D01*
X72398644Y-46888143D01*
X72354077Y-46920523D01*
X72354077Y-46920524D01*
X73033554Y-47600000D01*
X73027339Y-47600000D01*
X72925606Y-47627259D01*
X72834394Y-47679920D01*
X72759920Y-47754394D01*
X72707259Y-47845606D01*
X72680000Y-47947339D01*
X72680000Y-47953553D01*
X72000524Y-47274077D01*
X72000523Y-47274077D01*
X71968143Y-47318644D01*
X71875244Y-47500968D01*
X71812009Y-47695582D01*
X71780000Y-47897682D01*
X63970500Y-47897682D01*
X63970500Y-47896535D01*
X63930130Y-47693580D01*
X63850941Y-47502402D01*
X63735977Y-47330345D01*
X63735975Y-47330342D01*
X63589655Y-47184022D01*
X63427329Y-47075560D01*
X63427323Y-47075557D01*
X63417598Y-47069059D01*
X63393569Y-47059105D01*
X63390172Y-47057450D01*
X63367033Y-47036359D01*
X63342643Y-47016704D01*
X63341412Y-47013006D01*
X63338534Y-47010383D01*
X63330469Y-46980126D01*
X63320579Y-46950410D01*
X63320500Y-46945985D01*
X63320500Y-45405953D01*
X63340185Y-45338914D01*
X63392989Y-45293159D01*
X63406183Y-45288022D01*
X63417485Y-45284350D01*
X63518412Y-45251557D01*
X63707816Y-45155051D01*
X63746169Y-45127186D01*
X63879786Y-45030109D01*
X63879788Y-45030106D01*
X63879792Y-45030104D01*
X64030104Y-44879792D01*
X64030106Y-44879788D01*
X64030109Y-44879786D01*
X64153763Y-44709589D01*
X64155051Y-44707816D01*
X64251557Y-44518412D01*
X64317246Y-44316243D01*
X64350500Y-44106287D01*
X64350500Y-43893713D01*
X64317246Y-43683757D01*
X64251557Y-43481588D01*
X64155051Y-43292184D01*
X64155049Y-43292181D01*
X64155048Y-43292179D01*
X64030109Y-43120213D01*
X63879786Y-42969890D01*
X63707820Y-42844951D01*
X63518416Y-42748444D01*
X63460629Y-42729668D01*
X63406180Y-42711976D01*
X63348506Y-42672539D01*
X63321308Y-42608180D01*
X63320500Y-42594046D01*
X63320500Y-41054014D01*
X63340185Y-40986975D01*
X63392989Y-40941220D01*
X63397048Y-40939453D01*
X63400500Y-40938023D01*
X63417598Y-40930941D01*
X63589655Y-40815977D01*
X63735977Y-40669655D01*
X63850941Y-40497598D01*
X63930130Y-40306420D01*
X63970500Y-40103465D01*
X63970500Y-39896535D01*
X63930130Y-39693580D01*
X63850941Y-39502402D01*
X63735977Y-39330345D01*
X63735975Y-39330342D01*
X63589655Y-39184022D01*
X63417604Y-39069062D01*
X63417599Y-39069060D01*
X63417598Y-39069059D01*
X63397045Y-39060545D01*
X63342643Y-39016704D01*
X63320579Y-38950410D01*
X63320500Y-38945985D01*
X63320500Y-37274500D01*
X63340185Y-37207461D01*
X63392989Y-37161706D01*
X63444500Y-37150500D01*
X63937176Y-37150500D01*
X63937177Y-37150499D01*
X64010240Y-37135966D01*
X64093101Y-37080601D01*
X64148466Y-36997740D01*
X64154926Y-36965262D01*
X64187309Y-36903353D01*
X64248024Y-36868778D01*
X64317794Y-36872517D01*
X64359495Y-36897286D01*
X65100833Y-37564492D01*
X65106406Y-37569249D01*
X65110989Y-37573162D01*
X65119026Y-37579669D01*
X65200847Y-37624088D01*
X65259038Y-37642995D01*
X65337990Y-37655500D01*
X65337991Y-37655500D01*
X65756189Y-37655500D01*
X65756205Y-37655500D01*
X65782304Y-37654164D01*
X65802424Y-37652098D01*
X65802438Y-37652096D01*
X65802471Y-37652093D01*
X65808459Y-37651406D01*
X65808465Y-37651404D01*
X65810279Y-37650798D01*
X65903015Y-37619812D01*
X65956149Y-37589473D01*
X66018514Y-37539463D01*
X66684537Y-36806836D01*
X66744195Y-36770475D01*
X66814045Y-36772139D01*
X66871907Y-36811302D01*
X66876605Y-36817364D01*
X66932097Y-36893741D01*
X66932097Y-36893742D01*
X67093757Y-37055402D01*
X67278723Y-37189788D01*
X67482429Y-37293582D01*
X67699871Y-37364234D01*
X67790000Y-37378509D01*
X67790000Y-36390747D01*
X67827708Y-36412518D01*
X67967591Y-36450000D01*
X68112409Y-36450000D01*
X68252292Y-36412518D01*
X68290000Y-36390747D01*
X68290000Y-37378508D01*
X68380128Y-37364234D01*
X68597570Y-37293582D01*
X68801276Y-37189788D01*
X68986242Y-37055402D01*
X69147902Y-36893742D01*
X69282288Y-36708776D01*
X69386082Y-36505070D01*
X69456734Y-36287628D01*
X69478532Y-36150000D01*
X68530748Y-36150000D01*
X68552518Y-36112292D01*
X68590000Y-35972409D01*
X68590000Y-35827591D01*
X68552518Y-35687708D01*
X68530748Y-35650000D01*
X69478532Y-35650000D01*
X69456734Y-35512371D01*
X69386082Y-35294929D01*
X69282288Y-35091223D01*
X69254071Y-35052386D01*
X69230591Y-34986580D01*
X69246416Y-34918526D01*
X69296521Y-34869831D01*
X69354389Y-34855500D01*
X77959003Y-34855500D01*
X77979023Y-34854713D01*
X77979030Y-34854712D01*
X77979041Y-34854712D01*
X77994528Y-34853493D01*
X78090471Y-34826435D01*
X78144988Y-34798658D01*
X78209662Y-34751670D01*
X79851670Y-33109662D01*
X79865290Y-33094928D01*
X79875379Y-33083115D01*
X79924088Y-32996135D01*
X79942995Y-32937944D01*
X79955500Y-32858992D01*
X79955500Y-28299000D01*
X79952355Y-28259035D01*
X79947510Y-28228442D01*
X79943595Y-28208761D01*
X79901859Y-28118227D01*
X79889268Y-28100897D01*
X79865788Y-28035093D01*
X79874065Y-27989040D01*
X79872206Y-27988436D01*
X79881315Y-27960399D01*
X79892995Y-27924452D01*
X79905500Y-27845500D01*
X79905500Y-23341008D01*
X79905494Y-23340867D01*
X79904713Y-23320976D01*
X79904529Y-23318644D01*
X79903493Y-23305472D01*
X79876435Y-23209529D01*
X79848658Y-23155012D01*
X79825164Y-23122675D01*
X79801673Y-23090341D01*
X78159662Y-21448330D01*
X78144932Y-21434713D01*
X78133117Y-21424623D01*
X78133115Y-21424621D01*
X78053435Y-21380000D01*
X78046132Y-21375910D01*
X77987945Y-21357005D01*
X77948468Y-21350752D01*
X77908992Y-21344500D01*
X77908991Y-21344500D01*
X68847385Y-21344500D01*
X68780346Y-21324815D01*
X68734591Y-21272011D01*
X68724647Y-21202853D01*
X68753672Y-21139297D01*
X68774499Y-21120182D01*
X68946242Y-20995402D01*
X69107902Y-20833742D01*
X69242288Y-20648776D01*
X69346082Y-20445070D01*
X69416734Y-20227628D01*
X69438532Y-20090000D01*
X68490748Y-20090000D01*
X68512518Y-20052292D01*
X68550000Y-19912409D01*
X68550000Y-19767591D01*
X68512518Y-19627708D01*
X68490748Y-19590000D01*
X69438532Y-19590000D01*
X69416734Y-19452371D01*
X69346082Y-19234929D01*
X69242288Y-19031223D01*
X69107902Y-18846257D01*
X68946242Y-18684597D01*
X68761276Y-18550211D01*
X68557568Y-18446417D01*
X68340124Y-18375765D01*
X68250000Y-18361490D01*
X68250000Y-19349252D01*
X68212292Y-19327482D01*
X68072409Y-19290000D01*
X67927591Y-19290000D01*
X67787708Y-19327482D01*
X67750000Y-19349252D01*
X67750000Y-18361490D01*
X67749999Y-18361490D01*
X67659875Y-18375765D01*
X67442431Y-18446417D01*
X67238723Y-18550211D01*
X67053757Y-18684597D01*
X66892097Y-18846257D01*
X66757707Y-19031228D01*
X66699602Y-19145266D01*
X66651628Y-19196062D01*
X66583807Y-19212857D01*
X66517672Y-19190319D01*
X66488800Y-19161856D01*
X66377599Y-19008801D01*
X66377594Y-19008795D01*
X66243704Y-18874905D01*
X66243702Y-18874903D01*
X66113079Y-18780000D01*
X66090511Y-18763603D01*
X66057991Y-18747033D01*
X66022535Y-18719960D01*
X65968516Y-18660539D01*
X65949984Y-18642140D01*
X65949969Y-18642125D01*
X65934906Y-18628627D01*
X65930329Y-18624622D01*
X65930324Y-18624619D01*
X65930321Y-18624617D01*
X65843353Y-18575914D01*
X65843344Y-18575910D01*
X65785158Y-18557005D01*
X65737653Y-18549481D01*
X65706205Y-18544500D01*
X65287990Y-18544500D01*
X65274647Y-18544849D01*
X65266858Y-18545256D01*
X65264319Y-18545389D01*
X65173800Y-18567105D01*
X65173795Y-18567106D01*
X65117896Y-18591978D01*
X65050845Y-18635500D01*
X65050836Y-18635507D01*
X65023738Y-18659894D01*
X64997084Y-18678207D01*
X64829495Y-18763598D01*
X64676295Y-18874905D01*
X64542405Y-19008795D01*
X64431103Y-19161989D01*
X64412105Y-19199272D01*
X64408177Y-19204389D01*
X64407180Y-19208038D01*
X64384574Y-19235141D01*
X64329952Y-19284301D01*
X64266954Y-19314517D01*
X64197620Y-19305877D01*
X64143965Y-19261124D01*
X64123022Y-19194466D01*
X64123000Y-19192133D01*
X64123000Y-18815323D01*
X64108466Y-18742260D01*
X64101396Y-18731678D01*
X64080520Y-18665000D01*
X64080500Y-18662790D01*
X64080500Y-15120288D01*
X64100185Y-15053249D01*
X64152989Y-15007494D01*
X64157014Y-15005741D01*
X64290760Y-14950342D01*
X64337594Y-14930943D01*
X64337595Y-14930942D01*
X64337598Y-14930941D01*
X64509655Y-14815977D01*
X64655977Y-14669655D01*
X64770941Y-14497598D01*
X64850130Y-14306420D01*
X64890500Y-14103465D01*
X64890500Y-13896535D01*
X64850130Y-13693580D01*
X64770941Y-13502402D01*
X64655977Y-13330345D01*
X64655975Y-13330342D01*
X64509657Y-13184024D01*
X64400499Y-13111088D01*
X64337598Y-13069059D01*
X64157046Y-12994271D01*
X64102644Y-12950431D01*
X64080579Y-12884137D01*
X64080500Y-12879711D01*
X64080500Y-11431948D01*
X64100185Y-11364909D01*
X64152989Y-11319154D01*
X64166181Y-11314017D01*
X64228414Y-11293796D01*
X64358412Y-11251557D01*
X64547816Y-11155051D01*
X64628177Y-11096666D01*
X64719786Y-11030109D01*
X64719788Y-11030106D01*
X64719792Y-11030104D01*
X64870104Y-10879792D01*
X64870106Y-10879788D01*
X64870109Y-10879786D01*
X64995048Y-10707820D01*
X64995047Y-10707820D01*
X64995051Y-10707816D01*
X65091557Y-10518412D01*
X65157246Y-10316243D01*
X65190500Y-10106287D01*
X65190500Y-9893713D01*
X65157246Y-9683757D01*
X65091557Y-9481588D01*
X64995051Y-9292184D01*
X64995049Y-9292181D01*
X64995048Y-9292179D01*
X64870109Y-9120213D01*
X64719786Y-8969890D01*
X64547820Y-8844951D01*
X64358416Y-8748444D01*
X64166181Y-8685983D01*
X64108506Y-8646545D01*
X64081308Y-8582186D01*
X64080500Y-8568052D01*
X64080500Y-7214014D01*
X64100185Y-7146975D01*
X64152989Y-7101220D01*
X64157048Y-7099453D01*
X64177598Y-7090941D01*
X64349655Y-6975977D01*
X64495977Y-6829655D01*
X64610941Y-6657598D01*
X64690130Y-6466420D01*
X64730500Y-6263465D01*
X64730500Y-6056535D01*
X64690130Y-5853580D01*
X64610941Y-5662402D01*
X64495977Y-5490345D01*
X64495975Y-5490342D01*
X64349657Y-5344024D01*
X64229927Y-5264024D01*
X64177598Y-5229059D01*
X63986420Y-5149870D01*
X63986412Y-5149868D01*
X63783469Y-5109500D01*
X63783465Y-5109500D01*
X63576535Y-5109500D01*
X63576530Y-5109500D01*
X63373587Y-5149868D01*
X63373579Y-5149870D01*
X63182403Y-5229058D01*
X63010342Y-5344024D01*
X62864024Y-5490342D01*
X62749058Y-5662403D01*
X62669870Y-5853579D01*
X62669868Y-5853587D01*
X62629500Y-6056530D01*
X62629500Y-6263469D01*
X62669868Y-6466412D01*
X62669870Y-6466420D01*
X62703585Y-6547816D01*
X62749059Y-6657598D01*
X62802691Y-6737865D01*
X62864024Y-6829657D01*
X63010342Y-6975975D01*
X63010345Y-6975977D01*
X63182402Y-7090941D01*
X63202952Y-7099453D01*
X63257356Y-7143293D01*
X63279421Y-7209587D01*
X63279500Y-7214014D01*
X63279500Y-8693899D01*
X63259815Y-8760938D01*
X63211796Y-8804383D01*
X63132182Y-8844949D01*
X62960213Y-8969890D01*
X62809890Y-9120213D01*
X62684951Y-9292179D01*
X62588444Y-9481585D01*
X62522753Y-9683760D01*
X62501724Y-9816534D01*
X62489500Y-9893713D01*
X62489500Y-10106287D01*
X62498895Y-10165606D01*
X62519031Y-10292741D01*
X62522754Y-10316243D01*
X62585598Y-10509657D01*
X62588444Y-10518414D01*
X62684951Y-10707820D01*
X62809890Y-10879786D01*
X62960213Y-11030109D01*
X63132182Y-11155050D01*
X63132184Y-11155051D01*
X63207815Y-11193587D01*
X63211794Y-11195614D01*
X63262590Y-11243588D01*
X63279500Y-11306099D01*
X63279500Y-13044808D01*
X63259815Y-13111847D01*
X63224391Y-13147910D01*
X63170345Y-13184022D01*
X63170341Y-13184025D01*
X63024024Y-13330342D01*
X62909058Y-13502403D01*
X62829870Y-13693579D01*
X62829868Y-13693587D01*
X62789500Y-13896530D01*
X62789500Y-14103469D01*
X62829868Y-14306412D01*
X62829870Y-14306420D01*
X62850106Y-14355275D01*
X62909059Y-14497598D01*
X62955419Y-14566981D01*
X63024024Y-14669657D01*
X63170339Y-14815972D01*
X63170343Y-14815975D01*
X63170345Y-14815977D01*
X63224390Y-14852088D01*
X63269195Y-14905699D01*
X63279500Y-14955190D01*
X63279500Y-18465500D01*
X63259815Y-18532539D01*
X63207011Y-18578294D01*
X63155500Y-18589500D01*
X61942823Y-18589500D01*
X61869764Y-18604032D01*
X61869760Y-18604033D01*
X61786899Y-18659399D01*
X61731533Y-18742260D01*
X61731532Y-18742264D01*
X61717000Y-18815321D01*
X61717000Y-19289651D01*
X61697315Y-19356690D01*
X61644511Y-19402445D01*
X61575353Y-19412389D01*
X61511797Y-19383364D01*
X61500321Y-19372032D01*
X61205984Y-19040904D01*
X60870499Y-18663483D01*
X60851106Y-18643903D01*
X60835303Y-18629582D01*
X60829666Y-18624622D01*
X60829663Y-18624620D01*
X60829662Y-18624619D01*
X60742690Y-18575914D01*
X60742681Y-18575910D01*
X60684495Y-18557005D01*
X60636990Y-18549481D01*
X60605542Y-18544500D01*
X60605541Y-18544500D01*
X59161255Y-18544500D01*
X59094216Y-18524815D01*
X59048461Y-18472011D01*
X59038517Y-18402853D01*
X59067542Y-18339297D01*
X59073574Y-18332819D01*
X59759120Y-17647273D01*
X60480480Y-16925913D01*
X60533207Y-16834588D01*
X60560500Y-16732727D01*
X60560500Y-16627273D01*
X60560500Y-14894014D01*
X60580185Y-14826975D01*
X60632989Y-14781220D01*
X60637048Y-14779453D01*
X60657598Y-14770941D01*
X60829655Y-14655977D01*
X60975977Y-14509655D01*
X61090941Y-14337598D01*
X61170130Y-14146420D01*
X61210500Y-13943465D01*
X61210500Y-13736535D01*
X61170130Y-13533580D01*
X61090941Y-13342402D01*
X60975977Y-13170345D01*
X60975975Y-13170342D01*
X60829657Y-13024024D01*
X60719516Y-12950431D01*
X60657598Y-12909059D01*
X60597431Y-12884137D01*
X60466420Y-12829870D01*
X60466412Y-12829868D01*
X60263469Y-12789500D01*
X60263465Y-12789500D01*
X60056535Y-12789500D01*
X60056530Y-12789500D01*
X59853587Y-12829867D01*
X59853583Y-12829869D01*
X59853581Y-12829869D01*
X59853580Y-12829870D01*
X59842658Y-12834394D01*
X59833025Y-12838384D01*
X59763555Y-12845850D01*
X59701077Y-12814573D01*
X59697895Y-12811502D01*
X55436819Y-8550426D01*
X55403334Y-8489103D01*
X55400500Y-8462745D01*
X55400500Y-5947276D01*
X55400500Y-5947273D01*
X55379255Y-5867982D01*
X55377251Y-5860502D01*
X55375251Y-5853040D01*
X55373207Y-5845412D01*
X55327600Y-5766420D01*
X55320480Y-5754087D01*
X55245913Y-5679520D01*
X55245910Y-5679518D01*
X53345913Y-3779520D01*
X53300250Y-3753156D01*
X53254589Y-3726793D01*
X53203657Y-3713146D01*
X53152727Y-3699500D01*
X48672273Y-3699500D01*
X48570413Y-3726793D01*
X48570410Y-3726794D01*
X48479085Y-3779521D01*
X41195426Y-11063181D01*
X41134103Y-11096666D01*
X41107745Y-11099500D01*
X36054015Y-11099500D01*
X35986976Y-11079815D01*
X35941221Y-11027011D01*
X35939454Y-11022954D01*
X35935326Y-11012989D01*
X35930941Y-11002402D01*
X35930938Y-11002397D01*
X35930937Y-11002395D01*
X35815977Y-10830344D01*
X35669657Y-10684024D01*
X35583626Y-10626541D01*
X35497598Y-10569059D01*
X35306420Y-10489870D01*
X35306412Y-10489868D01*
X35103469Y-10449500D01*
X35103465Y-10449500D01*
X34896535Y-10449500D01*
X34896530Y-10449500D01*
X34693587Y-10489868D01*
X34693579Y-10489870D01*
X34502403Y-10569058D01*
X34330342Y-10684024D01*
X34184024Y-10830342D01*
X34069058Y-11002403D01*
X33989870Y-11193579D01*
X33989868Y-11193587D01*
X33949500Y-11396530D01*
X33949500Y-11603469D01*
X33989532Y-11804723D01*
X33989870Y-11806420D01*
X33995693Y-11820479D01*
X33998382Y-11826969D01*
X34005851Y-11896438D01*
X33974576Y-11958917D01*
X33971502Y-11962103D01*
X33370426Y-12563181D01*
X33309103Y-12596666D01*
X33282745Y-12599500D01*
X30054015Y-12599500D01*
X29986976Y-12579815D01*
X29941221Y-12527011D01*
X29939454Y-12522954D01*
X29930941Y-12502402D01*
X29930938Y-12502397D01*
X29930937Y-12502395D01*
X29815977Y-12330344D01*
X29669657Y-12184024D01*
X29583626Y-12126541D01*
X29497598Y-12069059D01*
X29332138Y-12000523D01*
X29306420Y-11989870D01*
X29306412Y-11989868D01*
X29103469Y-11949500D01*
X29103465Y-11949500D01*
X28896535Y-11949500D01*
X28896530Y-11949500D01*
X28693587Y-11989867D01*
X28693583Y-11989869D01*
X28693581Y-11989869D01*
X28693580Y-11989870D01*
X28678786Y-11995997D01*
X28673025Y-11998384D01*
X28603555Y-12005850D01*
X28541077Y-11974573D01*
X28537895Y-11971502D01*
X26785915Y-10219522D01*
X26785913Y-10219520D01*
X26740250Y-10193156D01*
X26694589Y-10166793D01*
X26618523Y-10146412D01*
X26592727Y-10139500D01*
X26592726Y-10139500D01*
X26054015Y-10139500D01*
X25986976Y-10119815D01*
X25941221Y-10067011D01*
X25939454Y-10062954D01*
X25934295Y-10050500D01*
X25930941Y-10042402D01*
X25930938Y-10042397D01*
X25930937Y-10042395D01*
X25815977Y-9870344D01*
X25669657Y-9724024D01*
X25507360Y-9615582D01*
X25497598Y-9609059D01*
X25470590Y-9597872D01*
X25306420Y-9529870D01*
X25306412Y-9529868D01*
X25103469Y-9489500D01*
X25103465Y-9489500D01*
X24896535Y-9489500D01*
X24896530Y-9489500D01*
X24693587Y-9529868D01*
X24693579Y-9529870D01*
X24502403Y-9609058D01*
X24330342Y-9724024D01*
X24184024Y-9870342D01*
X24069058Y-10042403D01*
X23989870Y-10233579D01*
X23989868Y-10233587D01*
X23949500Y-10436530D01*
X23949500Y-10643469D01*
X23989868Y-10846412D01*
X23989870Y-10846420D01*
X24058865Y-11012989D01*
X24069059Y-11037598D01*
X24105630Y-11092331D01*
X24184024Y-11209657D01*
X24330342Y-11355975D01*
X24330345Y-11355977D01*
X24502402Y-11470941D01*
X24693580Y-11550130D01*
X24880885Y-11587387D01*
X24896530Y-11590499D01*
X24896534Y-11590500D01*
X24896535Y-11590500D01*
X25103466Y-11590500D01*
X25103467Y-11590499D01*
X25306420Y-11550130D01*
X25497598Y-11470941D01*
X25669655Y-11355977D01*
X25815977Y-11209655D01*
X25930941Y-11037598D01*
X25939454Y-11017045D01*
X25983296Y-10962643D01*
X26049590Y-10940579D01*
X26054015Y-10940500D01*
X26322745Y-10940500D01*
X26389784Y-10960185D01*
X26410426Y-10976819D01*
X27971502Y-12537895D01*
X28004987Y-12599218D01*
X28000003Y-12668910D01*
X27998384Y-12673025D01*
X27989869Y-12693583D01*
X27989867Y-12693587D01*
X27949500Y-12896530D01*
X27949500Y-13103469D01*
X27989868Y-13306412D01*
X27989870Y-13306420D01*
X28061769Y-13480000D01*
X28069059Y-13497598D01*
X28079367Y-13513025D01*
X28184024Y-13669657D01*
X28330343Y-13815976D01*
X28338885Y-13821683D01*
X28383691Y-13875294D01*
X28392401Y-13944618D01*
X28362248Y-14007647D01*
X28302806Y-14044368D01*
X28268321Y-14048776D01*
X25847248Y-14016059D01*
X25780481Y-13995470D01*
X25735444Y-13942053D01*
X25726436Y-13872766D01*
X25756317Y-13809608D01*
X25761244Y-13804388D01*
X25815975Y-13749657D01*
X25815977Y-13749655D01*
X25930941Y-13577598D01*
X26010130Y-13386420D01*
X26050500Y-13183465D01*
X26050500Y-12976535D01*
X26010130Y-12773580D01*
X25930941Y-12582402D01*
X25815977Y-12410345D01*
X25815975Y-12410342D01*
X25669657Y-12264024D01*
X25549927Y-12184024D01*
X25497598Y-12149059D01*
X25306420Y-12069870D01*
X25306412Y-12069868D01*
X25103469Y-12029500D01*
X25103465Y-12029500D01*
X24896535Y-12029500D01*
X24896530Y-12029500D01*
X24693587Y-12069868D01*
X24693579Y-12069870D01*
X24502403Y-12149058D01*
X24330342Y-12264024D01*
X24184024Y-12410342D01*
X24069058Y-12582403D01*
X23989870Y-12773579D01*
X23989868Y-12773587D01*
X23949500Y-12976530D01*
X23949500Y-13183469D01*
X23989868Y-13386412D01*
X23989870Y-13386420D01*
X24050825Y-13533579D01*
X24069059Y-13577598D01*
X24119057Y-13652426D01*
X24184024Y-13749657D01*
X24242999Y-13808632D01*
X24276484Y-13869955D01*
X24271500Y-13939647D01*
X24229628Y-13995580D01*
X24188977Y-14015657D01*
X24158980Y-14024116D01*
X24158978Y-14024117D01*
X24104460Y-14051894D01*
X24104453Y-14051899D01*
X24039781Y-14098884D01*
X24039779Y-14098886D01*
X23348331Y-14790336D01*
X23334713Y-14805067D01*
X23324623Y-14816882D01*
X23275910Y-14903867D01*
X23257005Y-14962054D01*
X23244500Y-15041008D01*
X23244500Y-16447031D01*
X23248502Y-16492054D01*
X23248503Y-16492064D01*
X23254658Y-16526429D01*
X23254659Y-16526434D01*
X23260318Y-16550985D01*
X23260320Y-16550989D01*
X23260321Y-16550992D01*
X23300749Y-16630131D01*
X23305675Y-16639773D01*
X23305676Y-16639775D01*
X23343596Y-16687772D01*
X23343609Y-16687786D01*
X23402354Y-16741975D01*
X23402357Y-16741977D01*
X23402359Y-16741979D01*
X24083334Y-17195962D01*
X24151020Y-17227910D01*
X24197780Y-17242068D01*
X24205931Y-17244536D01*
X24205932Y-17244536D01*
X24205935Y-17244537D01*
X24279975Y-17255500D01*
X24397691Y-17255500D01*
X24464730Y-17275185D01*
X24485372Y-17291819D01*
X24953554Y-17760000D01*
X24947339Y-17760000D01*
X24845606Y-17787259D01*
X24754394Y-17839920D01*
X24679920Y-17914394D01*
X24627259Y-18005606D01*
X24600000Y-18107339D01*
X24600000Y-18113553D01*
X23920524Y-17434077D01*
X23920523Y-17434077D01*
X23888143Y-17478644D01*
X23795244Y-17660968D01*
X23732009Y-17855582D01*
X23700000Y-18057682D01*
X23700000Y-18262317D01*
X23732010Y-18464418D01*
X23732010Y-18464421D01*
X23765503Y-18567499D01*
X23767498Y-18637340D01*
X23731418Y-18697173D01*
X23668717Y-18728001D01*
X23599303Y-18720036D01*
X23559891Y-18693498D01*
X22436819Y-17570426D01*
X22403334Y-17509103D01*
X22400500Y-17482745D01*
X22400500Y-7896530D01*
X23949500Y-7896530D01*
X23949500Y-8103469D01*
X23989868Y-8306412D01*
X23989870Y-8306420D01*
X24058865Y-8472989D01*
X24069059Y-8497598D01*
X24126090Y-8582952D01*
X24184024Y-8669657D01*
X24330342Y-8815975D01*
X24330345Y-8815977D01*
X24502402Y-8930941D01*
X24693580Y-9010130D01*
X24856407Y-9042518D01*
X24896530Y-9050499D01*
X24896534Y-9050500D01*
X24896535Y-9050500D01*
X25103466Y-9050500D01*
X25103467Y-9050499D01*
X25306420Y-9010130D01*
X25497598Y-8930941D01*
X25669655Y-8815977D01*
X25815977Y-8669655D01*
X25829444Y-8649500D01*
X25930937Y-8497604D01*
X25930937Y-8497603D01*
X25930941Y-8497598D01*
X25939454Y-8477045D01*
X25983296Y-8422643D01*
X26049590Y-8400579D01*
X26054015Y-8400500D01*
X27945985Y-8400500D01*
X28013024Y-8420185D01*
X28058779Y-8472989D01*
X28060544Y-8477043D01*
X28069058Y-8497596D01*
X28069059Y-8497597D01*
X28069062Y-8497604D01*
X28184022Y-8669655D01*
X28330342Y-8815975D01*
X28330345Y-8815977D01*
X28502402Y-8930941D01*
X28693580Y-9010130D01*
X28856407Y-9042518D01*
X28896530Y-9050499D01*
X28896534Y-9050500D01*
X28896535Y-9050500D01*
X29103466Y-9050500D01*
X29103467Y-9050499D01*
X29306420Y-9010130D01*
X29497598Y-8930941D01*
X29669655Y-8815977D01*
X29815977Y-8669655D01*
X29829444Y-8649500D01*
X29930937Y-8497604D01*
X29930937Y-8497603D01*
X29930941Y-8497598D01*
X29939454Y-8477045D01*
X29983296Y-8422643D01*
X30049590Y-8400579D01*
X30054015Y-8400500D01*
X33825500Y-8400500D01*
X33892539Y-8420185D01*
X33938294Y-8472989D01*
X33949500Y-8524500D01*
X33949500Y-9597870D01*
X33949501Y-9597876D01*
X33955908Y-9657483D01*
X34006202Y-9792328D01*
X34006206Y-9792335D01*
X34092452Y-9907544D01*
X34092455Y-9907547D01*
X34207664Y-9993793D01*
X34207671Y-9993797D01*
X34342517Y-10044091D01*
X34342516Y-10044091D01*
X34349444Y-10044835D01*
X34402127Y-10050500D01*
X35597872Y-10050499D01*
X35657483Y-10044091D01*
X35792331Y-9993796D01*
X35907546Y-9907546D01*
X35993796Y-9792331D01*
X36044091Y-9657483D01*
X36050500Y-9597873D01*
X36050499Y-8524499D01*
X36070183Y-8457461D01*
X36122987Y-8411706D01*
X36174499Y-8400500D01*
X39525500Y-8400500D01*
X39592539Y-8420185D01*
X39638294Y-8472989D01*
X39649500Y-8524500D01*
X39649500Y-8897865D01*
X39649501Y-8897884D01*
X39655908Y-8957481D01*
X39655910Y-8957488D01*
X39706202Y-9092328D01*
X39706203Y-9092330D01*
X39706204Y-9092331D01*
X39792453Y-9207547D01*
X39892260Y-9282261D01*
X39907669Y-9293796D01*
X39907671Y-9293797D01*
X39995696Y-9326628D01*
X40042516Y-9344091D01*
X40102126Y-9350500D01*
X40102135Y-9350500D01*
X41897865Y-9350500D01*
X41897874Y-9350500D01*
X41957484Y-9344091D01*
X42092331Y-9293796D01*
X42207547Y-9207547D01*
X42293796Y-9092331D01*
X42344091Y-8957484D01*
X42350500Y-8897874D01*
X42350500Y-7102126D01*
X42344091Y-7042516D01*
X42309398Y-6949500D01*
X42293797Y-6907671D01*
X42293796Y-6907669D01*
X42207547Y-6792453D01*
X42092331Y-6706204D01*
X42092330Y-6706203D01*
X42092328Y-6706202D01*
X41957488Y-6655910D01*
X41957481Y-6655908D01*
X41897884Y-6649501D01*
X41897882Y-6649500D01*
X41897874Y-6649500D01*
X40102126Y-6649500D01*
X40102118Y-6649500D01*
X40102115Y-6649501D01*
X40042518Y-6655908D01*
X40042511Y-6655910D01*
X39907671Y-6706202D01*
X39907669Y-6706203D01*
X39792453Y-6792453D01*
X39706203Y-6907669D01*
X39706202Y-6907671D01*
X39655910Y-7042511D01*
X39655908Y-7042518D01*
X39649501Y-7102115D01*
X39649500Y-7102134D01*
X39649500Y-7475500D01*
X39629815Y-7542539D01*
X39577011Y-7588294D01*
X39525500Y-7599500D01*
X30054015Y-7599500D01*
X29986976Y-7579815D01*
X29941221Y-7527011D01*
X29939454Y-7522954D01*
X29930941Y-7502402D01*
X29930938Y-7502397D01*
X29930937Y-7502395D01*
X29815977Y-7330344D01*
X29669657Y-7184024D01*
X29554628Y-7107165D01*
X29497598Y-7069059D01*
X29445661Y-7047546D01*
X29306420Y-6989870D01*
X29306412Y-6989868D01*
X29103469Y-6949500D01*
X29103465Y-6949500D01*
X28896535Y-6949500D01*
X28896530Y-6949500D01*
X28693587Y-6989868D01*
X28693579Y-6989870D01*
X28502403Y-7069058D01*
X28330342Y-7184024D01*
X28184022Y-7330344D01*
X28069062Y-7502395D01*
X28069059Y-7502402D01*
X28060546Y-7522954D01*
X28016704Y-7577357D01*
X27950410Y-7599421D01*
X27945985Y-7599500D01*
X26054015Y-7599500D01*
X25986976Y-7579815D01*
X25941221Y-7527011D01*
X25939454Y-7522954D01*
X25930941Y-7502402D01*
X25930938Y-7502397D01*
X25930937Y-7502395D01*
X25815977Y-7330344D01*
X25669657Y-7184024D01*
X25554628Y-7107165D01*
X25497598Y-7069059D01*
X25445661Y-7047546D01*
X25306420Y-6989870D01*
X25306412Y-6989868D01*
X25103469Y-6949500D01*
X25103465Y-6949500D01*
X24896535Y-6949500D01*
X24896530Y-6949500D01*
X24693587Y-6989868D01*
X24693579Y-6989870D01*
X24502403Y-7069058D01*
X24330342Y-7184024D01*
X24184024Y-7330342D01*
X24069058Y-7502403D01*
X23989870Y-7693579D01*
X23989868Y-7693587D01*
X23949500Y-7896530D01*
X22400500Y-7896530D01*
X22400500Y-6133375D01*
X22420185Y-6066336D01*
X22436819Y-6045694D01*
X23125983Y-5356530D01*
X23949500Y-5356530D01*
X23949500Y-5563469D01*
X23988898Y-5761534D01*
X23989870Y-5766420D01*
X24028840Y-5860502D01*
X24069058Y-5957596D01*
X24184024Y-6129657D01*
X24330342Y-6275975D01*
X24330345Y-6275977D01*
X24502402Y-6390941D01*
X24693580Y-6470130D01*
X24896530Y-6510499D01*
X24896534Y-6510500D01*
X24896535Y-6510500D01*
X25103466Y-6510500D01*
X25103467Y-6510499D01*
X25306420Y-6470130D01*
X25497598Y-6390941D01*
X25669655Y-6275977D01*
X25815977Y-6129655D01*
X25930941Y-5957598D01*
X26010130Y-5766420D01*
X26050500Y-5563465D01*
X26050500Y-5356535D01*
X26010130Y-5153580D01*
X26008593Y-5149870D01*
X26001617Y-5133027D01*
X25994148Y-5063558D01*
X26025423Y-5001079D01*
X26028468Y-4997923D01*
X27589574Y-3436819D01*
X27650897Y-3403334D01*
X27677255Y-3400500D01*
X57102745Y-3400500D01*
X57169784Y-3420185D01*
X57190426Y-3436819D01*
X58773181Y-5019573D01*
X58806666Y-5080896D01*
X58809500Y-5107254D01*
X58809500Y-6737865D01*
X58809501Y-6737884D01*
X58815908Y-6797481D01*
X58815910Y-6797488D01*
X58866202Y-6932328D01*
X58866203Y-6932330D01*
X58866204Y-6932331D01*
X58952453Y-7047547D01*
X59032094Y-7107165D01*
X59067669Y-7133796D01*
X59067671Y-7133797D01*
X59136515Y-7159474D01*
X59202516Y-7184091D01*
X59262126Y-7190500D01*
X59635500Y-7190500D01*
X59702539Y-7210185D01*
X59748294Y-7262989D01*
X59759500Y-7314500D01*
X59759500Y-8719711D01*
X59739815Y-8786750D01*
X59687011Y-8832505D01*
X59682958Y-8834269D01*
X59651030Y-8847494D01*
X59502403Y-8909058D01*
X59330342Y-9024024D01*
X59184024Y-9170342D01*
X59069058Y-9342403D01*
X58989870Y-9533579D01*
X58989868Y-9533587D01*
X58949500Y-9736530D01*
X58949500Y-9943469D01*
X58989868Y-10146412D01*
X58989870Y-10146420D01*
X59061769Y-10320000D01*
X59069059Y-10337598D01*
X59101721Y-10386480D01*
X59184024Y-10509657D01*
X59330342Y-10655975D01*
X59330345Y-10655977D01*
X59502402Y-10770941D01*
X59693580Y-10850130D01*
X59896530Y-10890499D01*
X59896534Y-10890500D01*
X59896535Y-10890500D01*
X60103466Y-10890500D01*
X60103467Y-10890499D01*
X60306420Y-10850130D01*
X60497598Y-10770941D01*
X60669655Y-10655977D01*
X60815977Y-10509655D01*
X60930941Y-10337598D01*
X61010130Y-10146420D01*
X61050500Y-9943465D01*
X61050500Y-9736535D01*
X61010130Y-9533580D01*
X60930941Y-9342402D01*
X60815977Y-9170345D01*
X60815975Y-9170342D01*
X60669658Y-9024025D01*
X60669654Y-9024022D01*
X60615609Y-8987910D01*
X60570804Y-8934298D01*
X60560500Y-8884808D01*
X60560500Y-7314500D01*
X60580185Y-7247461D01*
X60632989Y-7201706D01*
X60684500Y-7190500D01*
X61057865Y-7190500D01*
X61057874Y-7190500D01*
X61117484Y-7184091D01*
X61252331Y-7133796D01*
X61367547Y-7047547D01*
X61453796Y-6932331D01*
X61504091Y-6797484D01*
X61510500Y-6737874D01*
X61510500Y-4942126D01*
X61504091Y-4882516D01*
X61453796Y-4747669D01*
X61367547Y-4632453D01*
X61252331Y-4546204D01*
X61252330Y-4546203D01*
X61252328Y-4546202D01*
X61117488Y-4495910D01*
X61117481Y-4495908D01*
X61057884Y-4489501D01*
X61057882Y-4489500D01*
X61057874Y-4489500D01*
X61057866Y-4489500D01*
X59427254Y-4489500D01*
X59360215Y-4469815D01*
X59339573Y-4453181D01*
X57565915Y-2679522D01*
X57565914Y-2679521D01*
X57565913Y-2679520D01*
X57510945Y-2647784D01*
X57474589Y-2626793D01*
X57423657Y-2613146D01*
X57372727Y-2599500D01*
X27407273Y-2599500D01*
X27305413Y-2626793D01*
X27305412Y-2626793D01*
X27305410Y-2626794D01*
X27305407Y-2626795D01*
X27269055Y-2647784D01*
X27269054Y-2647785D01*
X27241570Y-2663652D01*
X27214088Y-2679519D01*
X27214085Y-2679521D01*
X25462103Y-4431502D01*
X25400780Y-4464987D01*
X25331088Y-4460003D01*
X25326983Y-4458387D01*
X25306420Y-4449870D01*
X25306412Y-4449868D01*
X25103469Y-4409500D01*
X25103465Y-4409500D01*
X24896535Y-4409500D01*
X24896530Y-4409500D01*
X24693587Y-4449868D01*
X24693579Y-4449870D01*
X24502403Y-4529058D01*
X24330342Y-4644024D01*
X24184024Y-4790342D01*
X24069058Y-4962403D01*
X23989870Y-5153579D01*
X23989868Y-5153587D01*
X23949500Y-5356530D01*
X23125983Y-5356530D01*
X26545694Y-1936819D01*
X26607017Y-1903334D01*
X26633375Y-1900500D01*
X65282745Y-1900500D01*
X65349784Y-1920185D01*
X65370426Y-1936819D01*
X72613181Y-9179574D01*
X72646666Y-9240897D01*
X72649500Y-9267255D01*
X72649500Y-10897865D01*
X72649501Y-10897884D01*
X72655908Y-10957481D01*
X72655910Y-10957488D01*
X72706202Y-11092328D01*
X72706203Y-11092330D01*
X72727887Y-11121297D01*
X72792453Y-11207547D01*
X72907669Y-11293796D01*
X72907671Y-11293797D01*
X72961884Y-11314017D01*
X73042516Y-11344091D01*
X73102126Y-11350500D01*
X73475500Y-11350500D01*
X73542539Y-11370185D01*
X73588294Y-11422989D01*
X73599500Y-11474500D01*
X73599500Y-12945985D01*
X73579815Y-13013024D01*
X73527011Y-13058779D01*
X73522954Y-13060546D01*
X73502402Y-13069059D01*
X73502395Y-13069062D01*
X73330344Y-13184022D01*
X73184024Y-13330342D01*
X73069058Y-13502403D01*
X72989870Y-13693579D01*
X72989868Y-13693587D01*
X72949500Y-13896530D01*
X72949500Y-14103469D01*
X72989868Y-14306412D01*
X72989870Y-14306420D01*
X73010106Y-14355275D01*
X73069059Y-14497598D01*
X73115419Y-14566981D01*
X73184024Y-14669657D01*
X73330342Y-14815975D01*
X73330345Y-14815977D01*
X73502402Y-14930941D01*
X73693580Y-15010130D01*
X73896530Y-15050499D01*
X73896534Y-15050500D01*
X73896535Y-15050500D01*
X74103466Y-15050500D01*
X74103467Y-15050499D01*
X74306420Y-15010130D01*
X74497598Y-14930941D01*
X74669655Y-14815977D01*
X74815977Y-14669655D01*
X74930941Y-14497598D01*
X75010130Y-14306420D01*
X75050500Y-14103465D01*
X75050500Y-13896535D01*
X75010130Y-13693580D01*
X74930941Y-13502402D01*
X74815977Y-13330345D01*
X74815975Y-13330342D01*
X74669655Y-13184022D01*
X74497604Y-13069062D01*
X74497599Y-13069060D01*
X74497598Y-13069059D01*
X74477045Y-13060545D01*
X74422643Y-13016704D01*
X74400579Y-12950410D01*
X74400500Y-12945985D01*
X74400500Y-11474500D01*
X74420185Y-11407461D01*
X74472989Y-11361706D01*
X74524500Y-11350500D01*
X74897865Y-11350500D01*
X74897874Y-11350500D01*
X74957484Y-11344091D01*
X75092331Y-11293796D01*
X75207547Y-11207547D01*
X75293796Y-11092331D01*
X75344091Y-10957484D01*
X75350500Y-10897874D01*
X75350500Y-9102126D01*
X75344091Y-9042516D01*
X75317003Y-8969890D01*
X75293797Y-8907671D01*
X75293796Y-8907669D01*
X75286457Y-8897865D01*
X75207547Y-8792453D01*
X75092331Y-8706204D01*
X75092330Y-8706203D01*
X75092328Y-8706202D01*
X74957488Y-8655910D01*
X74957481Y-8655908D01*
X74897884Y-8649501D01*
X74897882Y-8649500D01*
X74897874Y-8649500D01*
X74897866Y-8649500D01*
X73267255Y-8649500D01*
X73200216Y-8629815D01*
X73179574Y-8613181D01*
X70624075Y-6057682D01*
X72540000Y-6057682D01*
X72540000Y-6262317D01*
X72572009Y-6464417D01*
X72635244Y-6659031D01*
X72728141Y-6841350D01*
X72728147Y-6841359D01*
X72760523Y-6885921D01*
X72760524Y-6885922D01*
X73440000Y-6206446D01*
X73440000Y-6212661D01*
X73467259Y-6314394D01*
X73519920Y-6405606D01*
X73594394Y-6480080D01*
X73685606Y-6532741D01*
X73787339Y-6560000D01*
X73793553Y-6560000D01*
X73114076Y-7239474D01*
X73158650Y-7271859D01*
X73340968Y-7364755D01*
X73535582Y-7427990D01*
X73737683Y-7460000D01*
X73942317Y-7460000D01*
X74144417Y-7427990D01*
X74339031Y-7364755D01*
X74521349Y-7271859D01*
X74565921Y-7239474D01*
X73886447Y-6560000D01*
X73892661Y-6560000D01*
X73994394Y-6532741D01*
X74085606Y-6480080D01*
X74160080Y-6405606D01*
X74212741Y-6314394D01*
X74240000Y-6212661D01*
X74240000Y-6206447D01*
X74919474Y-6885921D01*
X74951859Y-6841349D01*
X75044755Y-6659031D01*
X75107990Y-6464417D01*
X75140000Y-6262317D01*
X75140000Y-6057682D01*
X75107990Y-5855582D01*
X75044755Y-5660968D01*
X74951859Y-5478650D01*
X74919474Y-5434077D01*
X74919474Y-5434076D01*
X74240000Y-6113551D01*
X74240000Y-6107339D01*
X74212741Y-6005606D01*
X74160080Y-5914394D01*
X74085606Y-5839920D01*
X73994394Y-5787259D01*
X73892661Y-5760000D01*
X73886446Y-5760000D01*
X74565922Y-5080524D01*
X74565921Y-5080523D01*
X74521359Y-5048147D01*
X74521350Y-5048141D01*
X74339031Y-4955244D01*
X74144417Y-4892009D01*
X73942317Y-4860000D01*
X73737683Y-4860000D01*
X73535582Y-4892009D01*
X73340968Y-4955244D01*
X73158644Y-5048143D01*
X73114077Y-5080523D01*
X73114077Y-5080524D01*
X73793554Y-5760000D01*
X73787339Y-5760000D01*
X73685606Y-5787259D01*
X73594394Y-5839920D01*
X73519920Y-5914394D01*
X73467259Y-6005606D01*
X73440000Y-6107339D01*
X73440000Y-6113553D01*
X72760524Y-5434077D01*
X72760523Y-5434077D01*
X72728143Y-5478644D01*
X72635244Y-5660968D01*
X72572009Y-5855582D01*
X72540000Y-6057682D01*
X70624075Y-6057682D01*
X68441828Y-3875435D01*
X81099500Y-3875435D01*
X81099500Y-4124565D01*
X81132018Y-4371565D01*
X81167430Y-4503723D01*
X81196498Y-4612207D01*
X81291830Y-4842361D01*
X81291837Y-4842376D01*
X81416400Y-5058126D01*
X81568060Y-5255774D01*
X81568066Y-5255781D01*
X81744218Y-5431933D01*
X81744225Y-5431939D01*
X81941873Y-5583599D01*
X82157623Y-5708162D01*
X82157638Y-5708169D01*
X82256825Y-5749253D01*
X82387793Y-5803502D01*
X82628435Y-5867982D01*
X82875435Y-5900500D01*
X82875442Y-5900500D01*
X83124558Y-5900500D01*
X83124565Y-5900500D01*
X83371565Y-5867982D01*
X83612207Y-5803502D01*
X83842373Y-5708164D01*
X84058127Y-5583599D01*
X84255776Y-5431938D01*
X84431938Y-5255776D01*
X84583599Y-5058127D01*
X84708164Y-4842373D01*
X84803502Y-4612207D01*
X84867982Y-4371565D01*
X84900500Y-4124565D01*
X84900500Y-3875435D01*
X84867982Y-3628435D01*
X84803502Y-3387793D01*
X84708164Y-3157627D01*
X84632057Y-3025806D01*
X84583599Y-2941873D01*
X84431939Y-2744225D01*
X84431933Y-2744218D01*
X84255781Y-2568066D01*
X84255774Y-2568060D01*
X84058126Y-2416400D01*
X83842376Y-2291837D01*
X83842361Y-2291830D01*
X83612207Y-2196498D01*
X83371561Y-2132017D01*
X83124575Y-2099501D01*
X83124570Y-2099500D01*
X83124565Y-2099500D01*
X82875435Y-2099500D01*
X82875429Y-2099500D01*
X82875424Y-2099501D01*
X82628438Y-2132017D01*
X82387792Y-2196498D01*
X82157638Y-2291830D01*
X82157623Y-2291837D01*
X81941873Y-2416400D01*
X81744225Y-2568060D01*
X81744218Y-2568066D01*
X81568066Y-2744218D01*
X81568060Y-2744225D01*
X81416400Y-2941873D01*
X81291837Y-3157623D01*
X81291830Y-3157638D01*
X81196498Y-3387792D01*
X81132017Y-3628438D01*
X81100835Y-3865291D01*
X81099500Y-3875435D01*
X68441828Y-3875435D01*
X65745915Y-1179522D01*
X65745913Y-1179520D01*
X65700250Y-1153156D01*
X65654589Y-1126793D01*
X65603657Y-1113146D01*
X65552727Y-1099500D01*
X26468847Y-1099500D01*
X26363393Y-1099500D01*
X26261530Y-1126793D01*
X26170207Y-1179520D01*
X26170204Y-1179522D01*
X21679522Y-5670204D01*
X21679520Y-5670207D01*
X21626791Y-5761534D01*
X21608933Y-5828187D01*
X21599500Y-5863391D01*
X21599500Y-17752726D01*
X21626793Y-17854589D01*
X21649768Y-17894382D01*
X21679520Y-17945913D01*
X22813610Y-19080003D01*
X23913181Y-20179573D01*
X23946666Y-20240896D01*
X23949500Y-20267254D01*
X23949500Y-21297870D01*
X23949501Y-21297876D01*
X23955908Y-21357483D01*
X24006202Y-21492328D01*
X24006206Y-21492335D01*
X24092452Y-21607544D01*
X24092455Y-21607547D01*
X24207664Y-21693793D01*
X24207671Y-21693797D01*
X24342517Y-21744091D01*
X24342516Y-21744091D01*
X24346321Y-21744500D01*
X24402127Y-21750500D01*
X25597872Y-21750499D01*
X25657483Y-21744091D01*
X25792331Y-21693796D01*
X25907546Y-21607546D01*
X25993796Y-21492331D01*
X26044091Y-21357483D01*
X26050500Y-21297873D01*
X26050499Y-20102128D01*
X26044091Y-20042517D01*
X26039551Y-20030345D01*
X25993797Y-19907671D01*
X25993793Y-19907664D01*
X25907547Y-19792455D01*
X25907544Y-19792452D01*
X25792335Y-19706206D01*
X25792328Y-19706202D01*
X25657482Y-19655908D01*
X25657483Y-19655908D01*
X25597883Y-19649501D01*
X25597881Y-19649500D01*
X25597873Y-19649500D01*
X25597865Y-19649500D01*
X25405585Y-19649500D01*
X25338546Y-19629815D01*
X25292791Y-19577011D01*
X25282847Y-19507853D01*
X25311872Y-19444297D01*
X25367266Y-19407569D01*
X25499031Y-19364755D01*
X25681349Y-19271859D01*
X25725921Y-19239474D01*
X25046446Y-18560000D01*
X25052661Y-18560000D01*
X25154394Y-18532741D01*
X25245606Y-18480080D01*
X25320080Y-18405606D01*
X25372741Y-18314394D01*
X25400000Y-18212661D01*
X25400000Y-18206446D01*
X26079474Y-18885921D01*
X26111859Y-18841349D01*
X26204755Y-18659031D01*
X26267990Y-18464417D01*
X26300000Y-18262317D01*
X26300000Y-18057683D01*
X26285110Y-17963676D01*
X26294064Y-17894382D01*
X26339060Y-17840930D01*
X26405812Y-17820290D01*
X26473125Y-17839014D01*
X26495264Y-17856596D01*
X32040337Y-23401669D01*
X32055067Y-23415286D01*
X32055072Y-23415290D01*
X32066885Y-23425379D01*
X32153865Y-23474088D01*
X32153867Y-23474089D01*
X32182960Y-23483541D01*
X32212056Y-23492995D01*
X32291008Y-23505500D01*
X42842806Y-23505500D01*
X42909845Y-23525185D01*
X42930487Y-23541819D01*
X43958181Y-24569513D01*
X43991666Y-24630836D01*
X43994500Y-24657194D01*
X43994500Y-30767602D01*
X43974815Y-30834641D01*
X43947962Y-30864430D01*
X42569340Y-31967328D01*
X42504694Y-31993836D01*
X42491878Y-31994500D01*
X25976751Y-31994500D01*
X25909712Y-31974815D01*
X25863957Y-31922011D01*
X25855134Y-31894691D01*
X25827227Y-31754394D01*
X25815130Y-31693580D01*
X25735941Y-31502402D01*
X25620977Y-31330345D01*
X25620975Y-31330342D01*
X25474657Y-31184024D01*
X25388626Y-31126541D01*
X25302598Y-31069059D01*
X25111420Y-30989870D01*
X25111412Y-30989868D01*
X24908469Y-30949500D01*
X24908465Y-30949500D01*
X24701535Y-30949500D01*
X24701530Y-30949500D01*
X24498587Y-30989868D01*
X24498579Y-30989870D01*
X24307403Y-31069058D01*
X24135342Y-31184024D01*
X23989024Y-31330342D01*
X23874058Y-31502403D01*
X23794870Y-31693579D01*
X23794868Y-31693587D01*
X23754500Y-31896530D01*
X23754500Y-32103469D01*
X23794868Y-32306412D01*
X23794870Y-32306420D01*
X23874059Y-32497598D01*
X23889113Y-32520128D01*
X23989024Y-32669657D01*
X24135342Y-32815975D01*
X24135345Y-32815977D01*
X24271885Y-32907209D01*
X24316688Y-32960819D01*
X24325396Y-33030144D01*
X24295242Y-33093172D01*
X24290674Y-33097991D01*
X23348330Y-34040336D01*
X23334695Y-34055087D01*
X23324612Y-34066895D01*
X23324611Y-34066897D01*
X23275913Y-34153861D01*
X23275911Y-34153864D01*
X23257005Y-34212053D01*
X23244500Y-34291007D01*
X23244500Y-34678745D01*
X23238261Y-34699990D01*
X23236682Y-34722079D01*
X23228609Y-34732862D01*
X23224815Y-34745784D01*
X23208081Y-34760283D01*
X23194810Y-34778012D01*
X23182189Y-34782719D01*
X23172011Y-34791539D01*
X23150093Y-34794690D01*
X23129346Y-34802429D01*
X23116185Y-34799566D01*
X23102853Y-34801483D01*
X23082709Y-34792283D01*
X23061073Y-34787577D01*
X23043347Y-34774308D01*
X23039297Y-34772458D01*
X23032819Y-34766426D01*
X22936819Y-34670426D01*
X22903334Y-34609103D01*
X22900500Y-34582745D01*
X22900500Y-31982254D01*
X22920185Y-31915215D01*
X22936814Y-31894578D01*
X24342896Y-30488495D01*
X24404217Y-30455012D01*
X24473909Y-30459996D01*
X24478027Y-30461617D01*
X24498575Y-30470128D01*
X24498580Y-30470130D01*
X24650754Y-30500399D01*
X24701530Y-30510499D01*
X24701534Y-30510500D01*
X24701535Y-30510500D01*
X24908466Y-30510500D01*
X24908467Y-30510499D01*
X25111420Y-30470130D01*
X25302598Y-30390941D01*
X25474655Y-30275977D01*
X25620977Y-30129655D01*
X25735941Y-29957598D01*
X25744454Y-29937045D01*
X25788296Y-29882643D01*
X25854590Y-29860579D01*
X25859015Y-29860500D01*
X27742745Y-29860500D01*
X27772185Y-29869144D01*
X27802172Y-29875668D01*
X27807187Y-29879422D01*
X27809784Y-29880185D01*
X27830426Y-29896819D01*
X27971502Y-30037895D01*
X28004987Y-30099218D01*
X28000003Y-30168910D01*
X27998384Y-30173025D01*
X27989869Y-30193583D01*
X27989867Y-30193587D01*
X27949500Y-30396530D01*
X27949500Y-30603469D01*
X27989868Y-30806412D01*
X27989870Y-30806420D01*
X28069058Y-30997596D01*
X28184024Y-31169657D01*
X28330342Y-31315975D01*
X28330345Y-31315977D01*
X28502402Y-31430941D01*
X28693580Y-31510130D01*
X28896530Y-31550499D01*
X28896534Y-31550500D01*
X28896535Y-31550500D01*
X29103466Y-31550500D01*
X29103467Y-31550499D01*
X29306420Y-31510130D01*
X29497598Y-31430941D01*
X29669655Y-31315977D01*
X29815977Y-31169655D01*
X29930941Y-30997598D01*
X29939454Y-30977045D01*
X29983296Y-30922643D01*
X30049590Y-30900579D01*
X30054015Y-30900500D01*
X33552725Y-30900500D01*
X33552727Y-30900500D01*
X33654588Y-30873207D01*
X33745913Y-30820480D01*
X34537896Y-30028495D01*
X34599217Y-29995012D01*
X34668908Y-29999996D01*
X34673027Y-30001617D01*
X34693575Y-30010128D01*
X34693580Y-30010130D01*
X34896530Y-30050499D01*
X34896534Y-30050500D01*
X34896535Y-30050500D01*
X35103466Y-30050500D01*
X35103467Y-30050499D01*
X35306420Y-30010130D01*
X35497598Y-29930941D01*
X35669655Y-29815977D01*
X35815977Y-29669655D01*
X35930941Y-29497598D01*
X36010130Y-29306420D01*
X36050500Y-29103465D01*
X36050500Y-28896535D01*
X36010130Y-28693580D01*
X35930941Y-28502402D01*
X35815977Y-28330345D01*
X35815975Y-28330342D01*
X35669657Y-28184024D01*
X35540319Y-28097604D01*
X35497598Y-28069059D01*
X35496796Y-28068727D01*
X35306420Y-27989870D01*
X35306412Y-27989868D01*
X35103469Y-27949500D01*
X35103465Y-27949500D01*
X34896535Y-27949500D01*
X34896530Y-27949500D01*
X34693587Y-27989868D01*
X34693579Y-27989870D01*
X34502403Y-28069058D01*
X34330342Y-28184024D01*
X34184024Y-28330342D01*
X34069058Y-28502403D01*
X33989870Y-28693579D01*
X33989868Y-28693587D01*
X33949500Y-28896530D01*
X33949500Y-29103469D01*
X33989868Y-29306412D01*
X33989870Y-29306420D01*
X33998382Y-29326969D01*
X34005851Y-29396438D01*
X33974576Y-29458917D01*
X33971502Y-29462103D01*
X33370426Y-30063181D01*
X33309103Y-30096666D01*
X33282745Y-30099500D01*
X30054015Y-30099500D01*
X29986976Y-30079815D01*
X29941221Y-30027011D01*
X29939454Y-30022954D01*
X29930941Y-30002402D01*
X29930938Y-30002397D01*
X29930937Y-30002395D01*
X29815977Y-29830344D01*
X29669657Y-29684024D01*
X29583626Y-29626541D01*
X29497598Y-29569059D01*
X29484095Y-29563466D01*
X29306420Y-29489870D01*
X29306412Y-29489868D01*
X29103469Y-29449500D01*
X29103465Y-29449500D01*
X28896535Y-29449500D01*
X28896530Y-29449500D01*
X28693587Y-29489867D01*
X28693583Y-29489869D01*
X28693581Y-29489869D01*
X28693580Y-29489870D01*
X28678786Y-29495997D01*
X28673025Y-29498384D01*
X28603555Y-29505850D01*
X28541077Y-29474573D01*
X28537895Y-29471502D01*
X28205915Y-29139522D01*
X28205913Y-29139520D01*
X28160250Y-29113156D01*
X28114589Y-29086793D01*
X28063657Y-29073146D01*
X28012727Y-29059500D01*
X28012726Y-29059500D01*
X25859015Y-29059500D01*
X25791976Y-29039815D01*
X25746221Y-28987011D01*
X25744454Y-28982954D01*
X25739295Y-28970500D01*
X25735941Y-28962402D01*
X25735938Y-28962397D01*
X25735937Y-28962395D01*
X25620977Y-28790344D01*
X25474657Y-28644024D01*
X25388626Y-28586541D01*
X25302598Y-28529059D01*
X25111420Y-28449870D01*
X25111412Y-28449868D01*
X24908469Y-28409500D01*
X24908465Y-28409500D01*
X24701535Y-28409500D01*
X24701530Y-28409500D01*
X24498587Y-28449868D01*
X24498579Y-28449870D01*
X24307403Y-28529058D01*
X24135342Y-28644024D01*
X23989024Y-28790342D01*
X23874058Y-28962403D01*
X23794870Y-29153579D01*
X23794868Y-29153587D01*
X23754500Y-29356530D01*
X23754500Y-29563469D01*
X23794868Y-29766412D01*
X23794870Y-29766420D01*
X23800693Y-29780479D01*
X23803382Y-29786969D01*
X23810851Y-29856438D01*
X23779576Y-29918917D01*
X23776502Y-29922103D01*
X22179522Y-31519084D01*
X22179518Y-31519090D01*
X22126792Y-31610412D01*
X22126793Y-31610413D01*
X22099500Y-31712273D01*
X22099500Y-34747273D01*
X22099500Y-34852727D01*
X22100032Y-34854712D01*
X22126793Y-34954589D01*
X22153156Y-35000250D01*
X22179520Y-35045913D01*
X22179522Y-35045915D01*
X22979122Y-35845515D01*
X23012607Y-35906838D01*
X23007623Y-35976530D01*
X23000000Y-35988391D01*
X23000000Y-36000000D01*
X23000000Y-37000000D01*
X23325523Y-37651046D01*
X23337898Y-37719811D01*
X23311130Y-37784350D01*
X23253720Y-37824172D01*
X23214614Y-37830500D01*
X22448255Y-37830500D01*
X22381216Y-37810815D01*
X22360574Y-37794181D01*
X21436819Y-36870426D01*
X21403334Y-36809103D01*
X21400500Y-36782745D01*
X21400500Y-28402253D01*
X21420185Y-28335214D01*
X21436814Y-28314577D01*
X22934860Y-26816530D01*
X23754500Y-26816530D01*
X23754500Y-27023469D01*
X23790259Y-27203239D01*
X23794870Y-27226420D01*
X23874059Y-27417598D01*
X23924971Y-27493793D01*
X23989024Y-27589657D01*
X24135342Y-27735975D01*
X24135345Y-27735977D01*
X24307402Y-27850941D01*
X24498580Y-27930130D01*
X24650754Y-27960399D01*
X24701530Y-27970499D01*
X24701534Y-27970500D01*
X24701535Y-27970500D01*
X24908466Y-27970500D01*
X24908467Y-27970499D01*
X25111420Y-27930130D01*
X25302598Y-27850941D01*
X25474655Y-27735977D01*
X25620977Y-27589655D01*
X25735941Y-27417598D01*
X25815130Y-27226420D01*
X25855500Y-27023465D01*
X25855500Y-26816535D01*
X25815130Y-26613580D01*
X25806617Y-26593027D01*
X25799148Y-26523558D01*
X25830423Y-26461079D01*
X25833467Y-26457924D01*
X26739574Y-25551819D01*
X26800897Y-25518334D01*
X26827255Y-25515500D01*
X27830238Y-25515500D01*
X27897277Y-25535185D01*
X27943032Y-25587989D01*
X27951855Y-25615309D01*
X27989868Y-25806412D01*
X27989870Y-25806420D01*
X28068360Y-25995912D01*
X28069059Y-25997598D01*
X28140170Y-26104024D01*
X28184023Y-26169655D01*
X28184025Y-26169658D01*
X28330342Y-26315975D01*
X28330345Y-26315977D01*
X28502402Y-26430941D01*
X28693580Y-26510130D01*
X28896530Y-26550499D01*
X28896534Y-26550500D01*
X28896535Y-26550500D01*
X29103466Y-26550500D01*
X29103467Y-26550499D01*
X29306420Y-26510130D01*
X29497598Y-26430941D01*
X29669655Y-26315977D01*
X29815977Y-26169655D01*
X29930941Y-25997598D01*
X30010130Y-25806420D01*
X30031594Y-25698515D01*
X30048145Y-25615309D01*
X30080530Y-25553398D01*
X30141245Y-25518824D01*
X30169762Y-25515500D01*
X33902339Y-25515500D01*
X33969378Y-25535185D01*
X34015133Y-25587989D01*
X34025077Y-25657147D01*
X34007944Y-25698515D01*
X34010454Y-25699886D01*
X34006202Y-25707671D01*
X33955908Y-25842517D01*
X33950642Y-25891502D01*
X33949501Y-25902123D01*
X33949500Y-25902135D01*
X33949500Y-27097870D01*
X33949501Y-27097876D01*
X33955908Y-27157483D01*
X34006202Y-27292328D01*
X34006206Y-27292335D01*
X34092452Y-27407544D01*
X34092455Y-27407547D01*
X34207664Y-27493793D01*
X34207671Y-27493797D01*
X34342517Y-27544091D01*
X34342516Y-27544091D01*
X34349444Y-27544835D01*
X34402127Y-27550500D01*
X35597872Y-27550499D01*
X35657483Y-27544091D01*
X35792331Y-27493796D01*
X35907546Y-27407546D01*
X35993796Y-27292331D01*
X36044091Y-27157483D01*
X36050500Y-27097873D01*
X36050499Y-25902128D01*
X36044091Y-25842517D01*
X36039581Y-25830426D01*
X35993797Y-25707671D01*
X35989546Y-25699886D01*
X35992580Y-25698229D01*
X35973976Y-25648334D01*
X35988835Y-25580062D01*
X36038245Y-25530662D01*
X36097661Y-25515500D01*
X39500500Y-25515500D01*
X39567539Y-25535185D01*
X39613294Y-25587989D01*
X39624500Y-25639500D01*
X39624500Y-26012865D01*
X39624501Y-26012884D01*
X39630908Y-26072481D01*
X39630910Y-26072488D01*
X39681202Y-26207328D01*
X39681203Y-26207330D01*
X39681204Y-26207331D01*
X39767453Y-26322547D01*
X39852117Y-26385925D01*
X39882669Y-26408796D01*
X39882671Y-26408797D01*
X39912708Y-26420000D01*
X40017516Y-26459091D01*
X40077126Y-26465500D01*
X40077135Y-26465500D01*
X41872865Y-26465500D01*
X41872874Y-26465500D01*
X41932484Y-26459091D01*
X42067331Y-26408796D01*
X42182547Y-26322547D01*
X42268796Y-26207331D01*
X42319091Y-26072484D01*
X42325500Y-26012874D01*
X42325500Y-24217126D01*
X42319091Y-24157516D01*
X42287784Y-24073579D01*
X42268797Y-24022671D01*
X42268796Y-24022669D01*
X42251826Y-24000000D01*
X42182547Y-23907453D01*
X42067331Y-23821204D01*
X42067330Y-23821203D01*
X42067328Y-23821202D01*
X41932488Y-23770910D01*
X41932481Y-23770908D01*
X41872884Y-23764501D01*
X41872882Y-23764500D01*
X41872874Y-23764500D01*
X40077126Y-23764500D01*
X40077118Y-23764500D01*
X40077115Y-23764501D01*
X40017518Y-23770908D01*
X40017511Y-23770910D01*
X39882671Y-23821202D01*
X39882669Y-23821203D01*
X39767453Y-23907453D01*
X39681203Y-24022669D01*
X39681202Y-24022671D01*
X39630910Y-24157511D01*
X39630908Y-24157518D01*
X39624501Y-24217115D01*
X39624500Y-24217134D01*
X39624500Y-24590500D01*
X39604815Y-24657539D01*
X39552011Y-24703294D01*
X39500500Y-24714500D01*
X29751160Y-24714500D01*
X29684121Y-24694815D01*
X29672498Y-24686355D01*
X29669662Y-24684027D01*
X29498277Y-24569513D01*
X29497598Y-24569059D01*
X29331322Y-24500185D01*
X29306420Y-24489870D01*
X29306412Y-24489868D01*
X29103469Y-24449500D01*
X29103465Y-24449500D01*
X28896535Y-24449500D01*
X28896530Y-24449500D01*
X28693587Y-24489868D01*
X28693579Y-24489870D01*
X28502403Y-24569058D01*
X28330337Y-24684027D01*
X28327502Y-24686355D01*
X28325726Y-24687109D01*
X28325279Y-24687408D01*
X28325222Y-24687323D01*
X28263192Y-24713667D01*
X28248840Y-24714500D01*
X26557273Y-24714500D01*
X26455413Y-24741793D01*
X26455412Y-24741793D01*
X26455410Y-24741794D01*
X26455409Y-24741794D01*
X26368742Y-24791832D01*
X26368740Y-24791833D01*
X26364090Y-24794517D01*
X26364086Y-24794520D01*
X25267103Y-25891502D01*
X25205780Y-25924987D01*
X25136088Y-25920003D01*
X25131983Y-25918387D01*
X25111420Y-25909870D01*
X25111412Y-25909868D01*
X24908469Y-25869500D01*
X24908465Y-25869500D01*
X24701535Y-25869500D01*
X24701530Y-25869500D01*
X24498587Y-25909868D01*
X24498579Y-25909870D01*
X24307403Y-25989058D01*
X24135342Y-26104024D01*
X23989024Y-26250342D01*
X23874058Y-26422403D01*
X23794870Y-26613579D01*
X23794868Y-26613587D01*
X23754500Y-26816530D01*
X22934860Y-26816530D01*
X24342896Y-25408494D01*
X24404217Y-25375011D01*
X24473909Y-25379995D01*
X24477969Y-25381592D01*
X24498580Y-25390130D01*
X24648748Y-25420000D01*
X24701530Y-25430499D01*
X24701534Y-25430500D01*
X24701535Y-25430500D01*
X24908466Y-25430500D01*
X24908467Y-25430499D01*
X25111420Y-25390130D01*
X25302598Y-25310941D01*
X25474655Y-25195977D01*
X25620977Y-25049655D01*
X25735941Y-24877598D01*
X25815130Y-24686420D01*
X25855500Y-24483465D01*
X25855500Y-24276535D01*
X25815130Y-24073580D01*
X25735941Y-23882402D01*
X25620977Y-23710345D01*
X25620975Y-23710342D01*
X25474657Y-23564024D01*
X25387069Y-23505500D01*
X25302598Y-23449059D01*
X25111420Y-23369870D01*
X25111412Y-23369868D01*
X24908469Y-23329500D01*
X24908465Y-23329500D01*
X24701535Y-23329500D01*
X24701530Y-23329500D01*
X24498587Y-23369868D01*
X24498579Y-23369870D01*
X24307403Y-23449058D01*
X24135342Y-23564024D01*
X23989024Y-23710342D01*
X23874058Y-23882403D01*
X23794870Y-24073579D01*
X23794868Y-24073587D01*
X23754500Y-24276530D01*
X23754500Y-24483469D01*
X23794867Y-24686412D01*
X23794870Y-24686420D01*
X23803383Y-24706973D01*
X23810850Y-24776442D01*
X23779574Y-24838921D01*
X23776502Y-24842104D01*
X20679522Y-27939084D01*
X20679520Y-27939087D01*
X20630802Y-28023469D01*
X20626793Y-28030412D01*
X20615321Y-28073227D01*
X20615321Y-28073228D01*
X20615320Y-28073227D01*
X20599500Y-28132271D01*
X15078857Y-28132271D01*
X15100500Y-28023465D01*
X15100500Y-27816535D01*
X15060130Y-27613580D01*
X14980941Y-27422402D01*
X14865977Y-27250345D01*
X14865975Y-27250342D01*
X14719657Y-27104024D01*
X14616757Y-27035269D01*
X14547598Y-26989059D01*
X14356420Y-26909870D01*
X14356412Y-26909868D01*
X14153469Y-26869500D01*
X14153465Y-26869500D01*
X13946535Y-26869500D01*
X13946530Y-26869500D01*
X13743587Y-26909868D01*
X13743579Y-26909870D01*
X13552403Y-26989058D01*
X13380342Y-27104024D01*
X13234024Y-27250342D01*
X13119058Y-27422403D01*
X13039870Y-27613579D01*
X13039868Y-27613587D01*
X12999500Y-27816530D01*
X12999500Y-28023469D01*
X13039868Y-28226412D01*
X13039870Y-28226420D01*
X13048382Y-28246969D01*
X13055851Y-28316438D01*
X13024576Y-28378917D01*
X13021502Y-28382103D01*
X8300426Y-33103181D01*
X8239103Y-33136666D01*
X8212745Y-33139500D01*
X3107042Y-33139500D01*
X3040003Y-33119815D01*
X2996557Y-33071794D01*
X2941233Y-32963213D01*
X2917786Y-32930941D01*
X2839414Y-32823072D01*
X2716928Y-32700586D01*
X2576788Y-32598768D01*
X2422445Y-32520127D01*
X2257701Y-32466598D01*
X2257699Y-32466597D01*
X2257698Y-32466597D01*
X2126271Y-32445781D01*
X2086611Y-32439500D01*
X1913389Y-32439500D01*
X1873728Y-32445781D01*
X1742302Y-32466597D01*
X1577552Y-32520128D01*
X1423211Y-32598768D01*
X1343256Y-32656859D01*
X1283072Y-32700586D01*
X1283070Y-32700588D01*
X1283069Y-32700588D01*
X1160588Y-32823069D01*
X1160588Y-32823070D01*
X1160586Y-32823072D01*
X1134489Y-32858991D01*
X1058768Y-32963211D01*
X980128Y-33117552D01*
X926597Y-33282302D01*
X899500Y-33453389D01*
X250500Y-33453389D01*
X250500Y-25813753D01*
X650000Y-25813753D01*
X650000Y-26026246D01*
X683242Y-26236127D01*
X683242Y-26236130D01*
X748904Y-26438217D01*
X845375Y-26627550D01*
X884728Y-26681716D01*
X1517037Y-26049408D01*
X1534075Y-26112993D01*
X1599901Y-26227007D01*
X1692993Y-26320099D01*
X1807007Y-26385925D01*
X1870590Y-26402962D01*
X1238282Y-27035269D01*
X1238282Y-27035270D01*
X1292449Y-27074624D01*
X1481784Y-27171096D01*
X1580711Y-27203239D01*
X1638387Y-27242676D01*
X1665586Y-27307034D01*
X1653672Y-27375881D01*
X1606428Y-27427357D01*
X1580722Y-27439097D01*
X1579522Y-27439487D01*
X1577550Y-27440128D01*
X1423211Y-27518768D01*
X1357589Y-27566446D01*
X1283072Y-27620586D01*
X1283070Y-27620588D01*
X1283069Y-27620588D01*
X1160588Y-27743069D01*
X1160588Y-27743070D01*
X1160586Y-27743072D01*
X1144214Y-27765606D01*
X1058768Y-27883211D01*
X980128Y-28037552D01*
X926597Y-28202302D01*
X899500Y-28373389D01*
X899500Y-28546610D01*
X922778Y-28693587D01*
X926598Y-28717701D01*
X974307Y-28864534D01*
X980128Y-28882447D01*
X1004424Y-28930131D01*
X1058768Y-29036788D01*
X1160586Y-29176928D01*
X1283072Y-29299414D01*
X1423212Y-29401232D01*
X1577555Y-29479873D01*
X1742299Y-29533402D01*
X1913389Y-29560500D01*
X1913390Y-29560500D01*
X2086610Y-29560500D01*
X2086611Y-29560500D01*
X2257701Y-29533402D01*
X2422445Y-29479873D01*
X2576788Y-29401232D01*
X2716928Y-29299414D01*
X2839414Y-29176928D01*
X2941232Y-29036788D01*
X3019873Y-28882445D01*
X3073402Y-28717701D01*
X3100500Y-28546611D01*
X3100500Y-28373389D01*
X3073402Y-28202299D01*
X3035742Y-28086397D01*
X3033748Y-28016557D01*
X3065991Y-27960401D01*
X4820480Y-26205914D01*
X4841414Y-26169655D01*
X4873207Y-26114588D01*
X4900500Y-26012728D01*
X4900500Y-23499255D01*
X4920185Y-23432216D01*
X4936819Y-23411574D01*
X6856065Y-21492328D01*
X8842559Y-19505833D01*
X8903880Y-19472350D01*
X8973572Y-19477334D01*
X9029505Y-19519206D01*
X9053922Y-19584670D01*
X9044799Y-19640968D01*
X8989871Y-19773575D01*
X8989868Y-19773587D01*
X8949500Y-19976530D01*
X8949500Y-20183469D01*
X8989868Y-20386412D01*
X8989870Y-20386420D01*
X9048174Y-20527177D01*
X9055643Y-20596646D01*
X9024368Y-20659126D01*
X9021294Y-20662311D01*
X6929522Y-22754084D01*
X6929520Y-22754087D01*
X6876793Y-22845410D01*
X6849500Y-22947273D01*
X6849500Y-25532744D01*
X6829815Y-25599783D01*
X6813181Y-25620425D01*
X2499599Y-29934006D01*
X2438276Y-29967491D01*
X2373600Y-29964256D01*
X2257698Y-29926597D01*
X2126271Y-29905781D01*
X2086611Y-29899500D01*
X1913389Y-29899500D01*
X1873728Y-29905781D01*
X1742302Y-29926597D01*
X1577552Y-29980128D01*
X1423211Y-30058768D01*
X1367149Y-30099500D01*
X1283072Y-30160586D01*
X1283070Y-30160588D01*
X1283069Y-30160588D01*
X1160588Y-30283069D01*
X1160588Y-30283070D01*
X1160586Y-30283072D01*
X1116859Y-30343256D01*
X1058768Y-30423211D01*
X980128Y-30577552D01*
X980127Y-30577554D01*
X980127Y-30577555D01*
X961305Y-30635482D01*
X926597Y-30742302D01*
X899500Y-30913389D01*
X899500Y-31086610D01*
X914928Y-31184023D01*
X926598Y-31257701D01*
X980127Y-31422445D01*
X1058768Y-31576788D01*
X1160586Y-31716928D01*
X1283072Y-31839414D01*
X1423212Y-31941232D01*
X1577555Y-32019873D01*
X1742299Y-32073402D01*
X1913389Y-32100500D01*
X1913390Y-32100500D01*
X2086610Y-32100500D01*
X2086611Y-32100500D01*
X2257701Y-32073402D01*
X2422445Y-32019873D01*
X2576788Y-31941232D01*
X2716928Y-31839414D01*
X2839414Y-31716928D01*
X2941232Y-31576788D01*
X3019873Y-31422445D01*
X3073402Y-31257701D01*
X3100500Y-31086611D01*
X3100500Y-30913389D01*
X3073402Y-30742299D01*
X3035741Y-30626393D01*
X3033747Y-30556558D01*
X3065990Y-30500401D01*
X5748710Y-27817682D01*
X8700000Y-27817682D01*
X8700000Y-28022317D01*
X8732009Y-28224417D01*
X8795244Y-28419031D01*
X8888141Y-28601350D01*
X8888147Y-28601359D01*
X8920523Y-28645921D01*
X8920524Y-28645922D01*
X9600000Y-27966446D01*
X9600000Y-27972661D01*
X9627259Y-28074394D01*
X9679920Y-28165606D01*
X9754394Y-28240080D01*
X9845606Y-28292741D01*
X9947339Y-28320000D01*
X9953553Y-28320000D01*
X9274076Y-28999474D01*
X9318650Y-29031859D01*
X9500968Y-29124755D01*
X9695582Y-29187990D01*
X9897683Y-29220000D01*
X10102317Y-29220000D01*
X10304417Y-29187990D01*
X10499031Y-29124755D01*
X10681349Y-29031859D01*
X10725921Y-28999474D01*
X10046447Y-28320000D01*
X10052661Y-28320000D01*
X10154394Y-28292741D01*
X10245606Y-28240080D01*
X10320080Y-28165606D01*
X10372741Y-28074394D01*
X10400000Y-27972661D01*
X10400000Y-27966447D01*
X11079474Y-28645921D01*
X11111859Y-28601349D01*
X11204755Y-28419031D01*
X11267990Y-28224417D01*
X11300000Y-28022317D01*
X11300000Y-27817682D01*
X11267990Y-27615582D01*
X11204755Y-27420968D01*
X11111859Y-27238650D01*
X11079474Y-27194077D01*
X11079474Y-27194076D01*
X10400000Y-27873551D01*
X10400000Y-27867339D01*
X10372741Y-27765606D01*
X10320080Y-27674394D01*
X10245606Y-27599920D01*
X10154394Y-27547259D01*
X10052661Y-27520000D01*
X10046446Y-27520000D01*
X10725922Y-26840524D01*
X10725921Y-26840523D01*
X10681359Y-26808147D01*
X10681350Y-26808141D01*
X10499031Y-26715244D01*
X10304417Y-26652009D01*
X10102317Y-26620000D01*
X9897683Y-26620000D01*
X9695582Y-26652009D01*
X9500968Y-26715244D01*
X9318644Y-26808143D01*
X9274077Y-26840523D01*
X9274077Y-26840524D01*
X9953554Y-27520000D01*
X9947339Y-27520000D01*
X9845606Y-27547259D01*
X9754394Y-27599920D01*
X9679920Y-27674394D01*
X9627259Y-27765606D01*
X9600000Y-27867339D01*
X9600000Y-27873553D01*
X8920524Y-27194077D01*
X8920523Y-27194077D01*
X8888143Y-27238644D01*
X8795244Y-27420968D01*
X8732009Y-27615582D01*
X8700000Y-27817682D01*
X5748710Y-27817682D01*
X7570480Y-25995913D01*
X7623207Y-25904588D01*
X7650500Y-25802727D01*
X7650500Y-25697273D01*
X7650500Y-23897682D01*
X8200000Y-23897682D01*
X8200000Y-24102317D01*
X8232009Y-24304417D01*
X8295244Y-24499031D01*
X8388141Y-24681350D01*
X8388147Y-24681359D01*
X8420523Y-24725921D01*
X8420524Y-24725922D01*
X9100000Y-24046446D01*
X9100000Y-24052661D01*
X9127259Y-24154394D01*
X9179920Y-24245606D01*
X9254394Y-24320080D01*
X9345606Y-24372741D01*
X9447339Y-24400000D01*
X9453553Y-24400000D01*
X8774076Y-25079474D01*
X8818650Y-25111859D01*
X9000968Y-25204755D01*
X9195582Y-25267990D01*
X9397683Y-25300000D01*
X9602317Y-25300000D01*
X9804417Y-25267990D01*
X9999031Y-25204755D01*
X10181349Y-25111859D01*
X10225921Y-25079474D01*
X9546447Y-24400000D01*
X9552661Y-24400000D01*
X9654394Y-24372741D01*
X9745606Y-24320080D01*
X9820080Y-24245606D01*
X9872741Y-24154394D01*
X9900000Y-24052661D01*
X9900000Y-24046447D01*
X10579474Y-24725921D01*
X10611859Y-24681349D01*
X10704755Y-24499031D01*
X10767990Y-24304417D01*
X10800000Y-24102317D01*
X10800000Y-23897690D01*
X10799998Y-23897674D01*
X10799817Y-23896530D01*
X13449500Y-23896530D01*
X13449500Y-24103469D01*
X13489868Y-24306412D01*
X13489870Y-24306420D01*
X13563206Y-24483469D01*
X13569059Y-24497598D01*
X13570788Y-24500185D01*
X13684024Y-24669657D01*
X13830342Y-24815975D01*
X13830345Y-24815977D01*
X14002402Y-24930941D01*
X14193580Y-25010130D01*
X14392287Y-25049655D01*
X14396530Y-25050499D01*
X14396534Y-25050500D01*
X14396535Y-25050500D01*
X14437770Y-25050500D01*
X14504809Y-25070185D01*
X14525451Y-25086819D01*
X16107652Y-26669020D01*
X16141137Y-26730343D01*
X16141589Y-26780888D01*
X16134500Y-26816531D01*
X16134500Y-27023469D01*
X16170259Y-27203239D01*
X16174870Y-27226420D01*
X16254059Y-27417598D01*
X16304971Y-27493793D01*
X16369024Y-27589657D01*
X16515342Y-27735975D01*
X16515345Y-27735977D01*
X16687402Y-27850941D01*
X16878580Y-27930130D01*
X17030754Y-27960399D01*
X17081530Y-27970499D01*
X17081534Y-27970500D01*
X17081535Y-27970500D01*
X17288466Y-27970500D01*
X17288467Y-27970499D01*
X17491420Y-27930130D01*
X17682598Y-27850941D01*
X17854655Y-27735977D01*
X18000977Y-27589655D01*
X18115941Y-27417598D01*
X18195130Y-27226420D01*
X18235500Y-27023465D01*
X18235500Y-26816535D01*
X18195130Y-26613580D01*
X18115941Y-26422402D01*
X18000977Y-26250345D01*
X18000975Y-26250342D01*
X17854657Y-26104024D01*
X17768626Y-26046541D01*
X17682598Y-25989059D01*
X17491420Y-25909870D01*
X17491419Y-25909869D01*
X17485792Y-25907539D01*
X17486210Y-25906527D01*
X17440485Y-25879118D01*
X17203548Y-25642181D01*
X17170063Y-25580858D01*
X17175047Y-25511166D01*
X17216919Y-25455233D01*
X17282383Y-25430816D01*
X17286893Y-25430654D01*
X17288459Y-25430500D01*
X17288465Y-25430500D01*
X17491420Y-25390130D01*
X17682598Y-25310941D01*
X17854655Y-25195977D01*
X18000977Y-25049655D01*
X18115941Y-24877598D01*
X18195130Y-24686420D01*
X18235500Y-24483465D01*
X18235500Y-24276535D01*
X18195130Y-24073580D01*
X18115941Y-23882402D01*
X18000977Y-23710345D01*
X18000975Y-23710342D01*
X17854657Y-23564024D01*
X17767069Y-23505500D01*
X17682598Y-23449059D01*
X17491420Y-23369870D01*
X17491412Y-23369868D01*
X17288469Y-23329500D01*
X17288465Y-23329500D01*
X17081535Y-23329500D01*
X17081530Y-23329500D01*
X16878587Y-23369868D01*
X16878579Y-23369870D01*
X16687403Y-23449058D01*
X16515342Y-23564024D01*
X16369024Y-23710342D01*
X16254058Y-23882403D01*
X16174870Y-24073579D01*
X16174868Y-24073587D01*
X16134500Y-24276530D01*
X16133903Y-24282596D01*
X16131964Y-24282405D01*
X16114815Y-24340809D01*
X16062011Y-24386564D01*
X15992853Y-24396508D01*
X15929297Y-24367483D01*
X15922819Y-24361451D01*
X15586819Y-24025451D01*
X15553334Y-23964128D01*
X15550500Y-23937770D01*
X15550500Y-23896534D01*
X15550499Y-23896530D01*
X15535516Y-23821204D01*
X15510130Y-23693580D01*
X15430941Y-23502402D01*
X15315977Y-23330345D01*
X15315975Y-23330342D01*
X15169657Y-23184024D01*
X15029444Y-23090338D01*
X14997598Y-23069059D01*
X14806420Y-22989870D01*
X14806412Y-22989868D01*
X14603469Y-22949500D01*
X14603465Y-22949500D01*
X14396535Y-22949500D01*
X14396530Y-22949500D01*
X14193587Y-22989868D01*
X14193579Y-22989870D01*
X14002403Y-23069058D01*
X13830342Y-23184024D01*
X13684024Y-23330342D01*
X13569058Y-23502403D01*
X13489870Y-23693579D01*
X13489868Y-23693587D01*
X13449500Y-23896530D01*
X10799817Y-23896530D01*
X10767990Y-23695582D01*
X10704755Y-23500968D01*
X10611859Y-23318650D01*
X10579474Y-23274077D01*
X10579474Y-23274076D01*
X9900000Y-23953551D01*
X9900000Y-23947339D01*
X9872741Y-23845606D01*
X9820080Y-23754394D01*
X9745606Y-23679920D01*
X9654394Y-23627259D01*
X9552661Y-23600000D01*
X9546446Y-23600000D01*
X10225922Y-22920524D01*
X10225921Y-22920523D01*
X10181359Y-22888147D01*
X10181350Y-22888141D01*
X9999031Y-22795244D01*
X9804417Y-22732009D01*
X9602317Y-22700000D01*
X9397683Y-22700000D01*
X9195582Y-22732009D01*
X9000968Y-22795244D01*
X8818644Y-22888143D01*
X8774077Y-22920523D01*
X8774077Y-22920524D01*
X9453554Y-23600000D01*
X9447339Y-23600000D01*
X9345606Y-23627259D01*
X9254394Y-23679920D01*
X9179920Y-23754394D01*
X9127259Y-23845606D01*
X9100000Y-23947339D01*
X9100000Y-23953553D01*
X8420524Y-23274077D01*
X8420523Y-23274077D01*
X8388143Y-23318644D01*
X8295244Y-23500968D01*
X8232009Y-23695582D01*
X8200000Y-23897682D01*
X7650500Y-23897682D01*
X7650500Y-23217254D01*
X7670185Y-23150215D01*
X7686814Y-23129578D01*
X9673975Y-21142416D01*
X9735296Y-21108933D01*
X9785843Y-21108482D01*
X9844663Y-21120182D01*
X9896533Y-21130500D01*
X9896535Y-21130500D01*
X10103466Y-21130500D01*
X10103467Y-21130499D01*
X10306420Y-21090130D01*
X10497598Y-21010941D01*
X10669655Y-20895977D01*
X10815977Y-20749655D01*
X10930941Y-20577598D01*
X11010130Y-20386420D01*
X11050500Y-20183465D01*
X11050500Y-19977682D01*
X12700000Y-19977682D01*
X12700000Y-20182317D01*
X12732009Y-20384417D01*
X12795244Y-20579031D01*
X12888141Y-20761350D01*
X12888147Y-20761359D01*
X12920523Y-20805921D01*
X12920524Y-20805922D01*
X13600000Y-20126446D01*
X13600000Y-20132661D01*
X13627259Y-20234394D01*
X13679920Y-20325606D01*
X13754394Y-20400080D01*
X13845606Y-20452741D01*
X13947339Y-20480000D01*
X13953553Y-20480000D01*
X13274076Y-21159474D01*
X13318650Y-21191859D01*
X13500968Y-21284755D01*
X13695582Y-21347990D01*
X13897683Y-21380000D01*
X14102317Y-21380000D01*
X14304417Y-21347990D01*
X14499031Y-21284755D01*
X14681349Y-21191859D01*
X14725921Y-21159474D01*
X14046447Y-20480000D01*
X14052661Y-20480000D01*
X14154394Y-20452741D01*
X14245606Y-20400080D01*
X14320080Y-20325606D01*
X14372741Y-20234394D01*
X14400000Y-20132661D01*
X14400000Y-20126447D01*
X15079474Y-20805921D01*
X15111859Y-20761349D01*
X15204755Y-20579031D01*
X15213498Y-20552124D01*
X15267990Y-20384417D01*
X15300000Y-20182317D01*
X15300000Y-19977682D01*
X15267990Y-19775582D01*
X15204755Y-19580968D01*
X15111859Y-19398650D01*
X15079474Y-19354077D01*
X15079474Y-19354076D01*
X14400000Y-20033551D01*
X14400000Y-20027339D01*
X14372741Y-19925606D01*
X14320080Y-19834394D01*
X14245606Y-19759920D01*
X14154394Y-19707259D01*
X14052661Y-19680000D01*
X14046446Y-19680000D01*
X14725922Y-19000524D01*
X14725921Y-19000523D01*
X14681359Y-18968147D01*
X14681350Y-18968141D01*
X14499031Y-18875244D01*
X14304417Y-18812009D01*
X14102317Y-18780000D01*
X13897683Y-18780000D01*
X13695582Y-18812009D01*
X13500968Y-18875244D01*
X13318644Y-18968143D01*
X13274077Y-19000523D01*
X13274077Y-19000524D01*
X13953554Y-19680000D01*
X13947339Y-19680000D01*
X13845606Y-19707259D01*
X13754394Y-19759920D01*
X13679920Y-19834394D01*
X13627259Y-19925606D01*
X13600000Y-20027339D01*
X13600000Y-20033553D01*
X12920524Y-19354077D01*
X12920523Y-19354077D01*
X12888143Y-19398644D01*
X12795244Y-19580968D01*
X12732009Y-19775582D01*
X12700000Y-19977682D01*
X11050500Y-19977682D01*
X11050500Y-19976535D01*
X11010130Y-19773580D01*
X11001617Y-19753027D01*
X10994148Y-19683558D01*
X11025423Y-19621079D01*
X11028468Y-19617923D01*
X14589574Y-16056819D01*
X14650897Y-16023334D01*
X14677255Y-16020500D01*
X16325985Y-16020500D01*
X16393024Y-16040185D01*
X16438779Y-16092989D01*
X16440544Y-16097043D01*
X16449058Y-16117596D01*
X16449059Y-16117597D01*
X16449062Y-16117604D01*
X16564022Y-16289655D01*
X16710342Y-16435975D01*
X16710345Y-16435977D01*
X16882402Y-16550941D01*
X17073580Y-16630130D01*
X17103696Y-16636120D01*
X17126381Y-16640633D01*
X17188292Y-16673017D01*
X17222866Y-16733733D01*
X17219127Y-16803502D01*
X17178261Y-16860175D01*
X17121589Y-16884723D01*
X17075581Y-16892010D01*
X16880968Y-16955244D01*
X16698644Y-17048143D01*
X16654077Y-17080523D01*
X16654077Y-17080524D01*
X17333554Y-17760000D01*
X17327339Y-17760000D01*
X17225606Y-17787259D01*
X17134394Y-17839920D01*
X17059920Y-17914394D01*
X17007259Y-18005606D01*
X16980000Y-18107339D01*
X16980000Y-18113553D01*
X16300524Y-17434077D01*
X16300523Y-17434077D01*
X16268143Y-17478644D01*
X16175244Y-17660968D01*
X16112009Y-17855582D01*
X16080000Y-18057682D01*
X16080000Y-18262317D01*
X16112009Y-18464417D01*
X16175244Y-18659031D01*
X16268141Y-18841350D01*
X16268147Y-18841359D01*
X16300523Y-18885921D01*
X16300524Y-18885922D01*
X16980000Y-18206446D01*
X16980000Y-18212661D01*
X17007259Y-18314394D01*
X17059920Y-18405606D01*
X17134394Y-18480080D01*
X17225606Y-18532741D01*
X17327339Y-18560000D01*
X17333553Y-18560000D01*
X16654076Y-19239474D01*
X16698650Y-19271859D01*
X16880968Y-19364755D01*
X17075577Y-19427988D01*
X17121586Y-19435275D01*
X17184722Y-19465204D01*
X17221653Y-19524515D01*
X17220657Y-19594378D01*
X17182047Y-19652611D01*
X17126383Y-19679366D01*
X17073584Y-19689868D01*
X17073579Y-19689870D01*
X16882403Y-19769058D01*
X16710342Y-19884024D01*
X16564024Y-20030342D01*
X16449058Y-20202403D01*
X16369870Y-20393579D01*
X16369868Y-20393587D01*
X16329500Y-20596530D01*
X16329500Y-20803469D01*
X16369868Y-21006412D01*
X16369870Y-21006420D01*
X16426202Y-21142418D01*
X16449059Y-21197598D01*
X16480398Y-21244500D01*
X16564024Y-21369657D01*
X16710342Y-21515975D01*
X16710345Y-21515977D01*
X16882402Y-21630941D01*
X17073580Y-21710130D01*
X17244315Y-21744091D01*
X17276530Y-21750499D01*
X17276534Y-21750500D01*
X17276535Y-21750500D01*
X17483466Y-21750500D01*
X17483467Y-21750499D01*
X17686420Y-21710130D01*
X17877598Y-21630941D01*
X18049655Y-21515977D01*
X18195977Y-21369655D01*
X18310941Y-21197598D01*
X18390130Y-21006420D01*
X18430500Y-20803465D01*
X18430500Y-20596535D01*
X18390130Y-20393580D01*
X18310941Y-20202402D01*
X18195977Y-20030345D01*
X18195975Y-20030342D01*
X18049657Y-19884024D01*
X17887360Y-19775582D01*
X17877598Y-19769059D01*
X17801746Y-19737640D01*
X17686420Y-19689870D01*
X17686414Y-19689868D01*
X17633617Y-19679366D01*
X17571706Y-19646981D01*
X17537132Y-19586265D01*
X17540873Y-19516495D01*
X17581739Y-19459823D01*
X17638413Y-19435275D01*
X17684422Y-19427988D01*
X17879031Y-19364755D01*
X18061349Y-19271859D01*
X18105921Y-19239474D01*
X17426447Y-18560000D01*
X17432661Y-18560000D01*
X17534394Y-18532741D01*
X17625606Y-18480080D01*
X17700080Y-18405606D01*
X17752741Y-18314394D01*
X17780000Y-18212661D01*
X17780000Y-18206448D01*
X18459474Y-18885922D01*
X18459474Y-18885921D01*
X18491859Y-18841349D01*
X18584755Y-18659031D01*
X18647990Y-18464417D01*
X18680000Y-18262317D01*
X18680000Y-18057682D01*
X18647990Y-17855582D01*
X18584755Y-17660968D01*
X18491859Y-17478650D01*
X18459474Y-17434077D01*
X18459474Y-17434076D01*
X17780000Y-18113551D01*
X17780000Y-18107339D01*
X17752741Y-18005606D01*
X17700080Y-17914394D01*
X17625606Y-17839920D01*
X17534394Y-17787259D01*
X17432661Y-17760000D01*
X17426446Y-17760000D01*
X18105922Y-17080524D01*
X18105921Y-17080523D01*
X18061359Y-17048147D01*
X18061350Y-17048141D01*
X17879031Y-16955244D01*
X17684417Y-16892009D01*
X17638411Y-16884723D01*
X17575276Y-16854794D01*
X17538345Y-16795482D01*
X17539343Y-16725619D01*
X17577953Y-16667387D01*
X17633616Y-16640633D01*
X17686420Y-16630130D01*
X17877598Y-16550941D01*
X18049655Y-16435977D01*
X18195977Y-16289655D01*
X18310941Y-16117598D01*
X18390130Y-15926420D01*
X18430500Y-15723465D01*
X18430500Y-15516535D01*
X18390130Y-15313580D01*
X18310941Y-15122402D01*
X18195977Y-14950345D01*
X18195976Y-14950344D01*
X18195975Y-14950342D01*
X18049657Y-14804024D01*
X17963626Y-14746541D01*
X17877598Y-14689059D01*
X17797731Y-14655977D01*
X17686420Y-14609870D01*
X17686414Y-14609868D01*
X17633617Y-14599366D01*
X17571706Y-14566981D01*
X17537132Y-14506265D01*
X17540873Y-14436495D01*
X17581739Y-14379823D01*
X17638413Y-14355275D01*
X17684422Y-14347988D01*
X17879031Y-14284755D01*
X18061349Y-14191859D01*
X18105921Y-14159474D01*
X17426447Y-13480000D01*
X17432661Y-13480000D01*
X17534394Y-13452741D01*
X17625606Y-13400080D01*
X17700080Y-13325606D01*
X17752741Y-13234394D01*
X17780000Y-13132661D01*
X17780000Y-13126448D01*
X18459474Y-13805922D01*
X18459474Y-13805921D01*
X18491859Y-13761349D01*
X18584755Y-13579031D01*
X18647990Y-13384417D01*
X18680000Y-13182317D01*
X18680000Y-12977682D01*
X18647990Y-12775582D01*
X18584755Y-12580968D01*
X18491859Y-12398650D01*
X18459474Y-12354077D01*
X18459474Y-12354076D01*
X17780000Y-13033551D01*
X17780000Y-13027339D01*
X17752741Y-12925606D01*
X17700080Y-12834394D01*
X17625606Y-12759920D01*
X17534394Y-12707259D01*
X17432661Y-12680000D01*
X17426446Y-12680000D01*
X18105922Y-12000524D01*
X18105921Y-12000523D01*
X18061359Y-11968147D01*
X18061350Y-11968141D01*
X17879031Y-11875244D01*
X17684417Y-11812009D01*
X17638411Y-11804723D01*
X17575276Y-11774794D01*
X17538345Y-11715482D01*
X17539343Y-11645619D01*
X17577953Y-11587387D01*
X17633616Y-11560633D01*
X17686420Y-11550130D01*
X17877598Y-11470941D01*
X18049655Y-11355977D01*
X18195977Y-11209655D01*
X18310941Y-11037598D01*
X18390130Y-10846420D01*
X18430500Y-10643465D01*
X18430500Y-10436535D01*
X18390130Y-10233580D01*
X18310941Y-10042402D01*
X18195977Y-9870345D01*
X18195976Y-9870344D01*
X18195975Y-9870342D01*
X18049657Y-9724024D01*
X17887360Y-9615582D01*
X17877598Y-9609059D01*
X17850590Y-9597872D01*
X17686420Y-9529870D01*
X17686412Y-9529868D01*
X17483469Y-9489500D01*
X17483465Y-9489500D01*
X17276535Y-9489500D01*
X17276530Y-9489500D01*
X17073587Y-9529868D01*
X17073579Y-9529870D01*
X16882403Y-9609058D01*
X16710342Y-9724024D01*
X16564022Y-9870344D01*
X16449062Y-10042395D01*
X16449059Y-10042402D01*
X16440546Y-10062954D01*
X16396704Y-10117357D01*
X16330410Y-10139421D01*
X16325985Y-10139500D01*
X15174500Y-10139500D01*
X15107461Y-10119815D01*
X15061706Y-10067011D01*
X15050500Y-10015500D01*
X15050500Y-9816534D01*
X15050499Y-9816530D01*
X15034586Y-9736530D01*
X15010130Y-9613580D01*
X14930941Y-9422402D01*
X14815977Y-9250345D01*
X14815975Y-9250342D01*
X14669657Y-9104024D01*
X14577595Y-9042511D01*
X14497598Y-8989059D01*
X14451320Y-8969890D01*
X14306420Y-8909870D01*
X14306412Y-8909868D01*
X14103469Y-8869500D01*
X14103465Y-8869500D01*
X13896535Y-8869500D01*
X13896530Y-8869500D01*
X13693587Y-8909868D01*
X13693579Y-8909870D01*
X13502403Y-8989058D01*
X13330342Y-9104024D01*
X13184025Y-9250341D01*
X13184019Y-9250349D01*
X13077602Y-9409615D01*
X13023990Y-9454421D01*
X12954665Y-9463128D01*
X12891638Y-9432974D01*
X12854918Y-9373531D01*
X12850500Y-9340725D01*
X12850500Y-8842228D01*
X12870185Y-8775189D01*
X12886814Y-8754552D01*
X14412318Y-7229047D01*
X14473641Y-7195563D01*
X14543333Y-7200547D01*
X14587680Y-7229048D01*
X15941586Y-8582954D01*
X15968117Y-8600680D01*
X16007917Y-8627273D01*
X16064505Y-8665084D01*
X16064507Y-8665085D01*
X16064511Y-8665087D01*
X16201082Y-8721656D01*
X16201087Y-8721658D01*
X16201091Y-8721658D01*
X16201092Y-8721659D01*
X16346079Y-8750500D01*
X16346082Y-8750500D01*
X16346083Y-8750500D01*
X16493917Y-8750500D01*
X16593505Y-8750500D01*
X16660544Y-8770185D01*
X16681186Y-8786819D01*
X16710342Y-8815975D01*
X16710345Y-8815977D01*
X16882402Y-8930941D01*
X17073580Y-9010130D01*
X17236407Y-9042518D01*
X17276530Y-9050499D01*
X17276534Y-9050500D01*
X17276535Y-9050500D01*
X17483466Y-9050500D01*
X17483467Y-9050499D01*
X17686420Y-9010130D01*
X17877598Y-8930941D01*
X18049655Y-8815977D01*
X18195977Y-8669655D01*
X18310941Y-8497598D01*
X18390130Y-8306420D01*
X18430500Y-8103465D01*
X18430500Y-7896535D01*
X18390130Y-7693580D01*
X18310941Y-7502402D01*
X18195977Y-7330345D01*
X18195976Y-7330344D01*
X18195975Y-7330342D01*
X18049657Y-7184024D01*
X17934628Y-7107165D01*
X17877598Y-7069059D01*
X17825661Y-7047546D01*
X17686420Y-6989870D01*
X17686412Y-6989868D01*
X17483469Y-6949500D01*
X17483465Y-6949500D01*
X17276535Y-6949500D01*
X17276530Y-6949500D01*
X17073587Y-6989868D01*
X17073579Y-6989870D01*
X16882401Y-7069059D01*
X16768008Y-7145492D01*
X16701331Y-7166369D01*
X16633951Y-7147884D01*
X16611438Y-7130070D01*
X15586819Y-6105451D01*
X15553334Y-6044128D01*
X15550500Y-6017770D01*
X15550500Y-5976534D01*
X15550499Y-5976530D01*
X15535375Y-5900498D01*
X15510130Y-5773580D01*
X15430941Y-5582402D01*
X15429983Y-5580968D01*
X15321983Y-5419333D01*
X15321981Y-5419331D01*
X15315976Y-5410343D01*
X15262163Y-5356530D01*
X16329500Y-5356530D01*
X16329500Y-5563469D01*
X16368898Y-5761534D01*
X16369870Y-5766420D01*
X16408840Y-5860502D01*
X16449058Y-5957596D01*
X16564024Y-6129657D01*
X16710342Y-6275975D01*
X16710345Y-6275977D01*
X16882402Y-6390941D01*
X17073580Y-6470130D01*
X17276530Y-6510499D01*
X17276534Y-6510500D01*
X17276535Y-6510500D01*
X17483466Y-6510500D01*
X17483467Y-6510499D01*
X17686420Y-6470130D01*
X17877598Y-6390941D01*
X18049655Y-6275977D01*
X18195977Y-6129655D01*
X18310941Y-5957598D01*
X18390130Y-5766420D01*
X18430500Y-5563465D01*
X18430500Y-5356535D01*
X18390130Y-5153580D01*
X18310941Y-4962402D01*
X18195977Y-4790345D01*
X18195975Y-4790342D01*
X18049657Y-4644024D01*
X17891099Y-4538080D01*
X17877598Y-4529059D01*
X17862376Y-4522754D01*
X17686420Y-4449870D01*
X17686412Y-4449868D01*
X17483469Y-4409500D01*
X17483465Y-4409500D01*
X17276535Y-4409500D01*
X17276530Y-4409500D01*
X17073587Y-4449868D01*
X17073579Y-4449870D01*
X16882403Y-4529058D01*
X16710342Y-4644024D01*
X16564024Y-4790342D01*
X16449058Y-4962403D01*
X16369870Y-5153579D01*
X16369868Y-5153587D01*
X16329500Y-5356530D01*
X15262163Y-5356530D01*
X15169657Y-5264024D01*
X15083626Y-5206541D01*
X14997598Y-5149059D01*
X14956858Y-5132184D01*
X14806420Y-5069870D01*
X14806412Y-5069868D01*
X14603469Y-5029500D01*
X14603465Y-5029500D01*
X14396535Y-5029500D01*
X14396530Y-5029500D01*
X14193587Y-5069868D01*
X14193579Y-5069870D01*
X14002403Y-5149058D01*
X13830342Y-5264024D01*
X13684024Y-5410342D01*
X13569058Y-5582403D01*
X13489870Y-5773579D01*
X13489868Y-5773587D01*
X13449500Y-5976530D01*
X13449500Y-6017769D01*
X13429815Y-6084808D01*
X13413181Y-6105450D01*
X11517052Y-8001578D01*
X11517049Y-8001581D01*
X11482875Y-8052726D01*
X11482876Y-8052727D01*
X11434914Y-8124508D01*
X11378343Y-8261082D01*
X11378340Y-8261092D01*
X11349500Y-8406079D01*
X11349500Y-9188548D01*
X11329815Y-9255587D01*
X11277011Y-9301342D01*
X11207853Y-9311286D01*
X11144297Y-9282261D01*
X11115016Y-9244844D01*
X11111861Y-9238653D01*
X11079474Y-9194077D01*
X11079474Y-9194076D01*
X10400000Y-9873553D01*
X10400000Y-9867339D01*
X10372741Y-9765606D01*
X10320080Y-9674394D01*
X10245606Y-9599920D01*
X10154394Y-9547259D01*
X10052661Y-9520000D01*
X10046446Y-9520000D01*
X10725922Y-8840524D01*
X10725921Y-8840523D01*
X10681359Y-8808147D01*
X10681350Y-8808141D01*
X10499031Y-8715244D01*
X10304417Y-8652009D01*
X10102317Y-8620000D01*
X9897683Y-8620000D01*
X9695582Y-8652009D01*
X9500968Y-8715244D01*
X9318644Y-8808143D01*
X9274077Y-8840523D01*
X9274077Y-8840524D01*
X9953554Y-9520000D01*
X9947339Y-9520000D01*
X9845606Y-9547259D01*
X9754394Y-9599920D01*
X9679920Y-9674394D01*
X9627259Y-9765606D01*
X9600000Y-9867339D01*
X9600000Y-9873553D01*
X8920524Y-9194077D01*
X8920523Y-9194077D01*
X8888143Y-9238644D01*
X8795244Y-9420968D01*
X8732009Y-9615582D01*
X8700000Y-9817682D01*
X8700000Y-10022317D01*
X8732009Y-10224417D01*
X8795244Y-10419031D01*
X8888141Y-10601350D01*
X8888147Y-10601359D01*
X8920523Y-10645921D01*
X8920524Y-10645922D01*
X9600000Y-9966446D01*
X9600000Y-9972661D01*
X9627259Y-10074394D01*
X9679920Y-10165606D01*
X9754394Y-10240080D01*
X9845606Y-10292741D01*
X9947339Y-10320000D01*
X9953553Y-10320000D01*
X9274076Y-10999474D01*
X9318650Y-11031859D01*
X9500968Y-11124755D01*
X9695582Y-11187990D01*
X9897683Y-11220000D01*
X10102319Y-11220000D01*
X10107176Y-11219618D01*
X10107281Y-11220957D01*
X10170512Y-11229125D01*
X10223966Y-11274119D01*
X10244609Y-11340870D01*
X10225887Y-11408184D01*
X10208303Y-11430327D01*
X5102333Y-16536297D01*
X5041010Y-16569782D01*
X4971318Y-16564798D01*
X4915385Y-16522926D01*
X4907546Y-16512454D01*
X4880295Y-16492054D01*
X4792335Y-16426206D01*
X4792328Y-16426202D01*
X4657482Y-16375908D01*
X4657483Y-16375908D01*
X4597883Y-16369501D01*
X4597881Y-16369500D01*
X4597873Y-16369500D01*
X4597865Y-16369500D01*
X4528689Y-16369500D01*
X4461650Y-16349815D01*
X4415895Y-16297011D01*
X4405951Y-16227853D01*
X4434976Y-16164297D01*
X4490372Y-16127569D01*
X4499028Y-16124756D01*
X4681349Y-16031859D01*
X4725921Y-15999474D01*
X4046447Y-15320000D01*
X4052661Y-15320000D01*
X4154394Y-15292741D01*
X4245606Y-15240080D01*
X4320080Y-15165606D01*
X4372741Y-15074394D01*
X4400000Y-14972661D01*
X4400000Y-14966448D01*
X5079474Y-15645922D01*
X5079474Y-15645921D01*
X5111859Y-15601349D01*
X5204755Y-15419031D01*
X5267990Y-15224417D01*
X5300000Y-15022317D01*
X5300000Y-14817682D01*
X5267990Y-14615582D01*
X5204755Y-14420968D01*
X5111859Y-14238650D01*
X5079474Y-14194077D01*
X5079474Y-14194076D01*
X4400000Y-14873551D01*
X4400000Y-14867339D01*
X4372741Y-14765606D01*
X4320080Y-14674394D01*
X4245606Y-14599920D01*
X4154394Y-14547259D01*
X4052661Y-14520000D01*
X4046446Y-14520000D01*
X4725922Y-13840524D01*
X4725921Y-13840523D01*
X4681359Y-13808147D01*
X4681350Y-13808141D01*
X4499031Y-13715244D01*
X4304417Y-13652009D01*
X4102317Y-13620000D01*
X3897683Y-13620000D01*
X3695582Y-13652009D01*
X3500968Y-13715244D01*
X3318644Y-13808143D01*
X3274077Y-13840523D01*
X3274077Y-13840524D01*
X3953554Y-14520000D01*
X3947339Y-14520000D01*
X3845606Y-14547259D01*
X3754394Y-14599920D01*
X3679920Y-14674394D01*
X3627259Y-14765606D01*
X3600000Y-14867339D01*
X3600000Y-14873553D01*
X2920524Y-14194077D01*
X2920523Y-14194077D01*
X2888143Y-14238644D01*
X2795244Y-14420968D01*
X2732009Y-14615582D01*
X2700000Y-14817682D01*
X2700000Y-15022317D01*
X2732009Y-15224417D01*
X2795244Y-15419031D01*
X2888141Y-15601350D01*
X2888147Y-15601359D01*
X2920523Y-15645921D01*
X2920524Y-15645922D01*
X3600000Y-14966446D01*
X3600000Y-14972661D01*
X3627259Y-15074394D01*
X3679920Y-15165606D01*
X3754394Y-15240080D01*
X3845606Y-15292741D01*
X3947339Y-15320000D01*
X3953553Y-15320000D01*
X3274076Y-15999474D01*
X3318650Y-16031859D01*
X3500970Y-16124755D01*
X3509624Y-16127567D01*
X3567302Y-16167001D01*
X3594504Y-16231358D01*
X3582594Y-16300205D01*
X3535352Y-16351684D01*
X3471315Y-16369500D01*
X3402130Y-16369500D01*
X3402123Y-16369501D01*
X3342516Y-16375908D01*
X3207671Y-16426202D01*
X3207664Y-16426206D01*
X3092455Y-16512452D01*
X3092452Y-16512455D01*
X3006206Y-16627664D01*
X3006202Y-16627671D01*
X2955908Y-16762517D01*
X2949501Y-16822116D01*
X2949500Y-16822135D01*
X2949500Y-18017870D01*
X2949501Y-18017876D01*
X2955908Y-18077483D01*
X3006202Y-18212328D01*
X3006206Y-18212335D01*
X3075358Y-18304709D01*
X3092454Y-18327546D01*
X3199811Y-18407914D01*
X3241682Y-18463847D01*
X3249500Y-18507180D01*
X3249500Y-21017770D01*
X3229815Y-21084809D01*
X3213181Y-21105451D01*
X2075451Y-22243181D01*
X2014128Y-22276666D01*
X1987770Y-22279500D01*
X1125323Y-22279500D01*
X1052264Y-22294032D01*
X1052260Y-22294033D01*
X969399Y-22349399D01*
X914033Y-22432260D01*
X914032Y-22432264D01*
X899500Y-22505321D01*
X899500Y-24254678D01*
X914032Y-24327735D01*
X914033Y-24327739D01*
X914034Y-24327740D01*
X969399Y-24410601D01*
X1052260Y-24465966D01*
X1052264Y-24465967D01*
X1125321Y-24480499D01*
X1125324Y-24480500D01*
X1335051Y-24480500D01*
X1402090Y-24500185D01*
X1447845Y-24552989D01*
X1457789Y-24622147D01*
X1428764Y-24685703D01*
X1391346Y-24714985D01*
X1292439Y-24765380D01*
X1238282Y-24804727D01*
X1238282Y-24804728D01*
X1870591Y-25437037D01*
X1807007Y-25454075D01*
X1692993Y-25519901D01*
X1599901Y-25612993D01*
X1534075Y-25727007D01*
X1517037Y-25790591D01*
X884728Y-25158282D01*
X884727Y-25158282D01*
X845380Y-25212439D01*
X748904Y-25401782D01*
X683242Y-25603869D01*
X683242Y-25603872D01*
X650000Y-25813753D01*
X250500Y-25813753D01*
X250500Y-5977682D01*
X8200000Y-5977682D01*
X8200000Y-6182317D01*
X8232009Y-6384417D01*
X8295244Y-6579031D01*
X8388141Y-6761350D01*
X8388147Y-6761359D01*
X8420523Y-6805921D01*
X8420524Y-6805922D01*
X9100000Y-6126446D01*
X9100000Y-6132661D01*
X9127259Y-6234394D01*
X9179920Y-6325606D01*
X9254394Y-6400080D01*
X9345606Y-6452741D01*
X9447339Y-6480000D01*
X9453553Y-6480000D01*
X8774076Y-7159474D01*
X8818650Y-7191859D01*
X9000968Y-7284755D01*
X9195582Y-7347990D01*
X9397683Y-7380000D01*
X9602317Y-7380000D01*
X9804417Y-7347990D01*
X9999031Y-7284755D01*
X10181349Y-7191859D01*
X10225921Y-7159474D01*
X9546447Y-6480000D01*
X9552661Y-6480000D01*
X9654394Y-6452741D01*
X9745606Y-6400080D01*
X9820080Y-6325606D01*
X9872741Y-6234394D01*
X9900000Y-6132661D01*
X9900000Y-6126447D01*
X10579474Y-6805921D01*
X10611859Y-6761349D01*
X10704755Y-6579031D01*
X10767990Y-6384417D01*
X10800000Y-6182317D01*
X10800000Y-5977682D01*
X10767990Y-5775582D01*
X10704755Y-5580968D01*
X10611859Y-5398650D01*
X10579474Y-5354077D01*
X10579474Y-5354076D01*
X9900000Y-6033551D01*
X9900000Y-6027339D01*
X9872741Y-5925606D01*
X9820080Y-5834394D01*
X9745606Y-5759920D01*
X9654394Y-5707259D01*
X9552661Y-5680000D01*
X9546446Y-5680000D01*
X10225922Y-5000524D01*
X10225921Y-5000523D01*
X10181359Y-4968147D01*
X10181350Y-4968141D01*
X9999031Y-4875244D01*
X9804417Y-4812009D01*
X9602317Y-4780000D01*
X9397683Y-4780000D01*
X9195582Y-4812009D01*
X9000968Y-4875244D01*
X8818644Y-4968143D01*
X8774077Y-5000523D01*
X8774077Y-5000524D01*
X9453554Y-5680000D01*
X9447339Y-5680000D01*
X9345606Y-5707259D01*
X9254394Y-5759920D01*
X9179920Y-5834394D01*
X9127259Y-5925606D01*
X9100000Y-6027339D01*
X9100000Y-6033553D01*
X8420524Y-5354077D01*
X8420523Y-5354077D01*
X8388143Y-5398644D01*
X8295244Y-5580968D01*
X8232009Y-5775582D01*
X8200000Y-5977682D01*
X250500Y-5977682D01*
X250500Y-4003051D01*
X250649Y-3996966D01*
X256620Y-3875435D01*
X2099500Y-3875435D01*
X2099500Y-4124565D01*
X2132018Y-4371565D01*
X2167430Y-4503723D01*
X2196498Y-4612207D01*
X2291830Y-4842361D01*
X2291837Y-4842376D01*
X2416400Y-5058126D01*
X2568060Y-5255774D01*
X2568066Y-5255781D01*
X2744218Y-5431933D01*
X2744225Y-5431939D01*
X2941873Y-5583599D01*
X3157623Y-5708162D01*
X3157638Y-5708169D01*
X3256825Y-5749253D01*
X3387793Y-5803502D01*
X3628435Y-5867982D01*
X3875435Y-5900500D01*
X3875442Y-5900500D01*
X4124558Y-5900500D01*
X4124565Y-5900500D01*
X4371565Y-5867982D01*
X4612207Y-5803502D01*
X4842373Y-5708164D01*
X5058127Y-5583599D01*
X5255776Y-5431938D01*
X5431938Y-5255776D01*
X5583599Y-5058127D01*
X5616857Y-5000523D01*
X5625367Y-4985783D01*
X5684986Y-4882518D01*
X5708164Y-4842373D01*
X5803502Y-4612207D01*
X5867982Y-4371565D01*
X5900500Y-4124565D01*
X5900500Y-3875435D01*
X5867982Y-3628435D01*
X5803502Y-3387793D01*
X5708164Y-3157627D01*
X5632057Y-3025806D01*
X5583599Y-2941873D01*
X5431939Y-2744225D01*
X5431933Y-2744218D01*
X5255781Y-2568066D01*
X5255774Y-2568060D01*
X5058126Y-2416400D01*
X4842376Y-2291837D01*
X4842361Y-2291830D01*
X4612207Y-2196498D01*
X4371561Y-2132017D01*
X4124575Y-2099501D01*
X4124570Y-2099500D01*
X4124565Y-2099500D01*
X3875435Y-2099500D01*
X3875429Y-2099500D01*
X3875424Y-2099501D01*
X3628438Y-2132017D01*
X3387792Y-2196498D01*
X3157638Y-2291830D01*
X3157623Y-2291837D01*
X2941873Y-2416400D01*
X2744225Y-2568060D01*
X2744218Y-2568066D01*
X2568066Y-2744218D01*
X2568060Y-2744225D01*
X2416400Y-2941873D01*
X2291837Y-3157623D01*
X2291830Y-3157638D01*
X2196498Y-3387792D01*
X2132017Y-3628438D01*
X2100835Y-3865291D01*
X2099500Y-3875435D01*
X256620Y-3875435D01*
X257118Y-3865291D01*
X257118Y-3865290D01*
X268256Y-3638568D01*
X269449Y-3626457D01*
X297579Y-3436819D01*
X321654Y-3274520D01*
X324022Y-3262613D01*
X410475Y-2917473D01*
X413998Y-2905858D01*
X533869Y-2570840D01*
X538508Y-2559643D01*
X690643Y-2237979D01*
X696358Y-2227287D01*
X879278Y-1922105D01*
X886021Y-1912012D01*
X1097979Y-1626219D01*
X1105682Y-1616834D01*
X1344628Y-1353198D01*
X1353198Y-1344628D01*
X1616834Y-1105682D01*
X1626219Y-1097979D01*
X1912012Y-886021D01*
X1922105Y-879278D01*
X2227287Y-696358D01*
X2237979Y-690643D01*
X2559643Y-538508D01*
X2570840Y-533869D01*
X2905858Y-413998D01*
X2917473Y-410475D01*
X3262613Y-324022D01*
X3274520Y-321654D01*
X3626460Y-269448D01*
X3638564Y-268256D01*
X3996967Y-250648D01*
X4003051Y-250500D01*
X4044170Y-250500D01*
X82955830Y-250500D01*
X82996949Y-250500D01*
X83003032Y-250648D01*
G37*
%TD.AperFunction*%
%TD*%
M02*
