M48
; DRILL file {KiCad 9.0.4} date 2025-09-15T17:12:11-0700
; FORMAT={-:-/ absolute / inch / decimal}
; #@! TF.CreationDate,2025-09-15T17:12:11-07:00
; #@! TF.GenerationSoftware,Kicad,Pcbnew,9.0.4
; #@! TF.FileFunction,Plated,1,2,PTH
FMAT,2
INCH
; #@! TA.AperFunction,Plated,PTH,ViaDrill
T1C0.0157
; #@! TA.AperFunction,Plated,PTH,ComponentDrill
T2C0.0315
; #@! TA.AperFunction,Plated,PTH,ComponentDrill
T3C0.0394
; #@! TA.AperFunction,Plated,PTH,ComponentDrill
T4C0.0433
; #@! TA.AperFunction,Plated,PTH,ComponentDrill
T5C0.0551
%
G90
G05
T1
X0.0787Y-0.2559
X0.0787Y-0.3543
X0.0787Y-0.4528
X0.0787Y-0.5512
X0.0787Y-0.6496
X0.0787Y-0.748
X0.0787Y-0.8465
X0.0787Y-1.5354
X0.0787Y-1.6339
X0.0787Y-1.7323
X0.0787Y-1.8307
X0.1772Y-0.2559
X0.1772Y-0.3543
X0.1772Y-0.4528
X0.1772Y-1.5354
X0.1772Y-1.6339
X0.1772Y-1.7323
X0.1772Y-1.8307
X0.2756Y-0.0591
X0.2756Y-0.1575
X0.2756Y-0.2559
X0.2756Y-0.3543
X0.2756Y-0.4528
X0.2756Y-0.748
X0.2756Y-1.5354
X0.2756Y-1.6339
X0.2756Y-1.7323
X0.2756Y-1.8307
X0.2756Y-2.0276
X0.374Y-0.0591
X0.374Y-0.1575
X0.374Y-0.6496
X0.374Y-1.6339
X0.374Y-2.0276
X0.4724Y-0.0591
X0.4724Y-0.1575
X0.4724Y-0.2559
X0.4724Y-0.5512
X0.4724Y-0.8465
X0.4724Y-0.9449
X0.4724Y-1.3386
X0.4724Y-1.5354
X0.4724Y-1.6339
X0.4724Y-2.0276
X0.5709Y-0.0591
X0.5709Y-0.1575
X0.5709Y-0.8465
X0.5709Y-1.2402
X0.5709Y-1.6339
X0.6693Y-0.0591
X0.6693Y-0.1575
X0.6693Y-1.6339
X0.7677Y-0.0591
X0.7677Y-0.1575
X0.7677Y-0.2559
X0.7677Y-0.3543
X0.7677Y-0.4528
X0.7677Y-0.5512
X0.7677Y-0.6496
X0.7677Y-0.748
X0.7677Y-0.8465
X0.7677Y-0.9449
X0.7677Y-1.0433
X0.7677Y-1.1417
X0.7677Y-1.2402
X0.7677Y-1.3386
X0.7677Y-1.437
X0.7677Y-1.5354
X0.7677Y-1.6339
X0.8661Y-0.0591
X0.8661Y-0.1575
X0.8661Y-0.8465
X0.8661Y-0.9449
X0.8661Y-1.1417
X0.8661Y-1.437
X0.8661Y-1.5354
X0.8661Y-1.6339
X0.9646Y-2.0276
X1.0335Y-1.7618
X1.063Y-0.2559
X1.063Y-0.8465
X1.063Y-0.9449
X1.063Y-1.2402
X1.063Y-1.9291
X1.063Y-2.0276
X1.0925Y-1.6929
X1.122Y-1.8504
X1.1614Y-0.2559
X1.1614Y-0.8465
X1.1614Y-0.9449
X1.1614Y-1.1417
X1.1614Y-2.0276
X1.2008Y-1.7913
X1.2402Y-1.9587
X1.2598Y-0.2559
X1.2598Y-0.9449
X1.2598Y-1.0433
X1.2598Y-1.1417
X1.2598Y-1.2402
X1.3386Y-1.9193
X1.3583Y-0.2559
X1.3583Y-0.9449
X1.3583Y-1.2402
X1.4567Y-0.2559
X1.4567Y-0.9449
X1.4567Y-1.2402
X1.5551Y-0.2559
X1.5551Y-1.1417
X1.5551Y-1.2402
X1.5551Y-1.8307
X1.6535Y-1.1417
X1.6535Y-1.2402
X1.6535Y-1.5354
X1.6535Y-1.6339
X1.6535Y-1.7323
X1.6535Y-1.8307
X1.752Y-0.2559
X1.752Y-0.4528
X1.752Y-0.5512
X1.752Y-1.5354
X1.752Y-1.6339
X1.752Y-1.7323
X1.752Y-1.8307
X1.8504Y-0.3543
X1.8504Y-0.4528
X1.8504Y-0.5512
X1.8504Y-1.5354
X1.8504Y-1.6339
X1.8504Y-1.7323
X1.8504Y-1.8307
X2.0472Y-0.2559
X2.0472Y-0.3543
X2.0472Y-0.4528
X2.0472Y-0.5512
X2.0472Y-0.6496
X2.0472Y-1.5354
X2.0472Y-1.6339
X2.0472Y-1.7323
X2.0472Y-1.8307
X2.1457Y-0.4528
X2.1457Y-0.5512
X2.1457Y-0.6496
X2.1457Y-1.5354
X2.1457Y-1.6339
X2.1457Y-1.7323
X2.1457Y-1.9291
X2.2441Y-0.2559
X2.2441Y-0.3543
X2.2441Y-0.5512
X2.2441Y-0.6496
X2.2441Y-1.5354
X2.2441Y-1.6339
X2.2441Y-1.8307
X2.2441Y-1.9291
X2.3425Y-2.0276
X2.4409Y-0.1575
X2.4409Y-0.2559
X2.4409Y-0.3543
X2.4409Y-0.4528
X2.4409Y-0.5512
X2.4409Y-0.6496
X2.4409Y-2.0276
X2.5394Y-0.1575
X2.5394Y-1.9291
X2.5394Y-2.0276
X2.6378Y-0.2559
X2.6378Y-0.3543
X2.6378Y-0.4528
X2.6378Y-0.5512
X2.6378Y-0.6496
X2.6378Y-1.5354
X2.6378Y-1.6339
X2.6378Y-1.7323
X2.6378Y-1.8307
X2.6378Y-1.9291
X2.6378Y-2.0276
X2.7362Y-0.0591
X2.7362Y-0.1575
X2.7362Y-0.3543
X2.7362Y-0.4528
X2.7362Y-0.5512
X2.7362Y-0.6496
X2.7362Y-1.5354
X2.7362Y-1.6339
X2.7362Y-1.7323
X2.7362Y-1.8307
X2.7362Y-1.9291
X2.7362Y-2.0276
X2.8346Y-0.0591
X2.8346Y-0.1575
X2.8346Y-0.6496
X2.8346Y-0.748
X2.8346Y-1.437
X2.8346Y-1.5354
X2.8346Y-1.6339
X2.8346Y-1.8307
X2.8346Y-1.9291
X2.9331Y-0.0591
X2.9331Y-0.1575
X2.9331Y-0.6496
X2.9331Y-0.748
X2.9331Y-1.437
X2.9331Y-1.5354
X2.9331Y-1.6339
X2.9331Y-2.0276
X3.0315Y-0.0591
X3.0315Y-0.1575
X3.0315Y-0.2559
X3.0315Y-0.3543
X3.0315Y-0.4528
X3.0315Y-0.5512
X3.0315Y-0.6496
X3.0315Y-0.748
X3.0315Y-1.437
X3.0315Y-1.5354
X3.0315Y-1.6339
X3.0315Y-1.7323
X3.0315Y-1.8307
X3.0315Y-1.9291
X3.0315Y-2.0276
X3.1299Y-0.0591
X3.1299Y-0.1575
X3.1299Y-0.2559
X3.1299Y-0.3543
X3.1299Y-0.4528
X3.1299Y-0.5512
X3.1299Y-0.6496
X3.1299Y-0.748
X3.1299Y-0.8465
X3.1299Y-1.437
X3.1299Y-1.5354
X3.1299Y-1.6339
X3.1299Y-1.7323
X3.1299Y-1.8307
X3.1299Y-1.9291
X3.1299Y-2.0276
X3.2283Y-0.2559
X3.2283Y-0.3543
X3.2283Y-0.4528
X3.2283Y-0.5512
X3.2283Y-0.6496
X3.2283Y-0.748
X3.2283Y-0.8465
X3.2283Y-0.9449
X3.2283Y-1.0433
X3.2283Y-1.1417
X3.2283Y-1.2402
X3.2283Y-1.3386
X3.2283Y-1.437
X3.2283Y-1.5354
X3.2283Y-1.6339
X3.2283Y-1.7323
X3.2283Y-1.8307
X3.3268Y-0.2559
X3.3268Y-0.3543
X3.3268Y-0.4528
X3.3268Y-0.5512
X3.3268Y-0.6496
X3.3268Y-0.748
X3.3268Y-0.8465
X3.3268Y-0.9449
X3.3268Y-1.0433
X3.3268Y-1.1417
X3.3268Y-1.2402
X3.3268Y-1.7323
X3.3268Y-1.8307
T2
X0.1575Y-0.5874
X0.1575Y-0.6858
X0.374Y-0.2394
X0.374Y-0.9449
X0.3937Y-0.3906
X0.3937Y-0.7906
X0.3937Y-1.0992
X0.3937Y-1.4992
X0.5512Y-0.3906
X0.5512Y-0.7906
X0.5531Y-1.0992
X0.5531Y-1.4992
X0.5709Y-0.2394
X0.5709Y-0.9449
X0.6766Y-0.9598
X0.6766Y-1.0598
X0.6766Y-1.1598
X0.6766Y-1.2598
X0.6766Y-1.3598
X0.6766Y-1.4598
X0.6766Y-1.5598
X0.6843Y-0.215
X0.6843Y-0.315
X0.6843Y-0.415
X0.6843Y-0.515
X0.6843Y-0.615
X0.6843Y-0.715
X0.6843Y-0.815
X0.9766Y-0.9598
X0.9766Y-1.0598
X0.9766Y-1.1598
X0.9766Y-1.2598
X0.9766Y-1.3598
X0.9766Y-1.4598
X0.9766Y-1.5598
X0.9843Y-0.215
X0.9843Y-0.315
X0.9843Y-0.415
X0.9843Y-0.515
X0.9843Y-0.615
X0.9843Y-0.715
X0.9843Y-0.815
X1.1417Y-0.315
X1.1417Y-0.5118
X1.1417Y-1.0039
X1.1417Y-1.2008
X1.378Y-0.3543
X1.378Y-0.4528
X1.378Y-1.0433
X1.378Y-1.1417
X1.9622Y-0.3874
X1.9685Y-0.5449
X1.9685Y-1.5748
X1.9685Y-1.7323
X2.3622Y-0.3874
X2.3685Y-0.5449
X2.3685Y-1.5748
X2.3685Y-1.7323
X2.4772Y-1.5748
X2.4772Y-1.8898
X2.5071Y-0.2425
X2.5134Y-0.5512
X2.8772Y-1.5748
X2.8772Y-1.8898
X2.9071Y-0.2425
X2.9134Y-0.5512
T3
X0.0787Y-0.9205
X0.0787Y-1.0205
X0.0787Y-1.1205
X0.0787Y-1.2205
X0.0787Y-1.3205
X0.0787Y-1.4205
T4
X1.6132Y-0.9888
X1.6132Y-1.3888
X1.6142Y-0.315
X1.6142Y-0.715
X1.9654Y-1.8898
X1.9685Y-0.2299
X2.0441Y-0.7811
X2.0457Y-1.4114
X2.1441Y-0.7811
X2.1457Y-1.4114
X2.2441Y-0.7811
X2.2457Y-1.4114
X2.3654Y-1.8898
X2.3685Y-0.2299
X2.4772Y-0.7811
X2.4787Y-1.4134
X2.4803Y-1.7323
X2.5134Y-0.3937
X2.5772Y-0.7811
X2.5787Y-1.4134
X2.6772Y-0.7811
X2.6787Y-1.4134
X2.8803Y-1.7323
X2.9134Y-0.3937
T5
X1.3602Y-1.7067
X1.5571Y-1.7067
X3.0197Y-0.9646
X3.0197Y-1.1614
M30
