%TF.GenerationSoftware,KiCad,Pcbnew,9.0.4*%
%TF.CreationDate,2025-09-15T17:12:10-07:00*%
%TF.ProjectId,motordriver,6d6f746f-7264-4726-9976-65722e6b6963,rev?*%
%TF.SameCoordinates,Original*%
%TF.FileFunction,Legend,Top*%
%TF.FilePolarity,Positive*%
%FSLAX46Y46*%
G04 Gerber Fmt 4.6, Leading zero omitted, Abs format (unit mm)*
G04 Created by KiCad (PCBNEW 9.0.4) date 2025-09-15 17:12:10*
%MOMM*%
%LPD*%
G01*
G04 APERTURE LIST*
G04 Aperture macros list*
%AMRoundRect*
0 Rectangle with rounded corners*
0 $1 Rounding radius*
0 $2 $3 $4 $5 $6 $7 $8 $9 X,Y pos of 4 corners*
0 Add a 4 corners polygon primitive as box body*
4,1,4,$2,$3,$4,$5,$6,$7,$8,$9,$2,$3,0*
0 Add four circle primitives for the rounded corners*
1,1,$1+$1,$2,$3*
1,1,$1+$1,$4,$5*
1,1,$1+$1,$6,$7*
1,1,$1+$1,$8,$9*
0 Add four rect primitives between the rounded corners*
20,1,$1+$1,$2,$3,$4,$5,0*
20,1,$1+$1,$4,$5,$6,$7,0*
20,1,$1+$1,$6,$7,$8,$9,0*
20,1,$1+$1,$8,$9,$2,$3,0*%
G04 Aperture macros list end*
%ADD10C,0.300000*%
%ADD11C,0.100000*%
%ADD12C,0.150000*%
%ADD13C,0.120000*%
%ADD14C,3.200000*%
%ADD15C,1.600000*%
%ADD16RoundRect,0.250000X-0.550000X0.550000X-0.550000X-0.550000X0.550000X-0.550000X0.550000X0.550000X0*%
%ADD17O,3.600000X2.000000*%
%ADD18RoundRect,0.250000X1.550000X-0.750000X1.550000X0.750000X-1.550000X0.750000X-1.550000X-0.750000X0*%
%ADD19O,2.000000X3.600000*%
%ADD20RoundRect,0.250000X-0.750000X-1.550000X0.750000X-1.550000X0.750000X1.550000X-0.750000X1.550000X0*%
%ADD21RoundRect,0.249999X0.850001X0.850001X-0.850001X0.850001X-0.850001X-0.850001X0.850001X-0.850001X0*%
%ADD22C,2.200000*%
%ADD23RoundRect,0.250000X0.550000X0.550000X-0.550000X0.550000X-0.550000X-0.550000X0.550000X-0.550000X0*%
%ADD24RoundRect,0.250000X0.550000X-0.550000X0.550000X0.550000X-0.550000X0.550000X-0.550000X-0.550000X0*%
%ADD25R,1.905000X2.000000*%
%ADD26O,1.905000X2.000000*%
%ADD27RoundRect,0.249999X-0.850001X0.850001X-0.850001X-0.850001X0.850001X-0.850001X0.850001X0.850001X0*%
%ADD28R,1.700000X1.700000*%
%ADD29C,1.700000*%
G04 APERTURE END LIST*
D10*
G36*
X51469576Y-53973333D02*
G01*
X43666684Y-53973333D01*
X43666684Y-50584338D01*
X44000017Y-50584338D01*
X45070717Y-53640000D01*
X45888625Y-53640000D01*
X47309202Y-53640000D01*
X47935868Y-53640000D01*
X48487430Y-53640000D01*
X49128384Y-53640000D01*
X49128384Y-52235725D01*
X49121057Y-51965898D01*
X49101639Y-51597336D01*
X49087055Y-51355769D01*
X49208984Y-51602465D01*
X49380443Y-51930910D01*
X49559778Y-52237557D01*
X50435755Y-53640000D01*
X51136243Y-53640000D01*
X51136243Y-50584338D01*
X50496205Y-50584338D01*
X50496205Y-52051261D01*
X50503715Y-52350214D01*
X50523499Y-52718960D01*
X50535954Y-52892718D01*
X50455905Y-52698260D01*
X50300750Y-52389232D01*
X50150907Y-52131128D01*
X49186086Y-50584338D01*
X48487430Y-50584338D01*
X48487430Y-53640000D01*
X47935868Y-53640000D01*
X47935868Y-50584338D01*
X47309202Y-50584338D01*
X47309202Y-53640000D01*
X45888625Y-53640000D01*
X46935877Y-50584338D01*
X46244731Y-50584338D01*
X45772487Y-52058405D01*
X45601578Y-52671149D01*
X45483784Y-53141500D01*
X45362342Y-52673531D01*
X45184656Y-52058405D01*
X44695926Y-50584338D01*
X44000017Y-50584338D01*
X43666684Y-50584338D01*
X43666684Y-50251005D01*
X51469576Y-50251005D01*
X51469576Y-53973333D01*
G37*
G36*
X8682780Y-49000000D02*
G01*
X8682780Y-46962892D01*
X9323674Y-46962892D01*
X9653402Y-47898098D01*
X9700785Y-48067480D01*
X9754884Y-48291939D01*
X9806298Y-48525436D01*
X9845865Y-48722784D01*
X9764044Y-48722784D01*
X9803855Y-48528000D01*
X9855024Y-48294748D01*
X9909002Y-48068946D01*
X9956385Y-47898098D01*
X10281472Y-46962892D01*
X10923709Y-46962892D01*
X10923709Y-49000000D01*
X10504832Y-49000000D01*
X10504832Y-48039515D01*
X10507030Y-47873551D01*
X10512282Y-47658618D01*
X10518265Y-47425732D01*
X10521685Y-47205059D01*
X10548796Y-47205059D01*
X10490544Y-47439288D01*
X10426919Y-47673761D01*
X10366224Y-47882222D01*
X10316765Y-48039515D01*
X9979588Y-49000000D01*
X9627756Y-49000000D01*
X9285205Y-48039515D01*
X9236113Y-47883932D01*
X9174930Y-47676936D01*
X9109839Y-47442463D01*
X9047679Y-47205059D01*
X9080408Y-47205059D01*
X9084438Y-47419993D01*
X9090055Y-47652512D01*
X9095307Y-47870010D01*
X9097871Y-48039515D01*
X9097871Y-49000000D01*
X8682780Y-49000000D01*
G37*
G36*
X12117059Y-47464025D02*
G01*
X12248665Y-47497403D01*
X12364131Y-47551151D01*
X12467183Y-47625669D01*
X12552892Y-47717222D01*
X12622540Y-47827634D01*
X12671935Y-47949190D01*
X12702672Y-48086475D01*
X12713398Y-48242358D01*
X12702694Y-48397004D01*
X12671979Y-48533582D01*
X12622540Y-48654884D01*
X12552919Y-48765071D01*
X12467212Y-48856552D01*
X12364131Y-48931123D01*
X12248665Y-48984870D01*
X12117059Y-49018249D01*
X11966015Y-49029919D01*
X11815379Y-49018268D01*
X11683791Y-48984907D01*
X11568021Y-48931123D01*
X11464710Y-48856529D01*
X11378888Y-48765045D01*
X11309246Y-48654884D01*
X11259807Y-48533582D01*
X11229092Y-48397004D01*
X11218388Y-48242358D01*
X11218489Y-48240893D01*
X11636287Y-48240893D01*
X11645888Y-48369962D01*
X11673046Y-48479884D01*
X11720034Y-48575909D01*
X11783077Y-48646336D01*
X11834935Y-48679603D01*
X11895183Y-48700011D01*
X11966015Y-48707152D01*
X12036770Y-48700018D01*
X12097067Y-48679617D01*
X12149075Y-48646336D01*
X12212410Y-48575878D01*
X12259473Y-48479884D01*
X12286630Y-48369962D01*
X12296231Y-48240893D01*
X12286589Y-48110609D01*
X12259473Y-48001046D01*
X12212403Y-47905479D01*
X12149075Y-47835572D01*
X12097093Y-47802503D01*
X12036794Y-47782218D01*
X11966015Y-47775122D01*
X11895159Y-47782226D01*
X11834909Y-47802517D01*
X11783077Y-47835572D01*
X11720019Y-47905392D01*
X11673046Y-48000680D01*
X11645946Y-48110101D01*
X11636287Y-48240893D01*
X11218489Y-48240893D01*
X11229114Y-48086475D01*
X11259850Y-47949190D01*
X11309246Y-47827634D01*
X11378915Y-47717248D01*
X11464740Y-47625692D01*
X11568021Y-47551151D01*
X11683791Y-47497367D01*
X11815379Y-47464006D01*
X11966015Y-47452355D01*
X12117059Y-47464025D01*
G37*
G36*
X13757048Y-47471528D02*
G01*
X13757048Y-47783914D01*
X12850174Y-47783914D01*
X12850174Y-47471528D01*
X13757048Y-47471528D01*
G37*
G36*
X13060589Y-47107850D02*
G01*
X13470673Y-47107850D01*
X13470673Y-48552547D01*
X13479750Y-48619039D01*
X13503157Y-48660258D01*
X13542892Y-48685110D01*
X13609769Y-48694818D01*
X13675837Y-48688956D01*
X13739951Y-48677721D01*
X13798691Y-48985101D01*
X13662770Y-49013433D01*
X13533566Y-49021371D01*
X13417892Y-49013323D01*
X13323102Y-48990977D01*
X13245490Y-48956218D01*
X13182100Y-48909752D01*
X13130578Y-48850254D01*
X13092907Y-48778701D01*
X13069087Y-48692628D01*
X13060589Y-48588695D01*
X13060589Y-47107850D01*
G37*
G36*
X14829132Y-47464025D02*
G01*
X14960738Y-47497403D01*
X15076203Y-47551151D01*
X15179255Y-47625669D01*
X15264965Y-47717222D01*
X15334612Y-47827634D01*
X15384008Y-47949190D01*
X15414744Y-48086475D01*
X15425471Y-48242358D01*
X15414766Y-48397004D01*
X15384051Y-48533582D01*
X15334612Y-48654884D01*
X15264991Y-48765071D01*
X15179285Y-48856552D01*
X15076203Y-48931123D01*
X14960738Y-48984870D01*
X14829132Y-49018249D01*
X14678088Y-49029919D01*
X14527452Y-49018268D01*
X14395863Y-48984907D01*
X14280094Y-48931123D01*
X14176783Y-48856529D01*
X14090961Y-48765045D01*
X14021319Y-48654884D01*
X13971879Y-48533582D01*
X13941165Y-48397004D01*
X13930460Y-48242358D01*
X13930561Y-48240893D01*
X14348360Y-48240893D01*
X14357961Y-48369962D01*
X14385118Y-48479884D01*
X14432106Y-48575909D01*
X14495150Y-48646336D01*
X14547007Y-48679603D01*
X14607255Y-48700011D01*
X14678088Y-48707152D01*
X14748843Y-48700018D01*
X14809140Y-48679617D01*
X14861148Y-48646336D01*
X14924483Y-48575878D01*
X14971545Y-48479884D01*
X14998703Y-48369962D01*
X15008304Y-48240893D01*
X14998662Y-48110609D01*
X14971545Y-48001046D01*
X14924475Y-47905479D01*
X14861148Y-47835572D01*
X14809165Y-47802503D01*
X14748867Y-47782218D01*
X14678088Y-47775122D01*
X14607231Y-47782226D01*
X14546982Y-47802517D01*
X14495150Y-47835572D01*
X14432092Y-47905392D01*
X14385118Y-48000680D01*
X14358018Y-48110101D01*
X14348360Y-48240893D01*
X13930561Y-48240893D01*
X13941187Y-48086475D01*
X13971923Y-47949190D01*
X14021319Y-47827634D01*
X14090987Y-47717248D01*
X14176812Y-47625692D01*
X14280094Y-47551151D01*
X14395863Y-47497367D01*
X14527452Y-47464006D01*
X14678088Y-47452355D01*
X14829132Y-47464025D01*
G37*
G36*
X15709525Y-49000000D02*
G01*
X15709525Y-47471528D01*
X16106908Y-47471528D01*
X16106908Y-47737630D01*
X16123395Y-47737630D01*
X16158884Y-47648333D01*
X16205755Y-47578091D01*
X16263956Y-47523796D01*
X16333055Y-47483552D01*
X16408370Y-47459388D01*
X16491713Y-47451133D01*
X16559979Y-47454675D01*
X16624337Y-47464811D01*
X16624337Y-47831175D01*
X16544836Y-47815910D01*
X16447138Y-47810048D01*
X16357010Y-47820468D01*
X16278611Y-47850715D01*
X16211957Y-47899229D01*
X16161741Y-47963189D01*
X16130495Y-48039441D01*
X16119609Y-48130129D01*
X16119609Y-49000000D01*
X15709525Y-49000000D01*
G37*
G36*
X18236706Y-49000000D02*
G01*
X17709141Y-49000000D01*
X17709141Y-48640352D01*
X18217411Y-48640352D01*
X18346896Y-48631871D01*
X18455586Y-48608110D01*
X18546894Y-48570865D01*
X18627752Y-48516425D01*
X18694190Y-48445224D01*
X18747295Y-48354954D01*
X18782962Y-48255010D01*
X18806252Y-48131689D01*
X18814707Y-47980286D01*
X18806196Y-47829226D01*
X18782774Y-47706461D01*
X18746929Y-47607205D01*
X18693646Y-47517395D01*
X18627354Y-47446466D01*
X18547016Y-47392149D01*
X18456415Y-47354837D01*
X18348501Y-47331035D01*
X18219853Y-47322540D01*
X17699616Y-47322540D01*
X17699616Y-46962892D01*
X18244277Y-46962892D01*
X18398192Y-46971167D01*
X18536091Y-46994958D01*
X18659977Y-47033109D01*
X18771598Y-47085013D01*
X18875610Y-47152739D01*
X18966249Y-47233062D01*
X19044571Y-47326725D01*
X19111095Y-47435013D01*
X19175478Y-47591255D01*
X19215922Y-47771512D01*
X19230164Y-47980286D01*
X19215924Y-48189473D01*
X19175479Y-48370140D01*
X19111095Y-48526779D01*
X19044565Y-48635248D01*
X18965925Y-48729141D01*
X18874614Y-48809736D01*
X18769522Y-48877756D01*
X18656912Y-48929677D01*
X18531798Y-48967871D01*
X18392406Y-48991705D01*
X18236706Y-49000000D01*
G37*
G36*
X17938241Y-46962892D02*
G01*
X17938241Y-49000000D01*
X17520464Y-49000000D01*
X17520464Y-46962892D01*
X17938241Y-46962892D01*
G37*
G36*
X19531437Y-49000000D02*
G01*
X19531437Y-47471528D01*
X19928820Y-47471528D01*
X19928820Y-47737630D01*
X19945307Y-47737630D01*
X19980796Y-47648333D01*
X20027667Y-47578091D01*
X20085868Y-47523796D01*
X20154967Y-47483552D01*
X20230282Y-47459388D01*
X20313625Y-47451133D01*
X20381891Y-47454675D01*
X20446249Y-47464811D01*
X20446249Y-47831175D01*
X20366748Y-47815910D01*
X20269051Y-47810048D01*
X20178922Y-47820468D01*
X20100523Y-47850715D01*
X20033869Y-47899229D01*
X19983653Y-47963189D01*
X19952407Y-48039441D01*
X19941521Y-48130129D01*
X19941521Y-49000000D01*
X19531437Y-49000000D01*
G37*
G36*
X20684263Y-49000000D02*
G01*
X20684263Y-47471528D01*
X21094347Y-47471528D01*
X21094347Y-49000000D01*
X20684263Y-49000000D01*
G37*
G36*
X20889672Y-47272226D02*
G01*
X20830401Y-47265221D01*
X20778100Y-47244749D01*
X20731036Y-47210310D01*
X20693929Y-47165635D01*
X20672291Y-47116674D01*
X20664968Y-47061688D01*
X20672356Y-47005601D01*
X20694053Y-46956350D01*
X20731036Y-46912090D01*
X20778049Y-46878086D01*
X20830353Y-46857840D01*
X20889672Y-46850907D01*
X20949317Y-46857849D01*
X21001820Y-46878106D01*
X21048918Y-46912090D01*
X21085964Y-46956286D01*
X21107702Y-47005533D01*
X21115108Y-47061688D01*
X21107770Y-47116746D01*
X21086091Y-47165746D01*
X21048918Y-47210432D01*
X21001777Y-47244778D01*
X20949277Y-47265223D01*
X20889672Y-47272226D01*
G37*
G36*
X21872993Y-49000000D02*
G01*
X21310624Y-47471528D01*
X21745987Y-47471528D01*
X22002808Y-48264951D01*
X22084996Y-48565125D01*
X22156437Y-48879344D01*
X22068510Y-48879344D01*
X22138730Y-48565491D01*
X22219330Y-48264951D01*
X22473098Y-47471528D01*
X22904187Y-47471528D01*
X22340352Y-49000000D01*
X21872993Y-49000000D01*
G37*
G36*
X23761357Y-49029919D02*
G01*
X23607831Y-49018548D01*
X23474442Y-48986100D01*
X23357868Y-48934054D01*
X23253595Y-48861206D01*
X23167242Y-48771079D01*
X23097383Y-48661845D01*
X23048166Y-48541029D01*
X23017344Y-48402684D01*
X23006524Y-48243579D01*
X23017161Y-48088489D01*
X23047675Y-47951499D01*
X23096772Y-47829832D01*
X23165981Y-47718976D01*
X23250754Y-47627029D01*
X23352250Y-47552128D01*
X23466208Y-47497661D01*
X23594718Y-47464049D01*
X23740840Y-47452355D01*
X23886967Y-47464519D01*
X24020621Y-47500104D01*
X24142815Y-47559948D01*
X24248866Y-47643963D01*
X24308570Y-47712202D01*
X24359756Y-47792300D01*
X24402372Y-47885764D01*
X24432084Y-47984236D01*
X24450923Y-48097468D01*
X24457571Y-48227704D01*
X24457571Y-48342742D01*
X23174808Y-48342742D01*
X23174808Y-48084699D01*
X24257780Y-48084699D01*
X24066172Y-48153942D01*
X24056512Y-48039382D01*
X24029658Y-47946458D01*
X23983712Y-47867365D01*
X23921580Y-47809804D01*
X23843662Y-47773994D01*
X23743771Y-47761200D01*
X23643432Y-47774065D01*
X23563276Y-47810415D01*
X23498399Y-47868062D01*
X23450558Y-47944016D01*
X23421971Y-48032303D01*
X23411968Y-48135624D01*
X23411968Y-48317341D01*
X23423853Y-48443323D01*
X23456298Y-48540212D01*
X23510411Y-48619872D01*
X23581228Y-48675767D01*
X23666519Y-48709348D01*
X23767951Y-48721074D01*
X23837553Y-48715794D01*
X23898377Y-48700680D01*
X23953405Y-48675033D01*
X23999372Y-48640108D01*
X24036270Y-48595731D01*
X24063607Y-48541189D01*
X24434368Y-48609822D01*
X24403552Y-48690881D01*
X24360903Y-48764287D01*
X24305896Y-48830983D01*
X24204577Y-48913914D01*
X24076919Y-48977773D01*
X23932985Y-49016251D01*
X23761357Y-49029919D01*
G37*
G36*
X24736741Y-49000000D02*
G01*
X24736741Y-47471528D01*
X25134124Y-47471528D01*
X25134124Y-47737630D01*
X25150610Y-47737630D01*
X25186100Y-47648333D01*
X25232971Y-47578091D01*
X25291172Y-47523796D01*
X25360271Y-47483552D01*
X25435586Y-47459388D01*
X25518928Y-47451133D01*
X25587194Y-47454675D01*
X25651552Y-47464811D01*
X25651552Y-47831175D01*
X25572051Y-47815910D01*
X25474354Y-47810048D01*
X25384226Y-47820468D01*
X25305827Y-47850715D01*
X25239173Y-47899229D01*
X25188956Y-47963189D01*
X25157711Y-48039441D01*
X25146824Y-48130129D01*
X25146824Y-49000000D01*
X24736741Y-49000000D01*
G37*
G36*
X12610205Y-52360000D02*
G01*
X12610205Y-50322892D01*
X13404972Y-50322892D01*
X13557945Y-50332814D01*
X13688324Y-50360798D01*
X13799668Y-50404958D01*
X13900690Y-50468013D01*
X13982732Y-50544777D01*
X14047819Y-50636256D01*
X14094507Y-50738894D01*
X14123378Y-50854526D01*
X14133426Y-50985767D01*
X14123165Y-51117908D01*
X14093857Y-51232648D01*
X14046720Y-51332958D01*
X13980905Y-51421561D01*
X13897761Y-51495559D01*
X13795028Y-51555830D01*
X13682524Y-51597401D01*
X13550426Y-51623855D01*
X13395202Y-51633255D01*
X12857013Y-51633255D01*
X12857013Y-51295101D01*
X13329012Y-51295101D01*
X13449993Y-51285546D01*
X13538939Y-51260174D01*
X13612031Y-51215954D01*
X13662282Y-51156493D01*
X13692230Y-51082075D01*
X13703070Y-50985767D01*
X13692256Y-50888110D01*
X13662282Y-50811866D01*
X13611869Y-50750239D01*
X13538695Y-50704155D01*
X13449218Y-50677252D01*
X13327791Y-50667152D01*
X13027983Y-50667152D01*
X13027983Y-52360000D01*
X12610205Y-52360000D01*
G37*
G36*
X13743614Y-52360000D02*
G01*
X13248534Y-51432976D01*
X13700506Y-51432976D01*
X14206821Y-52360000D01*
X13743614Y-52360000D01*
G37*
G36*
X14448866Y-52360000D02*
G01*
X14448866Y-50322892D01*
X15812840Y-50322892D01*
X15812840Y-50669228D01*
X14866643Y-50669228D01*
X14866643Y-51160889D01*
X15740666Y-51160889D01*
X15740666Y-51501364D01*
X14866643Y-51501364D01*
X14866643Y-52013663D01*
X15815526Y-52013663D01*
X15815526Y-52360000D01*
X14448866Y-52360000D01*
G37*
G36*
X16745237Y-52360000D02*
G01*
X16031437Y-50322892D01*
X16495376Y-50322892D01*
X16821196Y-51305603D01*
X16939654Y-51715687D01*
X17066294Y-52203684D01*
X16976535Y-52203684D01*
X17099145Y-51714099D01*
X17213084Y-51305603D01*
X17527913Y-50322892D01*
X17988677Y-50322892D01*
X17290509Y-52360000D01*
X16745237Y-52360000D01*
G37*
G36*
X19739410Y-50322892D02*
G01*
X19739410Y-52360000D01*
X19323464Y-52360000D01*
X19323464Y-50690478D01*
X19309787Y-50690478D01*
X18842794Y-51020816D01*
X18842794Y-50638576D01*
X19293056Y-50322892D01*
X19739410Y-50322892D01*
G37*
G36*
X21062729Y-50331264D02*
G01*
X21185759Y-50354536D01*
X21287665Y-50390547D01*
X21381499Y-50442877D01*
X21455277Y-50504622D01*
X21511758Y-50576050D01*
X21552912Y-50657518D01*
X21577910Y-50746852D01*
X21586496Y-50845938D01*
X21573968Y-50961286D01*
X21538503Y-51056353D01*
X21481862Y-51137827D01*
X21408077Y-51202777D01*
X21320715Y-51250989D01*
X21220376Y-51283499D01*
X21220376Y-51304138D01*
X21331591Y-51322649D01*
X21436898Y-51369351D01*
X21528427Y-51441356D01*
X21602128Y-51538855D01*
X21636687Y-51613824D01*
X21658210Y-51699711D01*
X21665753Y-51798729D01*
X21656732Y-51903515D01*
X21630379Y-51998796D01*
X21586863Y-52086448D01*
X21527159Y-52163668D01*
X21449875Y-52230297D01*
X21352390Y-52286727D01*
X21246237Y-52325838D01*
X21118974Y-52350984D01*
X20966608Y-52360000D01*
X20105530Y-52360000D01*
X20105530Y-52016594D01*
X20523307Y-52016594D01*
X20883688Y-52016594D01*
X21004865Y-52007136D01*
X21091423Y-51982331D01*
X21151988Y-51945764D01*
X21198752Y-51893572D01*
X21226594Y-51832346D01*
X21236252Y-51759162D01*
X21225594Y-51676864D01*
X21194609Y-51606266D01*
X21144852Y-51547432D01*
X21076395Y-51501852D01*
X20995023Y-51473877D01*
X20894434Y-51463872D01*
X20523307Y-51463872D01*
X20523307Y-52016594D01*
X20105530Y-52016594D01*
X20105530Y-51178597D01*
X20523307Y-51178597D01*
X20852180Y-51178597D01*
X20938305Y-51170315D01*
X21012282Y-51146601D01*
X21076153Y-51107340D01*
X21124023Y-51055254D01*
X21154365Y-50991240D01*
X21164933Y-50913471D01*
X21155860Y-50842879D01*
X21129710Y-50783583D01*
X21085921Y-50732854D01*
X21029290Y-50695900D01*
X20955721Y-50672088D01*
X20860362Y-50663367D01*
X20523307Y-50663367D01*
X20523307Y-51178597D01*
X20105530Y-51178597D01*
X20105530Y-50322892D01*
X20914584Y-50322892D01*
X21062729Y-50331264D01*
G37*
G36*
X62780478Y-25660000D02*
G01*
X62066678Y-23622892D01*
X62530617Y-23622892D01*
X62856437Y-24605603D01*
X62974895Y-25015687D01*
X63101535Y-25503684D01*
X63011775Y-25503684D01*
X63134385Y-25014099D01*
X63248325Y-24605603D01*
X63563154Y-23622892D01*
X64023918Y-23622892D01*
X63325750Y-25660000D01*
X62780478Y-25660000D01*
G37*
G36*
X65233299Y-23609674D02*
G01*
X65393896Y-23650892D01*
X65541399Y-23718635D01*
X65642412Y-23786515D01*
X65732276Y-23867951D01*
X65811753Y-23963903D01*
X65881140Y-24075840D01*
X65934005Y-24194017D01*
X65973106Y-24326516D01*
X65997627Y-24475361D01*
X66006193Y-24642850D01*
X65997637Y-24809551D01*
X65973134Y-24957848D01*
X65934035Y-25090009D01*
X65881140Y-25208028D01*
X65811763Y-25319773D01*
X65732292Y-25415563D01*
X65642425Y-25496861D01*
X65541399Y-25564623D01*
X65393917Y-25632157D01*
X65233318Y-25673256D01*
X65056699Y-25687355D01*
X64880007Y-25673227D01*
X64719115Y-25632018D01*
X64571144Y-25564256D01*
X64469798Y-25496298D01*
X64379709Y-25414865D01*
X64300103Y-25319012D01*
X64230669Y-25207295D01*
X64177808Y-25089268D01*
X64138749Y-24957213D01*
X64114280Y-24809156D01*
X64105739Y-24642850D01*
X64529256Y-24642850D01*
X64537351Y-24786957D01*
X64560007Y-24908467D01*
X64595324Y-25010802D01*
X64646809Y-25105290D01*
X64708266Y-25180469D01*
X64779972Y-25238925D01*
X64862101Y-25281620D01*
X64953614Y-25307702D01*
X65056699Y-25316716D01*
X65159798Y-25307734D01*
X65251184Y-25281765D01*
X65333060Y-25239291D01*
X65404553Y-25180970D01*
X65465768Y-25105807D01*
X65516974Y-25011168D01*
X65552168Y-24908610D01*
X65574737Y-24786966D01*
X65582798Y-24642850D01*
X65574714Y-24497310D01*
X65552123Y-24374938D01*
X65516974Y-24272212D01*
X65465736Y-24177261D01*
X65404517Y-24101993D01*
X65333060Y-24043722D01*
X65251177Y-24001179D01*
X65159792Y-23975171D01*
X65056699Y-23966175D01*
X64953614Y-23975190D01*
X64862101Y-24001271D01*
X64779972Y-24043967D01*
X64708312Y-24102454D01*
X64646849Y-24177858D01*
X64595324Y-24272822D01*
X64560026Y-24375560D01*
X64537361Y-24497743D01*
X64529256Y-24642850D01*
X64105739Y-24642850D01*
X64114297Y-24475355D01*
X64138795Y-24326508D01*
X64177859Y-24194010D01*
X64230669Y-24075840D01*
X64300125Y-23963939D01*
X64379740Y-23867993D01*
X64469822Y-23786543D01*
X64571144Y-23718635D01*
X64719115Y-23650873D01*
X64880007Y-23609664D01*
X65056699Y-23595537D01*
X65233299Y-23609674D01*
G37*
G36*
X67159263Y-25688332D02*
G01*
X66993078Y-25677309D01*
X66846796Y-25645756D01*
X66717428Y-25595153D01*
X66599080Y-25523700D01*
X66501769Y-25437136D01*
X66423237Y-25334546D01*
X66365857Y-25218921D01*
X66330727Y-25090202D01*
X66318579Y-24945467D01*
X66318579Y-23622892D01*
X66736357Y-23622892D01*
X66736357Y-24910907D01*
X66749922Y-25024630D01*
X66789113Y-25121933D01*
X66852186Y-25203877D01*
X66936758Y-25266646D01*
X67037574Y-25305583D01*
X67159263Y-25319281D01*
X67281592Y-25305563D01*
X67382501Y-25266646D01*
X67466997Y-25203862D01*
X67529780Y-25121933D01*
X67568785Y-25024645D01*
X67582292Y-24910907D01*
X67582292Y-23622892D01*
X68000069Y-23622892D01*
X68000069Y-24945467D01*
X67987870Y-25090175D01*
X67952582Y-25218892D01*
X67894923Y-25334546D01*
X67816259Y-25437161D01*
X67718939Y-25523723D01*
X67600732Y-25595153D01*
X67471600Y-25645745D01*
X67325449Y-25677303D01*
X67159263Y-25688332D01*
G37*
G36*
X68285223Y-23969228D02*
G01*
X68285223Y-23622892D01*
X69948761Y-23622892D01*
X69948761Y-23969228D01*
X69326552Y-23969228D01*
X69326552Y-25660000D01*
X68908775Y-25660000D01*
X68908775Y-23969228D01*
X68285223Y-23969228D01*
G37*
G36*
X70219504Y-25660000D02*
G01*
X70219504Y-25359703D01*
X70941242Y-24682418D01*
X71098168Y-24519141D01*
X71155988Y-24445043D01*
X71195743Y-24376137D01*
X71220722Y-24303180D01*
X71229204Y-24223119D01*
X71218435Y-24136796D01*
X71187805Y-24066315D01*
X71139230Y-24008230D01*
X71075453Y-23965076D01*
X71000795Y-23938835D01*
X70912909Y-23929661D01*
X70822463Y-23939645D01*
X70747435Y-23968007D01*
X70684772Y-24014397D01*
X70638014Y-24077306D01*
X70609486Y-24153240D01*
X70599302Y-24247665D01*
X70201308Y-24247665D01*
X70211901Y-24117613D01*
X70242339Y-24003469D01*
X70291678Y-23902428D01*
X70359436Y-23812640D01*
X70442743Y-23737439D01*
X70543370Y-23675893D01*
X70653576Y-23632131D01*
X70777025Y-23604981D01*
X70916085Y-23595537D01*
X71058282Y-23604684D01*
X71183046Y-23630814D01*
X71292951Y-23672595D01*
X71394132Y-23731584D01*
X71477007Y-23802238D01*
X71543667Y-23885087D01*
X71593049Y-23978872D01*
X71623009Y-24081986D01*
X71633304Y-24196741D01*
X71622299Y-24309643D01*
X71588852Y-24421688D01*
X71531230Y-24532249D01*
X71430582Y-24669228D01*
X71302314Y-24810438D01*
X71107571Y-24998468D01*
X70799092Y-25302306D01*
X70799092Y-25317205D01*
X71660903Y-25317205D01*
X71660903Y-25660000D01*
X70219504Y-25660000D01*
G37*
G36*
X62780478Y-30760000D02*
G01*
X62066678Y-28722892D01*
X62530617Y-28722892D01*
X62856437Y-29705603D01*
X62974895Y-30115687D01*
X63101535Y-30603684D01*
X63011775Y-30603684D01*
X63134385Y-30114099D01*
X63248325Y-29705603D01*
X63563154Y-28722892D01*
X64023918Y-28722892D01*
X63325750Y-30760000D01*
X62780478Y-30760000D01*
G37*
G36*
X65233299Y-28709674D02*
G01*
X65393896Y-28750892D01*
X65541399Y-28818635D01*
X65642412Y-28886515D01*
X65732276Y-28967951D01*
X65811753Y-29063903D01*
X65881140Y-29175840D01*
X65934005Y-29294017D01*
X65973106Y-29426516D01*
X65997627Y-29575361D01*
X66006193Y-29742850D01*
X65997637Y-29909551D01*
X65973134Y-30057848D01*
X65934035Y-30190009D01*
X65881140Y-30308028D01*
X65811763Y-30419773D01*
X65732292Y-30515563D01*
X65642425Y-30596861D01*
X65541399Y-30664623D01*
X65393917Y-30732157D01*
X65233318Y-30773256D01*
X65056699Y-30787355D01*
X64880007Y-30773227D01*
X64719115Y-30732018D01*
X64571144Y-30664256D01*
X64469798Y-30596298D01*
X64379709Y-30514865D01*
X64300103Y-30419012D01*
X64230669Y-30307295D01*
X64177808Y-30189268D01*
X64138749Y-30057213D01*
X64114280Y-29909156D01*
X64105739Y-29742850D01*
X64529256Y-29742850D01*
X64537351Y-29886957D01*
X64560007Y-30008467D01*
X64595324Y-30110802D01*
X64646809Y-30205290D01*
X64708266Y-30280469D01*
X64779972Y-30338925D01*
X64862101Y-30381620D01*
X64953614Y-30407702D01*
X65056699Y-30416716D01*
X65159798Y-30407734D01*
X65251184Y-30381765D01*
X65333060Y-30339291D01*
X65404553Y-30280970D01*
X65465768Y-30205807D01*
X65516974Y-30111168D01*
X65552168Y-30008610D01*
X65574737Y-29886966D01*
X65582798Y-29742850D01*
X65574714Y-29597310D01*
X65552123Y-29474938D01*
X65516974Y-29372212D01*
X65465736Y-29277261D01*
X65404517Y-29201993D01*
X65333060Y-29143722D01*
X65251177Y-29101179D01*
X65159792Y-29075171D01*
X65056699Y-29066175D01*
X64953614Y-29075190D01*
X64862101Y-29101271D01*
X64779972Y-29143967D01*
X64708312Y-29202454D01*
X64646849Y-29277858D01*
X64595324Y-29372822D01*
X64560026Y-29475560D01*
X64537361Y-29597743D01*
X64529256Y-29742850D01*
X64105739Y-29742850D01*
X64114297Y-29575355D01*
X64138795Y-29426508D01*
X64177859Y-29294010D01*
X64230669Y-29175840D01*
X64300125Y-29063939D01*
X64379740Y-28967993D01*
X64469822Y-28886543D01*
X64571144Y-28818635D01*
X64719115Y-28750873D01*
X64880007Y-28709664D01*
X65056699Y-28695537D01*
X65233299Y-28709674D01*
G37*
G36*
X67159263Y-30788332D02*
G01*
X66993078Y-30777309D01*
X66846796Y-30745756D01*
X66717428Y-30695153D01*
X66599080Y-30623700D01*
X66501769Y-30537136D01*
X66423237Y-30434546D01*
X66365857Y-30318921D01*
X66330727Y-30190202D01*
X66318579Y-30045467D01*
X66318579Y-28722892D01*
X66736357Y-28722892D01*
X66736357Y-30010907D01*
X66749922Y-30124630D01*
X66789113Y-30221933D01*
X66852186Y-30303877D01*
X66936758Y-30366646D01*
X67037574Y-30405583D01*
X67159263Y-30419281D01*
X67281592Y-30405563D01*
X67382501Y-30366646D01*
X67466997Y-30303862D01*
X67529780Y-30221933D01*
X67568785Y-30124645D01*
X67582292Y-30010907D01*
X67582292Y-28722892D01*
X68000069Y-28722892D01*
X68000069Y-30045467D01*
X67987870Y-30190175D01*
X67952582Y-30318892D01*
X67894923Y-30434546D01*
X67816259Y-30537161D01*
X67718939Y-30623723D01*
X67600732Y-30695153D01*
X67471600Y-30745745D01*
X67325449Y-30777303D01*
X67159263Y-30788332D01*
G37*
G36*
X68285223Y-29069228D02*
G01*
X68285223Y-28722892D01*
X69948761Y-28722892D01*
X69948761Y-29069228D01*
X69326552Y-29069228D01*
X69326552Y-30760000D01*
X68908775Y-30760000D01*
X68908775Y-29069228D01*
X68285223Y-29069228D01*
G37*
G36*
X71073743Y-28722892D02*
G01*
X71073743Y-30760000D01*
X70657798Y-30760000D01*
X70657798Y-29090478D01*
X70644120Y-29090478D01*
X70177128Y-29420816D01*
X70177128Y-29038576D01*
X70627390Y-28722892D01*
X71073743Y-28722892D01*
G37*
D11*
X7500000Y-4000000D02*
G75*
G02*
X428932Y-4000000I-3535534J0D01*
G01*
X428932Y-4000000D02*
G75*
G02*
X7500000Y-4000000I3535534J0D01*
G01*
X86500000Y-4000000D02*
G75*
G02*
X79428932Y-4000000I-3535534J0D01*
G01*
X79428932Y-4000000D02*
G75*
G02*
X86500000Y-4000000I3535534J0D01*
G01*
X7535534Y-49964466D02*
G75*
G02*
X464466Y-49964466I-3535534J0D01*
G01*
X464466Y-49964466D02*
G75*
G02*
X7535534Y-49964466I3535534J0D01*
G01*
X86535534Y-50000000D02*
G75*
G02*
X79464466Y-50000000I-3535534J0D01*
G01*
X79464466Y-50000000D02*
G75*
G02*
X86535534Y-50000000I3535534J0D01*
G01*
D10*
G36*
X12039725Y-44842218D02*
G01*
X12100024Y-44862503D01*
X12152006Y-44895572D01*
X12215334Y-44965479D01*
X12262404Y-45061046D01*
X12289520Y-45170609D01*
X12299162Y-45300893D01*
X12289561Y-45429962D01*
X12262404Y-45539884D01*
X12215341Y-45635878D01*
X12152006Y-45706336D01*
X12099998Y-45739617D01*
X12039701Y-45760018D01*
X11968946Y-45767152D01*
X11898114Y-45760011D01*
X11837866Y-45739603D01*
X11786008Y-45706336D01*
X11722965Y-45635909D01*
X11675977Y-45539884D01*
X11648819Y-45429962D01*
X11639218Y-45300893D01*
X11648877Y-45170101D01*
X11675977Y-45060680D01*
X11722950Y-44965392D01*
X11786008Y-44895572D01*
X11837840Y-44862517D01*
X11898090Y-44842226D01*
X11968946Y-44835122D01*
X12039725Y-44842218D01*
G37*
G36*
X20332258Y-44842218D02*
G01*
X20392557Y-44862503D01*
X20444539Y-44895572D01*
X20507867Y-44965479D01*
X20554937Y-45061046D01*
X20582053Y-45170609D01*
X20591695Y-45300893D01*
X20582094Y-45429962D01*
X20554937Y-45539884D01*
X20507874Y-45635878D01*
X20444539Y-45706336D01*
X20392531Y-45739617D01*
X20332234Y-45760018D01*
X20261479Y-45767152D01*
X20190647Y-45760011D01*
X20130399Y-45739603D01*
X20078541Y-45706336D01*
X20015498Y-45635909D01*
X19968510Y-45539884D01*
X19941352Y-45429962D01*
X19931751Y-45300893D01*
X19941410Y-45170101D01*
X19968510Y-45060680D01*
X20015483Y-44965392D01*
X20078541Y-44895572D01*
X20130374Y-44862517D01*
X20190623Y-44842226D01*
X20261479Y-44835122D01*
X20332258Y-44842218D01*
G37*
G36*
X22066551Y-44833994D02*
G01*
X22144469Y-44869804D01*
X22206601Y-44927365D01*
X22252547Y-45006458D01*
X22279401Y-45099382D01*
X22283222Y-45144699D01*
X21639787Y-45144699D01*
X21644860Y-45092303D01*
X21673447Y-45004016D01*
X21721288Y-44928062D01*
X21786165Y-44870415D01*
X21866321Y-44834065D01*
X21966660Y-44821200D01*
X22066551Y-44833994D01*
G37*
G36*
X14627651Y-45513506D02*
G01*
X14617178Y-45590587D01*
X14586130Y-45659563D01*
X14537139Y-45717879D01*
X14471336Y-45763611D01*
X14393837Y-45792081D01*
X14301221Y-45802079D01*
X14236384Y-45796675D01*
X14182030Y-45781441D01*
X14135076Y-45755385D01*
X14100209Y-45720380D01*
X14078087Y-45676272D01*
X14070289Y-45620607D01*
X14078584Y-45562986D01*
X14102041Y-45518025D01*
X14139156Y-45481897D01*
X14191067Y-45452568D01*
X14251188Y-45432141D01*
X14323935Y-45417885D01*
X14401849Y-45406772D01*
X14490631Y-45391629D01*
X14572208Y-45371845D01*
X14627651Y-45348154D01*
X14627651Y-45513506D01*
G37*
G36*
X18635592Y-44378752D02*
G01*
X18725802Y-44410017D01*
X18798897Y-44462032D01*
X18849389Y-44530184D01*
X18879273Y-44612081D01*
X18889811Y-44710802D01*
X18879338Y-44808383D01*
X18849389Y-44890931D01*
X18798918Y-44960211D01*
X18726046Y-45013541D01*
X18636118Y-45045903D01*
X18515753Y-45057871D01*
X18214724Y-45057871D01*
X18214724Y-44367152D01*
X18514532Y-44367152D01*
X18635592Y-44378752D01*
G37*
G36*
X25344866Y-46312141D02*
G01*
X8938297Y-46312141D01*
X8938297Y-46060000D01*
X9160519Y-46060000D01*
X9587822Y-46060000D01*
X9587822Y-45123817D01*
X9582937Y-44943932D01*
X9569993Y-44698224D01*
X9560270Y-44537180D01*
X9641556Y-44701643D01*
X9755861Y-44920607D01*
X9875418Y-45125038D01*
X10459403Y-46060000D01*
X10926395Y-46060000D01*
X10926395Y-45302358D01*
X11221319Y-45302358D01*
X11232023Y-45457004D01*
X11262738Y-45593582D01*
X11312177Y-45714884D01*
X11381819Y-45825045D01*
X11467641Y-45916529D01*
X11570952Y-45991123D01*
X11686722Y-46044907D01*
X11818310Y-46078268D01*
X11968946Y-46089919D01*
X12119990Y-46078249D01*
X12191942Y-46060000D01*
X13000383Y-46060000D01*
X13410467Y-46060000D01*
X13410467Y-45632575D01*
X13677425Y-45632575D01*
X13685360Y-45731499D01*
X13707750Y-45814822D01*
X13743370Y-45885366D01*
X13792679Y-45947315D01*
X13852693Y-45998090D01*
X13924720Y-46038384D01*
X14045368Y-46076396D01*
X14185694Y-46089675D01*
X14295303Y-46081524D01*
X14385851Y-46058778D01*
X14467071Y-46021401D01*
X14533740Y-45973415D01*
X14589238Y-45914519D01*
X14632292Y-45847752D01*
X14645725Y-45847752D01*
X14645725Y-46060000D01*
X15034682Y-46060000D01*
X15034682Y-45031004D01*
X15028171Y-44939513D01*
X15009711Y-44861005D01*
X14980338Y-44793356D01*
X14916372Y-44703827D01*
X14833548Y-44632766D01*
X14736178Y-44579291D01*
X14624965Y-44541542D01*
X14571102Y-44531528D01*
X15382240Y-44531528D01*
X15382240Y-46060000D01*
X15792323Y-46060000D01*
X15792323Y-45174986D01*
X15802382Y-45078336D01*
X15830303Y-45001939D01*
X15875886Y-44938669D01*
X15935450Y-44892763D01*
X16006453Y-44864637D01*
X16089201Y-44854905D01*
X16172096Y-44864570D01*
X16238529Y-44891732D01*
X16292289Y-44935872D01*
X16331794Y-44993946D01*
X16356784Y-45067008D01*
X16365806Y-45159232D01*
X16365806Y-46060000D01*
X16775889Y-46060000D01*
X16775889Y-45087791D01*
X16773906Y-45057871D01*
X17796947Y-45057871D01*
X17796947Y-46060000D01*
X18214724Y-46060000D01*
X18214724Y-45394682D01*
X18581943Y-45394682D01*
X18736622Y-45384190D01*
X18868685Y-45354544D01*
X18981769Y-45307609D01*
X18989865Y-45302358D01*
X19513852Y-45302358D01*
X19524556Y-45457004D01*
X19555271Y-45593582D01*
X19604710Y-45714884D01*
X19674352Y-45825045D01*
X19760174Y-45916529D01*
X19863485Y-45991123D01*
X19979255Y-46044907D01*
X20110843Y-46078268D01*
X20261479Y-46089919D01*
X20412523Y-46078249D01*
X20544129Y-46044870D01*
X20659595Y-45991123D01*
X20762676Y-45916552D01*
X20848383Y-45825071D01*
X20918004Y-45714884D01*
X20967443Y-45593582D01*
X20998158Y-45457004D01*
X21008777Y-45303579D01*
X21229413Y-45303579D01*
X21240233Y-45462684D01*
X21271056Y-45601029D01*
X21320272Y-45721845D01*
X21390131Y-45831079D01*
X21476484Y-45921206D01*
X21580757Y-45994054D01*
X21697331Y-46046100D01*
X21830720Y-46078548D01*
X21984246Y-46089919D01*
X22155874Y-46076251D01*
X22299808Y-46037773D01*
X22427466Y-45973914D01*
X22528785Y-45890983D01*
X22583792Y-45824287D01*
X22626441Y-45750881D01*
X22657257Y-45669822D01*
X22508160Y-45642222D01*
X23762822Y-45642222D01*
X23787986Y-45733240D01*
X23826765Y-45813342D01*
X23879326Y-45884145D01*
X23943875Y-45944660D01*
X24020740Y-45995654D01*
X24111601Y-46037163D01*
X24260504Y-46076072D01*
X24438520Y-46089919D01*
X24571074Y-46082481D01*
X24688627Y-46061183D01*
X24793161Y-46027149D01*
X24890983Y-45978265D01*
X24970800Y-45919784D01*
X25034961Y-45851660D01*
X25083500Y-45772722D01*
X25112657Y-45685852D01*
X25122644Y-45588733D01*
X25110052Y-45484159D01*
X25073999Y-45396831D01*
X25014323Y-45322752D01*
X24936359Y-45264986D01*
X24828860Y-45215389D01*
X24684228Y-45175840D01*
X24409577Y-45121130D01*
X24311290Y-45091627D01*
X24257292Y-45058726D01*
X24224033Y-45014291D01*
X24213084Y-44961517D01*
X24220443Y-44918620D01*
X24242398Y-44881723D01*
X24281472Y-44849043D01*
X24355632Y-44817709D01*
X24451221Y-44806423D01*
X24554785Y-44819831D01*
X24628785Y-44856127D01*
X24684498Y-44912961D01*
X24719033Y-44983988D01*
X25082833Y-44919996D01*
X25057787Y-44839637D01*
X25021271Y-44767980D01*
X24973046Y-44703841D01*
X24914448Y-44648749D01*
X24843629Y-44601630D01*
X24758845Y-44562547D01*
X24618961Y-44525713D01*
X24444626Y-44512355D01*
X24316912Y-44519245D01*
X24205277Y-44538835D01*
X24107571Y-44569874D01*
X24016368Y-44614948D01*
X23942443Y-44669430D01*
X23883478Y-44733394D01*
X23839426Y-44807567D01*
X23812635Y-44890992D01*
X23803367Y-44986064D01*
X23816116Y-45095969D01*
X23852574Y-45188001D01*
X23912665Y-45266210D01*
X23991798Y-45327725D01*
X24099534Y-45379601D01*
X24243004Y-45420083D01*
X24506175Y-45474305D01*
X24599041Y-45501573D01*
X24655408Y-45533412D01*
X24691760Y-45577268D01*
X24703768Y-45631720D01*
X24696533Y-45673874D01*
X24674750Y-45711055D01*
X24635746Y-45744926D01*
X24559823Y-45777361D01*
X24450610Y-45789623D01*
X24368311Y-45783008D01*
X24302481Y-45764761D01*
X24249843Y-45736378D01*
X24205948Y-45696243D01*
X24170971Y-45643828D01*
X24144940Y-45576643D01*
X23762822Y-45642222D01*
X22508160Y-45642222D01*
X22286496Y-45601189D01*
X22259159Y-45655731D01*
X22222261Y-45700108D01*
X22176294Y-45735033D01*
X22121266Y-45760680D01*
X22060442Y-45775794D01*
X21990840Y-45781074D01*
X21889408Y-45769348D01*
X21804117Y-45735767D01*
X21733300Y-45679872D01*
X21679187Y-45600212D01*
X21646742Y-45503323D01*
X21637253Y-45402742D01*
X22680460Y-45402742D01*
X22680460Y-45287704D01*
X22673812Y-45157468D01*
X22654973Y-45044236D01*
X22625261Y-44945764D01*
X22582645Y-44852300D01*
X22531459Y-44772202D01*
X22471755Y-44703963D01*
X22365704Y-44619948D01*
X22243510Y-44560104D01*
X22109856Y-44524519D01*
X21963730Y-44512355D01*
X21817607Y-44524049D01*
X21689097Y-44557661D01*
X21575139Y-44612128D01*
X21473644Y-44687029D01*
X21388870Y-44778976D01*
X21319661Y-44889832D01*
X21270564Y-45011499D01*
X21240894Y-45144699D01*
X21240050Y-45148489D01*
X21229413Y-45303579D01*
X21008777Y-45303579D01*
X21008862Y-45302358D01*
X20998136Y-45146475D01*
X20967400Y-45009190D01*
X20918004Y-44887634D01*
X20848356Y-44777222D01*
X20762647Y-44685669D01*
X20659595Y-44611151D01*
X20544129Y-44557403D01*
X20412523Y-44524025D01*
X20261479Y-44512355D01*
X20110843Y-44524006D01*
X19979255Y-44557367D01*
X19863485Y-44611151D01*
X19760204Y-44685692D01*
X19674379Y-44777248D01*
X19604710Y-44887634D01*
X19555314Y-45009190D01*
X19524578Y-45146475D01*
X19513953Y-45300893D01*
X19513852Y-45302358D01*
X18989865Y-45302358D01*
X19084177Y-45241190D01*
X19167420Y-45161177D01*
X19233461Y-45066542D01*
X19280875Y-44960782D01*
X19310058Y-44843009D01*
X19320167Y-44710802D01*
X19310208Y-44579020D01*
X19281410Y-44461086D01*
X19234560Y-44354696D01*
X19169309Y-44259030D01*
X19087202Y-44178233D01*
X18986409Y-44111186D01*
X18874686Y-44063552D01*
X18744329Y-44033514D01*
X18591713Y-44022892D01*
X23007013Y-44022892D01*
X23048168Y-44871147D01*
X23361043Y-44871147D01*
X23402198Y-44022892D01*
X23007013Y-44022892D01*
X18591713Y-44022892D01*
X17796947Y-44022892D01*
X17796947Y-45057871D01*
X16773906Y-45057871D01*
X16768058Y-44969634D01*
X16745844Y-44867731D01*
X16710554Y-44779556D01*
X16660468Y-44699356D01*
X16599584Y-44633842D01*
X16527128Y-44581475D01*
X16445822Y-44543763D01*
X16354202Y-44520463D01*
X16250157Y-44512355D01*
X16124947Y-44524847D01*
X16021033Y-44560164D01*
X15933984Y-44617135D01*
X15861571Y-44693514D01*
X15800565Y-44790856D01*
X15774947Y-44854533D01*
X15769365Y-44531528D01*
X15382240Y-44531528D01*
X14571102Y-44531528D01*
X14507483Y-44519700D01*
X14385729Y-44512355D01*
X14221117Y-44525127D01*
X14079570Y-44561448D01*
X13953087Y-44622334D01*
X13851692Y-44703475D01*
X13796818Y-44769440D01*
X13753376Y-44844526D01*
X13721144Y-44930010D01*
X14097156Y-44992414D01*
X14118744Y-44945524D01*
X14151134Y-44903021D01*
X14193056Y-44867794D01*
X14247365Y-44839396D01*
X14309182Y-44821770D01*
X14384508Y-44815460D01*
X14458583Y-44821955D01*
X14515666Y-44839640D01*
X14563114Y-44869433D01*
X14596755Y-44909005D01*
X14617263Y-44957792D01*
X14624598Y-45019647D01*
X14624598Y-45026364D01*
X14614887Y-45070138D01*
X14586619Y-45100858D01*
X14542427Y-45121124D01*
X14467306Y-45137739D01*
X14253716Y-45162896D01*
X14142038Y-45177939D01*
X14036950Y-45200997D01*
X13937903Y-45235011D01*
X13852180Y-45280621D01*
X13779667Y-45341160D01*
X13724197Y-45418618D01*
X13689949Y-45511248D01*
X13678660Y-45620607D01*
X13677425Y-45632575D01*
X13410467Y-45632575D01*
X13410467Y-44022892D01*
X13000383Y-44022892D01*
X13000383Y-46060000D01*
X12191942Y-46060000D01*
X12251596Y-46044870D01*
X12367062Y-45991123D01*
X12470143Y-45916552D01*
X12555849Y-45825071D01*
X12625471Y-45714884D01*
X12674910Y-45593582D01*
X12705624Y-45457004D01*
X12716329Y-45302358D01*
X12705602Y-45146475D01*
X12674866Y-45009190D01*
X12625471Y-44887634D01*
X12555823Y-44777222D01*
X12470114Y-44685669D01*
X12367062Y-44611151D01*
X12251596Y-44557403D01*
X12119990Y-44524025D01*
X11968946Y-44512355D01*
X11818310Y-44524006D01*
X11686722Y-44557367D01*
X11570952Y-44611151D01*
X11467671Y-44685692D01*
X11381846Y-44777248D01*
X11312177Y-44887634D01*
X11262781Y-45009190D01*
X11232045Y-45146475D01*
X11221420Y-45300893D01*
X11221319Y-45302358D01*
X10926395Y-45302358D01*
X10926395Y-44022892D01*
X10499703Y-44022892D01*
X10499703Y-45000840D01*
X10504710Y-45200143D01*
X10517899Y-45445973D01*
X10526202Y-45561812D01*
X10472836Y-45432173D01*
X10369399Y-45226154D01*
X10269504Y-45054085D01*
X9626291Y-44022892D01*
X9160519Y-44022892D01*
X9160519Y-46060000D01*
X8938297Y-46060000D01*
X8938297Y-43800670D01*
X25344866Y-43800670D01*
X25344866Y-46312141D01*
G37*
G36*
X5825629Y-22793276D02*
G01*
X5906564Y-22811127D01*
X5974515Y-22839112D01*
X6034769Y-22879850D01*
X6084487Y-22933046D01*
X6124450Y-23000403D01*
X6151334Y-23074845D01*
X6168900Y-23166919D01*
X6175283Y-23280214D01*
X6168942Y-23393767D01*
X6151475Y-23486258D01*
X6124725Y-23561215D01*
X6084896Y-23628918D01*
X6035067Y-23682318D01*
X5974424Y-23723148D01*
X5905943Y-23751082D01*
X5824425Y-23768903D01*
X5727311Y-23775264D01*
X5517934Y-23775264D01*
X5517934Y-22786905D01*
X5729143Y-22786905D01*
X5825629Y-22793276D01*
G37*
G36*
X7340911Y-22793276D02*
G01*
X7421847Y-22811127D01*
X7489798Y-22839112D01*
X7550051Y-22879850D01*
X7599770Y-22933046D01*
X7639733Y-23000403D01*
X7666616Y-23074845D01*
X7684183Y-23166919D01*
X7690566Y-23280214D01*
X7684225Y-23393767D01*
X7666757Y-23486258D01*
X7640007Y-23561215D01*
X7600178Y-23628918D01*
X7550349Y-23682318D01*
X7489706Y-23723148D01*
X7421225Y-23751082D01*
X7339707Y-23768903D01*
X7242594Y-23775264D01*
X7033217Y-23775264D01*
X7033217Y-22786905D01*
X7244426Y-22786905D01*
X7340911Y-22793276D01*
G37*
G36*
X8168825Y-24211667D02*
G01*
X3383341Y-24211667D01*
X3383341Y-22517169D01*
X3550008Y-22517169D01*
X4085358Y-24045000D01*
X4494312Y-24045000D01*
X4586757Y-23775264D01*
X5204601Y-23775264D01*
X5204601Y-24045000D01*
X5346109Y-24045000D01*
X5741782Y-24045000D01*
X5858558Y-24038779D01*
X5963102Y-24020903D01*
X6056937Y-23992258D01*
X6141394Y-23953317D01*
X6220214Y-23902302D01*
X6288696Y-23841856D01*
X6344471Y-23775264D01*
X6719883Y-23775264D01*
X6719883Y-24045000D01*
X6861392Y-24045000D01*
X7257065Y-24045000D01*
X7373840Y-24038779D01*
X7478384Y-24020903D01*
X7572220Y-23992258D01*
X7656677Y-23953317D01*
X7735497Y-23902302D01*
X7803979Y-23841856D01*
X7862960Y-23771436D01*
X7912857Y-23690084D01*
X7961145Y-23572605D01*
X7991478Y-23437105D01*
X8002158Y-23280214D01*
X7991478Y-23123634D01*
X7961144Y-22988441D01*
X7912857Y-22871260D01*
X7862964Y-22790044D01*
X7804222Y-22719797D01*
X7736243Y-22659554D01*
X7658234Y-22608760D01*
X7574519Y-22569831D01*
X7481604Y-22541219D01*
X7378180Y-22523375D01*
X7262744Y-22517169D01*
X7033217Y-22517169D01*
X6719883Y-22517169D01*
X6719883Y-23775264D01*
X6344471Y-23775264D01*
X6347677Y-23771436D01*
X6397575Y-23690084D01*
X6445862Y-23572605D01*
X6476196Y-23437105D01*
X6486876Y-23280214D01*
X6476195Y-23123634D01*
X6445861Y-22988441D01*
X6397575Y-22871260D01*
X6347681Y-22790044D01*
X6288940Y-22719797D01*
X6220961Y-22659554D01*
X6142951Y-22608760D01*
X6059236Y-22569831D01*
X5966321Y-22541219D01*
X5862897Y-22523375D01*
X5747461Y-22517169D01*
X5517934Y-22517169D01*
X5204601Y-22517169D01*
X5204601Y-23775264D01*
X4586757Y-23775264D01*
X5017938Y-22517169D01*
X4672365Y-22517169D01*
X4436243Y-23254202D01*
X4350789Y-23560574D01*
X4291892Y-23795749D01*
X4231171Y-23561765D01*
X4142328Y-23254202D01*
X3897963Y-22517169D01*
X3550008Y-22517169D01*
X3383341Y-22517169D01*
X3383341Y-22350502D01*
X8168825Y-22350502D01*
X8168825Y-24211667D01*
G37*
G36*
X7334701Y-25393276D02*
G01*
X7415636Y-25411127D01*
X7483587Y-25439112D01*
X7543840Y-25479850D01*
X7593559Y-25533046D01*
X7633522Y-25600403D01*
X7660405Y-25674845D01*
X7677972Y-25766919D01*
X7684355Y-25880214D01*
X7678014Y-25993767D01*
X7660547Y-26086258D01*
X7633797Y-26161215D01*
X7593968Y-26228918D01*
X7544139Y-26282318D01*
X7483496Y-26323148D01*
X7415015Y-26351082D01*
X7333497Y-26368903D01*
X7236383Y-26375264D01*
X7027006Y-26375264D01*
X7027006Y-25386905D01*
X7238215Y-25386905D01*
X7334701Y-25393276D01*
G37*
G36*
X8162615Y-26832183D02*
G01*
X3329595Y-26832183D01*
X3329595Y-25883237D01*
X3496262Y-25883237D01*
X3507054Y-26041797D01*
X3537786Y-26179569D01*
X3586845Y-26299793D01*
X3637370Y-26383666D01*
X3696046Y-26456105D01*
X3763138Y-26518144D01*
X3839270Y-26570444D01*
X3950672Y-26622446D01*
X4075066Y-26654430D01*
X4215160Y-26665516D01*
X4341173Y-26656481D01*
X4390813Y-26645000D01*
X5113394Y-26645000D01*
X5433871Y-26645000D01*
X5433871Y-25942862D01*
X5430207Y-25807949D01*
X5420498Y-25623668D01*
X5413206Y-25502884D01*
X5474171Y-25626232D01*
X5559900Y-25790455D01*
X5649568Y-25943778D01*
X6087556Y-26645000D01*
X6437800Y-26645000D01*
X6437800Y-26375264D01*
X6713673Y-26375264D01*
X6713673Y-26645000D01*
X6855181Y-26645000D01*
X7250854Y-26645000D01*
X7367629Y-26638779D01*
X7472174Y-26620903D01*
X7566009Y-26592258D01*
X7650466Y-26553317D01*
X7729286Y-26502302D01*
X7797768Y-26441856D01*
X7856749Y-26371436D01*
X7906646Y-26290084D01*
X7954934Y-26172605D01*
X7985268Y-26037105D01*
X7995948Y-25880214D01*
X7985267Y-25723634D01*
X7954933Y-25588441D01*
X7906646Y-25471260D01*
X7856753Y-25390044D01*
X7798012Y-25319797D01*
X7730033Y-25259554D01*
X7652023Y-25208760D01*
X7568308Y-25169831D01*
X7475393Y-25141219D01*
X7371969Y-25123375D01*
X7256533Y-25117169D01*
X7027006Y-25117169D01*
X6713673Y-25117169D01*
X6713673Y-26375264D01*
X6437800Y-26375264D01*
X6437800Y-25117169D01*
X6117781Y-25117169D01*
X6117781Y-25850630D01*
X6121536Y-26000107D01*
X6131428Y-26184480D01*
X6137655Y-26271358D01*
X6097631Y-26174130D01*
X6020054Y-26019616D01*
X5945132Y-25890564D01*
X5462722Y-25117169D01*
X5113394Y-25117169D01*
X5113394Y-26645000D01*
X4390813Y-26645000D01*
X4454020Y-26630381D01*
X4555787Y-26588030D01*
X4648130Y-26528750D01*
X4725568Y-26455277D01*
X4789436Y-26366379D01*
X4835563Y-26267014D01*
X4864279Y-26153202D01*
X4874341Y-26021997D01*
X4874341Y-25831030D01*
X4239065Y-25831030D01*
X4239065Y-26068800D01*
X4569899Y-26068800D01*
X4565659Y-26124938D01*
X4551430Y-26182556D01*
X4528493Y-26233389D01*
X4496433Y-26278686D01*
X4456261Y-26316517D01*
X4407043Y-26347420D01*
X4352766Y-26369089D01*
X4290054Y-26382729D01*
X4217358Y-26387537D01*
X4137268Y-26380608D01*
X4066788Y-26360639D01*
X4004134Y-26328094D01*
X3949364Y-26283483D01*
X3902675Y-26226521D01*
X3863817Y-26155354D01*
X3837083Y-26078229D01*
X3819990Y-25987238D01*
X3813900Y-25879939D01*
X3820058Y-25772730D01*
X3837338Y-25681902D01*
X3864366Y-25604983D01*
X3903560Y-25534017D01*
X3950403Y-25477432D01*
X4005142Y-25433341D01*
X4067675Y-25401027D01*
X4136532Y-25381387D01*
X4213237Y-25374631D01*
X4275411Y-25378758D01*
X4330107Y-25390568D01*
X4380673Y-25410388D01*
X4424720Y-25437188D01*
X4463226Y-25471021D01*
X4495612Y-25511377D01*
X4521317Y-25557226D01*
X4540766Y-25609837D01*
X4859137Y-25609837D01*
X4833197Y-25501054D01*
X4788245Y-25402933D01*
X4725514Y-25315428D01*
X4646371Y-25240084D01*
X4554053Y-25179467D01*
X4448259Y-25133930D01*
X4334055Y-25106185D01*
X4208382Y-25096653D01*
X4076656Y-25107354D01*
X3956507Y-25138603D01*
X3845773Y-25190075D01*
X3746592Y-25260825D01*
X3661779Y-25349877D01*
X3590417Y-25459353D01*
X3550552Y-25548174D01*
X3521117Y-25647418D01*
X3502690Y-25758550D01*
X3496262Y-25883237D01*
X3329595Y-25883237D01*
X3329595Y-24929986D01*
X8162615Y-24929986D01*
X8162615Y-26832183D01*
G37*
G36*
X7710704Y-37011667D02*
G01*
X3371360Y-37011667D01*
X3371360Y-36845000D01*
X3538027Y-36845000D01*
X4510175Y-36845000D01*
X4725047Y-36845000D01*
X5038381Y-36845000D01*
X5314161Y-36845000D01*
X5634638Y-36845000D01*
X5634638Y-36142862D01*
X5630975Y-36007949D01*
X5621266Y-35823668D01*
X5613974Y-35702884D01*
X5674938Y-35826232D01*
X5760668Y-35990455D01*
X5850335Y-36143778D01*
X6288324Y-36845000D01*
X6638568Y-36845000D01*
X6638568Y-35553932D01*
X6871576Y-35553932D01*
X6871576Y-35840612D01*
X7221820Y-35592858D01*
X7232078Y-35592858D01*
X7232078Y-36845000D01*
X7544037Y-36845000D01*
X7544037Y-35317169D01*
X7209272Y-35317169D01*
X6871576Y-35553932D01*
X6638568Y-35553932D01*
X6638568Y-35317169D01*
X6318549Y-35317169D01*
X6318549Y-36050630D01*
X6322304Y-36200107D01*
X6332196Y-36384480D01*
X6338423Y-36471360D01*
X6298399Y-36374130D01*
X6220821Y-36219616D01*
X6145900Y-36090564D01*
X5663490Y-35317169D01*
X5314161Y-35317169D01*
X5314161Y-36845000D01*
X5038381Y-36845000D01*
X5038381Y-35317169D01*
X4725047Y-35317169D01*
X4725047Y-36845000D01*
X4510175Y-36845000D01*
X4510175Y-36585247D01*
X3851360Y-36585247D01*
X3851360Y-35317169D01*
X3538027Y-35317169D01*
X3538027Y-36845000D01*
X3371360Y-36845000D01*
X3371360Y-35150502D01*
X7710704Y-35150502D01*
X7710704Y-37011667D01*
G37*
G36*
X8091723Y-34411667D02*
G01*
X3371360Y-34411667D01*
X3371360Y-34245000D01*
X3538027Y-34245000D01*
X3851360Y-34245000D01*
X3851360Y-33594062D01*
X4517044Y-33594062D01*
X4517044Y-34245000D01*
X4830377Y-34245000D01*
X5106066Y-34245000D01*
X5419399Y-34245000D01*
X5695180Y-34245000D01*
X6015657Y-34245000D01*
X6015657Y-33542862D01*
X6011994Y-33407949D01*
X6002285Y-33223668D01*
X5994993Y-33102884D01*
X6055957Y-33226232D01*
X6141687Y-33390455D01*
X6231354Y-33543778D01*
X6669343Y-34245000D01*
X7019587Y-34245000D01*
X7019587Y-32953932D01*
X7252595Y-32953932D01*
X7252595Y-33240612D01*
X7602839Y-32992858D01*
X7613097Y-32992858D01*
X7613097Y-34245000D01*
X7925056Y-34245000D01*
X7925056Y-32717169D01*
X7590291Y-32717169D01*
X7252595Y-32953932D01*
X7019587Y-32953932D01*
X7019587Y-32717169D01*
X6699568Y-32717169D01*
X6699568Y-33450630D01*
X6703323Y-33600107D01*
X6713215Y-33784480D01*
X6719442Y-33871360D01*
X6679418Y-33774130D01*
X6601840Y-33619616D01*
X6526919Y-33490564D01*
X6044508Y-32717169D01*
X5695180Y-32717169D01*
X5695180Y-34245000D01*
X5419399Y-34245000D01*
X5419399Y-32717169D01*
X5106066Y-32717169D01*
X5106066Y-34245000D01*
X4830377Y-34245000D01*
X4830377Y-32717169D01*
X4517044Y-32717169D01*
X4517044Y-33334310D01*
X3851360Y-33334310D01*
X3851360Y-32717169D01*
X3538027Y-32717169D01*
X3538027Y-34245000D01*
X3371360Y-34245000D01*
X3371360Y-32550502D01*
X8091723Y-32550502D01*
X8091723Y-34411667D01*
G37*
G36*
X8151074Y-31811667D02*
G01*
X3371360Y-31811667D01*
X3371360Y-31645000D01*
X3538027Y-31645000D01*
X4510175Y-31645000D01*
X4725047Y-31645000D01*
X5038381Y-31645000D01*
X5314161Y-31645000D01*
X5634638Y-31645000D01*
X5634638Y-30942862D01*
X5630975Y-30807949D01*
X5621266Y-30623668D01*
X5613974Y-30502884D01*
X5674938Y-30626232D01*
X5760668Y-30790455D01*
X5850335Y-30943778D01*
X6288324Y-31645000D01*
X6638568Y-31645000D01*
X6638568Y-30585749D01*
X6889711Y-30585749D01*
X7188206Y-30585749D01*
X7195844Y-30514930D01*
X7217240Y-30457979D01*
X7252309Y-30410798D01*
X7299306Y-30376005D01*
X7355577Y-30354734D01*
X7423412Y-30347246D01*
X7489326Y-30354126D01*
X7545320Y-30373807D01*
X7593152Y-30406172D01*
X7629583Y-30449736D01*
X7652556Y-30502597D01*
X7660633Y-30567339D01*
X7654272Y-30627385D01*
X7635537Y-30682103D01*
X7605721Y-30733782D01*
X7562356Y-30789356D01*
X7444661Y-30911813D01*
X6903358Y-31419777D01*
X6903358Y-31645000D01*
X7984407Y-31645000D01*
X7984407Y-31387903D01*
X7338049Y-31387903D01*
X7338049Y-31376729D01*
X7569408Y-31148851D01*
X7715465Y-31007829D01*
X7811666Y-30901921D01*
X7887153Y-30799187D01*
X7930368Y-30716266D01*
X7955454Y-30632232D01*
X7963708Y-30547555D01*
X7955987Y-30461489D01*
X7933516Y-30384154D01*
X7896480Y-30313815D01*
X7846485Y-30251678D01*
X7784329Y-30198688D01*
X7708443Y-30154446D01*
X7626014Y-30123110D01*
X7532441Y-30103513D01*
X7425793Y-30096653D01*
X7321498Y-30103736D01*
X7228912Y-30124098D01*
X7146257Y-30156919D01*
X7070787Y-30203079D01*
X7008307Y-30259480D01*
X6957488Y-30326821D01*
X6920484Y-30402601D01*
X6897656Y-30488209D01*
X6889711Y-30585749D01*
X6638568Y-30585749D01*
X6638568Y-30117169D01*
X6318549Y-30117169D01*
X6318549Y-30850630D01*
X6322304Y-31000107D01*
X6332196Y-31184480D01*
X6338423Y-31271360D01*
X6298399Y-31174130D01*
X6220821Y-31019616D01*
X6145900Y-30890564D01*
X5663490Y-30117169D01*
X5314161Y-30117169D01*
X5314161Y-31645000D01*
X5038381Y-31645000D01*
X5038381Y-30117169D01*
X4725047Y-30117169D01*
X4725047Y-31645000D01*
X4510175Y-31645000D01*
X4510175Y-31385247D01*
X3851360Y-31385247D01*
X3851360Y-30117169D01*
X3538027Y-30117169D01*
X3538027Y-31645000D01*
X3371360Y-31645000D01*
X3371360Y-29929986D01*
X8151074Y-29929986D01*
X8151074Y-31811667D01*
G37*
G36*
X8532093Y-29311667D02*
G01*
X3371360Y-29311667D01*
X3371360Y-29145000D01*
X3538027Y-29145000D01*
X3851360Y-29145000D01*
X3851360Y-28494062D01*
X4517044Y-28494062D01*
X4517044Y-29145000D01*
X4830377Y-29145000D01*
X5106066Y-29145000D01*
X5419399Y-29145000D01*
X5695180Y-29145000D01*
X6015657Y-29145000D01*
X6015657Y-28442862D01*
X6011994Y-28307949D01*
X6002285Y-28123668D01*
X5994993Y-28002884D01*
X6055957Y-28126232D01*
X6141687Y-28290455D01*
X6231354Y-28443778D01*
X6669343Y-29145000D01*
X7019587Y-29145000D01*
X7019587Y-28085749D01*
X7270730Y-28085749D01*
X7569225Y-28085749D01*
X7576863Y-28014930D01*
X7598259Y-27957979D01*
X7633328Y-27910798D01*
X7680325Y-27876005D01*
X7736596Y-27854734D01*
X7804431Y-27847246D01*
X7870345Y-27854126D01*
X7926338Y-27873807D01*
X7974171Y-27906172D01*
X8010602Y-27949736D01*
X8033575Y-28002597D01*
X8041652Y-28067339D01*
X8035290Y-28127385D01*
X8016556Y-28182103D01*
X7986740Y-28233782D01*
X7943374Y-28289356D01*
X7825680Y-28411813D01*
X7284377Y-28919777D01*
X7284377Y-29145000D01*
X8365426Y-29145000D01*
X8365426Y-28887903D01*
X7719068Y-28887903D01*
X7719068Y-28876729D01*
X7950427Y-28648851D01*
X8096484Y-28507829D01*
X8192685Y-28401921D01*
X8268171Y-28299187D01*
X8311387Y-28216266D01*
X8336473Y-28132232D01*
X8344726Y-28047555D01*
X8337006Y-27961489D01*
X8314535Y-27884154D01*
X8277499Y-27813815D01*
X8227504Y-27751678D01*
X8165348Y-27698688D01*
X8089462Y-27654446D01*
X8007033Y-27623110D01*
X7913460Y-27603513D01*
X7806812Y-27596653D01*
X7702517Y-27603736D01*
X7609930Y-27624098D01*
X7527276Y-27656919D01*
X7451806Y-27703079D01*
X7389326Y-27759480D01*
X7338507Y-27826821D01*
X7301503Y-27902601D01*
X7278675Y-27988209D01*
X7270730Y-28085749D01*
X7019587Y-28085749D01*
X7019587Y-27617169D01*
X6699568Y-27617169D01*
X6699568Y-28350630D01*
X6703323Y-28500107D01*
X6713215Y-28684480D01*
X6719442Y-28771360D01*
X6679418Y-28674130D01*
X6601840Y-28519616D01*
X6526919Y-28390564D01*
X6044508Y-27617169D01*
X5695180Y-27617169D01*
X5695180Y-29145000D01*
X5419399Y-29145000D01*
X5419399Y-27617169D01*
X5106066Y-27617169D01*
X5106066Y-29145000D01*
X4830377Y-29145000D01*
X4830377Y-27617169D01*
X4517044Y-27617169D01*
X4517044Y-28234310D01*
X3851360Y-28234310D01*
X3851360Y-27617169D01*
X3538027Y-27617169D01*
X3538027Y-29145000D01*
X3371360Y-29145000D01*
X3371360Y-27429986D01*
X8532093Y-27429986D01*
X8532093Y-29311667D01*
G37*
G36*
X39521205Y-36564030D02*
G01*
X40339724Y-36564030D01*
X40339724Y-38880673D01*
X39521205Y-38880673D01*
X39521205Y-36564030D01*
G37*
G36*
X37251508Y-39841515D02*
G01*
X32631848Y-39841515D01*
X32631848Y-37100596D01*
X33187404Y-37100596D01*
X33187404Y-37967964D01*
X34529823Y-37967964D01*
X34529823Y-39285959D01*
X35352006Y-39285959D01*
X35352006Y-37967964D01*
X36695952Y-37967964D01*
X36695952Y-37100596D01*
X35352006Y-37100596D01*
X35352006Y-35782601D01*
X34529823Y-35782601D01*
X34529823Y-37100596D01*
X33187404Y-37100596D01*
X32631848Y-37100596D01*
X32631848Y-35227045D01*
X37251508Y-35227045D01*
X37251508Y-39841515D01*
G37*
G36*
X85180450Y-40103979D02*
G01*
X85362915Y-40137832D01*
X85516753Y-40190622D01*
X85658711Y-40267432D01*
X85771456Y-40359255D01*
X85858937Y-40466495D01*
X85922647Y-40589307D01*
X85961601Y-40726386D01*
X85975075Y-40881036D01*
X85961553Y-41035663D01*
X85922431Y-41172932D01*
X85858387Y-41296127D01*
X85770704Y-41403685D01*
X85657935Y-41495871D01*
X85516203Y-41573098D01*
X85362700Y-41626073D01*
X85180436Y-41660057D01*
X84964275Y-41672199D01*
X84746615Y-41660043D01*
X84563340Y-41626045D01*
X84409234Y-41573098D01*
X84266787Y-41495810D01*
X84153681Y-41403616D01*
X84065950Y-41296127D01*
X84001907Y-41172932D01*
X83962785Y-41035663D01*
X83949263Y-40881036D01*
X83962756Y-40726396D01*
X84001769Y-40589319D01*
X84065584Y-40466495D01*
X84152989Y-40359308D01*
X84265892Y-40267480D01*
X84408318Y-40190622D01*
X84562407Y-40137899D01*
X84745965Y-40104013D01*
X84964275Y-40091887D01*
X85180450Y-40103979D01*
G37*
G36*
X86865831Y-42640808D02*
G01*
X83059973Y-42640808D01*
X83059973Y-40881036D01*
X83393306Y-40881036D01*
X83414496Y-41146073D01*
X83476310Y-41387411D01*
X83577953Y-41609368D01*
X83679815Y-41761351D01*
X83801990Y-41896473D01*
X83945908Y-42015896D01*
X84113761Y-42120080D01*
X84291016Y-42199295D01*
X84489762Y-42257891D01*
X84713033Y-42294638D01*
X84964275Y-42307475D01*
X85213734Y-42294664D01*
X85435820Y-42257960D01*
X85633903Y-42199372D01*
X85810943Y-42120080D01*
X85978518Y-42015929D01*
X86122297Y-41896520D01*
X86244448Y-41761388D01*
X86346385Y-41609368D01*
X86448028Y-41387411D01*
X86509841Y-41146073D01*
X86531032Y-40881036D01*
X86509885Y-40616108D01*
X86448236Y-40375208D01*
X86346934Y-40153986D01*
X86245291Y-40002446D01*
X86123345Y-39867646D01*
X85979660Y-39748440D01*
X85812042Y-39644373D01*
X85635013Y-39565031D01*
X85436772Y-39506383D01*
X85214327Y-39469628D01*
X84964275Y-39456795D01*
X84713041Y-39469644D01*
X84489774Y-39506425D01*
X84291025Y-39565077D01*
X84113761Y-39644373D01*
X83945855Y-39748454D01*
X83801926Y-39867670D01*
X83679773Y-40002466D01*
X83577953Y-40153986D01*
X83476338Y-40375239D01*
X83414512Y-40616135D01*
X83393306Y-40881036D01*
X83059973Y-40881036D01*
X83059973Y-37092646D01*
X83434338Y-37092646D01*
X85366360Y-37092646D01*
X85536968Y-37112906D01*
X85682899Y-37171414D01*
X85805793Y-37265588D01*
X85899970Y-37392332D01*
X85958344Y-37543695D01*
X85978921Y-37727189D01*
X85958374Y-37909723D01*
X85899970Y-38060947D01*
X85805816Y-38187805D01*
X85682899Y-38282414D01*
X85536945Y-38341200D01*
X85366360Y-38361549D01*
X83434338Y-38361549D01*
X83434338Y-38988215D01*
X85418201Y-38988215D01*
X85635303Y-38969993D01*
X85828382Y-38917298D01*
X86001819Y-38831228D01*
X86155704Y-38713430D01*
X86285550Y-38567464D01*
X86392730Y-38389942D01*
X86468634Y-38195890D01*
X86515964Y-37976467D01*
X86532498Y-37727189D01*
X86515955Y-37477911D01*
X86468617Y-37258684D01*
X86392730Y-37064986D01*
X86285585Y-36887675D01*
X86155742Y-36741695D01*
X86001819Y-36623700D01*
X85828338Y-36537211D01*
X85635263Y-36484280D01*
X85418201Y-36465980D01*
X83434338Y-36465980D01*
X83434338Y-37092646D01*
X83059973Y-37092646D01*
X83059973Y-36038250D01*
X83434338Y-36038250D01*
X83953843Y-36038250D01*
X83953843Y-35102922D01*
X86490000Y-35102922D01*
X86490000Y-34476256D01*
X83953843Y-34476256D01*
X83953843Y-33542943D01*
X83434338Y-33542943D01*
X83434338Y-36038250D01*
X83059973Y-36038250D01*
X83059973Y-33209610D01*
X86865831Y-33209610D01*
X86865831Y-42640808D01*
G37*
D12*
X35159580Y-22666666D02*
X35207200Y-22714285D01*
X35207200Y-22714285D02*
X35254819Y-22857142D01*
X35254819Y-22857142D02*
X35254819Y-22952380D01*
X35254819Y-22952380D02*
X35207200Y-23095237D01*
X35207200Y-23095237D02*
X35111961Y-23190475D01*
X35111961Y-23190475D02*
X35016723Y-23238094D01*
X35016723Y-23238094D02*
X34826247Y-23285713D01*
X34826247Y-23285713D02*
X34683390Y-23285713D01*
X34683390Y-23285713D02*
X34492914Y-23238094D01*
X34492914Y-23238094D02*
X34397676Y-23190475D01*
X34397676Y-23190475D02*
X34302438Y-23095237D01*
X34302438Y-23095237D02*
X34254819Y-22952380D01*
X34254819Y-22952380D02*
X34254819Y-22857142D01*
X34254819Y-22857142D02*
X34302438Y-22714285D01*
X34302438Y-22714285D02*
X34350057Y-22666666D01*
X34254819Y-21761904D02*
X34254819Y-22238094D01*
X34254819Y-22238094D02*
X34731009Y-22285713D01*
X34731009Y-22285713D02*
X34683390Y-22238094D01*
X34683390Y-22238094D02*
X34635771Y-22142856D01*
X34635771Y-22142856D02*
X34635771Y-21904761D01*
X34635771Y-21904761D02*
X34683390Y-21809523D01*
X34683390Y-21809523D02*
X34731009Y-21761904D01*
X34731009Y-21761904D02*
X34826247Y-21714285D01*
X34826247Y-21714285D02*
X35064342Y-21714285D01*
X35064342Y-21714285D02*
X35159580Y-21761904D01*
X35159580Y-21761904D02*
X35207200Y-21809523D01*
X35207200Y-21809523D02*
X35254819Y-21904761D01*
X35254819Y-21904761D02*
X35254819Y-22142856D01*
X35254819Y-22142856D02*
X35207200Y-22238094D01*
X35207200Y-22238094D02*
X35159580Y-22285713D01*
X16254819Y-20566666D02*
X15778628Y-20899999D01*
X16254819Y-21138094D02*
X15254819Y-21138094D01*
X15254819Y-21138094D02*
X15254819Y-20757142D01*
X15254819Y-20757142D02*
X15302438Y-20661904D01*
X15302438Y-20661904D02*
X15350057Y-20614285D01*
X15350057Y-20614285D02*
X15445295Y-20566666D01*
X15445295Y-20566666D02*
X15588152Y-20566666D01*
X15588152Y-20566666D02*
X15683390Y-20614285D01*
X15683390Y-20614285D02*
X15731009Y-20661904D01*
X15731009Y-20661904D02*
X15778628Y-20757142D01*
X15778628Y-20757142D02*
X15778628Y-21138094D01*
X16254819Y-19614285D02*
X16254819Y-20185713D01*
X16254819Y-19899999D02*
X15254819Y-19899999D01*
X15254819Y-19899999D02*
X15397676Y-19995237D01*
X15397676Y-19995237D02*
X15492914Y-20090475D01*
X15492914Y-20090475D02*
X15540533Y-20185713D01*
X8154819Y-20566666D02*
X7678628Y-20899999D01*
X8154819Y-21138094D02*
X7154819Y-21138094D01*
X7154819Y-21138094D02*
X7154819Y-20757142D01*
X7154819Y-20757142D02*
X7202438Y-20661904D01*
X7202438Y-20661904D02*
X7250057Y-20614285D01*
X7250057Y-20614285D02*
X7345295Y-20566666D01*
X7345295Y-20566666D02*
X7488152Y-20566666D01*
X7488152Y-20566666D02*
X7583390Y-20614285D01*
X7583390Y-20614285D02*
X7631009Y-20661904D01*
X7631009Y-20661904D02*
X7678628Y-20757142D01*
X7678628Y-20757142D02*
X7678628Y-21138094D01*
X7250057Y-20185713D02*
X7202438Y-20138094D01*
X7202438Y-20138094D02*
X7154819Y-20042856D01*
X7154819Y-20042856D02*
X7154819Y-19804761D01*
X7154819Y-19804761D02*
X7202438Y-19709523D01*
X7202438Y-19709523D02*
X7250057Y-19661904D01*
X7250057Y-19661904D02*
X7345295Y-19614285D01*
X7345295Y-19614285D02*
X7440533Y-19614285D01*
X7440533Y-19614285D02*
X7583390Y-19661904D01*
X7583390Y-19661904D02*
X8154819Y-20233332D01*
X8154819Y-20233332D02*
X8154819Y-19614285D01*
X11454819Y-40416666D02*
X10978628Y-40749999D01*
X11454819Y-40988094D02*
X10454819Y-40988094D01*
X10454819Y-40988094D02*
X10454819Y-40607142D01*
X10454819Y-40607142D02*
X10502438Y-40511904D01*
X10502438Y-40511904D02*
X10550057Y-40464285D01*
X10550057Y-40464285D02*
X10645295Y-40416666D01*
X10645295Y-40416666D02*
X10788152Y-40416666D01*
X10788152Y-40416666D02*
X10883390Y-40464285D01*
X10883390Y-40464285D02*
X10931009Y-40511904D01*
X10931009Y-40511904D02*
X10978628Y-40607142D01*
X10978628Y-40607142D02*
X10978628Y-40988094D01*
X10788152Y-39559523D02*
X11454819Y-39559523D01*
X10407200Y-39797618D02*
X11121485Y-40035713D01*
X11121485Y-40035713D02*
X11121485Y-39416666D01*
X15754819Y-40466666D02*
X15278628Y-40799999D01*
X15754819Y-41038094D02*
X14754819Y-41038094D01*
X14754819Y-41038094D02*
X14754819Y-40657142D01*
X14754819Y-40657142D02*
X14802438Y-40561904D01*
X14802438Y-40561904D02*
X14850057Y-40514285D01*
X14850057Y-40514285D02*
X14945295Y-40466666D01*
X14945295Y-40466666D02*
X15088152Y-40466666D01*
X15088152Y-40466666D02*
X15183390Y-40514285D01*
X15183390Y-40514285D02*
X15231009Y-40561904D01*
X15231009Y-40561904D02*
X15278628Y-40657142D01*
X15278628Y-40657142D02*
X15278628Y-41038094D01*
X14754819Y-40133332D02*
X14754819Y-39514285D01*
X14754819Y-39514285D02*
X15135771Y-39847618D01*
X15135771Y-39847618D02*
X15135771Y-39704761D01*
X15135771Y-39704761D02*
X15183390Y-39609523D01*
X15183390Y-39609523D02*
X15231009Y-39561904D01*
X15231009Y-39561904D02*
X15326247Y-39514285D01*
X15326247Y-39514285D02*
X15564342Y-39514285D01*
X15564342Y-39514285D02*
X15659580Y-39561904D01*
X15659580Y-39561904D02*
X15707200Y-39609523D01*
X15707200Y-39609523D02*
X15754819Y-39704761D01*
X15754819Y-39704761D02*
X15754819Y-39990475D01*
X15754819Y-39990475D02*
X15707200Y-40085713D01*
X15707200Y-40085713D02*
X15659580Y-40133332D01*
X76057142Y-5754819D02*
X75723809Y-5278628D01*
X75485714Y-5754819D02*
X75485714Y-4754819D01*
X75485714Y-4754819D02*
X75866666Y-4754819D01*
X75866666Y-4754819D02*
X75961904Y-4802438D01*
X75961904Y-4802438D02*
X76009523Y-4850057D01*
X76009523Y-4850057D02*
X76057142Y-4945295D01*
X76057142Y-4945295D02*
X76057142Y-5088152D01*
X76057142Y-5088152D02*
X76009523Y-5183390D01*
X76009523Y-5183390D02*
X75961904Y-5231009D01*
X75961904Y-5231009D02*
X75866666Y-5278628D01*
X75866666Y-5278628D02*
X75485714Y-5278628D01*
X77009523Y-5754819D02*
X76438095Y-5754819D01*
X76723809Y-5754819D02*
X76723809Y-4754819D01*
X76723809Y-4754819D02*
X76628571Y-4897676D01*
X76628571Y-4897676D02*
X76533333Y-4992914D01*
X76533333Y-4992914D02*
X76438095Y-5040533D01*
X77390476Y-4850057D02*
X77438095Y-4802438D01*
X77438095Y-4802438D02*
X77533333Y-4754819D01*
X77533333Y-4754819D02*
X77771428Y-4754819D01*
X77771428Y-4754819D02*
X77866666Y-4802438D01*
X77866666Y-4802438D02*
X77914285Y-4850057D01*
X77914285Y-4850057D02*
X77961904Y-4945295D01*
X77961904Y-4945295D02*
X77961904Y-5040533D01*
X77961904Y-5040533D02*
X77914285Y-5183390D01*
X77914285Y-5183390D02*
X77342857Y-5754819D01*
X77342857Y-5754819D02*
X77961904Y-5754819D01*
X28859580Y-5166666D02*
X28907200Y-5214285D01*
X28907200Y-5214285D02*
X28954819Y-5357142D01*
X28954819Y-5357142D02*
X28954819Y-5452380D01*
X28954819Y-5452380D02*
X28907200Y-5595237D01*
X28907200Y-5595237D02*
X28811961Y-5690475D01*
X28811961Y-5690475D02*
X28716723Y-5738094D01*
X28716723Y-5738094D02*
X28526247Y-5785713D01*
X28526247Y-5785713D02*
X28383390Y-5785713D01*
X28383390Y-5785713D02*
X28192914Y-5738094D01*
X28192914Y-5738094D02*
X28097676Y-5690475D01*
X28097676Y-5690475D02*
X28002438Y-5595237D01*
X28002438Y-5595237D02*
X27954819Y-5452380D01*
X27954819Y-5452380D02*
X27954819Y-5357142D01*
X27954819Y-5357142D02*
X28002438Y-5214285D01*
X28002438Y-5214285D02*
X28050057Y-5166666D01*
X27954819Y-4309523D02*
X27954819Y-4499999D01*
X27954819Y-4499999D02*
X28002438Y-4595237D01*
X28002438Y-4595237D02*
X28050057Y-4642856D01*
X28050057Y-4642856D02*
X28192914Y-4738094D01*
X28192914Y-4738094D02*
X28383390Y-4785713D01*
X28383390Y-4785713D02*
X28764342Y-4785713D01*
X28764342Y-4785713D02*
X28859580Y-4738094D01*
X28859580Y-4738094D02*
X28907200Y-4690475D01*
X28907200Y-4690475D02*
X28954819Y-4595237D01*
X28954819Y-4595237D02*
X28954819Y-4404761D01*
X28954819Y-4404761D02*
X28907200Y-4309523D01*
X28907200Y-4309523D02*
X28859580Y-4261904D01*
X28859580Y-4261904D02*
X28764342Y-4214285D01*
X28764342Y-4214285D02*
X28526247Y-4214285D01*
X28526247Y-4214285D02*
X28431009Y-4261904D01*
X28431009Y-4261904D02*
X28383390Y-4309523D01*
X28383390Y-4309523D02*
X28335771Y-4404761D01*
X28335771Y-4404761D02*
X28335771Y-4595237D01*
X28335771Y-4595237D02*
X28383390Y-4690475D01*
X28383390Y-4690475D02*
X28431009Y-4738094D01*
X28431009Y-4738094D02*
X28526247Y-4785713D01*
X35359580Y-5166666D02*
X35407200Y-5214285D01*
X35407200Y-5214285D02*
X35454819Y-5357142D01*
X35454819Y-5357142D02*
X35454819Y-5452380D01*
X35454819Y-5452380D02*
X35407200Y-5595237D01*
X35407200Y-5595237D02*
X35311961Y-5690475D01*
X35311961Y-5690475D02*
X35216723Y-5738094D01*
X35216723Y-5738094D02*
X35026247Y-5785713D01*
X35026247Y-5785713D02*
X34883390Y-5785713D01*
X34883390Y-5785713D02*
X34692914Y-5738094D01*
X34692914Y-5738094D02*
X34597676Y-5690475D01*
X34597676Y-5690475D02*
X34502438Y-5595237D01*
X34502438Y-5595237D02*
X34454819Y-5452380D01*
X34454819Y-5452380D02*
X34454819Y-5357142D01*
X34454819Y-5357142D02*
X34502438Y-5214285D01*
X34502438Y-5214285D02*
X34550057Y-5166666D01*
X34788152Y-4309523D02*
X35454819Y-4309523D01*
X34407200Y-4547618D02*
X35121485Y-4785713D01*
X35121485Y-4785713D02*
X35121485Y-4166666D01*
X85066666Y-19554819D02*
X85066666Y-20269104D01*
X85066666Y-20269104D02*
X85019047Y-20411961D01*
X85019047Y-20411961D02*
X84923809Y-20507200D01*
X84923809Y-20507200D02*
X84780952Y-20554819D01*
X84780952Y-20554819D02*
X84685714Y-20554819D01*
X85447619Y-19554819D02*
X86066666Y-19554819D01*
X86066666Y-19554819D02*
X85733333Y-19935771D01*
X85733333Y-19935771D02*
X85876190Y-19935771D01*
X85876190Y-19935771D02*
X85971428Y-19983390D01*
X85971428Y-19983390D02*
X86019047Y-20031009D01*
X86019047Y-20031009D02*
X86066666Y-20126247D01*
X86066666Y-20126247D02*
X86066666Y-20364342D01*
X86066666Y-20364342D02*
X86019047Y-20459580D01*
X86019047Y-20459580D02*
X85971428Y-20507200D01*
X85971428Y-20507200D02*
X85876190Y-20554819D01*
X85876190Y-20554819D02*
X85590476Y-20554819D01*
X85590476Y-20554819D02*
X85495238Y-20507200D01*
X85495238Y-20507200D02*
X85447619Y-20459580D01*
X29459580Y-22766666D02*
X29507200Y-22814285D01*
X29507200Y-22814285D02*
X29554819Y-22957142D01*
X29554819Y-22957142D02*
X29554819Y-23052380D01*
X29554819Y-23052380D02*
X29507200Y-23195237D01*
X29507200Y-23195237D02*
X29411961Y-23290475D01*
X29411961Y-23290475D02*
X29316723Y-23338094D01*
X29316723Y-23338094D02*
X29126247Y-23385713D01*
X29126247Y-23385713D02*
X28983390Y-23385713D01*
X28983390Y-23385713D02*
X28792914Y-23338094D01*
X28792914Y-23338094D02*
X28697676Y-23290475D01*
X28697676Y-23290475D02*
X28602438Y-23195237D01*
X28602438Y-23195237D02*
X28554819Y-23052380D01*
X28554819Y-23052380D02*
X28554819Y-22957142D01*
X28554819Y-22957142D02*
X28602438Y-22814285D01*
X28602438Y-22814285D02*
X28650057Y-22766666D01*
X28554819Y-22433332D02*
X28554819Y-21766666D01*
X28554819Y-21766666D02*
X29554819Y-22195237D01*
X29216666Y-41054819D02*
X29216666Y-41769104D01*
X29216666Y-41769104D02*
X29169047Y-41911961D01*
X29169047Y-41911961D02*
X29073809Y-42007200D01*
X29073809Y-42007200D02*
X28930952Y-42054819D01*
X28930952Y-42054819D02*
X28835714Y-42054819D01*
X29645238Y-41150057D02*
X29692857Y-41102438D01*
X29692857Y-41102438D02*
X29788095Y-41054819D01*
X29788095Y-41054819D02*
X30026190Y-41054819D01*
X30026190Y-41054819D02*
X30121428Y-41102438D01*
X30121428Y-41102438D02*
X30169047Y-41150057D01*
X30169047Y-41150057D02*
X30216666Y-41245295D01*
X30216666Y-41245295D02*
X30216666Y-41340533D01*
X30216666Y-41340533D02*
X30169047Y-41483390D01*
X30169047Y-41483390D02*
X29597619Y-42054819D01*
X29597619Y-42054819D02*
X30216666Y-42054819D01*
X47633333Y-45654819D02*
X47300000Y-45178628D01*
X47061905Y-45654819D02*
X47061905Y-44654819D01*
X47061905Y-44654819D02*
X47442857Y-44654819D01*
X47442857Y-44654819D02*
X47538095Y-44702438D01*
X47538095Y-44702438D02*
X47585714Y-44750057D01*
X47585714Y-44750057D02*
X47633333Y-44845295D01*
X47633333Y-44845295D02*
X47633333Y-44988152D01*
X47633333Y-44988152D02*
X47585714Y-45083390D01*
X47585714Y-45083390D02*
X47538095Y-45131009D01*
X47538095Y-45131009D02*
X47442857Y-45178628D01*
X47442857Y-45178628D02*
X47061905Y-45178628D01*
X48538095Y-44654819D02*
X48061905Y-44654819D01*
X48061905Y-44654819D02*
X48014286Y-45131009D01*
X48014286Y-45131009D02*
X48061905Y-45083390D01*
X48061905Y-45083390D02*
X48157143Y-45035771D01*
X48157143Y-45035771D02*
X48395238Y-45035771D01*
X48395238Y-45035771D02*
X48490476Y-45083390D01*
X48490476Y-45083390D02*
X48538095Y-45131009D01*
X48538095Y-45131009D02*
X48585714Y-45226247D01*
X48585714Y-45226247D02*
X48585714Y-45464342D01*
X48585714Y-45464342D02*
X48538095Y-45559580D01*
X48538095Y-45559580D02*
X48490476Y-45607200D01*
X48490476Y-45607200D02*
X48395238Y-45654819D01*
X48395238Y-45654819D02*
X48157143Y-45654819D01*
X48157143Y-45654819D02*
X48061905Y-45607200D01*
X48061905Y-45607200D02*
X48014286Y-45559580D01*
X74861905Y-49154819D02*
X74861905Y-48154819D01*
X74861905Y-48154819D02*
X75100000Y-48154819D01*
X75100000Y-48154819D02*
X75242857Y-48202438D01*
X75242857Y-48202438D02*
X75338095Y-48297676D01*
X75338095Y-48297676D02*
X75385714Y-48392914D01*
X75385714Y-48392914D02*
X75433333Y-48583390D01*
X75433333Y-48583390D02*
X75433333Y-48726247D01*
X75433333Y-48726247D02*
X75385714Y-48916723D01*
X75385714Y-48916723D02*
X75338095Y-49011961D01*
X75338095Y-49011961D02*
X75242857Y-49107200D01*
X75242857Y-49107200D02*
X75100000Y-49154819D01*
X75100000Y-49154819D02*
X74861905Y-49154819D01*
X76290476Y-48488152D02*
X76290476Y-49154819D01*
X76052381Y-48107200D02*
X75814286Y-48821485D01*
X75814286Y-48821485D02*
X76433333Y-48821485D01*
X72898095Y-46554819D02*
X72898095Y-45554819D01*
X73469523Y-46554819D02*
X73040952Y-45983390D01*
X73469523Y-45554819D02*
X72898095Y-46126247D01*
X75733333Y-40654819D02*
X75400000Y-40178628D01*
X75161905Y-40654819D02*
X75161905Y-39654819D01*
X75161905Y-39654819D02*
X75542857Y-39654819D01*
X75542857Y-39654819D02*
X75638095Y-39702438D01*
X75638095Y-39702438D02*
X75685714Y-39750057D01*
X75685714Y-39750057D02*
X75733333Y-39845295D01*
X75733333Y-39845295D02*
X75733333Y-39988152D01*
X75733333Y-39988152D02*
X75685714Y-40083390D01*
X75685714Y-40083390D02*
X75638095Y-40131009D01*
X75638095Y-40131009D02*
X75542857Y-40178628D01*
X75542857Y-40178628D02*
X75161905Y-40178628D01*
X76590476Y-39654819D02*
X76400000Y-39654819D01*
X76400000Y-39654819D02*
X76304762Y-39702438D01*
X76304762Y-39702438D02*
X76257143Y-39750057D01*
X76257143Y-39750057D02*
X76161905Y-39892914D01*
X76161905Y-39892914D02*
X76114286Y-40083390D01*
X76114286Y-40083390D02*
X76114286Y-40464342D01*
X76114286Y-40464342D02*
X76161905Y-40559580D01*
X76161905Y-40559580D02*
X76209524Y-40607200D01*
X76209524Y-40607200D02*
X76304762Y-40654819D01*
X76304762Y-40654819D02*
X76495238Y-40654819D01*
X76495238Y-40654819D02*
X76590476Y-40607200D01*
X76590476Y-40607200D02*
X76638095Y-40559580D01*
X76638095Y-40559580D02*
X76685714Y-40464342D01*
X76685714Y-40464342D02*
X76685714Y-40226247D01*
X76685714Y-40226247D02*
X76638095Y-40131009D01*
X76638095Y-40131009D02*
X76590476Y-40083390D01*
X76590476Y-40083390D02*
X76495238Y-40035771D01*
X76495238Y-40035771D02*
X76304762Y-40035771D01*
X76304762Y-40035771D02*
X76209524Y-40083390D01*
X76209524Y-40083390D02*
X76161905Y-40131009D01*
X76161905Y-40131009D02*
X76114286Y-40226247D01*
X26454819Y-34761904D02*
X27264342Y-34761904D01*
X27264342Y-34761904D02*
X27359580Y-34714285D01*
X27359580Y-34714285D02*
X27407200Y-34666666D01*
X27407200Y-34666666D02*
X27454819Y-34571428D01*
X27454819Y-34571428D02*
X27454819Y-34380952D01*
X27454819Y-34380952D02*
X27407200Y-34285714D01*
X27407200Y-34285714D02*
X27359580Y-34238095D01*
X27359580Y-34238095D02*
X27264342Y-34190476D01*
X27264342Y-34190476D02*
X26454819Y-34190476D01*
X26550057Y-33761904D02*
X26502438Y-33714285D01*
X26502438Y-33714285D02*
X26454819Y-33619047D01*
X26454819Y-33619047D02*
X26454819Y-33380952D01*
X26454819Y-33380952D02*
X26502438Y-33285714D01*
X26502438Y-33285714D02*
X26550057Y-33238095D01*
X26550057Y-33238095D02*
X26645295Y-33190476D01*
X26645295Y-33190476D02*
X26740533Y-33190476D01*
X26740533Y-33190476D02*
X26883390Y-33238095D01*
X26883390Y-33238095D02*
X27454819Y-33809523D01*
X27454819Y-33809523D02*
X27454819Y-33190476D01*
X23738095Y-2454819D02*
X23738095Y-3264342D01*
X23738095Y-3264342D02*
X23785714Y-3359580D01*
X23785714Y-3359580D02*
X23833333Y-3407200D01*
X23833333Y-3407200D02*
X23928571Y-3454819D01*
X23928571Y-3454819D02*
X24119047Y-3454819D01*
X24119047Y-3454819D02*
X24214285Y-3407200D01*
X24214285Y-3407200D02*
X24261904Y-3359580D01*
X24261904Y-3359580D02*
X24309523Y-3264342D01*
X24309523Y-3264342D02*
X24309523Y-2454819D01*
X25309523Y-3454819D02*
X24738095Y-3454819D01*
X25023809Y-3454819D02*
X25023809Y-2454819D01*
X25023809Y-2454819D02*
X24928571Y-2597676D01*
X24928571Y-2597676D02*
X24833333Y-2692914D01*
X24833333Y-2692914D02*
X24738095Y-2740533D01*
X75533333Y-45254819D02*
X75200000Y-44778628D01*
X74961905Y-45254819D02*
X74961905Y-44254819D01*
X74961905Y-44254819D02*
X75342857Y-44254819D01*
X75342857Y-44254819D02*
X75438095Y-44302438D01*
X75438095Y-44302438D02*
X75485714Y-44350057D01*
X75485714Y-44350057D02*
X75533333Y-44445295D01*
X75533333Y-44445295D02*
X75533333Y-44588152D01*
X75533333Y-44588152D02*
X75485714Y-44683390D01*
X75485714Y-44683390D02*
X75438095Y-44731009D01*
X75438095Y-44731009D02*
X75342857Y-44778628D01*
X75342857Y-44778628D02*
X74961905Y-44778628D01*
X76104762Y-44683390D02*
X76009524Y-44635771D01*
X76009524Y-44635771D02*
X75961905Y-44588152D01*
X75961905Y-44588152D02*
X75914286Y-44492914D01*
X75914286Y-44492914D02*
X75914286Y-44445295D01*
X75914286Y-44445295D02*
X75961905Y-44350057D01*
X75961905Y-44350057D02*
X76009524Y-44302438D01*
X76009524Y-44302438D02*
X76104762Y-44254819D01*
X76104762Y-44254819D02*
X76295238Y-44254819D01*
X76295238Y-44254819D02*
X76390476Y-44302438D01*
X76390476Y-44302438D02*
X76438095Y-44350057D01*
X76438095Y-44350057D02*
X76485714Y-44445295D01*
X76485714Y-44445295D02*
X76485714Y-44492914D01*
X76485714Y-44492914D02*
X76438095Y-44588152D01*
X76438095Y-44588152D02*
X76390476Y-44635771D01*
X76390476Y-44635771D02*
X76295238Y-44683390D01*
X76295238Y-44683390D02*
X76104762Y-44683390D01*
X76104762Y-44683390D02*
X76009524Y-44731009D01*
X76009524Y-44731009D02*
X75961905Y-44778628D01*
X75961905Y-44778628D02*
X75914286Y-44873866D01*
X75914286Y-44873866D02*
X75914286Y-45064342D01*
X75914286Y-45064342D02*
X75961905Y-45159580D01*
X75961905Y-45159580D02*
X76009524Y-45207200D01*
X76009524Y-45207200D02*
X76104762Y-45254819D01*
X76104762Y-45254819D02*
X76295238Y-45254819D01*
X76295238Y-45254819D02*
X76390476Y-45207200D01*
X76390476Y-45207200D02*
X76438095Y-45159580D01*
X76438095Y-45159580D02*
X76485714Y-45064342D01*
X76485714Y-45064342D02*
X76485714Y-44873866D01*
X76485714Y-44873866D02*
X76438095Y-44778628D01*
X76438095Y-44778628D02*
X76390476Y-44731009D01*
X76390476Y-44731009D02*
X76295238Y-44683390D01*
X76157142Y-15654819D02*
X75823809Y-15178628D01*
X75585714Y-15654819D02*
X75585714Y-14654819D01*
X75585714Y-14654819D02*
X75966666Y-14654819D01*
X75966666Y-14654819D02*
X76061904Y-14702438D01*
X76061904Y-14702438D02*
X76109523Y-14750057D01*
X76109523Y-14750057D02*
X76157142Y-14845295D01*
X76157142Y-14845295D02*
X76157142Y-14988152D01*
X76157142Y-14988152D02*
X76109523Y-15083390D01*
X76109523Y-15083390D02*
X76061904Y-15131009D01*
X76061904Y-15131009D02*
X75966666Y-15178628D01*
X75966666Y-15178628D02*
X75585714Y-15178628D01*
X77109523Y-15654819D02*
X76538095Y-15654819D01*
X76823809Y-15654819D02*
X76823809Y-14654819D01*
X76823809Y-14654819D02*
X76728571Y-14797676D01*
X76728571Y-14797676D02*
X76633333Y-14892914D01*
X76633333Y-14892914D02*
X76538095Y-14940533D01*
X77728571Y-14654819D02*
X77823809Y-14654819D01*
X77823809Y-14654819D02*
X77919047Y-14702438D01*
X77919047Y-14702438D02*
X77966666Y-14750057D01*
X77966666Y-14750057D02*
X78014285Y-14845295D01*
X78014285Y-14845295D02*
X78061904Y-15035771D01*
X78061904Y-15035771D02*
X78061904Y-15273866D01*
X78061904Y-15273866D02*
X78014285Y-15464342D01*
X78014285Y-15464342D02*
X77966666Y-15559580D01*
X77966666Y-15559580D02*
X77919047Y-15607200D01*
X77919047Y-15607200D02*
X77823809Y-15654819D01*
X77823809Y-15654819D02*
X77728571Y-15654819D01*
X77728571Y-15654819D02*
X77633333Y-15607200D01*
X77633333Y-15607200D02*
X77585714Y-15559580D01*
X77585714Y-15559580D02*
X77538095Y-15464342D01*
X77538095Y-15464342D02*
X77490476Y-15273866D01*
X77490476Y-15273866D02*
X77490476Y-15035771D01*
X77490476Y-15035771D02*
X77538095Y-14845295D01*
X77538095Y-14845295D02*
X77585714Y-14750057D01*
X77585714Y-14750057D02*
X77633333Y-14702438D01*
X77633333Y-14702438D02*
X77728571Y-14654819D01*
X46161905Y-49154819D02*
X46161905Y-48154819D01*
X46161905Y-48154819D02*
X46400000Y-48154819D01*
X46400000Y-48154819D02*
X46542857Y-48202438D01*
X46542857Y-48202438D02*
X46638095Y-48297676D01*
X46638095Y-48297676D02*
X46685714Y-48392914D01*
X46685714Y-48392914D02*
X46733333Y-48583390D01*
X46733333Y-48583390D02*
X46733333Y-48726247D01*
X46733333Y-48726247D02*
X46685714Y-48916723D01*
X46685714Y-48916723D02*
X46638095Y-49011961D01*
X46638095Y-49011961D02*
X46542857Y-49107200D01*
X46542857Y-49107200D02*
X46400000Y-49154819D01*
X46400000Y-49154819D02*
X46161905Y-49154819D01*
X47066667Y-48154819D02*
X47685714Y-48154819D01*
X47685714Y-48154819D02*
X47352381Y-48535771D01*
X47352381Y-48535771D02*
X47495238Y-48535771D01*
X47495238Y-48535771D02*
X47590476Y-48583390D01*
X47590476Y-48583390D02*
X47638095Y-48631009D01*
X47638095Y-48631009D02*
X47685714Y-48726247D01*
X47685714Y-48726247D02*
X47685714Y-48964342D01*
X47685714Y-48964342D02*
X47638095Y-49059580D01*
X47638095Y-49059580D02*
X47590476Y-49107200D01*
X47590476Y-49107200D02*
X47495238Y-49154819D01*
X47495238Y-49154819D02*
X47209524Y-49154819D01*
X47209524Y-49154819D02*
X47114286Y-49107200D01*
X47114286Y-49107200D02*
X47066667Y-49059580D01*
X59818095Y-50554819D02*
X59818095Y-49554819D01*
X60389523Y-50554819D02*
X59960952Y-49983390D01*
X60389523Y-49554819D02*
X59818095Y-50126247D01*
X7133333Y-13259580D02*
X7085714Y-13307200D01*
X7085714Y-13307200D02*
X6942857Y-13354819D01*
X6942857Y-13354819D02*
X6847619Y-13354819D01*
X6847619Y-13354819D02*
X6704762Y-13307200D01*
X6704762Y-13307200D02*
X6609524Y-13211961D01*
X6609524Y-13211961D02*
X6561905Y-13116723D01*
X6561905Y-13116723D02*
X6514286Y-12926247D01*
X6514286Y-12926247D02*
X6514286Y-12783390D01*
X6514286Y-12783390D02*
X6561905Y-12592914D01*
X6561905Y-12592914D02*
X6609524Y-12497676D01*
X6609524Y-12497676D02*
X6704762Y-12402438D01*
X6704762Y-12402438D02*
X6847619Y-12354819D01*
X6847619Y-12354819D02*
X6942857Y-12354819D01*
X6942857Y-12354819D02*
X7085714Y-12402438D01*
X7085714Y-12402438D02*
X7133333Y-12450057D01*
X8085714Y-13354819D02*
X7514286Y-13354819D01*
X7800000Y-13354819D02*
X7800000Y-12354819D01*
X7800000Y-12354819D02*
X7704762Y-12497676D01*
X7704762Y-12497676D02*
X7609524Y-12592914D01*
X7609524Y-12592914D02*
X7514286Y-12640533D01*
X70004761Y-32150057D02*
X69909523Y-32102438D01*
X69909523Y-32102438D02*
X69814285Y-32007200D01*
X69814285Y-32007200D02*
X69671428Y-31864342D01*
X69671428Y-31864342D02*
X69576190Y-31816723D01*
X69576190Y-31816723D02*
X69480952Y-31816723D01*
X69528571Y-32054819D02*
X69433333Y-32007200D01*
X69433333Y-32007200D02*
X69338095Y-31911961D01*
X69338095Y-31911961D02*
X69290476Y-31721485D01*
X69290476Y-31721485D02*
X69290476Y-31388152D01*
X69290476Y-31388152D02*
X69338095Y-31197676D01*
X69338095Y-31197676D02*
X69433333Y-31102438D01*
X69433333Y-31102438D02*
X69528571Y-31054819D01*
X69528571Y-31054819D02*
X69719047Y-31054819D01*
X69719047Y-31054819D02*
X69814285Y-31102438D01*
X69814285Y-31102438D02*
X69909523Y-31197676D01*
X69909523Y-31197676D02*
X69957142Y-31388152D01*
X69957142Y-31388152D02*
X69957142Y-31721485D01*
X69957142Y-31721485D02*
X69909523Y-31911961D01*
X69909523Y-31911961D02*
X69814285Y-32007200D01*
X69814285Y-32007200D02*
X69719047Y-32054819D01*
X69719047Y-32054819D02*
X69528571Y-32054819D01*
X70338095Y-31150057D02*
X70385714Y-31102438D01*
X70385714Y-31102438D02*
X70480952Y-31054819D01*
X70480952Y-31054819D02*
X70719047Y-31054819D01*
X70719047Y-31054819D02*
X70814285Y-31102438D01*
X70814285Y-31102438D02*
X70861904Y-31150057D01*
X70861904Y-31150057D02*
X70909523Y-31245295D01*
X70909523Y-31245295D02*
X70909523Y-31340533D01*
X70909523Y-31340533D02*
X70861904Y-31483390D01*
X70861904Y-31483390D02*
X70290476Y-32054819D01*
X70290476Y-32054819D02*
X70909523Y-32054819D01*
X41454819Y-23338094D02*
X40454819Y-23338094D01*
X40454819Y-23338094D02*
X40454819Y-23099999D01*
X40454819Y-23099999D02*
X40502438Y-22957142D01*
X40502438Y-22957142D02*
X40597676Y-22861904D01*
X40597676Y-22861904D02*
X40692914Y-22814285D01*
X40692914Y-22814285D02*
X40883390Y-22766666D01*
X40883390Y-22766666D02*
X41026247Y-22766666D01*
X41026247Y-22766666D02*
X41216723Y-22814285D01*
X41216723Y-22814285D02*
X41311961Y-22861904D01*
X41311961Y-22861904D02*
X41407200Y-22957142D01*
X41407200Y-22957142D02*
X41454819Y-23099999D01*
X41454819Y-23099999D02*
X41454819Y-23338094D01*
X40550057Y-22385713D02*
X40502438Y-22338094D01*
X40502438Y-22338094D02*
X40454819Y-22242856D01*
X40454819Y-22242856D02*
X40454819Y-22004761D01*
X40454819Y-22004761D02*
X40502438Y-21909523D01*
X40502438Y-21909523D02*
X40550057Y-21861904D01*
X40550057Y-21861904D02*
X40645295Y-21814285D01*
X40645295Y-21814285D02*
X40740533Y-21814285D01*
X40740533Y-21814285D02*
X40883390Y-21861904D01*
X40883390Y-21861904D02*
X41454819Y-22433332D01*
X41454819Y-22433332D02*
X41454819Y-21814285D01*
X43529819Y-25376904D02*
X42529819Y-25376904D01*
X43529819Y-24805476D02*
X42958390Y-25234047D01*
X42529819Y-24805476D02*
X43101247Y-25376904D01*
X11933333Y-3159580D02*
X11885714Y-3207200D01*
X11885714Y-3207200D02*
X11742857Y-3254819D01*
X11742857Y-3254819D02*
X11647619Y-3254819D01*
X11647619Y-3254819D02*
X11504762Y-3207200D01*
X11504762Y-3207200D02*
X11409524Y-3111961D01*
X11409524Y-3111961D02*
X11361905Y-3016723D01*
X11361905Y-3016723D02*
X11314286Y-2826247D01*
X11314286Y-2826247D02*
X11314286Y-2683390D01*
X11314286Y-2683390D02*
X11361905Y-2492914D01*
X11361905Y-2492914D02*
X11409524Y-2397676D01*
X11409524Y-2397676D02*
X11504762Y-2302438D01*
X11504762Y-2302438D02*
X11647619Y-2254819D01*
X11647619Y-2254819D02*
X11742857Y-2254819D01*
X11742857Y-2254819D02*
X11885714Y-2302438D01*
X11885714Y-2302438D02*
X11933333Y-2350057D01*
X12266667Y-2254819D02*
X12885714Y-2254819D01*
X12885714Y-2254819D02*
X12552381Y-2635771D01*
X12552381Y-2635771D02*
X12695238Y-2635771D01*
X12695238Y-2635771D02*
X12790476Y-2683390D01*
X12790476Y-2683390D02*
X12838095Y-2731009D01*
X12838095Y-2731009D02*
X12885714Y-2826247D01*
X12885714Y-2826247D02*
X12885714Y-3064342D01*
X12885714Y-3064342D02*
X12838095Y-3159580D01*
X12838095Y-3159580D02*
X12790476Y-3207200D01*
X12790476Y-3207200D02*
X12695238Y-3254819D01*
X12695238Y-3254819D02*
X12409524Y-3254819D01*
X12409524Y-3254819D02*
X12314286Y-3207200D01*
X12314286Y-3207200D02*
X12266667Y-3159580D01*
X47333333Y-10954819D02*
X47000000Y-10478628D01*
X46761905Y-10954819D02*
X46761905Y-9954819D01*
X46761905Y-9954819D02*
X47142857Y-9954819D01*
X47142857Y-9954819D02*
X47238095Y-10002438D01*
X47238095Y-10002438D02*
X47285714Y-10050057D01*
X47285714Y-10050057D02*
X47333333Y-10145295D01*
X47333333Y-10145295D02*
X47333333Y-10288152D01*
X47333333Y-10288152D02*
X47285714Y-10383390D01*
X47285714Y-10383390D02*
X47238095Y-10431009D01*
X47238095Y-10431009D02*
X47142857Y-10478628D01*
X47142857Y-10478628D02*
X46761905Y-10478628D01*
X47809524Y-10954819D02*
X48000000Y-10954819D01*
X48000000Y-10954819D02*
X48095238Y-10907200D01*
X48095238Y-10907200D02*
X48142857Y-10859580D01*
X48142857Y-10859580D02*
X48238095Y-10716723D01*
X48238095Y-10716723D02*
X48285714Y-10526247D01*
X48285714Y-10526247D02*
X48285714Y-10145295D01*
X48285714Y-10145295D02*
X48238095Y-10050057D01*
X48238095Y-10050057D02*
X48190476Y-10002438D01*
X48190476Y-10002438D02*
X48095238Y-9954819D01*
X48095238Y-9954819D02*
X47904762Y-9954819D01*
X47904762Y-9954819D02*
X47809524Y-10002438D01*
X47809524Y-10002438D02*
X47761905Y-10050057D01*
X47761905Y-10050057D02*
X47714286Y-10145295D01*
X47714286Y-10145295D02*
X47714286Y-10383390D01*
X47714286Y-10383390D02*
X47761905Y-10478628D01*
X47761905Y-10478628D02*
X47809524Y-10526247D01*
X47809524Y-10526247D02*
X47904762Y-10573866D01*
X47904762Y-10573866D02*
X48095238Y-10573866D01*
X48095238Y-10573866D02*
X48190476Y-10526247D01*
X48190476Y-10526247D02*
X48238095Y-10478628D01*
X48238095Y-10478628D02*
X48285714Y-10383390D01*
X1666666Y-20454819D02*
X1666666Y-21169104D01*
X1666666Y-21169104D02*
X1619047Y-21311961D01*
X1619047Y-21311961D02*
X1523809Y-21407200D01*
X1523809Y-21407200D02*
X1380952Y-21454819D01*
X1380952Y-21454819D02*
X1285714Y-21454819D01*
X2666666Y-21454819D02*
X2095238Y-21454819D01*
X2380952Y-21454819D02*
X2380952Y-20454819D01*
X2380952Y-20454819D02*
X2285714Y-20597676D01*
X2285714Y-20597676D02*
X2190476Y-20692914D01*
X2190476Y-20692914D02*
X2095238Y-20740533D01*
X69574761Y-22640057D02*
X69479523Y-22592438D01*
X69479523Y-22592438D02*
X69384285Y-22497200D01*
X69384285Y-22497200D02*
X69241428Y-22354342D01*
X69241428Y-22354342D02*
X69146190Y-22306723D01*
X69146190Y-22306723D02*
X69050952Y-22306723D01*
X69098571Y-22544819D02*
X69003333Y-22497200D01*
X69003333Y-22497200D02*
X68908095Y-22401961D01*
X68908095Y-22401961D02*
X68860476Y-22211485D01*
X68860476Y-22211485D02*
X68860476Y-21878152D01*
X68860476Y-21878152D02*
X68908095Y-21687676D01*
X68908095Y-21687676D02*
X69003333Y-21592438D01*
X69003333Y-21592438D02*
X69098571Y-21544819D01*
X69098571Y-21544819D02*
X69289047Y-21544819D01*
X69289047Y-21544819D02*
X69384285Y-21592438D01*
X69384285Y-21592438D02*
X69479523Y-21687676D01*
X69479523Y-21687676D02*
X69527142Y-21878152D01*
X69527142Y-21878152D02*
X69527142Y-22211485D01*
X69527142Y-22211485D02*
X69479523Y-22401961D01*
X69479523Y-22401961D02*
X69384285Y-22497200D01*
X69384285Y-22497200D02*
X69289047Y-22544819D01*
X69289047Y-22544819D02*
X69098571Y-22544819D01*
X70384285Y-21878152D02*
X70384285Y-22544819D01*
X70146190Y-21497200D02*
X69908095Y-22211485D01*
X69908095Y-22211485D02*
X70527142Y-22211485D01*
X46657142Y-15754819D02*
X46323809Y-15278628D01*
X46085714Y-15754819D02*
X46085714Y-14754819D01*
X46085714Y-14754819D02*
X46466666Y-14754819D01*
X46466666Y-14754819D02*
X46561904Y-14802438D01*
X46561904Y-14802438D02*
X46609523Y-14850057D01*
X46609523Y-14850057D02*
X46657142Y-14945295D01*
X46657142Y-14945295D02*
X46657142Y-15088152D01*
X46657142Y-15088152D02*
X46609523Y-15183390D01*
X46609523Y-15183390D02*
X46561904Y-15231009D01*
X46561904Y-15231009D02*
X46466666Y-15278628D01*
X46466666Y-15278628D02*
X46085714Y-15278628D01*
X47609523Y-15754819D02*
X47038095Y-15754819D01*
X47323809Y-15754819D02*
X47323809Y-14754819D01*
X47323809Y-14754819D02*
X47228571Y-14897676D01*
X47228571Y-14897676D02*
X47133333Y-14992914D01*
X47133333Y-14992914D02*
X47038095Y-15040533D01*
X48561904Y-15754819D02*
X47990476Y-15754819D01*
X48276190Y-15754819D02*
X48276190Y-14754819D01*
X48276190Y-14754819D02*
X48180952Y-14897676D01*
X48180952Y-14897676D02*
X48085714Y-14992914D01*
X48085714Y-14992914D02*
X47990476Y-15040533D01*
X46761905Y-6654819D02*
X46761905Y-5654819D01*
X46761905Y-5654819D02*
X47000000Y-5654819D01*
X47000000Y-5654819D02*
X47142857Y-5702438D01*
X47142857Y-5702438D02*
X47238095Y-5797676D01*
X47238095Y-5797676D02*
X47285714Y-5892914D01*
X47285714Y-5892914D02*
X47333333Y-6083390D01*
X47333333Y-6083390D02*
X47333333Y-6226247D01*
X47333333Y-6226247D02*
X47285714Y-6416723D01*
X47285714Y-6416723D02*
X47238095Y-6511961D01*
X47238095Y-6511961D02*
X47142857Y-6607200D01*
X47142857Y-6607200D02*
X47000000Y-6654819D01*
X47000000Y-6654819D02*
X46761905Y-6654819D01*
X48238095Y-5654819D02*
X47761905Y-5654819D01*
X47761905Y-5654819D02*
X47714286Y-6131009D01*
X47714286Y-6131009D02*
X47761905Y-6083390D01*
X47761905Y-6083390D02*
X47857143Y-6035771D01*
X47857143Y-6035771D02*
X48095238Y-6035771D01*
X48095238Y-6035771D02*
X48190476Y-6083390D01*
X48190476Y-6083390D02*
X48238095Y-6131009D01*
X48238095Y-6131009D02*
X48285714Y-6226247D01*
X48285714Y-6226247D02*
X48285714Y-6464342D01*
X48285714Y-6464342D02*
X48238095Y-6559580D01*
X48238095Y-6559580D02*
X48190476Y-6607200D01*
X48190476Y-6607200D02*
X48095238Y-6654819D01*
X48095238Y-6654819D02*
X47857143Y-6654819D01*
X47857143Y-6654819D02*
X47761905Y-6607200D01*
X47761905Y-6607200D02*
X47714286Y-6559580D01*
X59898095Y-8394819D02*
X59898095Y-7394819D01*
X60469523Y-8394819D02*
X60040952Y-7823390D01*
X60469523Y-7394819D02*
X59898095Y-7966247D01*
X58704761Y-32150057D02*
X58609523Y-32102438D01*
X58609523Y-32102438D02*
X58514285Y-32007200D01*
X58514285Y-32007200D02*
X58371428Y-31864342D01*
X58371428Y-31864342D02*
X58276190Y-31816723D01*
X58276190Y-31816723D02*
X58180952Y-31816723D01*
X58228571Y-32054819D02*
X58133333Y-32007200D01*
X58133333Y-32007200D02*
X58038095Y-31911961D01*
X58038095Y-31911961D02*
X57990476Y-31721485D01*
X57990476Y-31721485D02*
X57990476Y-31388152D01*
X57990476Y-31388152D02*
X58038095Y-31197676D01*
X58038095Y-31197676D02*
X58133333Y-31102438D01*
X58133333Y-31102438D02*
X58228571Y-31054819D01*
X58228571Y-31054819D02*
X58419047Y-31054819D01*
X58419047Y-31054819D02*
X58514285Y-31102438D01*
X58514285Y-31102438D02*
X58609523Y-31197676D01*
X58609523Y-31197676D02*
X58657142Y-31388152D01*
X58657142Y-31388152D02*
X58657142Y-31721485D01*
X58657142Y-31721485D02*
X58609523Y-31911961D01*
X58609523Y-31911961D02*
X58514285Y-32007200D01*
X58514285Y-32007200D02*
X58419047Y-32054819D01*
X58419047Y-32054819D02*
X58228571Y-32054819D01*
X59609523Y-32054819D02*
X59038095Y-32054819D01*
X59323809Y-32054819D02*
X59323809Y-31054819D01*
X59323809Y-31054819D02*
X59228571Y-31197676D01*
X59228571Y-31197676D02*
X59133333Y-31292914D01*
X59133333Y-31292914D02*
X59038095Y-31340533D01*
X75761905Y-10654819D02*
X75761905Y-9654819D01*
X75761905Y-9654819D02*
X76000000Y-9654819D01*
X76000000Y-9654819D02*
X76142857Y-9702438D01*
X76142857Y-9702438D02*
X76238095Y-9797676D01*
X76238095Y-9797676D02*
X76285714Y-9892914D01*
X76285714Y-9892914D02*
X76333333Y-10083390D01*
X76333333Y-10083390D02*
X76333333Y-10226247D01*
X76333333Y-10226247D02*
X76285714Y-10416723D01*
X76285714Y-10416723D02*
X76238095Y-10511961D01*
X76238095Y-10511961D02*
X76142857Y-10607200D01*
X76142857Y-10607200D02*
X76000000Y-10654819D01*
X76000000Y-10654819D02*
X75761905Y-10654819D01*
X77190476Y-9654819D02*
X77000000Y-9654819D01*
X77000000Y-9654819D02*
X76904762Y-9702438D01*
X76904762Y-9702438D02*
X76857143Y-9750057D01*
X76857143Y-9750057D02*
X76761905Y-9892914D01*
X76761905Y-9892914D02*
X76714286Y-10083390D01*
X76714286Y-10083390D02*
X76714286Y-10464342D01*
X76714286Y-10464342D02*
X76761905Y-10559580D01*
X76761905Y-10559580D02*
X76809524Y-10607200D01*
X76809524Y-10607200D02*
X76904762Y-10654819D01*
X76904762Y-10654819D02*
X77095238Y-10654819D01*
X77095238Y-10654819D02*
X77190476Y-10607200D01*
X77190476Y-10607200D02*
X77238095Y-10559580D01*
X77238095Y-10559580D02*
X77285714Y-10464342D01*
X77285714Y-10464342D02*
X77285714Y-10226247D01*
X77285714Y-10226247D02*
X77238095Y-10131009D01*
X77238095Y-10131009D02*
X77190476Y-10083390D01*
X77190476Y-10083390D02*
X77095238Y-10035771D01*
X77095238Y-10035771D02*
X76904762Y-10035771D01*
X76904762Y-10035771D02*
X76809524Y-10083390D01*
X76809524Y-10083390D02*
X76761905Y-10131009D01*
X76761905Y-10131009D02*
X76714286Y-10226247D01*
X73738095Y-12554819D02*
X73738095Y-11554819D01*
X74309523Y-12554819D02*
X73880952Y-11983390D01*
X74309523Y-11554819D02*
X73738095Y-12126247D01*
X15833333Y-22639580D02*
X15785714Y-22687200D01*
X15785714Y-22687200D02*
X15642857Y-22734819D01*
X15642857Y-22734819D02*
X15547619Y-22734819D01*
X15547619Y-22734819D02*
X15404762Y-22687200D01*
X15404762Y-22687200D02*
X15309524Y-22591961D01*
X15309524Y-22591961D02*
X15261905Y-22496723D01*
X15261905Y-22496723D02*
X15214286Y-22306247D01*
X15214286Y-22306247D02*
X15214286Y-22163390D01*
X15214286Y-22163390D02*
X15261905Y-21972914D01*
X15261905Y-21972914D02*
X15309524Y-21877676D01*
X15309524Y-21877676D02*
X15404762Y-21782438D01*
X15404762Y-21782438D02*
X15547619Y-21734819D01*
X15547619Y-21734819D02*
X15642857Y-21734819D01*
X15642857Y-21734819D02*
X15785714Y-21782438D01*
X15785714Y-21782438D02*
X15833333Y-21830057D01*
X16214286Y-21830057D02*
X16261905Y-21782438D01*
X16261905Y-21782438D02*
X16357143Y-21734819D01*
X16357143Y-21734819D02*
X16595238Y-21734819D01*
X16595238Y-21734819D02*
X16690476Y-21782438D01*
X16690476Y-21782438D02*
X16738095Y-21830057D01*
X16738095Y-21830057D02*
X16785714Y-21925295D01*
X16785714Y-21925295D02*
X16785714Y-22020533D01*
X16785714Y-22020533D02*
X16738095Y-22163390D01*
X16738095Y-22163390D02*
X16166667Y-22734819D01*
X16166667Y-22734819D02*
X16785714Y-22734819D01*
X41454819Y-5738094D02*
X40454819Y-5738094D01*
X40454819Y-5738094D02*
X40454819Y-5499999D01*
X40454819Y-5499999D02*
X40502438Y-5357142D01*
X40502438Y-5357142D02*
X40597676Y-5261904D01*
X40597676Y-5261904D02*
X40692914Y-5214285D01*
X40692914Y-5214285D02*
X40883390Y-5166666D01*
X40883390Y-5166666D02*
X41026247Y-5166666D01*
X41026247Y-5166666D02*
X41216723Y-5214285D01*
X41216723Y-5214285D02*
X41311961Y-5261904D01*
X41311961Y-5261904D02*
X41407200Y-5357142D01*
X41407200Y-5357142D02*
X41454819Y-5499999D01*
X41454819Y-5499999D02*
X41454819Y-5738094D01*
X41454819Y-4214285D02*
X41454819Y-4785713D01*
X41454819Y-4499999D02*
X40454819Y-4499999D01*
X40454819Y-4499999D02*
X40597676Y-4595237D01*
X40597676Y-4595237D02*
X40692914Y-4690475D01*
X40692914Y-4690475D02*
X40740533Y-4785713D01*
X38954819Y-7591904D02*
X37954819Y-7591904D01*
X38954819Y-7020476D02*
X38383390Y-7449047D01*
X37954819Y-7020476D02*
X38526247Y-7591904D01*
X58654761Y-22640057D02*
X58559523Y-22592438D01*
X58559523Y-22592438D02*
X58464285Y-22497200D01*
X58464285Y-22497200D02*
X58321428Y-22354342D01*
X58321428Y-22354342D02*
X58226190Y-22306723D01*
X58226190Y-22306723D02*
X58130952Y-22306723D01*
X58178571Y-22544819D02*
X58083333Y-22497200D01*
X58083333Y-22497200D02*
X57988095Y-22401961D01*
X57988095Y-22401961D02*
X57940476Y-22211485D01*
X57940476Y-22211485D02*
X57940476Y-21878152D01*
X57940476Y-21878152D02*
X57988095Y-21687676D01*
X57988095Y-21687676D02*
X58083333Y-21592438D01*
X58083333Y-21592438D02*
X58178571Y-21544819D01*
X58178571Y-21544819D02*
X58369047Y-21544819D01*
X58369047Y-21544819D02*
X58464285Y-21592438D01*
X58464285Y-21592438D02*
X58559523Y-21687676D01*
X58559523Y-21687676D02*
X58607142Y-21878152D01*
X58607142Y-21878152D02*
X58607142Y-22211485D01*
X58607142Y-22211485D02*
X58559523Y-22401961D01*
X58559523Y-22401961D02*
X58464285Y-22497200D01*
X58464285Y-22497200D02*
X58369047Y-22544819D01*
X58369047Y-22544819D02*
X58178571Y-22544819D01*
X58940476Y-21544819D02*
X59559523Y-21544819D01*
X59559523Y-21544819D02*
X59226190Y-21925771D01*
X59226190Y-21925771D02*
X59369047Y-21925771D01*
X59369047Y-21925771D02*
X59464285Y-21973390D01*
X59464285Y-21973390D02*
X59511904Y-22021009D01*
X59511904Y-22021009D02*
X59559523Y-22116247D01*
X59559523Y-22116247D02*
X59559523Y-22354342D01*
X59559523Y-22354342D02*
X59511904Y-22449580D01*
X59511904Y-22449580D02*
X59464285Y-22497200D01*
X59464285Y-22497200D02*
X59369047Y-22544819D01*
X59369047Y-22544819D02*
X59083333Y-22544819D01*
X59083333Y-22544819D02*
X58988095Y-22497200D01*
X58988095Y-22497200D02*
X58940476Y-22449580D01*
X47233333Y-40454819D02*
X46900000Y-39978628D01*
X46661905Y-40454819D02*
X46661905Y-39454819D01*
X46661905Y-39454819D02*
X47042857Y-39454819D01*
X47042857Y-39454819D02*
X47138095Y-39502438D01*
X47138095Y-39502438D02*
X47185714Y-39550057D01*
X47185714Y-39550057D02*
X47233333Y-39645295D01*
X47233333Y-39645295D02*
X47233333Y-39788152D01*
X47233333Y-39788152D02*
X47185714Y-39883390D01*
X47185714Y-39883390D02*
X47138095Y-39931009D01*
X47138095Y-39931009D02*
X47042857Y-39978628D01*
X47042857Y-39978628D02*
X46661905Y-39978628D01*
X47566667Y-39454819D02*
X48233333Y-39454819D01*
X48233333Y-39454819D02*
X47804762Y-40454819D01*
D13*
%TO.C,C5*%
X38270000Y-27750000D02*
G75*
G02*
X31730000Y-27750000I-3270000J0D01*
G01*
X31730000Y-27750000D02*
G75*
G02*
X38270000Y-27750000I3270000J0D01*
G01*
X35402000Y-30990000D02*
X34598000Y-30990000D01*
X35633000Y-30950000D02*
X34367000Y-30950000D01*
X35801000Y-30910000D02*
X34199000Y-30910000D01*
X35939000Y-30870000D02*
X34061000Y-30870000D01*
X36058000Y-30830000D02*
X33942000Y-30830000D01*
X36165000Y-30790000D02*
X33835000Y-30790000D01*
X36261000Y-30750000D02*
X33739000Y-30750000D01*
X36350000Y-30710000D02*
X33650000Y-30710000D01*
X36432000Y-30670000D02*
X33568000Y-30670000D01*
X36509000Y-30630000D02*
X33491000Y-30630000D01*
X36581000Y-30590000D02*
X33419000Y-30590000D01*
X36649000Y-30550000D02*
X33351000Y-30550000D01*
X36714000Y-30510000D02*
X33286000Y-30510000D01*
X36775000Y-30470000D02*
X33225000Y-30470000D01*
X36834000Y-30430000D02*
X33166000Y-30430000D01*
X36890000Y-30390000D02*
X33110000Y-30390000D01*
X36943000Y-30350000D02*
X33057000Y-30350000D01*
X36995000Y-30310000D02*
X33005000Y-30310000D01*
X37044000Y-30270000D02*
X32956000Y-30270000D01*
X37091000Y-30230000D02*
X32909000Y-30230000D01*
X37137000Y-30190000D02*
X32863000Y-30190000D01*
X37181000Y-30150000D02*
X32819000Y-30150000D01*
X37223000Y-30110000D02*
X32777000Y-30110000D01*
X37264000Y-30070000D02*
X32736000Y-30070000D01*
X33960000Y-30030000D02*
X32696000Y-30030000D01*
X37304000Y-30030000D02*
X36040000Y-30030000D01*
X33960000Y-29990000D02*
X32658000Y-29990000D01*
X37342000Y-29990000D02*
X36040000Y-29990000D01*
X33960000Y-29950000D02*
X32621000Y-29950000D01*
X37379000Y-29950000D02*
X36040000Y-29950000D01*
X33960000Y-29910000D02*
X32585000Y-29910000D01*
X37415000Y-29910000D02*
X36040000Y-29910000D01*
X33960000Y-29870000D02*
X32550000Y-29870000D01*
X37450000Y-29870000D02*
X36040000Y-29870000D01*
X33960000Y-29830000D02*
X32517000Y-29830000D01*
X37483000Y-29830000D02*
X36040000Y-29830000D01*
X33960000Y-29790000D02*
X32484000Y-29790000D01*
X37516000Y-29790000D02*
X36040000Y-29790000D01*
X33960000Y-29750000D02*
X32453000Y-29750000D01*
X37547000Y-29750000D02*
X36040000Y-29750000D01*
X33960000Y-29710000D02*
X32423000Y-29710000D01*
X37577000Y-29710000D02*
X36040000Y-29710000D01*
X33960000Y-29670000D02*
X32393000Y-29670000D01*
X37607000Y-29670000D02*
X36040000Y-29670000D01*
X33960000Y-29630000D02*
X32364000Y-29630000D01*
X37636000Y-29630000D02*
X36040000Y-29630000D01*
X33960000Y-29590000D02*
X32337000Y-29590000D01*
X37663000Y-29590000D02*
X36040000Y-29590000D01*
X33960000Y-29550000D02*
X32310000Y-29550000D01*
X37690000Y-29550000D02*
X36040000Y-29550000D01*
X33960000Y-29510000D02*
X32284000Y-29510000D01*
X37716000Y-29510000D02*
X36040000Y-29510000D01*
X33960000Y-29470000D02*
X32259000Y-29470000D01*
X37741000Y-29470000D02*
X36040000Y-29470000D01*
X33960000Y-29430000D02*
X32235000Y-29430000D01*
X37765000Y-29430000D02*
X36040000Y-29430000D01*
X33960000Y-29390000D02*
X32211000Y-29390000D01*
X37789000Y-29390000D02*
X36040000Y-29390000D01*
X33960000Y-29350000D02*
X32188000Y-29350000D01*
X37812000Y-29350000D02*
X36040000Y-29350000D01*
X33960000Y-29310000D02*
X32166000Y-29310000D01*
X37834000Y-29310000D02*
X36040000Y-29310000D01*
X33960000Y-29270000D02*
X32145000Y-29270000D01*
X37855000Y-29270000D02*
X36040000Y-29270000D01*
X33960000Y-29230000D02*
X32124000Y-29230000D01*
X37876000Y-29230000D02*
X36040000Y-29230000D01*
X33960000Y-29190000D02*
X32104000Y-29190000D01*
X37896000Y-29190000D02*
X36040000Y-29190000D01*
X33960000Y-29150000D02*
X32085000Y-29150000D01*
X37915000Y-29150000D02*
X36040000Y-29150000D01*
X33960000Y-29110000D02*
X32066000Y-29110000D01*
X37934000Y-29110000D02*
X36040000Y-29110000D01*
X33960000Y-29070000D02*
X32048000Y-29070000D01*
X37952000Y-29070000D02*
X36040000Y-29070000D01*
X33960000Y-29030000D02*
X32031000Y-29030000D01*
X37969000Y-29030000D02*
X36040000Y-29030000D01*
X33960000Y-28990000D02*
X32014000Y-28990000D01*
X37986000Y-28990000D02*
X36040000Y-28990000D01*
X33960000Y-28950000D02*
X31998000Y-28950000D01*
X38002000Y-28950000D02*
X36040000Y-28950000D01*
X33960000Y-28910000D02*
X31983000Y-28910000D01*
X38017000Y-28910000D02*
X36040000Y-28910000D01*
X33960000Y-28870000D02*
X31968000Y-28870000D01*
X38032000Y-28870000D02*
X36040000Y-28870000D01*
X33960000Y-28830000D02*
X31953000Y-28830000D01*
X38047000Y-28830000D02*
X36040000Y-28830000D01*
X33960000Y-28790000D02*
X31940000Y-28790000D01*
X38060000Y-28790000D02*
X36040000Y-28790000D01*
X33960000Y-28750000D02*
X31927000Y-28750000D01*
X38073000Y-28750000D02*
X36040000Y-28750000D01*
X33960000Y-28710000D02*
X31914000Y-28710000D01*
X38086000Y-28710000D02*
X36040000Y-28710000D01*
X33960000Y-28670000D02*
X31902000Y-28670000D01*
X38098000Y-28670000D02*
X36040000Y-28670000D01*
X33960000Y-28630000D02*
X31891000Y-28630000D01*
X38109000Y-28630000D02*
X36040000Y-28630000D01*
X33960000Y-28590000D02*
X31880000Y-28590000D01*
X38120000Y-28590000D02*
X36040000Y-28590000D01*
X33960000Y-28550000D02*
X31869000Y-28550000D01*
X38131000Y-28550000D02*
X36040000Y-28550000D01*
X33960000Y-28510000D02*
X31860000Y-28510000D01*
X38140000Y-28510000D02*
X36040000Y-28510000D01*
X33960000Y-28470000D02*
X31850000Y-28470000D01*
X38150000Y-28470000D02*
X36040000Y-28470000D01*
X33960000Y-28430000D02*
X31841000Y-28430000D01*
X38159000Y-28430000D02*
X36040000Y-28430000D01*
X33960000Y-28390000D02*
X31833000Y-28390000D01*
X38167000Y-28390000D02*
X36040000Y-28390000D01*
X33960000Y-28350000D02*
X31826000Y-28350000D01*
X38174000Y-28350000D02*
X36040000Y-28350000D01*
X33960000Y-28310000D02*
X31818000Y-28310000D01*
X38182000Y-28310000D02*
X36040000Y-28310000D01*
X33960000Y-28270000D02*
X31812000Y-28270000D01*
X38188000Y-28270000D02*
X36040000Y-28270000D01*
X33960000Y-28230000D02*
X31805000Y-28230000D01*
X38195000Y-28230000D02*
X36040000Y-28230000D01*
X33960000Y-28190000D02*
X31800000Y-28190000D01*
X38200000Y-28190000D02*
X36040000Y-28190000D01*
X33960000Y-28150000D02*
X31795000Y-28150000D01*
X38205000Y-28150000D02*
X36040000Y-28150000D01*
X33960000Y-28110000D02*
X31790000Y-28110000D01*
X38210000Y-28110000D02*
X36040000Y-28110000D01*
X33960000Y-28070000D02*
X31786000Y-28070000D01*
X38214000Y-28070000D02*
X36040000Y-28070000D01*
X33960000Y-28030000D02*
X31782000Y-28030000D01*
X38218000Y-28030000D02*
X36040000Y-28030000D01*
X33960000Y-27990000D02*
X31779000Y-27990000D01*
X38221000Y-27990000D02*
X36040000Y-27990000D01*
X38224000Y-27950000D02*
X31776000Y-27950000D01*
X38226000Y-27910000D02*
X31774000Y-27910000D01*
X38228000Y-27870000D02*
X31772000Y-27870000D01*
X38229000Y-27830000D02*
X31771000Y-27830000D01*
X38230000Y-27790000D02*
X31770000Y-27790000D01*
X38230000Y-27750000D02*
X31770000Y-27750000D01*
X37154000Y-24564759D02*
X36524000Y-24564759D01*
X36839000Y-24249759D02*
X36839000Y-24879759D01*
%TO.C,R1*%
X15370000Y-11730000D02*
X12630000Y-11730000D01*
X12630000Y-18270000D01*
X15370000Y-18270000D01*
X15370000Y-11730000D01*
X14000000Y-19040000D02*
X14000000Y-18270000D01*
X14000000Y-10960000D02*
X14000000Y-11730000D01*
%TO.C,R2*%
X8630000Y-18270000D02*
X11370000Y-18270000D01*
X11370000Y-11730000D01*
X8630000Y-11730000D01*
X8630000Y-18270000D01*
X10000000Y-10960000D02*
X10000000Y-11730000D01*
X10000000Y-19040000D02*
X10000000Y-18270000D01*
%TO.C,R4*%
X8630000Y-36270000D02*
X11370000Y-36270000D01*
X11370000Y-29730000D01*
X8630000Y-29730000D01*
X8630000Y-36270000D01*
X10000000Y-28960000D02*
X10000000Y-29730000D01*
X10000000Y-37040000D02*
X10000000Y-36270000D01*
%TO.C,R3*%
X15420000Y-29730000D02*
X12680000Y-29730000D01*
X12680000Y-36270000D01*
X15420000Y-36270000D01*
X15420000Y-29730000D01*
X14050000Y-37040000D02*
X14050000Y-36270000D01*
X14050000Y-28960000D02*
X14050000Y-29730000D01*
%TO.C,R12*%
X65490000Y-4790000D02*
X72030000Y-4790000D01*
X72030000Y-7530000D01*
X65490000Y-7530000D01*
X65490000Y-4790000D01*
X72800000Y-6160000D02*
X72030000Y-6160000D01*
X64720000Y-6160000D02*
X65490000Y-6160000D01*
%TO.C,C6*%
X30720000Y-7830000D02*
X30720000Y-13170000D01*
X30026000Y-7830000D02*
X30720000Y-7830000D01*
X27280000Y-7830000D02*
X27974000Y-7830000D01*
X30720000Y-13170000D02*
X30026000Y-13170000D01*
X27974000Y-13170000D02*
X27280000Y-13170000D01*
X27280000Y-13170000D02*
X27280000Y-7830000D01*
%TO.C,C4*%
X36839000Y-6749759D02*
X36839000Y-7379759D01*
X37154000Y-7064759D02*
X36524000Y-7064759D01*
X38230000Y-10250000D02*
X31770000Y-10250000D01*
X38230000Y-10290000D02*
X31770000Y-10290000D01*
X38229000Y-10330000D02*
X31771000Y-10330000D01*
X38228000Y-10370000D02*
X31772000Y-10370000D01*
X38226000Y-10410000D02*
X31774000Y-10410000D01*
X38224000Y-10450000D02*
X31776000Y-10450000D01*
X38221000Y-10490000D02*
X36040000Y-10490000D01*
X33960000Y-10490000D02*
X31779000Y-10490000D01*
X38218000Y-10530000D02*
X36040000Y-10530000D01*
X33960000Y-10530000D02*
X31782000Y-10530000D01*
X38214000Y-10570000D02*
X36040000Y-10570000D01*
X33960000Y-10570000D02*
X31786000Y-10570000D01*
X38210000Y-10610000D02*
X36040000Y-10610000D01*
X33960000Y-10610000D02*
X31790000Y-10610000D01*
X38205000Y-10650000D02*
X36040000Y-10650000D01*
X33960000Y-10650000D02*
X31795000Y-10650000D01*
X38200000Y-10690000D02*
X36040000Y-10690000D01*
X33960000Y-10690000D02*
X31800000Y-10690000D01*
X38195000Y-10730000D02*
X36040000Y-10730000D01*
X33960000Y-10730000D02*
X31805000Y-10730000D01*
X38188000Y-10770000D02*
X36040000Y-10770000D01*
X33960000Y-10770000D02*
X31812000Y-10770000D01*
X38182000Y-10810000D02*
X36040000Y-10810000D01*
X33960000Y-10810000D02*
X31818000Y-10810000D01*
X38174000Y-10850000D02*
X36040000Y-10850000D01*
X33960000Y-10850000D02*
X31826000Y-10850000D01*
X38167000Y-10890000D02*
X36040000Y-10890000D01*
X33960000Y-10890000D02*
X31833000Y-10890000D01*
X38159000Y-10930000D02*
X36040000Y-10930000D01*
X33960000Y-10930000D02*
X31841000Y-10930000D01*
X38150000Y-10970000D02*
X36040000Y-10970000D01*
X33960000Y-10970000D02*
X31850000Y-10970000D01*
X38140000Y-11010000D02*
X36040000Y-11010000D01*
X33960000Y-11010000D02*
X31860000Y-11010000D01*
X38131000Y-11050000D02*
X36040000Y-11050000D01*
X33960000Y-11050000D02*
X31869000Y-11050000D01*
X38120000Y-11090000D02*
X36040000Y-11090000D01*
X33960000Y-11090000D02*
X31880000Y-11090000D01*
X38109000Y-11130000D02*
X36040000Y-11130000D01*
X33960000Y-11130000D02*
X31891000Y-11130000D01*
X38098000Y-11170000D02*
X36040000Y-11170000D01*
X33960000Y-11170000D02*
X31902000Y-11170000D01*
X38086000Y-11210000D02*
X36040000Y-11210000D01*
X33960000Y-11210000D02*
X31914000Y-11210000D01*
X38073000Y-11250000D02*
X36040000Y-11250000D01*
X33960000Y-11250000D02*
X31927000Y-11250000D01*
X38060000Y-11290000D02*
X36040000Y-11290000D01*
X33960000Y-11290000D02*
X31940000Y-11290000D01*
X38047000Y-11330000D02*
X36040000Y-11330000D01*
X33960000Y-11330000D02*
X31953000Y-11330000D01*
X38032000Y-11370000D02*
X36040000Y-11370000D01*
X33960000Y-11370000D02*
X31968000Y-11370000D01*
X38017000Y-11410000D02*
X36040000Y-11410000D01*
X33960000Y-11410000D02*
X31983000Y-11410000D01*
X38002000Y-11450000D02*
X36040000Y-11450000D01*
X33960000Y-11450000D02*
X31998000Y-11450000D01*
X37986000Y-11490000D02*
X36040000Y-11490000D01*
X33960000Y-11490000D02*
X32014000Y-11490000D01*
X37969000Y-11530000D02*
X36040000Y-11530000D01*
X33960000Y-11530000D02*
X32031000Y-11530000D01*
X37952000Y-11570000D02*
X36040000Y-11570000D01*
X33960000Y-11570000D02*
X32048000Y-11570000D01*
X37934000Y-11610000D02*
X36040000Y-11610000D01*
X33960000Y-11610000D02*
X32066000Y-11610000D01*
X37915000Y-11650000D02*
X36040000Y-11650000D01*
X33960000Y-11650000D02*
X32085000Y-11650000D01*
X37896000Y-11690000D02*
X36040000Y-11690000D01*
X33960000Y-11690000D02*
X32104000Y-11690000D01*
X37876000Y-11730000D02*
X36040000Y-11730000D01*
X33960000Y-11730000D02*
X32124000Y-11730000D01*
X37855000Y-11770000D02*
X36040000Y-11770000D01*
X33960000Y-11770000D02*
X32145000Y-11770000D01*
X37834000Y-11810000D02*
X36040000Y-11810000D01*
X33960000Y-11810000D02*
X32166000Y-11810000D01*
X37812000Y-11850000D02*
X36040000Y-11850000D01*
X33960000Y-11850000D02*
X32188000Y-11850000D01*
X37789000Y-11890000D02*
X36040000Y-11890000D01*
X33960000Y-11890000D02*
X32211000Y-11890000D01*
X37765000Y-11930000D02*
X36040000Y-11930000D01*
X33960000Y-11930000D02*
X32235000Y-11930000D01*
X37741000Y-11970000D02*
X36040000Y-11970000D01*
X33960000Y-11970000D02*
X32259000Y-11970000D01*
X37716000Y-12010000D02*
X36040000Y-12010000D01*
X33960000Y-12010000D02*
X32284000Y-12010000D01*
X37690000Y-12050000D02*
X36040000Y-12050000D01*
X33960000Y-12050000D02*
X32310000Y-12050000D01*
X37663000Y-12090000D02*
X36040000Y-12090000D01*
X33960000Y-12090000D02*
X32337000Y-12090000D01*
X37636000Y-12130000D02*
X36040000Y-12130000D01*
X33960000Y-12130000D02*
X32364000Y-12130000D01*
X37607000Y-12170000D02*
X36040000Y-12170000D01*
X33960000Y-12170000D02*
X32393000Y-12170000D01*
X37577000Y-12210000D02*
X36040000Y-12210000D01*
X33960000Y-12210000D02*
X32423000Y-12210000D01*
X37547000Y-12250000D02*
X36040000Y-12250000D01*
X33960000Y-12250000D02*
X32453000Y-12250000D01*
X37516000Y-12290000D02*
X36040000Y-12290000D01*
X33960000Y-12290000D02*
X32484000Y-12290000D01*
X37483000Y-12330000D02*
X36040000Y-12330000D01*
X33960000Y-12330000D02*
X32517000Y-12330000D01*
X37450000Y-12370000D02*
X36040000Y-12370000D01*
X33960000Y-12370000D02*
X32550000Y-12370000D01*
X37415000Y-12410000D02*
X36040000Y-12410000D01*
X33960000Y-12410000D02*
X32585000Y-12410000D01*
X37379000Y-12450000D02*
X36040000Y-12450000D01*
X33960000Y-12450000D02*
X32621000Y-12450000D01*
X37342000Y-12490000D02*
X36040000Y-12490000D01*
X33960000Y-12490000D02*
X32658000Y-12490000D01*
X37304000Y-12530000D02*
X36040000Y-12530000D01*
X33960000Y-12530000D02*
X32696000Y-12530000D01*
X37264000Y-12570000D02*
X32736000Y-12570000D01*
X37223000Y-12610000D02*
X32777000Y-12610000D01*
X37181000Y-12650000D02*
X32819000Y-12650000D01*
X37137000Y-12690000D02*
X32863000Y-12690000D01*
X37091000Y-12730000D02*
X32909000Y-12730000D01*
X37044000Y-12770000D02*
X32956000Y-12770000D01*
X36995000Y-12810000D02*
X33005000Y-12810000D01*
X36943000Y-12850000D02*
X33057000Y-12850000D01*
X36890000Y-12890000D02*
X33110000Y-12890000D01*
X36834000Y-12930000D02*
X33166000Y-12930000D01*
X36775000Y-12970000D02*
X33225000Y-12970000D01*
X36714000Y-13010000D02*
X33286000Y-13010000D01*
X36649000Y-13050000D02*
X33351000Y-13050000D01*
X36581000Y-13090000D02*
X33419000Y-13090000D01*
X36509000Y-13130000D02*
X33491000Y-13130000D01*
X36432000Y-13170000D02*
X33568000Y-13170000D01*
X36350000Y-13210000D02*
X33650000Y-13210000D01*
X36261000Y-13250000D02*
X33739000Y-13250000D01*
X36165000Y-13290000D02*
X33835000Y-13290000D01*
X36058000Y-13330000D02*
X33942000Y-13330000D01*
X35939000Y-13370000D02*
X34061000Y-13370000D01*
X35801000Y-13410000D02*
X34199000Y-13410000D01*
X35633000Y-13450000D02*
X34367000Y-13450000D01*
X35402000Y-13490000D02*
X34598000Y-13490000D01*
X38270000Y-10250000D02*
G75*
G02*
X31730000Y-10250000I-3270000J0D01*
G01*
X31730000Y-10250000D02*
G75*
G02*
X38270000Y-10250000I3270000J0D01*
G01*
%TO.C,J3*%
X86810000Y-33110000D02*
X86810000Y-20890000D01*
X86810000Y-30500000D02*
X86810000Y-28500000D01*
X86810000Y-28500000D02*
X85310000Y-28750000D01*
X86810000Y-25500000D02*
X86810000Y-23500000D01*
X86810000Y-23500000D02*
X85310000Y-23750000D01*
X86810000Y-20890000D02*
X74590000Y-20890000D01*
X85310000Y-33110000D02*
X83510000Y-33110000D01*
X85310000Y-30250000D02*
X86810000Y-30500000D01*
X85310000Y-28750000D02*
X85310000Y-30250000D01*
X85310000Y-25250000D02*
X86810000Y-25500000D01*
X85310000Y-23750000D02*
X85310000Y-25250000D01*
X85310000Y-20890000D02*
X85310000Y-33110000D01*
X83510000Y-33110000D02*
X83510000Y-20890000D01*
X83510000Y-20890000D02*
X85310000Y-20890000D01*
X74590000Y-33110000D02*
X86810000Y-33110000D01*
X74590000Y-20890000D02*
X74590000Y-33110000D01*
X74390000Y-29500000D02*
X73790000Y-29800000D01*
X73790000Y-29800000D02*
X73790000Y-29200000D01*
X73790000Y-29200000D02*
X74390000Y-29500000D01*
%TO.C,C7*%
X30720000Y-25330000D02*
X30720000Y-30670000D01*
X30026000Y-25330000D02*
X30720000Y-25330000D01*
X27280000Y-25330000D02*
X27974000Y-25330000D01*
X30720000Y-30670000D02*
X30026000Y-30670000D01*
X27974000Y-30670000D02*
X27280000Y-30670000D01*
X27280000Y-30670000D02*
X27280000Y-25330000D01*
%TO.C,J2*%
X30940000Y-53460000D02*
X43160000Y-53460000D01*
X33550000Y-53460000D02*
X35550000Y-53460000D01*
X35550000Y-53460000D02*
X35300000Y-51960000D01*
X38550000Y-53460000D02*
X40550000Y-53460000D01*
X40550000Y-53460000D02*
X40300000Y-51960000D01*
X43160000Y-53460000D02*
X43160000Y-41240000D01*
X30940000Y-51960000D02*
X30940000Y-50160000D01*
X33800000Y-51960000D02*
X33550000Y-53460000D01*
X35300000Y-51960000D02*
X33800000Y-51960000D01*
X38800000Y-51960000D02*
X38550000Y-53460000D01*
X40300000Y-51960000D02*
X38800000Y-51960000D01*
X43160000Y-51960000D02*
X30940000Y-51960000D01*
X30940000Y-50160000D02*
X43160000Y-50160000D01*
X43160000Y-50160000D02*
X43160000Y-51960000D01*
X30940000Y-41240000D02*
X30940000Y-53460000D01*
X43160000Y-41240000D02*
X30940000Y-41240000D01*
X34550000Y-41040000D02*
X34250000Y-40440000D01*
X34250000Y-40440000D02*
X34850000Y-40440000D01*
X34850000Y-40440000D02*
X34550000Y-41040000D01*
%TO.C,R5*%
X59120000Y-44000000D02*
X58350000Y-44000000D01*
X51040000Y-44000000D02*
X51810000Y-44000000D01*
X58350000Y-45370000D02*
X51810000Y-45370000D01*
X51810000Y-42630000D01*
X58350000Y-42630000D01*
X58350000Y-45370000D01*
%TO.C,D4*%
X71820000Y-44000000D02*
X70800000Y-44000000D01*
X70020000Y-45470000D02*
X70020000Y-42530000D01*
X69900000Y-45470000D02*
X69900000Y-42530000D01*
X69780000Y-45470000D02*
X69780000Y-42530000D01*
X64340000Y-44000000D02*
X65360000Y-44000000D01*
X70800000Y-45470000D02*
X65360000Y-45470000D01*
X65360000Y-42530000D01*
X70800000Y-42530000D01*
X70800000Y-45470000D01*
%TO.C,R6*%
X72040000Y-40000000D02*
X71270000Y-40000000D01*
X63960000Y-40000000D02*
X64730000Y-40000000D01*
X71270000Y-41370000D02*
X64730000Y-41370000D01*
X64730000Y-38630000D01*
X71270000Y-38630000D01*
X71270000Y-41370000D01*
%TO.C,U2*%
X23645000Y-40950000D02*
X23645000Y-23050000D01*
X23645000Y-23050000D02*
X18345000Y-23050000D01*
X21995000Y-40950000D02*
X23645000Y-40950000D01*
X18345000Y-40950000D02*
X19995000Y-40950000D01*
X18345000Y-23050000D02*
X18345000Y-40950000D01*
X19995000Y-40950000D02*
G75*
G02*
X21995000Y-40950000I1000000J0D01*
G01*
%TO.C,U1*%
X23840000Y-22030000D02*
X23840000Y-4130000D01*
X23840000Y-4130000D02*
X18540000Y-4130000D01*
X22190000Y-22030000D02*
X23840000Y-22030000D01*
X18540000Y-22030000D02*
X20190000Y-22030000D01*
X18540000Y-4130000D02*
X18540000Y-22030000D01*
X20190000Y-22030000D02*
G75*
G02*
X22190000Y-22030000I1000000J0D01*
G01*
%TO.C,R8*%
X63960000Y-48000000D02*
X64730000Y-48000000D01*
X72040000Y-48000000D02*
X71270000Y-48000000D01*
X64730000Y-46630000D02*
X71270000Y-46630000D01*
X71270000Y-49370000D01*
X64730000Y-49370000D01*
X64730000Y-46630000D01*
%TO.C,R10*%
X72960000Y-14000000D02*
X72190000Y-14000000D01*
X64880000Y-14000000D02*
X65650000Y-14000000D01*
X72190000Y-15370000D02*
X65650000Y-15370000D01*
X65650000Y-12630000D01*
X72190000Y-12630000D01*
X72190000Y-15370000D01*
%TO.C,D3*%
X58740000Y-48000000D02*
X57720000Y-48000000D01*
X56940000Y-49470000D02*
X56940000Y-46530000D01*
X56820000Y-49470000D02*
X56820000Y-46530000D01*
X56700000Y-49470000D02*
X56700000Y-46530000D01*
X51260000Y-48000000D02*
X52280000Y-48000000D01*
X57720000Y-49470000D02*
X52280000Y-49470000D01*
X52280000Y-46530000D01*
X57720000Y-46530000D01*
X57720000Y-49470000D01*
%TO.C,C1*%
X2161000Y-19670241D02*
X2161000Y-19040241D01*
X1846000Y-19355241D02*
X2476000Y-19355241D01*
X770000Y-16170000D02*
X7230000Y-16170000D01*
X770000Y-16130000D02*
X7230000Y-16130000D01*
X771000Y-16090000D02*
X7229000Y-16090000D01*
X772000Y-16050000D02*
X7228000Y-16050000D01*
X774000Y-16010000D02*
X7226000Y-16010000D01*
X776000Y-15970000D02*
X7224000Y-15970000D01*
X779000Y-15930000D02*
X2960000Y-15930000D01*
X5040000Y-15930000D02*
X7221000Y-15930000D01*
X782000Y-15890000D02*
X2960000Y-15890000D01*
X5040000Y-15890000D02*
X7218000Y-15890000D01*
X786000Y-15850000D02*
X2960000Y-15850000D01*
X5040000Y-15850000D02*
X7214000Y-15850000D01*
X790000Y-15810000D02*
X2960000Y-15810000D01*
X5040000Y-15810000D02*
X7210000Y-15810000D01*
X795000Y-15770000D02*
X2960000Y-15770000D01*
X5040000Y-15770000D02*
X7205000Y-15770000D01*
X800000Y-15730000D02*
X2960000Y-15730000D01*
X5040000Y-15730000D02*
X7200000Y-15730000D01*
X805000Y-15690000D02*
X2960000Y-15690000D01*
X5040000Y-15690000D02*
X7195000Y-15690000D01*
X812000Y-15650000D02*
X2960000Y-15650000D01*
X5040000Y-15650000D02*
X7188000Y-15650000D01*
X818000Y-15610000D02*
X2960000Y-15610000D01*
X5040000Y-15610000D02*
X7182000Y-15610000D01*
X826000Y-15570000D02*
X2960000Y-15570000D01*
X5040000Y-15570000D02*
X7174000Y-15570000D01*
X833000Y-15530000D02*
X2960000Y-15530000D01*
X5040000Y-15530000D02*
X7167000Y-15530000D01*
X841000Y-15490000D02*
X2960000Y-15490000D01*
X5040000Y-15490000D02*
X7159000Y-15490000D01*
X850000Y-15450000D02*
X2960000Y-15450000D01*
X5040000Y-15450000D02*
X7150000Y-15450000D01*
X860000Y-15410000D02*
X2960000Y-15410000D01*
X5040000Y-15410000D02*
X7140000Y-15410000D01*
X869000Y-15370000D02*
X2960000Y-15370000D01*
X5040000Y-15370000D02*
X7131000Y-15370000D01*
X880000Y-15330000D02*
X2960000Y-15330000D01*
X5040000Y-15330000D02*
X7120000Y-15330000D01*
X891000Y-15290000D02*
X2960000Y-15290000D01*
X5040000Y-15290000D02*
X7109000Y-15290000D01*
X902000Y-15250000D02*
X2960000Y-15250000D01*
X5040000Y-15250000D02*
X7098000Y-15250000D01*
X914000Y-15210000D02*
X2960000Y-15210000D01*
X5040000Y-15210000D02*
X7086000Y-15210000D01*
X927000Y-15170000D02*
X2960000Y-15170000D01*
X5040000Y-15170000D02*
X7073000Y-15170000D01*
X940000Y-15130000D02*
X2960000Y-15130000D01*
X5040000Y-15130000D02*
X7060000Y-15130000D01*
X953000Y-15090000D02*
X2960000Y-15090000D01*
X5040000Y-15090000D02*
X7047000Y-15090000D01*
X968000Y-15050000D02*
X2960000Y-15050000D01*
X5040000Y-15050000D02*
X7032000Y-15050000D01*
X983000Y-15010000D02*
X2960000Y-15010000D01*
X5040000Y-15010000D02*
X7017000Y-15010000D01*
X998000Y-14970000D02*
X2960000Y-14970000D01*
X5040000Y-14970000D02*
X7002000Y-14970000D01*
X1014000Y-14930000D02*
X2960000Y-14930000D01*
X5040000Y-14930000D02*
X6986000Y-14930000D01*
X1031000Y-14890000D02*
X2960000Y-14890000D01*
X5040000Y-14890000D02*
X6969000Y-14890000D01*
X1048000Y-14850000D02*
X2960000Y-14850000D01*
X5040000Y-14850000D02*
X6952000Y-14850000D01*
X1066000Y-14810000D02*
X2960000Y-14810000D01*
X5040000Y-14810000D02*
X6934000Y-14810000D01*
X1085000Y-14770000D02*
X2960000Y-14770000D01*
X5040000Y-14770000D02*
X6915000Y-14770000D01*
X1104000Y-14730000D02*
X2960000Y-14730000D01*
X5040000Y-14730000D02*
X6896000Y-14730000D01*
X1124000Y-14690000D02*
X2960000Y-14690000D01*
X5040000Y-14690000D02*
X6876000Y-14690000D01*
X1145000Y-14650000D02*
X2960000Y-14650000D01*
X5040000Y-14650000D02*
X6855000Y-14650000D01*
X1166000Y-14610000D02*
X2960000Y-14610000D01*
X5040000Y-14610000D02*
X6834000Y-14610000D01*
X1188000Y-14570000D02*
X2960000Y-14570000D01*
X5040000Y-14570000D02*
X6812000Y-14570000D01*
X1211000Y-14530000D02*
X2960000Y-14530000D01*
X5040000Y-14530000D02*
X6789000Y-14530000D01*
X1235000Y-14490000D02*
X2960000Y-14490000D01*
X5040000Y-14490000D02*
X6765000Y-14490000D01*
X1259000Y-14450000D02*
X2960000Y-14450000D01*
X5040000Y-14450000D02*
X6741000Y-14450000D01*
X1284000Y-14410000D02*
X2960000Y-14410000D01*
X5040000Y-14410000D02*
X6716000Y-14410000D01*
X1310000Y-14370000D02*
X2960000Y-14370000D01*
X5040000Y-14370000D02*
X6690000Y-14370000D01*
X1337000Y-14330000D02*
X2960000Y-14330000D01*
X5040000Y-14330000D02*
X6663000Y-14330000D01*
X1364000Y-14290000D02*
X2960000Y-14290000D01*
X5040000Y-14290000D02*
X6636000Y-14290000D01*
X1393000Y-14250000D02*
X2960000Y-14250000D01*
X5040000Y-14250000D02*
X6607000Y-14250000D01*
X1423000Y-14210000D02*
X2960000Y-14210000D01*
X5040000Y-14210000D02*
X6577000Y-14210000D01*
X1453000Y-14170000D02*
X2960000Y-14170000D01*
X5040000Y-14170000D02*
X6547000Y-14170000D01*
X1484000Y-14130000D02*
X2960000Y-14130000D01*
X5040000Y-14130000D02*
X6516000Y-14130000D01*
X1517000Y-14090000D02*
X2960000Y-14090000D01*
X5040000Y-14090000D02*
X6483000Y-14090000D01*
X1550000Y-14050000D02*
X2960000Y-14050000D01*
X5040000Y-14050000D02*
X6450000Y-14050000D01*
X1585000Y-14010000D02*
X2960000Y-14010000D01*
X5040000Y-14010000D02*
X6415000Y-14010000D01*
X1621000Y-13970000D02*
X2960000Y-13970000D01*
X5040000Y-13970000D02*
X6379000Y-13970000D01*
X1658000Y-13930000D02*
X2960000Y-13930000D01*
X5040000Y-13930000D02*
X6342000Y-13930000D01*
X1696000Y-13890000D02*
X2960000Y-13890000D01*
X5040000Y-13890000D02*
X6304000Y-13890000D01*
X1736000Y-13850000D02*
X6264000Y-13850000D01*
X1777000Y-13810000D02*
X6223000Y-13810000D01*
X1819000Y-13770000D02*
X6181000Y-13770000D01*
X1863000Y-13730000D02*
X6137000Y-13730000D01*
X1909000Y-13690000D02*
X6091000Y-13690000D01*
X1956000Y-13650000D02*
X6044000Y-13650000D01*
X2005000Y-13610000D02*
X5995000Y-13610000D01*
X2057000Y-13570000D02*
X5943000Y-13570000D01*
X2110000Y-13530000D02*
X5890000Y-13530000D01*
X2166000Y-13490000D02*
X5834000Y-13490000D01*
X2225000Y-13450000D02*
X5775000Y-13450000D01*
X2286000Y-13410000D02*
X5714000Y-13410000D01*
X2351000Y-13370000D02*
X5649000Y-13370000D01*
X2419000Y-13330000D02*
X5581000Y-13330000D01*
X2491000Y-13290000D02*
X5509000Y-13290000D01*
X2568000Y-13250000D02*
X5432000Y-13250000D01*
X2650000Y-13210000D02*
X5350000Y-13210000D01*
X2739000Y-13170000D02*
X5261000Y-13170000D01*
X2835000Y-13130000D02*
X5165000Y-13130000D01*
X2942000Y-13090000D02*
X5058000Y-13090000D01*
X3061000Y-13050000D02*
X4939000Y-13050000D01*
X3199000Y-13010000D02*
X4801000Y-13010000D01*
X3367000Y-12970000D02*
X4633000Y-12970000D01*
X3598000Y-12930000D02*
X4402000Y-12930000D01*
X7270000Y-16170000D02*
G75*
G02*
X730000Y-16170000I-3270000J0D01*
G01*
X730000Y-16170000D02*
G75*
G02*
X7270000Y-16170000I3270000J0D01*
G01*
%TO.C,Q2*%
X60390000Y-32640000D02*
X70610000Y-32640000D01*
X60390000Y-34020000D02*
X70610000Y-34020000D01*
X60390000Y-37260000D02*
X60390000Y-32640000D01*
X63650000Y-32640000D02*
X63650000Y-34020000D01*
X67350000Y-32640000D02*
X67350000Y-34020000D01*
X70610000Y-32640000D02*
X70610000Y-37260000D01*
X70610000Y-37260000D02*
X60390000Y-37260000D01*
%TO.C,D2*%
X40975000Y-26455000D02*
X40975000Y-27475000D01*
X42445000Y-28255000D02*
X39505000Y-28255000D01*
X42445000Y-28375000D02*
X39505000Y-28375000D01*
X42445000Y-28495000D02*
X39505000Y-28495000D01*
X40975000Y-33935000D02*
X40975000Y-32915000D01*
X42445000Y-27475000D02*
X39505000Y-27475000D01*
X39505000Y-32915000D01*
X42445000Y-32915000D01*
X42445000Y-27475000D01*
%TO.C,C3*%
X14670000Y-7800000D02*
X9330000Y-7800000D01*
X14670000Y-7106000D02*
X14670000Y-7800000D01*
X14670000Y-4360000D02*
X14670000Y-5054000D01*
X9330000Y-7800000D02*
X9330000Y-7106000D01*
X9330000Y-5054000D02*
X9330000Y-4360000D01*
X9330000Y-4360000D02*
X14670000Y-4360000D01*
%TO.C,R9*%
X58960000Y-9840000D02*
X58190000Y-9840000D01*
X50880000Y-9840000D02*
X51650000Y-9840000D01*
X58190000Y-11210000D02*
X51650000Y-11210000D01*
X51650000Y-8470000D01*
X58190000Y-8470000D01*
X58190000Y-11210000D01*
%TO.C,J1*%
X620000Y-22000000D02*
X2000000Y-22000000D01*
X620000Y-23380000D02*
X620000Y-22000000D01*
X620000Y-24650000D02*
X620000Y-37460000D01*
X620000Y-24650000D02*
X3380000Y-24650000D01*
X620000Y-37460000D02*
X3380000Y-37460000D01*
X3380000Y-24650000D02*
X3380000Y-37460000D01*
%TO.C,Q4*%
X60350000Y-16580000D02*
X70570000Y-16580000D01*
X60350000Y-17960000D02*
X70570000Y-17960000D01*
X60350000Y-21200000D02*
X60350000Y-16580000D01*
X63610000Y-16580000D02*
X63610000Y-17960000D01*
X67310000Y-16580000D02*
X67310000Y-17960000D01*
X70570000Y-16580000D02*
X70570000Y-21200000D01*
X70570000Y-21200000D02*
X60350000Y-21200000D01*
%TO.C,R11*%
X51040000Y-13840000D02*
X51810000Y-13840000D01*
X59120000Y-13840000D02*
X58350000Y-13840000D01*
X51810000Y-12470000D02*
X58350000Y-12470000D01*
X58350000Y-15210000D01*
X51810000Y-15210000D01*
X51810000Y-12470000D01*
%TO.C,D5*%
X58820000Y-5840000D02*
X57800000Y-5840000D01*
X57020000Y-7310000D02*
X57020000Y-4370000D01*
X56900000Y-7310000D02*
X56900000Y-4370000D01*
X56780000Y-7310000D02*
X56780000Y-4370000D01*
X51340000Y-5840000D02*
X52360000Y-5840000D01*
X57800000Y-7310000D02*
X52360000Y-7310000D01*
X52360000Y-4370000D01*
X57800000Y-4370000D01*
X57800000Y-7310000D01*
%TO.C,Q1*%
X49390000Y-32590000D02*
X59610000Y-32590000D01*
X49390000Y-33970000D02*
X59610000Y-33970000D01*
X49390000Y-37210000D02*
X49390000Y-32590000D01*
X52650000Y-32590000D02*
X52650000Y-33970000D01*
X56350000Y-32590000D02*
X56350000Y-33970000D01*
X59610000Y-32590000D02*
X59610000Y-37210000D01*
X59610000Y-37210000D02*
X49390000Y-37210000D01*
%TO.C,D6*%
X72660000Y-10000000D02*
X71640000Y-10000000D01*
X70860000Y-11470000D02*
X70860000Y-8530000D01*
X70740000Y-11470000D02*
X70740000Y-8530000D01*
X70620000Y-11470000D02*
X70620000Y-8530000D01*
X65180000Y-10000000D02*
X66200000Y-10000000D01*
X71640000Y-11470000D02*
X66200000Y-11470000D01*
X66200000Y-8530000D01*
X71640000Y-8530000D01*
X71640000Y-11470000D01*
%TO.C,C2*%
X14670000Y-25720000D02*
X9330000Y-25720000D01*
X14670000Y-25026000D02*
X14670000Y-25720000D01*
X14670000Y-22280000D02*
X14670000Y-22974000D01*
X9330000Y-25720000D02*
X9330000Y-25026000D01*
X9330000Y-22974000D02*
X9330000Y-22280000D01*
X9330000Y-22280000D02*
X14670000Y-22280000D01*
%TO.C,D1*%
X41000000Y-9340000D02*
X41000000Y-10360000D01*
X42470000Y-11140000D02*
X39530000Y-11140000D01*
X42470000Y-11260000D02*
X39530000Y-11260000D01*
X42470000Y-11380000D02*
X39530000Y-11380000D01*
X41000000Y-16820000D02*
X41000000Y-15800000D01*
X42470000Y-10360000D02*
X39530000Y-10360000D01*
X39530000Y-15800000D01*
X42470000Y-15800000D01*
X42470000Y-10360000D01*
%TO.C,Q3*%
X49350000Y-16580000D02*
X59570000Y-16580000D01*
X49350000Y-17960000D02*
X59570000Y-17960000D01*
X49350000Y-21200000D02*
X49350000Y-16580000D01*
X52610000Y-16580000D02*
X52610000Y-17960000D01*
X56310000Y-16580000D02*
X56310000Y-17960000D01*
X59570000Y-16580000D02*
X59570000Y-21200000D01*
X59570000Y-21200000D02*
X49350000Y-21200000D01*
%TO.C,R7*%
X51040000Y-40000000D02*
X51810000Y-40000000D01*
X59120000Y-40000000D02*
X58350000Y-40000000D01*
X51810000Y-38630000D02*
X58350000Y-38630000D01*
X58350000Y-41370000D01*
X51810000Y-41370000D01*
X51810000Y-38630000D01*
%TD*%
%LPC*%
D14*
%TO.C,H3*%
X4000000Y-4000000D03*
%TD*%
D15*
%TO.C,C5*%
X35000000Y-29000000D03*
D16*
X35000000Y-26500000D03*
%TD*%
D15*
%TO.C,R1*%
X14000000Y-20080000D03*
X14000000Y-9920000D03*
%TD*%
%TO.C,R2*%
X10000000Y-9920000D03*
X10000000Y-20080000D03*
%TD*%
%TO.C,R4*%
X10000000Y-27920000D03*
X10000000Y-38080000D03*
%TD*%
%TO.C,R3*%
X14050000Y-38080000D03*
X14050000Y-27920000D03*
%TD*%
%TO.C,R12*%
X73840000Y-6160000D03*
X63680000Y-6160000D03*
%TD*%
%TO.C,C6*%
X29000000Y-8000000D03*
X29000000Y-13000000D03*
%TD*%
D16*
%TO.C,C4*%
X35000000Y-9000000D03*
D15*
X35000000Y-11500000D03*
%TD*%
D17*
%TO.C,J3*%
X76700000Y-24500000D03*
D18*
X76700000Y-29500000D03*
%TD*%
D15*
%TO.C,C7*%
X29000000Y-25500000D03*
X29000000Y-30500000D03*
%TD*%
D19*
%TO.C,J2*%
X39550000Y-43350000D03*
D20*
X34550000Y-43350000D03*
%TD*%
D15*
%TO.C,R5*%
X60160000Y-44000000D03*
X50000000Y-44000000D03*
%TD*%
D21*
%TO.C,D4*%
X73160000Y-44000000D03*
D22*
X63000000Y-44000000D03*
%TD*%
D15*
%TO.C,R6*%
X73080000Y-40000000D03*
X62920000Y-40000000D03*
%TD*%
D14*
%TO.C,H4*%
X4000000Y-50000000D03*
%TD*%
D23*
%TO.C,U2*%
X24805000Y-39620000D03*
D15*
X24805000Y-37080000D03*
X24805000Y-34540000D03*
X24805000Y-32000000D03*
X24805000Y-29460000D03*
X24805000Y-26920000D03*
X24805000Y-24380000D03*
X17185000Y-24380000D03*
X17185000Y-26920000D03*
X17185000Y-29460000D03*
X17185000Y-32000000D03*
X17185000Y-34540000D03*
X17185000Y-37080000D03*
X17185000Y-39620000D03*
%TD*%
D23*
%TO.C,U1*%
X25000000Y-20700000D03*
D15*
X25000000Y-18160000D03*
X25000000Y-15620000D03*
X25000000Y-13080000D03*
X25000000Y-10540000D03*
X25000000Y-8000000D03*
X25000000Y-5460000D03*
X17380000Y-5460000D03*
X17380000Y-8000000D03*
X17380000Y-10540000D03*
X17380000Y-13080000D03*
X17380000Y-15620000D03*
X17380000Y-18160000D03*
X17380000Y-20700000D03*
%TD*%
%TO.C,R8*%
X62920000Y-48000000D03*
X73080000Y-48000000D03*
%TD*%
%TO.C,R10*%
X74000000Y-14000000D03*
X63840000Y-14000000D03*
%TD*%
D21*
%TO.C,D3*%
X60080000Y-48000000D03*
D22*
X49920000Y-48000000D03*
%TD*%
D24*
%TO.C,C1*%
X4000000Y-17420000D03*
D15*
X4000000Y-14920000D03*
%TD*%
D25*
%TO.C,Q2*%
X62960000Y-35900000D03*
D26*
X65500000Y-35900000D03*
X68040000Y-35900000D03*
%TD*%
D14*
%TO.C,H1*%
X83000000Y-4000000D03*
%TD*%
D27*
%TO.C,D2*%
X40975000Y-25115000D03*
D22*
X40975000Y-35275000D03*
%TD*%
D15*
%TO.C,C3*%
X14500000Y-6080000D03*
X9500000Y-6080000D03*
%TD*%
%TO.C,R9*%
X60000000Y-9840000D03*
X49840000Y-9840000D03*
%TD*%
D28*
%TO.C,J1*%
X2000000Y-23380000D03*
D29*
X2000000Y-25920000D03*
X2000000Y-28460000D03*
X2000000Y-31000000D03*
X2000000Y-33540000D03*
X2000000Y-36080000D03*
%TD*%
D25*
%TO.C,Q4*%
X62920000Y-19840000D03*
D26*
X65460000Y-19840000D03*
X68000000Y-19840000D03*
%TD*%
D15*
%TO.C,R11*%
X50000000Y-13840000D03*
X60160000Y-13840000D03*
%TD*%
D21*
%TO.C,D5*%
X60160000Y-5840000D03*
D22*
X50000000Y-5840000D03*
%TD*%
D14*
%TO.C,H2*%
X83000000Y-50000000D03*
%TD*%
D25*
%TO.C,Q1*%
X51960000Y-35850000D03*
D26*
X54500000Y-35850000D03*
X57040000Y-35850000D03*
%TD*%
D21*
%TO.C,D6*%
X74000000Y-10000000D03*
D22*
X63840000Y-10000000D03*
%TD*%
D15*
%TO.C,C2*%
X14500000Y-24000000D03*
X9500000Y-24000000D03*
%TD*%
D27*
%TO.C,D1*%
X41000000Y-8000000D03*
D22*
X41000000Y-18160000D03*
%TD*%
D25*
%TO.C,Q3*%
X51920000Y-19840000D03*
D26*
X54460000Y-19840000D03*
X57000000Y-19840000D03*
%TD*%
D15*
%TO.C,R7*%
X50000000Y-40000000D03*
X60160000Y-40000000D03*
%TD*%
%LPD*%
M02*
