%TF.GenerationSoftware,KiCad,Pcbnew,9.0.4*%
%TF.CreationDate,2025-09-15T17:12:10-07:00*%
%TF.ProjectId,motordriver,6d6f746f-7264-4726-9976-65722e6b6963,rev?*%
%TF.SameCoordinates,Original*%
%TF.FileFunction,Soldermask,Top*%
%TF.FilePolarity,Negative*%
%FSLAX46Y46*%
G04 Gerber Fmt 4.6, Leading zero omitted, Abs format (unit mm)*
G04 Created by KiCad (PCBNEW 9.0.4) date 2025-09-15 17:12:10*
%MOMM*%
%LPD*%
G01*
G04 APERTURE LIST*
G04 Aperture macros list*
%AMRoundRect*
0 Rectangle with rounded corners*
0 $1 Rounding radius*
0 $2 $3 $4 $5 $6 $7 $8 $9 X,Y pos of 4 corners*
0 Add a 4 corners polygon primitive as box body*
4,1,4,$2,$3,$4,$5,$6,$7,$8,$9,$2,$3,0*
0 Add four circle primitives for the rounded corners*
1,1,$1+$1,$2,$3*
1,1,$1+$1,$4,$5*
1,1,$1+$1,$6,$7*
1,1,$1+$1,$8,$9*
0 Add four rect primitives between the rounded corners*
20,1,$1+$1,$2,$3,$4,$5,0*
20,1,$1+$1,$4,$5,$6,$7,0*
20,1,$1+$1,$6,$7,$8,$9,0*
20,1,$1+$1,$8,$9,$2,$3,0*%
G04 Aperture macros list end*
%ADD10C,1.600000*%
%ADD11RoundRect,0.250000X-0.550000X0.550000X-0.550000X-0.550000X0.550000X-0.550000X0.550000X0.550000X0*%
%ADD12O,3.600000X2.000000*%
%ADD13RoundRect,0.250000X1.550000X-0.750000X1.550000X0.750000X-1.550000X0.750000X-1.550000X-0.750000X0*%
%ADD14O,2.000000X3.600000*%
%ADD15RoundRect,0.250000X-0.750000X-1.550000X0.750000X-1.550000X0.750000X1.550000X-0.750000X1.550000X0*%
%ADD16RoundRect,0.249999X0.850001X0.850001X-0.850001X0.850001X-0.850001X-0.850001X0.850001X-0.850001X0*%
%ADD17C,2.200000*%
%ADD18RoundRect,0.250000X0.550000X0.550000X-0.550000X0.550000X-0.550000X-0.550000X0.550000X-0.550000X0*%
%ADD19RoundRect,0.250000X0.550000X-0.550000X0.550000X0.550000X-0.550000X0.550000X-0.550000X-0.550000X0*%
%ADD20R,1.905000X2.000000*%
%ADD21O,1.905000X2.000000*%
%ADD22RoundRect,0.249999X-0.850001X0.850001X-0.850001X-0.850001X0.850001X-0.850001X0.850001X0.850001X0*%
%ADD23R,1.700000X1.700000*%
%ADD24C,1.700000*%
G04 APERTURE END LIST*
D10*
%TO.C,C5*%
X35000000Y-29000000D03*
D11*
X35000000Y-26500000D03*
%TD*%
D10*
%TO.C,R1*%
X14000000Y-20080000D03*
X14000000Y-9920000D03*
%TD*%
%TO.C,R2*%
X10000000Y-9920000D03*
X10000000Y-20080000D03*
%TD*%
%TO.C,R4*%
X10000000Y-27920000D03*
X10000000Y-38080000D03*
%TD*%
%TO.C,R3*%
X14050000Y-38080000D03*
X14050000Y-27920000D03*
%TD*%
%TO.C,R12*%
X73840000Y-6160000D03*
X63680000Y-6160000D03*
%TD*%
%TO.C,C6*%
X29000000Y-8000000D03*
X29000000Y-13000000D03*
%TD*%
D11*
%TO.C,C4*%
X35000000Y-9000000D03*
D10*
X35000000Y-11500000D03*
%TD*%
D12*
%TO.C,J3*%
X76700000Y-24500000D03*
D13*
X76700000Y-29500000D03*
%TD*%
D10*
%TO.C,C7*%
X29000000Y-25500000D03*
X29000000Y-30500000D03*
%TD*%
D14*
%TO.C,J2*%
X39550000Y-43350000D03*
D15*
X34550000Y-43350000D03*
%TD*%
D10*
%TO.C,R5*%
X60160000Y-44000000D03*
X50000000Y-44000000D03*
%TD*%
D16*
%TO.C,D4*%
X73160000Y-44000000D03*
D17*
X63000000Y-44000000D03*
%TD*%
D10*
%TO.C,R6*%
X73080000Y-40000000D03*
X62920000Y-40000000D03*
%TD*%
D18*
%TO.C,U2*%
X24805000Y-39620000D03*
D10*
X24805000Y-37080000D03*
X24805000Y-34540000D03*
X24805000Y-32000000D03*
X24805000Y-29460000D03*
X24805000Y-26920000D03*
X24805000Y-24380000D03*
X17185000Y-24380000D03*
X17185000Y-26920000D03*
X17185000Y-29460000D03*
X17185000Y-32000000D03*
X17185000Y-34540000D03*
X17185000Y-37080000D03*
X17185000Y-39620000D03*
%TD*%
D18*
%TO.C,U1*%
X25000000Y-20700000D03*
D10*
X25000000Y-18160000D03*
X25000000Y-15620000D03*
X25000000Y-13080000D03*
X25000000Y-10540000D03*
X25000000Y-8000000D03*
X25000000Y-5460000D03*
X17380000Y-5460000D03*
X17380000Y-8000000D03*
X17380000Y-10540000D03*
X17380000Y-13080000D03*
X17380000Y-15620000D03*
X17380000Y-18160000D03*
X17380000Y-20700000D03*
%TD*%
%TO.C,R8*%
X62920000Y-48000000D03*
X73080000Y-48000000D03*
%TD*%
%TO.C,R10*%
X74000000Y-14000000D03*
X63840000Y-14000000D03*
%TD*%
D16*
%TO.C,D3*%
X60080000Y-48000000D03*
D17*
X49920000Y-48000000D03*
%TD*%
D19*
%TO.C,C1*%
X4000000Y-17420000D03*
D10*
X4000000Y-14920000D03*
%TD*%
D20*
%TO.C,Q2*%
X62960000Y-35900000D03*
D21*
X65500000Y-35900000D03*
X68040000Y-35900000D03*
%TD*%
D22*
%TO.C,D2*%
X40975000Y-25115000D03*
D17*
X40975000Y-35275000D03*
%TD*%
D10*
%TO.C,C3*%
X14500000Y-6080000D03*
X9500000Y-6080000D03*
%TD*%
%TO.C,R9*%
X60000000Y-9840000D03*
X49840000Y-9840000D03*
%TD*%
D23*
%TO.C,J1*%
X2000000Y-23380000D03*
D24*
X2000000Y-25920000D03*
X2000000Y-28460000D03*
X2000000Y-31000000D03*
X2000000Y-33540000D03*
X2000000Y-36080000D03*
%TD*%
D20*
%TO.C,Q4*%
X62920000Y-19840000D03*
D21*
X65460000Y-19840000D03*
X68000000Y-19840000D03*
%TD*%
D10*
%TO.C,R11*%
X50000000Y-13840000D03*
X60160000Y-13840000D03*
%TD*%
D16*
%TO.C,D5*%
X60160000Y-5840000D03*
D17*
X50000000Y-5840000D03*
%TD*%
D20*
%TO.C,Q1*%
X51960000Y-35850000D03*
D21*
X54500000Y-35850000D03*
X57040000Y-35850000D03*
%TD*%
D16*
%TO.C,D6*%
X74000000Y-10000000D03*
D17*
X63840000Y-10000000D03*
%TD*%
D10*
%TO.C,C2*%
X14500000Y-24000000D03*
X9500000Y-24000000D03*
%TD*%
D22*
%TO.C,D1*%
X41000000Y-8000000D03*
D17*
X41000000Y-18160000D03*
%TD*%
D20*
%TO.C,Q3*%
X51920000Y-19840000D03*
D21*
X54460000Y-19840000D03*
X57000000Y-19840000D03*
%TD*%
D10*
%TO.C,R7*%
X50000000Y-40000000D03*
X60160000Y-40000000D03*
%TD*%
M02*
